<?xml version="1.0" encoding="utf-8"?>
<!-- Generator: Adobe Illustrator 23.0.1, SVG Export Plug-In . SVG Version: 6.00 Build 0)  -->
<svg version="1.2" baseProfile="tiny" id="Layer_1" xmlns="http://www.w3.org/2000/svg" xmlns:xlink="http://www.w3.org/1999/xlink"
	 x="0px" y="0px" width="40px" height="40px" viewBox="0 0 40 40" xml:space="preserve">
<g>
	<path fill="#58595B" d="M32.8,26.2c-2.9-5.4-7.4-8.9-9.7-7.6l-0.4-0.7c2.8-1.5,7.5,2,10.7,7.9L32.8,26.2z"/>
	<path fill="#E5DED7" d="M30.6,20.4l-2.2,0.1c-0.5,0-0.9-0.4-0.9-0.8v0c0-0.5,0.4-0.9,0.8-0.9l2.2-0.1c0.5,0,0.9,0.4,0.9,0.8l0,0
		C31.5,20,31.1,20.4,30.6,20.4z"/>
	<path fill="#414042" d="M8.3,18c0.1-0.1,0.1-0.1,0.1-0.2l0.4-1.4c0.1-0.2-0.1-0.4-0.3-0.5C8.3,15.8,8.1,16,8,16.2l-0.4,1.4
		C7.6,17.8,7.8,18,8,18.1C8.1,18.1,8.2,18.1,8.3,18z"/>
	<path fill="#414042" d="M7.5,18.3C7.5,18.2,7.6,18.2,7.5,18.3c0.2-0.2,0.2-0.5,0-0.6l-1.8-1.7c-0.2-0.2-0.4-0.1-0.6,0
		c-0.2,0.2-0.1,0.4,0,0.6L7,18.2C7.1,18.4,7.4,18.4,7.5,18.3z"/>
	<path fill="#414042" d="M7.1,18.7c0,0,0.1-0.1,0.1-0.1c0.1-0.2,0.1-0.4-0.1-0.6l-2.2-1.3c-0.2-0.1-0.4-0.1-0.6,0.1
		c-0.1,0.2-0.1,0.4,0.1,0.6l2.2,1.3C6.8,18.8,7,18.8,7.1,18.7z"/>
	<path fill="#414042" d="M7,19.3c0.1-0.1,0.1-0.1,0.1-0.2c0.1-0.2-0.1-0.4-0.3-0.5l-2.4-0.6C4.3,17.9,4.1,18,4,18.2
		c-0.1,0.2,0.1,0.4,0.3,0.5l2.4,0.6C6.8,19.4,6.9,19.4,7,19.3z"/>
	<path fill="#414042" d="M7.4,19.7c0.1-0.1,0.2-0.2,0.2-0.4c0-0.2-0.2-0.4-0.5-0.3l-2.3,0.3c-0.2,0-0.4,0.2-0.3,0.5
		c0,0.2,0.2,0.4,0.5,0.3l2.3-0.3C7.3,19.8,7.4,19.8,7.4,19.7z"/>
	<path fill="#58595B" d="M15.3,20.5c0,0,0.1-0.1,0.1-0.1l-0.6-0.7c-0.9,0.7-1.8,1-2.7,0.9c-1.1-0.1-2.3-0.7-3.7-1.9l-0.6,0.7
		c1.5,1.3,2.9,2,4.2,2.1C13.2,21.6,14.2,21.3,15.3,20.5z"/>
	<path fill="#E5DED7" d="M8.6,17.7c0.5,0.7,0.4,1.6-0.3,2.1c-0.7,0.5-1.6,0.4-2.1-0.3c-0.5-0.7-0.4-1.6,0.3-2.1
		C7.2,16.9,8.1,17,8.6,17.7z"/>
	<path fill="#E5DED7" d="M12.3,20.4l2.9,0.3c0.3,0,0.5-0.2,0.5-0.4l0.1-0.8c0-0.3-0.2-0.5-0.4-0.5l-2.9-0.3c-0.3,0-0.5,0.2-0.5,0.4
		l-0.1,0.8C11.9,20.2,12,20.4,12.3,20.4z"/>
	<path fill="#414042" d="M17.5,31c0,0-3.2,1.4-3.5,3c-0.3,1.6,3.9,1.2,3.9,1.2s2.4-0.2,2.9-1.1c0.5-0.9,0.4-3.1-0.2-3.1
		C20,30.9,18.2,30.6,17.5,31z"/>
	<path fill="#414042" d="M25.8,31c0,0,3.2,1.4,3.5,3c0.3,1.6-3.9,1.2-3.9,1.2s-2.4-0.2-2.9-1.1c-0.5-0.9-0.4-3.1,0.2-3.1
		C23.3,30.9,25,30.6,25.8,31z"/>
	<path fill="#414042" d="M29.4,29.9V17.8c0-0.3-0.1-0.6-0.4-0.9l-0.5-0.5c-0.2-0.2-0.5-0.4-0.9-0.4H15.6c-0.3,0-0.6,0.1-0.9,0.4
		L14.2,17c-0.2,0.2-0.4,0.5-0.4,0.9v12.1c0,0.3,0.1,0.6,0.4,0.9l0.5,0.5c0.2,0.2,0.5,0.4,0.9,0.4h12.1c0.3,0,0.6-0.1,0.9-0.4
		l0.5-0.5C29.3,30.6,29.4,30.2,29.4,29.9z"/>
	<path fill="#E5DED7" d="M21.6,30.5L21.6,30.5c-3.6,0-6.6-3-6.6-6.6v0c0-3.6,3-6.6,6.6-6.6h0c3.6,0,6.6,3,6.6,6.6v0
		C28.2,27.5,25.3,30.5,21.6,30.5z"/>
	<path fill="#414042" d="M19,20.8c0,0.2-0.2,0.4-0.4,0.4c-0.2,0-0.4-0.2-0.4-0.4c0-0.2,0.2-0.4,0.4-0.4C18.8,20.4,19,20.6,19,20.8z"
		/>
	<path fill="#414042" d="M21,20.8c0,0.2-0.2,0.4-0.4,0.4c-0.2,0-0.4-0.2-0.4-0.4c0-0.2,0.2-0.4,0.4-0.4C20.8,20.4,21,20.6,21,20.8z"
		/>
	<path fill="#414042" d="M23.1,20.8c0,0.2-0.2,0.4-0.4,0.4c-0.2,0-0.4-0.2-0.4-0.4c0-0.2,0.2-0.4,0.4-0.4
		C22.9,20.4,23.1,20.6,23.1,20.8z"/>
	<path fill="#414042" d="M25.1,20.8c0,0.2-0.2,0.4-0.4,0.4c-0.2,0-0.4-0.2-0.4-0.4c0-0.2,0.2-0.4,0.4-0.4
		C24.9,20.4,25.1,20.6,25.1,20.8z"/>
	<path fill="#414042" d="M19,22.8c0,0.2-0.2,0.4-0.4,0.4c-0.2,0-0.4-0.2-0.4-0.4c0-0.2,0.2-0.4,0.4-0.4C18.8,22.4,19,22.6,19,22.8z"
		/>
	<path fill="#414042" d="M21.3,22.8c0,0.4-0.3,0.6-0.6,0.6c-0.4,0-0.6-0.3-0.6-0.6c0-0.4,0.3-0.6,0.6-0.6
		C21,22.2,21.3,22.5,21.3,22.8z"/>
	<path fill="#414042" d="M23.3,22.8c0,0.4-0.3,0.6-0.6,0.6c-0.4,0-0.6-0.3-0.6-0.6c0-0.4,0.3-0.6,0.6-0.6
		C23,22.2,23.3,22.5,23.3,22.8z"/>
	<path fill="#414042" d="M25.1,22.8c0,0.2-0.2,0.4-0.4,0.4c-0.2,0-0.4-0.2-0.4-0.4c0-0.2,0.2-0.4,0.4-0.4
		C24.9,22.4,25.1,22.6,25.1,22.8z"/>
	<path fill="#414042" d="M19,24.9c0,0.2-0.2,0.4-0.4,0.4c-0.2,0-0.4-0.2-0.4-0.4c0-0.2,0.2-0.4,0.4-0.4C18.8,24.5,19,24.7,19,24.9z"
		/>
	<path fill="#414042" d="M21.3,24.9c0,0.4-0.3,0.6-0.6,0.6c-0.4,0-0.6-0.3-0.6-0.6c0-0.4,0.3-0.6,0.6-0.6
		C21,24.3,21.3,24.5,21.3,24.9z"/>
	<path fill="#414042" d="M23.3,24.9c0,0.4-0.3,0.6-0.6,0.6c-0.4,0-0.6-0.3-0.6-0.6c0-0.4,0.3-0.6,0.6-0.6
		C23,24.3,23.3,24.5,23.3,24.9z"/>
	<path fill="#414042" d="M25.1,24.9c0,0.2-0.2,0.4-0.4,0.4c-0.2,0-0.4-0.2-0.4-0.4c0-0.2,0.2-0.4,0.4-0.4
		C24.9,24.5,25.1,24.7,25.1,24.9z"/>
	<path fill="#414042" d="M19,27c0,0.2-0.2,0.4-0.4,0.4c-0.2,0-0.4-0.2-0.4-0.4c0-0.2,0.2-0.4,0.4-0.4C18.8,26.5,19,26.7,19,27z"/>
	<path fill="#414042" d="M21,27c0,0.2-0.2,0.4-0.4,0.4c-0.2,0-0.4-0.2-0.4-0.4c0-0.2,0.2-0.4,0.4-0.4C20.8,26.5,21,26.7,21,27z"/>
	<path fill="#414042" d="M23.1,27c0,0.2-0.2,0.4-0.4,0.4c-0.2,0-0.4-0.2-0.4-0.4c0-0.2,0.2-0.4,0.4-0.4C22.9,26.5,23.1,26.7,23.1,27
		z"/>
	<path fill="#414042" d="M25.1,27c0,0.2-0.2,0.4-0.4,0.4c-0.2,0-0.4-0.2-0.4-0.4c0-0.2,0.2-0.4,0.4-0.4C24.9,26.5,25.1,26.7,25.1,27
		z"/>
	<path fill="#414042" d="M23.1,6.2c0,0.8-0.6,1.4-1.4,1.4c-0.8,0-1.4-0.6-1.4-1.4c0-0.8,0.6-1.4,1.4-1.4C22.5,4.8,23.1,5.4,23.1,6.2
		z"/>
	<path fill="#939598" d="M22.3,10.5h-1.2c0,0-0.1,0-0.1-0.1L21.3,7c0-0.2,0.2-0.4,0.4-0.4l0,0c0.2,0,0.4,0.2,0.4,0.4L22.3,10.5
		C22.4,10.5,22.3,10.5,22.3,10.5z"/>
	<path fill="#414042" d="M25.2,10.4h-7c-1.6,0-2.9,1.3-2.9,2.9c0,1.6,1.3,2.9,2.9,2.9h0.9c1.4,0,2.6-1.1,2.6-2.6
		c0,1.4,1.1,2.6,2.6,2.6h0.9c1.6,0,2.9-1.3,2.9-2.9C28,11.7,26.8,10.4,25.2,10.4z"/>
	<path fill="#FFFFFF" d="M20.6,13.3c0,1.2-1,2.2-2.2,2.2c-1.2,0-2.2-1-2.2-2.2c0-1.2,1-2.2,2.2-2.2C19.7,11.1,20.6,12.1,20.6,13.3z"
		/>
	<path fill="#CDCECF" d="M18.5,15.1c-1.1,0-2.1-0.9-2.1-2c0,0.1,0,0.1,0,0.2c0,1.2,1,2.2,2.2,2.2c1.2,0,2.2-1,2.2-2.2
		c0-0.1,0-0.1,0-0.2C20.6,14.2,19.6,15.1,18.5,15.1z"/>
	<path fill="#58595B" d="M20.4,13.4c0,0.8-0.6,1.5-1.5,1.5c-0.8,0-1.5-0.6-1.5-1.5c0-0.8,0.6-1.5,1.5-1.5
		C19.7,11.9,20.4,12.6,20.4,13.4z"/>
	<path fill="#262262" d="M18.9,14.4c-0.7,0-1.4-0.6-1.4-1.3c0,0.1,0,0.1,0,0.2c0,0.8,0.6,1.5,1.5,1.5c0.8,0,1.5-0.6,1.5-1.5
		c0-0.1,0-0.1,0-0.2C20.3,13.9,19.7,14.4,18.9,14.4z"/>
	<path fill="#000100" d="M19.4,13.4c0,0.2-0.2,0.4-0.4,0.4c-0.2,0-0.4-0.2-0.4-0.4c0-0.2,0.2-0.4,0.4-0.4
		C19.2,12.9,19.4,13.1,19.4,13.4z"/>
	<path fill="#FFFFFF" d="M19.7,14c0,0.1-0.1,0.2-0.2,0.2s-0.2-0.1-0.2-0.2c0-0.1,0.1-0.2,0.2-0.2S19.7,13.9,19.7,14z"/>
	<path fill="#FFFFFF" d="M18.5,12.2c-0.3,0-0.6,0.2-0.7,0.5c0,0.2,0.2,0.3,0.4,0.3c0.2,0,0.4-0.2,0.4-0.4
		C18.7,12.4,18.6,12.3,18.5,12.2z"/>
	<path fill="#FFFFFF" d="M27.2,13.3c0,1.2-1,2.2-2.2,2.2c-1.2,0-2.2-1-2.2-2.2c0-1.2,1-2.2,2.2-2.2C26.2,11.1,27.2,12.1,27.2,13.3z"
		/>
	<path fill="#CDCECF" d="M25,15.1c-1.1,0-2.1-0.9-2.1-2c0,0.1,0,0.1,0,0.2c0,1.2,1,2.2,2.2,2.2c1.2,0,2.2-1,2.2-2.2
		c0-0.1,0-0.1,0-0.2C27.1,14.2,26.1,15.1,25,15.1z"/>
	<path fill="#58595B" d="M26.8,13.4c0,0.8-0.6,1.5-1.5,1.5c-0.8,0-1.5-0.6-1.5-1.5c0-0.8,0.6-1.5,1.5-1.5
		C26.2,11.9,26.8,12.6,26.8,13.4z"/>
	<path fill="#262262" d="M25.4,14.4c-0.7,0-1.4-0.6-1.4-1.3c0,0.1,0,0.1,0,0.2c0,0.8,0.6,1.5,1.5,1.5c0.8,0,1.5-0.6,1.5-1.5
		c0-0.1,0-0.1,0-0.2C26.7,13.9,26.1,14.4,25.4,14.4z"/>
	<path fill="#000100" d="M25.8,13.4c0,0.2-0.2,0.4-0.4,0.4c-0.2,0-0.4-0.2-0.4-0.4c0-0.2,0.2-0.4,0.4-0.4
		C25.6,12.9,25.8,13.1,25.8,13.4z"/>
	<path fill="#FFFFFF" d="M26.1,14c0,0.1-0.1,0.2-0.2,0.2c-0.1,0-0.2-0.1-0.2-0.2c0-0.1,0.1-0.2,0.2-0.2C26,13.8,26.1,13.9,26.1,14z"
		/>
	<path fill="#FFFFFF" d="M24.9,12.2c-0.3,0-0.6,0.2-0.7,0.5c0,0.2,0.2,0.3,0.4,0.3c0.2,0,0.4-0.2,0.4-0.4
		C25.1,12.4,25,12.3,24.9,12.2z"/>
	<path fill="#E5DED7" d="M27.5,11.1H15.9c-0.3,0-0.6-0.3-0.6-0.6l0,0c0-0.3,0.3-0.6,0.6-0.6h11.6c0.3,0,0.6,0.3,0.6,0.6l0,0
		C28,10.8,27.8,11.1,27.5,11.1z"/>
	<path fill="#414042" d="M31.9,26.1c-0.1,0-0.2,0-0.3,0.1L30.4,27c-0.2,0.1-0.2,0.4-0.1,0.6c0.1,0.2,0.4,0.2,0.6,0.1l1.2-0.8
		c0.2-0.1,0.2-0.4,0.1-0.6C32.1,26.2,32,26.1,31.9,26.1z"/>
	<path fill="#414042" d="M32.7,26.4C32.6,26.4,32.6,26.4,32.7,26.4c-0.3,0-0.5,0.2-0.4,0.4l0.2,2.5c0,0.2,0.2,0.4,0.4,0.4
		c0.2,0,0.4-0.2,0.4-0.4L33,26.8C33,26.6,32.8,26.4,32.7,26.4z"/>
	<path fill="#414042" d="M33.3,26.3c-0.1,0-0.1,0-0.2,0c-0.2,0.1-0.3,0.3-0.3,0.5l0.8,2.4c0.1,0.2,0.3,0.3,0.5,0.3
		c0.2-0.1,0.3-0.3,0.3-0.5l-0.8-2.4C33.6,26.5,33.4,26.4,33.3,26.3z"/>
	<path fill="#414042" d="M33.7,26c-0.1,0-0.2,0-0.3,0.1c-0.2,0.1-0.2,0.4-0.1,0.6l1.4,2.1c0.1,0.2,0.4,0.2,0.6,0.1
		c0.2-0.1,0.2-0.4,0.1-0.6L34,26.1C33.9,26,33.8,26,33.7,26z"/>
	<path fill="#414042" d="M33.7,25.4c-0.1,0-0.3,0.1-0.4,0.2c-0.1,0.2-0.1,0.4,0.1,0.6l1.9,1.3c0.2,0.1,0.4,0.1,0.6-0.1
		c0.1-0.2,0.1-0.4-0.1-0.6l-1.9-1.3C33.8,25.4,33.8,25.4,33.7,25.4z"/>
	<path fill="#E5DED7" d="M31.5,26.1c0.1-0.8,0.8-1.4,1.6-1.4c0.8,0.1,1.4,0.8,1.4,1.6c-0.1,0.8-0.8,1.4-1.6,1.4
		C32,27.6,31.4,26.9,31.5,26.1z"/>
</g>
</svg>
