<?xml version="1.0" encoding="utf-8"?>
<!-- Generator: Adobe Illustrator 23.0.1, SVG Export Plug-In . SVG Version: 6.00 Build 0)  -->
<svg version="1.2" baseProfile="tiny" id="Layer_1" xmlns="http://www.w3.org/2000/svg" xmlns:xlink="http://www.w3.org/1999/xlink"
	 x="0px" y="0px" width="40px" height="40px" viewBox="0 0 40 40" xml:space="preserve">
<path display="none" fill="#FFFFFF" d="M6.4,11.6v16L20,34V17.2L6.4,11.6z M17.4,30.5l-1.8-0.8l0.2-7.5l0,0l-2.4,6.5L12.1,28l-2-8.6
	l0,0L9.9,27L8,26.2l0.3-11.1l2.4,1.1l2.1,9.2l0,0l2.5-7.1l2.4,1.1L17.4,30.5z M20,17.2V34l13.6-6.4v-16L20,17.2z M24.2,29.3l0-11
	l2-0.9l0,9.3l4.4-2l0,1.7L24.2,29.3z M17,10.2C17,10.2,17.1,10.2,17,10.2c0.1,0.1,0.1,0.1,0.1,0.1L17,10.9c-0.1,0-0.2,0-0.2,0.1
	c0,0,0,0,0,0l-1.7-0.5L17,10.2z M17.4,9.8L17.4,9.8L17.4,9.8c0.1,0,0.1,0,0.1,0l1.4-1.2l-2.5,0.5l0.9,0.7
	C17.3,9.8,17.4,9.8,17.4,9.8z M17.8,10.2l1.2,1.3l0.6-0.6l0,0c-0.1-0.1-0.2-0.1-0.2-0.2c0,0,0,0,0,0c0,0,0,0,0,0L17.8,10.2z
	 M16.6,11.2C16.6,11.2,16.6,11.2,16.6,11.2C16.6,11.2,16.6,11.2,16.6,11.2l-1.8-0.5l0.2,0.9l1.3,0.3l0.4-0.5
	C16.6,11.3,16.6,11.3,16.6,11.2z M17,9.9l-0.9-0.7l-1.2,1.2l2-0.4C17,10,17,9.9,17,9.9z M22.1,10.9L22,10.1l-1.4,2.4l1.3-1.1
	c0-0.1-0.1-0.1-0.1-0.2c0,0,0,0,0,0c0-0.1,0.1-0.2,0.2-0.3C22,10.9,22.1,10.9,22.1,10.9z M22.5,9.8l2.7,1.5l-0.6-1.5L22.5,9.8
	C22.5,9.8,22.5,9.8,22.5,9.8z M22.5,9.6l1.7,0l-1.7-0.9l-0.2,0.7c0,0,0.1,0,0.1,0C22.4,9.6,22.5,9.6,22.5,9.6z M16.9,11.5L16.5,12
	l0.8,0.7L16.9,11.5C16.9,11.5,16.9,11.5,16.9,11.5z M17.8,10C17.8,10,17.8,10,17.8,10C17.8,10.1,17.8,10.1,17.8,10l1.6,0.5
	c0,0,0,0,0.1-0.1c0,0,0.1-0.1,0.2-0.1c-0.2-0.6-0.3-1.2-0.5-1.8l-1.4,1.2C17.8,9.9,17.8,10,17.8,10z M22.1,9.4l0.3-0.8l-2.6-0.1
	l2.1,1C21.9,9.5,22,9.5,22.1,9.4z M33.6,11.6L20,17.2L6.4,11.6L20,6L33.6,11.6z M24.2,13c0.5-0.4,0.9-0.9,1.4-1.3
	c-0.3-0.7-0.5-1.3-0.8-2l0,0l0,0l0,0l-2.1-1.1l-3.3-0.2l-0.1,0C18.1,8.6,17.1,8.8,16,9c-0.5,0.5-1,1-1.5,1.5
	c0.1,0.4,0.2,0.8,0.3,1.2l1.5,0.4l1.2,1l2.2,0.1c0,0.1,0.1,0.1,0.1,0.1c0.1,0.1,0.2,0.1,0.4,0.1c0,0,0,0,0,0c0.1,0,0.1,0,0.2,0
	l1.7,1.3l0.2,0.2l0-1.3L24.2,13z M20.6,13.3l1.4,1.1l0-0.8L20.6,13.3C20.6,13.3,20.6,13.3,20.6,13.3z M20.6,12.8
	c0.1,0.1,0.1,0.1,0.1,0.2c0,0,0,0,0,0c0,0,0,0,0,0.1l1.3,0.2l0.1-1.8c0,0,0,0-0.1,0L20.6,12.8z M22.4,10.9c0.1,0,0.3,0,0.4,0.1
	c0.1,0.1,0.2,0.2,0.2,0.3v0l2,0.2L22.3,10c0,0,0,0,0,0L22.4,10.9L22.4,10.9z M17.5,10.3C17.5,10.3,17.5,10.3,17.5,10.3l-0.3,0.6
	c0.1,0,0.1,0,0.1,0.1c0.1,0.1,0.1,0.1,0.1,0.2c0,0,0,0,0,0c0,0.1-0.1,0.2-0.1,0.2c0,0-0.1,0.1-0.2,0.1l0.4,1.3l1.1-1.1L17.5,10.3z
	 M22.9,11.4c0,0-0.1,0.1-0.1,0.1l0,0l1.3,1.2l1.1-1.1L22.9,11.4z M22.5,11.6l-0.1,1.7l1.6-0.5L22.5,11.6
	C22.5,11.6,22.5,11.6,22.5,11.6z M17.8,12.9l1.8,0.1c0-0.1,0.1-0.1,0.1-0.2l-0.8-0.9L17.8,12.9z M19.8,11.1l-0.7,0.6l0.9,1l0,0
	L19.8,11.1C19.8,11.1,19.8,11.1,19.8,11.1z M20.3,10.5l1.3-0.7c0,0,0,0,0-0.1c0,0,0,0,0,0c0,0,0-0.1,0-0.1l-2.2-1l0.5,1.7
	C20.1,10.4,20.2,10.4,20.3,10.5C20.3,10.5,20.3,10.5,20.3,10.5z M20.5,10.7C20.5,10.7,20.5,10.7,20.5,10.7
	C20.5,10.7,20.5,10.7,20.5,10.7c0,0.2,0,0.3-0.1,0.3c-0.1,0-0.1,0.1-0.2,0.1l0.1,1.6l1.5-2.7L20.5,10.7z"/>
<path display="none" fill-rule="evenodd" fill="#FFFFFF" d="M22.8,15.8l-2.1,8.6c0,0,0,0-0.1,0c-0.3,0-0.5,0.1-0.6,0.4l-2-0.5
	c0,0,0-0.1,0-0.1c0-0.2-0.1-0.4-0.3-0.5l2.3-8.5c0,0,0,0,0.1,0c0.3,0,0.5-0.1,0.6-0.4l1.7,0.5c0,0,0,0,0,0
	C22.4,15.4,22.6,15.7,22.8,15.8z M32.7,21l-6.5,1l0,0c-0.6,0.1-1.2-0.2-1.5-0.7l-1.2-2l-1.3,4.9l5.1,1.7c0.5,0.2,0.8,0.5,1,1l0,0
	l2.6,7.8c0.3,0.8-0.2,1.7-1,1.9c-0.8,0.3-1.7-0.2-1.9-1l-2.3-7.1L18.4,26l-2.8,5.6c-0.1,0.3-0.4,0.5-0.6,0.6l-6.7,4.1
	c-0.7,0.4-1.7,0.2-2.1-0.5c-0.4-0.7-0.2-1.7,0.5-2.1l6.4-3.9l3-6l2.1-8.1L15.4,16l-2.7,5.8c-0.4,0.8-1.3,1.1-2,0.8
	c-0.8-0.4-1.1-1.3-0.8-2l3-6.6c0.2-0.5,0.7-0.9,1.3-1l6.2-0.3c-1.2-0.9-2.1-2.4-2.1-4.1c0-2.8,2.3-5.1,5.1-5.1s5.1,2.3,5.1,5.1
	c0,2.8-2.2,5-4.9,5.1l3,5.1l5.5-0.8c0.8-0.1,1.6,0.5,1.7,1.3C34.1,20.1,33.5,20.8,32.7,21z M26.3,8.7c0,0.4,0.3,0.7,0.7,0.7
	s0.7-0.3,0.7-0.7S27.4,8,27,8S26.3,8.3,26.3,8.7z M33.3,19.3c0-0.4-0.3-0.7-0.7-0.7c-0.3,0-0.6,0.3-0.7,0.6l-5.4,0.8
	c0-0.3-0.3-0.6-0.7-0.6c0,0-0.1,0-0.1,0l-2.2-3.9c0.1-0.1,0.2-0.3,0.2-0.5c0-0.4-0.3-0.7-0.7-0.7c-0.3,0-0.5,0.2-0.6,0.4l-1.7-0.4
	c0,0,0,0,0-0.1c0-0.4-0.3-0.7-0.7-0.7c-0.3,0-0.6,0.3-0.7,0.6l-4.4,0c-0.1-0.2-0.3-0.3-0.6-0.3c-0.4,0-0.7,0.3-0.7,0.7
	c0,0.2,0.1,0.4,0.2,0.5l-2.4,5.1c-0.1,0-0.2,0-0.2,0c-0.4,0-0.7,0.3-0.7,0.7s0.3,0.7,0.7,0.7c0.4,0,0.7-0.3,0.7-0.7
	c0-0.2-0.1-0.4-0.2-0.5l2.4-5.1c0.1,0,0.2,0.1,0.3,0.1c0.4,0,0.7-0.3,0.7-0.7c0,0,0,0,0-0.1l4.4,0c0.1,0.2,0.2,0.3,0.3,0.4l-2.3,8.5
	c0,0-0.1,0-0.1,0c-0.4,0-0.7,0.3-0.7,0.7c0,0.2,0.1,0.4,0.3,0.5L14.6,30c0,0-0.1,0-0.1,0c-0.4,0-0.7,0.3-0.7,0.7
	c0,0.1,0,0.2,0.1,0.4l-5.4,3.3C8.4,34.1,8.2,34,8,34c-0.4,0-0.7,0.3-0.7,0.7s0.3,0.7,0.7,0.7c0.4,0,0.7-0.3,0.7-0.7
	c0-0.1,0-0.2-0.1-0.3l5.4-3.3c0.1,0.1,0.3,0.2,0.4,0.2c0.4,0,0.7-0.3,0.7-0.7c0-0.2-0.1-0.4-0.3-0.6l2.4-5.4c0.1,0,0.1,0,0.2,0
	c0.2,0,0.4-0.1,0.6-0.3l2,0.5c0,0,0,0,0,0.1c0,0.4,0.3,0.7,0.7,0.7c0.2,0,0.4-0.1,0.5-0.2l5.1,1.8c0,0,0,0.1,0,0.1
	c0,0.4,0.3,0.7,0.7,0.7c0,0,0.1,0,0.1,0l2.1,6.3c-0.2,0.1-0.4,0.3-0.4,0.6c0,0.4,0.3,0.7,0.7,0.7c0.4,0,0.7-0.3,0.7-0.7
	s-0.3-0.7-0.7-0.7c0,0,0,0-0.1,0L27.2,28c0.2-0.1,0.3-0.3,0.3-0.5c0-0.4-0.3-0.7-0.7-0.7c-0.2,0-0.4,0.1-0.5,0.3l-5-1.8
	c0-0.1,0-0.1,0-0.2c0-0.3-0.1-0.5-0.3-0.6l2.1-8.6c0,0,0,0,0,0c0.1,0,0.2,0,0.2,0l2.2,3.8c-0.2,0.1-0.3,0.3-0.3,0.5
	c0,0.4,0.3,0.7,0.7,0.7c0.3,0,0.6-0.2,0.6-0.5l5.5-0.8c0.1,0.3,0.3,0.5,0.6,0.5C33,20,33.3,19.7,33.3,19.3z"/>
<g display="none">
	<path display="inline" fill="#AB5D27" d="M20.4,35.3L20.4,35.3c-5.4,0-9.7-4.4-9.7-9.7V14.7C10.6,9.4,15,5,20.4,5h0
		c5.4,0,9.7,4.4,9.7,9.7v10.8C30.1,30.9,25.7,35.3,20.4,35.3z"/>
	<path display="inline" fill="#F9B09A" d="M29.2,16.7c0,0-0.1,0-0.1,0V15c0-4.8-3.9-8.7-8.7-8.7s-8.7,3.9-8.7,8.7v1.7
		c-1.1,0.1-2,0.9-2.2,2.1c-0.1,1.3,0.8,2.5,2.1,2.6c0.1,0,0.3,0,0.4,0c0.9,3.2,3.5,5.7,6.8,6.3c0,0.1,0,0.1,0,0.2v2c0,1.1,0.9,2,2,2
		c1.1,0,2-0.9,2-2v-2c0-0.1,0-0.3,0-0.4c3-0.8,5.3-3.2,6.1-6.2c1.2,0.1,2.3-0.8,2.5-2.1C31.4,18,30.5,16.9,29.2,16.7z"/>
	<path display="inline" fill="#AB5D27" d="M30.1,15.8c0-1-0.2-3.1-0.5-4.1c-1.3-3.9-5-6.7-9.3-6.7h0c-4.6,0-8.5,3.2-9.5,7.5
		c-0.2,0.7-0.3,3.3-0.3,4c5.6,0.7,11.9-0.6,15.3-4.7C26.4,14.1,28.6,15.6,30.1,15.8z"/>
	<circle display="inline" fill="#7F341E" cx="16.1" cy="19.2" r="1.1"/>
	<circle display="inline" fill="#7F341E" cx="24.5" cy="19.2" r="1.1"/>
	<path display="inline" fill="#FFFFFF" d="M17.1,22.1h6.4c0,0-1,1.5-3.2,1.5S17.1,22.1,17.1,22.1z"/>
	<ellipse display="inline" fill="#F7A08A" cx="15.1" cy="21.9" rx="1.2" ry="1.1"/>
	<ellipse display="inline" fill="#F7A08A" cx="25.6" cy="21.9" rx="1.2" ry="1.1"/>
	<path display="inline" fill="#FFFFFF" d="M11,34H6.6v-5.1c0-0.5-0.4-0.8-0.8-0.8c-0.5,0-0.8,0.4-0.8,0.8v6c0,0.5,0.4,0.8,0.8,0.8
		H11c0.5,0,0.8-0.4,0.8-0.8S11.4,34,11,34z"/>
	<path display="inline" fill="#FFFFFF" d="M11,4.3H5.8C5.4,4.3,5,4.7,5,5.2v6c0,0.5,0.4,0.8,0.8,0.8c0.5,0,0.8-0.4,0.8-0.8V6H11
		c0.5,0,0.8-0.4,0.8-0.8S11.4,4.3,11,4.3z"/>
	<path display="inline" fill="#FFFFFF" d="M34.2,4.3H29c-0.5,0-0.8,0.4-0.8,0.8S28.6,6,29,6h4.3v5.1c0,0.5,0.4,0.8,0.8,0.8
		s0.8-0.4,0.8-0.8v-6C35,4.7,34.6,4.3,34.2,4.3z"/>
	<path display="inline" fill="#FFFFFF" d="M34.2,28.1c-0.5,0-0.8,0.4-0.8,0.8V34H29c-0.5,0-0.8,0.4-0.8,0.8s0.4,0.8,0.8,0.8h5.2
		c0.5,0,0.8-0.4,0.8-0.8v-6C35,28.4,34.6,28.1,34.2,28.1z"/>
</g>
<g display="none">
	<g display="inline">
		<path fill="#FFFFFF" d="M9.7,34.4c-2.2,0-4-1.8-4-4V9.6c0-2.2,1.8-4,4-4h20.6c2.2,0,4,1.8,4,4v20.8c0,2.2-1.8,4-4,4H9.7z"/>
		<path fill="#1190CF" d="M30.3,6.3c1.9,0,3.4,1.5,3.4,3.4v20.8c0,1.9-1.5,3.4-3.4,3.4H9.7c-1.9,0-3.4-1.5-3.4-3.4V9.6
			c0-1.9,1.5-3.4,3.4-3.4H30.3 M30.3,4.9H9.7C7.1,4.9,5,7,5,9.6v20.8c0,2.6,2.1,4.7,4.7,4.7h20.6c2.6,0,4.7-2.1,4.7-4.7V9.6
			C35,7,32.9,4.9,30.3,4.9L30.3,4.9z"/>
	</g>
	<g display="inline">
		<g>
			<path fill="#231F20" d="M22.5,17.4l5,0l0-5l-5,0L22.5,17.4z M23.1,13.1l3.7,0l0,3.7l-3.7,0L23.1,13.1z"/>
			<rect x="23.9" y="13.9" fill="#231F20" width="2.1" height="2.1"/>
			<path fill="#231F20" d="M12.5,17.4l5,0l0-5l-5,0L12.5,17.4z M13.2,13.1l3.7,0l0,3.7l-3.7,0L13.2,13.1z"/>
			<rect x="14" y="13.9" fill="#231F20" width="2.1" height="2.1"/>
			<path fill="#231F20" d="M17.5,22.6l-5,0l0,5l5,0L17.5,22.6z M16.9,26.9l-3.7,0l0-3.7l3.7,0L16.9,26.9z"/>
			<rect x="14" y="24" fill="#231F20" width="2.1" height="2.1"/>
			<path fill="#231F20" d="M27.4,22.6l-5,0l0,5l5,0L27.4,22.6z M26.8,26.9l-3.7,0l0-3.7l3.7,0L26.8,26.9z"/>
			<rect x="23.9" y="24" fill="#231F20" width="2.1" height="2.1"/>
			<rect x="21.1" y="13.9" fill="#231F20" width="0.7" height="0.7"/>
			<polygon fill="#231F20" points="19.7,14 19.7,13.9 19.7,12.5 20.4,12.5 20.4,13.9 20.4,14 20.4,14.6 19.7,14.6 			"/>
			<rect x="18.2" y="14.6" fill="#231F20" width="0.7" height="1.4"/>
			<rect x="18.2" y="18.2" fill="#231F20" width="0.7" height="0.7"/>
			<rect x="12.5" y="18.2" fill="#231F20" width="0.7" height="0.7"/>
			<polygon fill="#231F20" points="14,19.6 13.3,19.6 13.3,18.9 13.9,18.9 13.9,18.2 14.6,18.2 14.6,18.9 14,18.9 			"/>
			<rect x="22.5" y="18.2" fill="#231F20" width="0.7" height="0.7"/>
			<polygon fill="#231F20" points="23.9,19.6 23.2,19.6 23.2,18.9 23.9,18.9 23.9,18.2 24.6,18.2 24.6,18.9 23.9,18.9 			"/>
			<polygon fill="#231F20" points="26.7,19.6 24.6,19.6 24.6,18.9 26,18.9 26,18.2 27.5,18.2 27.5,18.9 26.7,18.9 			"/>
			<polygon fill="#231F20" points="25.3,21.1 24.6,21.1 23.9,21.1 23.9,21.8 23.2,21.8 23.2,21.1 23.9,21.1 23.9,20.3 24.6,20.3 
				26,20.3 26,21.1 27.5,21.1 27.5,21.8 25.3,21.8 			"/>
			<polygon fill="#231F20" points="22.5,21.8 20.4,21.8 20.4,21.8 19.7,21.8 19.7,20.3 20.4,20.3 20.4,21.1 21.1,21.1 21.1,20.3 
				23.2,20.3 23.2,21.1 22.5,21.1 			"/>
			<rect x="18.2" y="16.8" fill="#231F20" width="0.7" height="0.7"/>
			<rect x="18.2" y="12.5" fill="#231F20" width="0.7" height="1.5"/>
			<rect x="21.1" y="24" fill="#231F20" width="0.7" height="0.7"/>
			<rect x="19.7" y="22.6" fill="#231F20" width="0.7" height="1.5"/>
			<polygon fill="#231F20" points="19,26.1 19.7,26.1 19.7,24.6 20.4,24.6 20.4,27.5 19.8,27.5 19.8,27.5 18.9,27.5 18.9,27.5 
				18.2,27.5 18.2,26.8 18.9,26.8 18.9,26.1 18.2,26.1 18.2,24.6 19,24.6 			"/>
			<rect x="21.1" y="25.4" fill="#231F20" width="0.7" height="2.2"/>
			<rect x="18.2" y="22.6" fill="#231F20" width="0.7" height="1.5"/>
			<rect x="21.1" y="17.5" fill="#231F20" width="0.7" height="2.2"/>
			<polygon fill="#231F20" points="21.1,16.8 20.4,16.8 20.4,19.6 19.7,19.6 19.7,15.3 20.4,15.3 20.4,15.3 21.1,15.3 			"/>
			<polygon fill="#231F20" points="16.8,19.6 18.9,19.6 18.9,20.2 18.9,20.4 18.9,21.8 18.2,21.8 18.2,20.4 16.8,20.4 			"/>
			<polygon fill="#231F20" points="14,20.4 14,21.1 14.6,21.1 14.6,20.4 15.3,20.4 15.3,19.6 14.6,19.6 14.6,18.9 16.1,18.9 
				16.1,18.2 17.5,18.2 17.5,18.9 16.8,18.9 16.8,19.6 16,19.6 16,20.4 15.3,20.4 15.3,21.1 16.9,21.1 16.9,21.8 12.5,21.8 
				12.5,21.1 12.5,21.1 12.5,20.4 			"/>
		</g>
		<g>
			<g>
				<path fill="#49C8F5" d="M30.1,14.1c0.2,0,0.4-0.2,0.4-0.4l0-3.8c0-0.2-0.2-0.4-0.4-0.4l-3.8,0c-0.2,0-0.4,0.2-0.4,0.4
					c0,0.2,0.2,0.4,0.4,0.4l3.4,0l0,3.4C29.7,13.9,29.9,14.1,30.1,14.1z"/>
			</g>
			<g>
				<path fill="#49C8F5" d="M9.9,14.1c0.2,0,0.4-0.2,0.4-0.4l0-3.4l3.4,0c0.2,0,0.4-0.2,0.4-0.4c0-0.2-0.2-0.4-0.4-0.4l-3.8,0
					c-0.2,0-0.4,0.2-0.4,0.4l0,3.8C9.5,13.9,9.7,14.1,9.9,14.1z"/>
			</g>
			<g>
				<path fill="#49C8F5" d="M26.4,30.5l3.8,0c0.2,0,0.4-0.2,0.4-0.4l0-3.8c0-0.2-0.2-0.4-0.4-0.4c-0.2,0-0.4,0.2-0.4,0.4l0,3.4
					l-3.4,0c-0.2,0-0.4,0.2-0.4,0.4C26,30.3,26.1,30.5,26.4,30.5z"/>
			</g>
			<g>
				<path fill="#49C8F5" d="M9.9,30.5l3.8,0c0.2,0,0.4-0.2,0.4-0.4c0-0.2-0.2-0.4-0.4-0.4l-3.4,0l0-3.4c0-0.2-0.2-0.4-0.4-0.4
					c-0.2,0-0.4,0.2-0.4,0.4l0,3.8C9.5,30.3,9.7,30.5,9.9,30.5z"/>
			</g>
		</g>
	</g>
</g>
<g>
	<path fill="#FEDA00" d="M11.4,36.4h18.7c0-0.9,0-1.9,0-2.7c-0.1-1.2-0.4-2.4-0.9-3.5l-2.3-5c0,0-3.5-0.9-4.4-0.4
		c-3.2,1.6-6.8,0.7-6.8,0.7l0-0.1c-0.1,0-0.1,0.1-0.1,0.1c-0.5,0.9-1.2,1.9-1.6,2.8c-1.1,2.6-2.9,5-2.6,7.8
		C11.3,36.2,11.3,36.3,11.4,36.4z"/>
	<g id="head">
		<path fill="#FEDCC6" d="M10.1,11.7c0,0.5-0.1,0.9-0.1,1.4c-0.1,0.9-0.4,2-1.1,2.5c-0.1,0.1-0.2,0.1-0.3,0.2
			c-0.2,0.2,0,0.4,0.2,0.5c0.1,0.1,0.2,0.1,0.2,0.2c0,0.1,0,0.2,0.1,0.3c0.1,0.8,0.4,1.7,0.7,2.4c0.2,0.4,0.4,0.9,0.8,1.2
			c0.4,0.3,0.8,0.3,1.2,0.3c1.5,0,3-0.8,4.2-1.8c0.9-0.8,2.2-1.4,2.9-2.4c1.2-1.8,1-4.3,1.3-6.2c0-0.3-1.2-0.7-1.5-0.8
			c-0.3-0.1-0.8,0.1-1.1,0.1c-0.8,0.1-1.6,0.1-2.3,0.2c-1.5,0.1-3.1,0.3-4.6,0.4c-0.1,0-0.1,0-0.2,0c-0.1,0-0.1,0.1-0.1,0.2
			C10.3,10.8,10.2,11.2,10.1,11.7z"/>
		<path fill="#FEDCC6" d="M16.3,17.9l-0.7,7.5c0,0,5.9,1.4,9.4-2.8c0,0-5.4-6.9-7.5-8L16.3,17.9z"/>
		<ellipse fill="#23093A" cx="11.9" cy="13.3" rx="0.3" ry="0.5"/>
		<path fill="#23093A" d="M11.5,17c0.2,0.7-0.1,1.4-0.7,1.6c-0.5,0.2-1.1-0.3-1.3-1L11.5,17z"/>
		<path fill="#23093A" d="M12.6,12.5C12.6,12.5,12.6,12.5,12.6,12.5c0.1,0,0.1-0.1,0.1-0.1c-0.1-0.4-0.5-0.6-0.9-0.5
			c-0.1,0-0.1,0.1-0.1,0.1c0,0.1,0.1,0.1,0.1,0.1C12.1,11.9,12.4,12.1,12.6,12.5C12.5,12.4,12.5,12.5,12.6,12.5z"/>
		<path fill="#EEC3AB" d="M18.1,13.9C18.1,13.9,18.1,13.9,18.1,13.9c0.1-0.1,0.1-0.2,0.1-0.2c-0.1-0.1-0.1-0.2,0-0.3
			c0-0.2,0.1-0.3,0.3-0.4c0.3-0.1,0.5,0,0.7,0.2c0,0.1,0.1,0.1,0.2,0c0,0,0.1-0.1,0-0.2c-0.3-0.4-0.7-0.5-1-0.3
			c-0.2,0.1-0.3,0.3-0.4,0.6C17.8,13.5,17.9,13.7,18.1,13.9C18,13.9,18,13.9,18.1,13.9z"/>
	</g>
	<g id="hair">
		<path fill="#231F20" d="M28.9,29.6c-0.5-0.2-0.7-1.7-2.3-1.7c-1.2,0-2.2,0.6-3.5,0c-0.6-0.3-1.2-0.9-1.5-1.6c-0.6-1.6,0.4-4-1-5.3
			c-0.7-0.6-1.6-0.9-2-1.8c-0.5-1.1-0.5-2.3-0.4-3.5c0-0.1,0-0.3,0.1-0.4c0.1-0.1,0.3-0.1,0.4-0.2c0.8-0.2,1.4-1.3,1-2.1
			c-0.4-0.8-1.7-0.8-2,0c-0.1,0.3-0.2,0.6-0.5,0.6c-0.3,0-0.3-0.4-0.3-0.7c0.1-0.4,0.2-2.6,0.3-3c0,0.1-0.6,0.4-0.7,0.4
			c-0.6,0.3-1.3,0.6-2,0.7c-1,0.2-1.9,0.3-2.9,0.3c-0.7,0-1.4-0.1-2.2-0.3c-0.7-0.1-1.4-0.3-1.9-0.8c-0.8-0.9-0.5-2.2,0-3.2
			c0.6-1.1,1.7-1.7,2.9-2c0.3-0.1,0.6-0.1,0.8-0.1c1.3-0.1,2.6,0.3,3.9,0.5c1.4,0.2,2.7,0.2,4.1,0.6c1.6,0.4,3,1.5,3.9,2.9
			c1.1,1.6,1.2,3.6,2.1,5.2c1.3,2.5,3.3,1.4,6,4.8c0.8,1,0.8,2.3,1,3.6c0.1,0.6,0.3,1.2,0.6,1.7c0.4,0.5,0.9,0.9,1.2,1.6
			c0.4,1.1,0.3,2.7-0.7,3.3c-0.4,0.2-0.7,0.4-0.9,0.8c-0.2,0.4-0.3,0.9-0.6,1.3c-0.2,0.3-0.4,0.5-0.7,0.6c-0.2,0.1-0.9,0.3-1.1,0.1
			c0,0-0.5-0.8-0.5-0.8L28.9,29.6z"/>
		<path fill="#424143" d="M9.1,6.9c0-0.2,0.1-0.3,0.2-0.5c0.2-0.3,0.5-0.6,0.9-0.7c0.6-0.2,1.2-0.1,1.7,0.1c0.5,0.2,1,0.4,1.5,0.7
			c0.5,0.3,1,0.4,1.6,0.5c0.1,0,0.2,0,0.3,0c0.1,0,0.1,0.2,0,0.2c-0.6,0-1.2-0.2-1.8-0.4c-0.5-0.2-0.9-0.5-1.4-0.7
			c-0.3-0.1-0.6-0.2-1-0.3c-0.3-0.1-0.5-0.1-0.8,0C10.1,6,9.8,6.2,9.6,6.5c0,0,0,0,0,0c0,0,0,0,0,0c0,0,0,0.1-0.1,0.1
			c0,0.1-0.1,0.1-0.1,0.2c0,0,0,0,0,0.1c0,0,0,0,0,0c0,0,0,0,0,0c0,0,0,0,0,0.1c0,0,0,0,0,0C9.3,7.1,9.1,7.1,9.1,6.9L9.1,6.9z"/>
		<path fill="#424143" d="M28.2,26.6C28.2,26.6,28.3,26.6,28.2,26.6c0.1-0.1,0.1-0.2,0-0.2c-0.1,0-0.3-0.1-0.4-0.1
			c-0.9-0.2-1.8-0.4-2.6-0.9c-0.9-0.6-1-1.4-1.2-2.4c0-0.2-0.1-0.4-0.1-0.7c-0.2-0.7-0.4-1.4-0.8-2c-0.4-0.6-0.9-1.1-1.5-1.4
			c-1.4-0.8-2-1.8-1.7-3c0-0.1,0-0.1-0.1-0.1c-0.1,0-0.1,0-0.1,0.1c-0.2,0.7-0.1,1.4,0.4,2c0.3,0.5,0.8,0.9,1.5,1.3
			c1,0.6,1.8,1.8,2.2,3.3c0.1,0.2,0.1,0.4,0.1,0.6c0.2,1,0.4,1.9,1.3,2.6c0.8,0.5,1.8,0.7,2.7,0.9C27.9,26.5,28,26.6,28.2,26.6
			C28.2,26.6,28.2,26.6,28.2,26.6z"/>
		<path fill="#424143" d="M22.8,10.3c0.4,1,1,1.9,1.7,2.5c0.7,0.7,1.6,1.1,2.6,1.3c1.1,0.2,2.3,0,3.3,0.4c0.5,0.2,0.9,0.5,1.3,0.9
			c0.4,0.4,0.6,0.9,0.8,1.4c0.5,1.2,0.6,2.5,0.6,3.8c0,0.2,0,0.3,0,0.5c0,0.1-0.2,0.1-0.2,0c0-1.3,0-2.7-0.5-3.9c-0.4-1-1-2-2-2.4
			c-1.1-0.5-2.2-0.3-3.3-0.5c-1-0.1-1.9-0.6-2.7-1.2c-0.8-0.6-1.4-1.5-1.8-2.4c-0.1-0.1-0.1-0.2-0.1-0.4c0-0.1,0-0.1,0.1-0.1
			C22.8,10.2,22.8,10.3,22.8,10.3L22.8,10.3z"/>
		<path fill="#424143" d="M28,18c0.2-0.1,0.3,0,0.4,0.2c0.1,0.2,0.1,0.4,0,0.6c-0.1,0.2-0.2,0.4-0.1,0.6c0,0.2,0.1,0.3,0.2,0.3
			c0.3,0.2,0.7,0.2,1,0.3c0.4,0.1,0.8,0.3,1.1,0.7c0.3,0.3,0.5,0.8,0.4,1.2c0,0.2-0.1,0.4-0.1,0.7c-0.1,0.2-0.1,0.4,0,0.7
			c0.1,0.2,0.2,0.4,0.4,0.5c0.2,0.2,0.3,0.3,0.4,0.5c0.3,0.3,0.5,0.7,0.6,1.2c0.1,0.4,0.1,0.8,0,1.1c-0.1,0.3-0.3,0.6-0.6,0.8
			c-0.1,0-0.1,0.1-0.2,0.1c-0.1,0-0.1-0.1,0-0.2c0.6-0.1,0.9-1,0.8-1.6c-0.1-0.4-0.3-0.8-0.5-1.2c-0.1-0.2-0.3-0.3-0.4-0.5
			c-0.1-0.1-0.3-0.3-0.4-0.5c-0.1-0.2-0.2-0.4-0.2-0.6c0-0.2,0.1-0.4,0.2-0.7c0.1-0.4,0-0.9-0.2-1.2c-0.2-0.4-0.6-0.6-0.9-0.8
			c-0.3-0.1-0.7-0.2-1-0.3c-0.3-0.1-0.5-0.3-0.6-0.7c0-0.2,0.1-0.4,0.2-0.6c0.1-0.2,0.1-0.4-0.1-0.5c0-0.1-0.1-0.1-0.2,0
			C28,18.2,27.9,18,28,18L28,18z"/>
		<path fill="#424143" d="M10.4,5c0.5-0.8,1.4-1.2,2.3-1.1c0.5,0.1,0.9,0.4,1.4,0.6c0.4,0.3,1,0.5,1.5,0.3c0.4-0.1,0.8-0.6,0.6-1.1
			c0-0.1,0-0.1,0-0.2c0,0,0.1,0,0.1,0c0.2,0.5,0,0.9-0.4,1.2c-0.4,0.3-1,0.3-1.5,0.1C14,4.8,13.5,4.4,13,4.2c-0.4-0.2-0.9-0.2-1.3,0
			c-0.5,0.1-0.9,0.5-1.2,0.9c0,0-0.1,0.1-0.1,0C10.4,5.1,10.3,5,10.4,5L10.4,5z"/>
		<path fill="#424143" d="M32.4,23.4c0,0.6,0.3,1.1,0.7,1.5c0.4,0.4,0.9,0.7,1.3,1.2c0.4,0.5,0.6,1.1,0.5,1.7c0,0.6-0.2,1.2-0.6,1.6
			c-0.1,0.1-0.2,0.2-0.3,0.3c-0.1,0.1-0.3,0.2-0.4,0.3c-0.2,0.2-0.5,0.5-0.5,0.8c0,0.1-0.1,0.1-0.1,0c-0.1-0.3,0.1-0.6,0.3-0.8
			c0.2-0.2,0.5-0.4,0.7-0.6c0.4-0.4,0.7-0.9,0.7-1.5c0.1-0.6-0.1-1.3-0.4-1.8c-0.3-0.5-0.9-0.8-1.3-1.2c-0.5-0.4-0.9-1-0.9-1.7
			C32.3,23.3,32.4,23.3,32.4,23.4L32.4,23.4z"/>
	</g>
	<g>
		<path fill="#FEDCC6" d="M7.6,35.1c0,0,0.1,0.5,0.4,1.3h3.2c-0.4-0.8-0.7-1.5-0.9-2L10,33.7c0,0,0.6-2.5,1.3-3.6
			c0.4-0.6,0.6-0.9,0.7-1c0.1-0.1,0.1-0.1,0.1-0.1s0.2-0.7-0.6-0.3c-0.7,0.4-1.2,1.3-1.7,1.9c0-0.1-1.8-4.4-2.5-5.7
			c-1.1-2-0.8-0.2-0.8-0.2l0.8,2.8c0,0-1.3,0.7-2.1,1.5c-0.8,0.8,2.2,5.1,2.2,5.1L7.6,35.1z"/>
		<path fill="#FEDCC6" d="M30,36.4c0.1-0.3,0.1-0.5,0.2-0.8c0.5-2.1,0.7-4.7-0.7-6.3c-0.2-0.2-2.2-1.7-2.5-1.2c0,0-2.4,4.1-4.9,8.3
			H30z"/>
	</g>
</g>
</svg>
