<?xml version="1.0" encoding="utf-8"?>
<!-- Generator: Adobe Illustrator 23.0.1, SVG Export Plug-In . SVG Version: 6.00 Build 0)  -->
<svg version="1.2" baseProfile="tiny" id="Layer_1" xmlns="http://www.w3.org/2000/svg" xmlns:xlink="http://www.w3.org/1999/xlink"
	 x="0px" y="0px" width="40px" height="40px" viewBox="0 0 40 40" xml:space="preserve">
<g>
	<path fill="#58595B" d="M14.8,20.5c0,0,0.1-0.1,0.1-0.1l-0.6-0.8c-1,0.8-1.9,1.1-2.8,1c-1.1-0.1-2.4-0.7-3.9-2L7,19.4
		c1.6,1.4,3.1,2.1,4.4,2.2C12.6,21.7,13.6,21.4,14.8,20.5z"/>
	<path fill="#F7941D" d="M4.4,17.8C4.4,17.8,4.5,17.8,4.4,17.8c0.2-0.3,0.2-0.6-0.1-0.7l-1.6-1.2c-0.2-0.2-0.5-0.1-0.7,0.1
		c-0.2,0.2-0.1,0.5,0.1,0.7l1.6,1.2C4,18,4.2,18,4.4,17.8z"/>
	<path fill="#F7941D" d="M4.9,16.8C4.9,16.8,4.9,16.8,4.9,16.8c0.2-0.3,0.2-0.6,0-0.7l-1.5-1.3c-0.2-0.2-0.5-0.2-0.7,0
		c-0.2,0.2-0.2,0.5,0,0.7l1.5,1.3C4.4,17,4.7,17,4.9,16.8z"/>
	<path fill="#F7941D" d="M5.8,16.3C5.9,16.3,5.9,16.3,5.8,16.3c0.3-0.2,0.3-0.5,0.1-0.7l-1.3-1.5c-0.2-0.2-0.5-0.2-0.7,0
		c-0.2,0.2-0.2,0.5,0,0.7l1.3,1.5C5.4,16.4,5.6,16.4,5.8,16.3z"/>
	<path fill="#F7941D" d="M6.6,16.8C6.6,16.8,6.7,16.8,6.6,16.8c0.4,0,0.6-0.2,0.6-0.5l0.1-2c0-0.3-0.2-0.5-0.5-0.5
		c-0.3,0-0.5,0.2-0.5,0.5l-0.1,2C6.2,16.5,6.4,16.7,6.6,16.8z"/>
	<path fill="#E5DED7" d="M6,15.2c-0.2-0.1-0.4-0.2-0.6,0l-2,2.2c-0.2,0.2-0.1,0.4,0,0.6c0,0,0.3,0.6,3.1,2.4c0.2,0.1,0.4,0.1,0.6,0
		l1.5-1.6c0.2-0.2,0.1-0.3,0-0.6C8.6,18.2,7.1,16,6,15.2z"/>
	<path fill="#F7941D" d="M6.9,17.4l-1.2,1.2c-0.1,0.1-0.2,0.1-0.2,0l-0.7-0.5c-0.1-0.1-0.1-0.2,0-0.3l1.3-1.4c0.1-0.1,0.2-0.1,0.3,0
		l0.5,0.7C7,17.2,7,17.3,6.9,17.4z"/>
	<path fill="#58595B" d="M25.2,20.5c0,0-0.1-0.1-0.1-0.1l0.6-0.8c1,0.8,1.9,1.1,2.8,1c1.1-0.1,2.4-0.7,3.9-2l0.6,0.7
		c-1.6,1.4-3.1,2.1-4.4,2.2C27.4,21.7,26.4,21.4,25.2,20.5z"/>
	<path fill="#F7941D" d="M35.6,17.8C35.6,17.8,35.5,17.8,35.6,17.8c-0.2-0.3-0.2-0.6,0.1-0.7l1.6-1.2c0.2-0.2,0.5-0.1,0.7,0.1
		c0.2,0.2,0.1,0.5-0.1,0.7l-1.6,1.2C36,18,35.8,18,35.6,17.8z"/>
	<path fill="#F7941D" d="M35.1,16.8C35.1,16.8,35.1,16.8,35.1,16.8c-0.2-0.3-0.2-0.6,0-0.7l1.5-1.3c0.2-0.2,0.5-0.2,0.7,0
		c0.2,0.2,0.2,0.5,0,0.7l-1.5,1.3C35.6,17,35.3,17,35.1,16.8z"/>
	<path fill="#F7941D" d="M34.2,16.3C34.1,16.3,34.1,16.3,34.2,16.3c-0.3-0.2-0.3-0.5-0.1-0.7l1.3-1.5c0.2-0.2,0.5-0.2,0.7,0
		c0.2,0.2,0.2,0.5,0,0.7l-1.3,1.5C34.6,16.4,34.4,16.4,34.2,16.3z"/>
	<path fill="#F7941D" d="M33.4,16.8C33.4,16.8,33.3,16.8,33.4,16.8c-0.4,0-0.6-0.2-0.6-0.5l-0.1-2c0-0.3,0.2-0.5,0.5-0.5
		c0.3,0,0.5,0.2,0.5,0.5l0.1,2C33.8,16.5,33.6,16.7,33.4,16.8z"/>
	<path fill="#E5DED7" d="M34,15.2c0.2-0.1,0.4-0.2,0.6,0l2,2.2c0.2,0.2,0.1,0.4,0,0.6c0,0-0.3,0.6-3.1,2.4c-0.2,0.1-0.4,0.1-0.6,0
		l-1.5-1.6c-0.2-0.2-0.1-0.3,0-0.6C31.4,18.2,32.9,16,34,15.2z"/>
	<path fill="#F7941D" d="M33.1,17.4l1.2,1.2c0.1,0.1,0.2,0.1,0.2,0l0.7-0.5c0.1-0.1,0.1-0.2,0-0.3l-1.3-1.4c-0.1-0.1-0.2-0.1-0.3,0
		l-0.5,0.7C33,17.2,33,17.3,33.1,17.4z"/>
	<path fill="#6D6E71" d="M25.2,14.4c0.2,0,0.3-0.1,0.3-0.2L25,11.6c-0.2-1.1-1.5-1.8-3.2-2l-1.1-0.1c-0.4,0-0.8,0-1.2,0l-1.1,0.1
		c-1.7,0.1-3,0.9-3.2,2l-0.5,2.6c0,0.1,0.1,0.2,0.3,0.2C14.8,14.4,19.9,15.8,25.2,14.4z"/>
	<path fill="#E5DED7" d="M26,15.8l-0.6-4.4c-0.2-1.9-1.7-1.4-3.5-1.6l-1.2-0.1c-0.4,0-0.9,0-1.3,0l-1.2,0.1
		c-1.9,0.2-3.2-0.2-3.4,1.6l-0.6,4.4c0,0.2,0.1,0.3,0.3,0.3h5.7h0.2h5.3C25.8,16.1,26,16,26,15.8z"/>
	<path fill="#E5DED7" d="M26,15.8l-0.6-4.4c-0.2-1.9-1.7-1.9-3.5-2.2l-1.2-0.1c-0.4,0-0.9,0-1.3,0l-1.2,0.1
		c-1.9,0.2-3.2,0.3-3.4,2.2l-0.6,4.4c0,0.2,0.1,0.3,0.3,0.3h5.7h0.2h5.3C25.8,16.1,26,16,26,15.8z"/>
	<path fill="#4F250E" d="M24.7,13.9c0.2,0,0.3-0.1,0.2-0.2l-0.3-2.4c-0.2-1-1.4-1.7-3-1.8l-1,0c-0.4,0-0.8,0-1.2,0l-1,0
		c-1.6,0.1-2.8,0.8-3,1.8l-0.3,2.4c0,0.2,0.1,0.2,0.2,0.2C15.4,13.9,19.7,15.2,24.7,13.9z"/>
	<path fill="#E5DED7" d="M17.7,9.9c-0.6,0.1-1.2,0.2-1.7,0.4c-0.1,0-0.3,0-0.3-0.2c-0.1-0.3-0.2-0.6-0.3-1c0-0.1,0-0.3,0.2-0.3
		c0.6-0.2,1.3-0.3,1.9-0.4c0.2,0,0.3,0.1,0.3,0.2c0,0.3,0.1,0.7,0.1,1C18,9.8,17.9,9.9,17.7,9.9z"/>
	<path fill="#E5DED7" d="M20.9,9.8c-0.6,0-1.2,0-1.7,0c-0.1,0-0.3-0.1-0.3-0.2c0-0.3-0.1-0.7-0.1-1c0-0.1,0.1-0.3,0.3-0.3
		c0.6,0,1.3,0,1.9,0c0.2,0,0.3,0.1,0.3,0.3c0,0.3-0.1,0.7-0.1,1C21.2,9.7,21,9.8,20.9,9.8z"/>
	<path fill="#E5DED7" d="M24.1,10.3c-0.6-0.1-1.1-0.3-1.7-0.3c-0.1,0-0.2-0.1-0.2-0.3c0-0.3,0.1-0.7,0.1-1c0-0.1,0.2-0.2,0.3-0.2
		c0.6,0.1,1.3,0.2,1.9,0.4c0.2,0,0.3,0.2,0.2,0.3c-0.1,0.3-0.2,0.7-0.3,1C24.4,10.2,24.2,10.3,24.1,10.3z"/>
	<path fill="#E3DDD6" d="M26.2,11.5c-4-1.7-8.1-1.5-12.3,0c-0.2,0.1-0.5,0-0.6-0.3l0,0c-0.1-0.3,0-0.6,0.3-0.8
		c4.2-1.9,8.7-1.9,12.9,0c0.3,0.1,0.4,0.5,0.3,0.8l0,0C26.7,11.5,26.4,11.6,26.2,11.5z"/>
	<path fill="#F7941D" d="M28.2,30.1V17.3c0-0.3-0.1-0.7-0.4-0.9l-0.5-0.5c-0.2-0.2-0.6-0.4-0.9-0.4H13.6c-0.3,0-0.7,0.1-0.9,0.4
		l-0.5,0.5c-0.2,0.2-0.4,0.6-0.4,0.9v12.8c0,0.3,0.1,0.7,0.4,0.9l0.5,0.5c0.2,0.2,0.6,0.4,0.9,0.4h12.8c0.3,0,0.7-0.1,0.9-0.4
		l0.5-0.5C28,30.7,28.2,30.4,28.2,30.1z"/>
	<path fill="#E5DED7" d="M20,30.7L20,30.7c-3.9,0-7-3.1-7-7v0c0-3.9,3.1-7,7-7h0c3.9,0,7,3.1,7,7l0,0C27,27.5,23.8,30.7,20,30.7z"/>
	<path fill="#D7CBC1" d="M20,29.6L20,29.6c-3.3,0-5.9-2.7-5.9-5.9l0,0c0-3.3,2.7-5.9,5.9-5.9h0c3.3,0,5.9,2.7,5.9,5.9v0
		C25.9,27,23.3,29.6,20,29.6z"/>
	<path fill="#6D6E71" d="M20,28.8L20,28.8c-2.8,0-5.1-2.3-5.1-5.1v0c0-2.8,2.3-5.1,5.1-5.1h0c2.8,0,5.1,2.3,5.1,5.1v0
		C25.1,26.5,22.8,28.8,20,28.8z"/>
	<path fill="#58595B" d="M21.8,25.8H18c-1.3,0-2.3-1-2.3-2.3l0,0c0-1.3,1-2.3,2.3-2.3h3.8c1.3,0,2.3,1,2.3,2.3l0,0
		C24.1,24.8,23.1,25.8,21.8,25.8z"/>
	<circle fill="#808285" cx="18.1" cy="23.5" r="1.5"/>
	<circle fill="#808285" cx="21.7" cy="23.5" r="1.5"/>
	<path fill="#BA7841" d="M17.1,13.3c-0.1,0-0.2,0-0.2-0.1c-0.1-0.1,0-0.3,0.1-0.4l0.6-0.3L17,12.1c-0.1-0.1-0.2-0.2-0.1-0.4
		c0.1-0.1,0.2-0.2,0.4-0.1l1,0.6c0.1,0,0.1,0.1,0.1,0.2c0,0.1-0.1,0.2-0.1,0.2l-1,0.6C17.2,13.3,17.2,13.3,17.1,13.3z"/>
	<path fill="#BA7841" d="M23,13.3c0,0-0.1,0-0.1,0l-1-0.6c-0.1,0-0.1-0.1-0.1-0.2c0-0.1,0-0.2,0.1-0.2l1-0.6c0.1-0.1,0.3,0,0.4,0.1
		c0.1,0.1,0,0.3-0.1,0.4l-0.6,0.3l0.6,0.3c0.1,0.1,0.2,0.2,0.1,0.4C23.1,13.2,23.1,13.3,23,13.3z"/>
</g>
</svg>
