<?xml version="1.0" encoding="utf-8"?>
<!-- Generator: Adobe Illustrator 23.0.1, SVG Export Plug-In . SVG Version: 6.00 Build 0)  -->
<svg version="1.2" baseProfile="tiny" id="Layer_1" xmlns="http://www.w3.org/2000/svg" xmlns:xlink="http://www.w3.org/1999/xlink"
	 x="0px" y="0px" width="40px" height="40px" viewBox="0 0 40 40" xml:space="preserve">
<g>
	<path fill="#D7CBC1" d="M19.7,32.7C19.7,32.7,19.7,32.7,19.7,32.7c0-0.3-0.5-0.7-1.3-0.9c-1.3-0.3-3.1-0.2-3.9,0.3l-1.8,1
		c-0.3,0.2-0.4,0.4-0.4,0.5c0,0,0,0,0,0l0,1.3c0,0,0,0,0,0c0,0,0,0,0,0c0,0,0,0,0,0c0,0,0,0,0,0c0,0,0,0,0,0c0,0,0,0,0,0
		c0,0,0,0,0,0c0,0,0,0,0,0c0,0,0,0,0,0c0,0,0,0,0,0c0,0,0,0,0,0c0,0,0,0,0,0c0,0,0,0,0,0c0,0,0,0,0,0c0,0,0,0,0,0c0,0,0,0,0,0
		c0,0,0,0,0,0c0,0,0,0,0,0c0,0,0,0,0.1,0c0,0,0,0,0,0c0,0,0,0,0.1,0c0,0,0,0,0,0c0,0,0,0,0.1,0c0,0,0,0,0,0c0,0,0,0,0.1,0
		c0,0,0,0,0,0c0,0,0,0,0.1,0c0,0,0,0,0,0c0,0,0.1,0,0.1,0c0,0,0,0,0,0c0,0,0.1,0,0.1,0c0,0,0,0,0,0c0,0,0,0,0,0c0,0,0.1,0,0.1,0
		c0,0,0,0,0,0c0,0,0.1,0,0.1,0c0,0,0,0,0,0c0,0,0,0,0,0c0,0,0,0,0.1,0c0,0,0,0,0,0c0,0,0.1,0,0.1,0c0,0,0,0,0,0c0,0,0,0,0,0
		c0,0,0.1,0,0.1,0c0,0,0.1,0,0.1,0c0,0,0,0,0,0c0.1,0,0.1,0,0.2,0c0,0,0,0,0,0c0,0,0,0,0,0c0,0,0.1,0,0.1,0c0,0,0,0,0,0c0,0,0,0,0,0
		c0,0,0.1,0,0.1,0c0,0,0,0,0,0c0,0,0,0,0,0c0.1,0,0.1,0,0.2,0c0,0,0,0,0,0c0,0,0,0,0,0c0,0,0.1,0,0.1,0c0,0,0,0,0,0c0,0,0,0,0,0
		c0,0,0.1,0,0.1,0c0,0,0,0,0,0c0,0,0,0,0,0c0.1,0,0.1,0,0.2,0c0,0,0,0,0,0c0,0,0,0,0,0c0,0,0.1,0,0.1,0c0,0,0,0,0,0c0,0,0,0,0,0
		c0.1,0,0.1,0,0.2,0c0,0,0,0,0,0c0,0,0,0,0,0c0.1,0,0.1,0,0.2,0c0,0,0,0,0,0h0c0,0,0.1,0,0.1,0c0,0,0,0,0,0c0,0,0.1,0,0.1,0
		c0,0,0,0,0,0c0,0,0,0,0,0c0,0,0.1,0,0.1,0c0,0,0,0,0.1,0c0,0,0,0,0.1,0c0,0,0,0,0.1,0c0,0,0,0,0.1,0c0,0,0,0,0.1,0c0,0,0,0,0.1,0
		c0,0,0,0,0.1,0c0,0,0,0,0.1,0c0,0,0,0,0.1,0c0,0,0,0,0.1,0c0,0,0,0,0,0c0,0,0,0,0.1,0c0,0,0,0,0,0c0,0,0.1,0,0.1,0c0,0,0,0,0,0
		c0,0,0,0,0,0c0,0,0,0,0,0c0,0,0.1,0,0.1,0c0,0,0,0,0,0c0,0,0.1,0,0.1,0c0,0,0,0,0,0c0,0,0,0,0.1,0c0,0,0,0,0,0c0,0,0,0,0,0
		c0,0,0,0,0,0c0,0,0,0,0,0c0,0,0,0,0,0c0,0,0,0,0,0c0,0,0,0,0,0c0,0,0,0,0.1,0l1.8-1c0,0,0,0,0,0c0,0,0,0,0,0c0,0,0,0,0,0
		c0,0,0,0,0,0c0,0,0,0,0,0c0,0,0,0,0,0c0,0,0,0,0,0c0,0,0,0,0,0c0,0,0,0,0,0c0,0,0,0,0,0c0,0,0,0,0,0c0,0,0,0,0,0c0,0,0,0,0,0
		c0,0,0,0,0,0c0,0,0,0,0,0c0,0,0,0,0,0c0,0,0,0,0,0c0,0,0,0,0,0c0,0,0,0,0,0c0,0,0,0,0,0c0,0,0,0,0,0c0,0,0,0,0,0c0,0,0,0,0,0
		c0,0,0,0,0,0c0,0,0,0,0,0c0,0,0,0,0,0c0,0,0,0,0,0c0,0,0,0,0,0c0,0,0,0,0,0c0,0,0,0,0,0c0,0,0,0,0,0c0,0,0,0,0,0c0,0,0,0,0,0
		c0,0,0,0,0,0c0,0,0,0,0,0c0,0,0,0,0,0c0,0,0,0,0,0c0,0,0,0,0,0c0,0,0,0,0,0c0,0,0,0,0,0l0,0L19.7,32.7z"/>
	<path fill="#E5DED7" d="M18.4,31.8c1.3,0.3,1.7,0.9,0.9,1.4l-1.8,1c-0.8,0.5-2.6,0.6-3.9,0.3c-1.3-0.3-1.7-0.9-0.9-1.4l1.8-1
		C15.3,31.7,17.1,31.5,18.4,31.8z"/>
	<path fill="#B72126" d="M18.3,32.4v-6c0-0.7-0.6-1.3-1.3-1.3h-0.8c-0.7,0-1.3,0.6-1.3,1.3v6.1c0,0.2,0.1,0.4,0.4,0.5
		c0.5,0.2,1.3,0.4,2.5,0C18.1,33,18.3,32.7,18.3,32.4z"/>
	<path fill="#D7CBC1" d="M20.6,34L20.6,34C20.6,34,20.6,34,20.6,34C20.6,34,20.6,34,20.6,34C20.6,34,20.6,34.1,20.6,34
		C20.6,34.1,20.6,34.1,20.6,34C20.6,34.1,20.6,34.1,20.6,34C20.6,34.1,20.6,34.1,20.6,34C20.6,34.1,20.6,34.1,20.6,34
		c0,0.1,0,0.1,0,0.1c0,0,0,0,0,0c0,0,0,0,0,0c0,0,0,0,0,0c0,0,0,0,0,0c0,0,0,0,0,0c0,0,0,0,0,0c0,0,0,0,0,0c0,0,0,0,0,0c0,0,0,0,0,0
		c0,0,0,0,0,0c0,0,0,0,0,0c0,0,0,0,0,0c0,0,0,0,0,0c0,0,0,0,0,0c0,0,0,0,0,0c0,0,0,0,0,0c0,0,0,0,0,0c0,0,0,0,0,0c0,0,0,0,0,0
		c0,0,0,0,0,0c0,0,0,0,0,0c0,0,0,0,0,0c0,0,0,0,0,0c0,0,0,0,0,0c0,0,0,0,0,0c0,0,0,0,0,0c0,0,0,0,0,0c0,0,0,0,0,0c0,0,0,0,0,0
		c0,0,0,0,0,0c0,0,0,0,0,0c0,0,0,0,0,0l1.8,1c0,0,0,0,0.1,0c0,0,0,0,0,0c0,0,0,0,0,0c0,0,0,0,0,0c0,0,0,0,0,0c0,0,0,0,0,0
		c0,0,0,0,0,0c0,0,0,0,0,0c0,0,0,0,0.1,0c0,0,0,0,0,0c0,0,0.1,0,0.1,0c0,0,0,0,0,0c0,0,0.1,0,0.1,0c0,0,0,0,0,0c0,0,0,0,0,0
		c0,0,0,0,0,0c0,0,0.1,0,0.1,0c0,0,0,0,0,0c0,0,0,0,0.1,0c0,0,0,0,0,0c0,0,0,0,0.1,0c0,0,0,0,0.1,0c0,0,0,0,0.1,0c0,0,0,0,0.1,0
		c0,0,0,0,0.1,0c0,0,0,0,0.1,0c0,0,0,0,0.1,0c0,0,0,0,0.1,0c0,0,0,0,0.1,0c0,0,0,0,0.1,0c0,0,0.1,0,0.1,0c0,0,0,0,0,0c0,0,0,0,0,0
		c0,0,0.1,0,0.1,0c0,0,0,0,0,0c0,0,0.1,0,0.1,0c0,0,0,0,0,0c0,0,0,0,0,0c0.1,0,0.1,0,0.2,0c0,0,0,0,0,0c0,0,0,0,0,0
		c0.1,0,0.1,0,0.2,0c0,0,0,0,0,0c0,0,0,0,0,0c0,0,0.1,0,0.1,0c0,0,0,0,0,0c0,0,0,0,0,0c0.1,0,0.1,0,0.2,0c0,0,0,0,0,0c0,0,0,0,0,0
		c0,0,0.1,0,0.1,0c0,0,0,0,0,0c0,0,0,0,0,0c0,0,0.1,0,0.1,0c0,0,0,0,0,0c0,0,0,0,0,0c0.1,0,0.1,0,0.2,0c0,0,0,0,0,0c0,0,0,0,0,0
		c0,0,0.1,0,0.1,0c0,0,0,0,0,0c0,0,0,0,0,0c0,0,0.1,0,0.1,0c0,0,0,0,0,0c0,0,0,0,0,0c0.1,0,0.1,0,0.2,0c0,0,0,0,0,0c0,0,0.1,0,0.1,0
		c0,0,0.1,0,0.1,0c0,0,0,0,0,0c0,0,0,0,0,0c0,0,0.1,0,0.1,0c0,0,0,0,0,0c0,0,0,0,0.1,0c0,0,0,0,0,0c0,0,0,0,0,0c0,0,0.1,0,0.1,0
		c0,0,0,0,0,0c0,0,0.1,0,0.1,0c0,0,0,0,0,0c0,0,0,0,0,0c0,0,0.1,0,0.1,0c0,0,0,0,0,0c0,0,0.1,0,0.1,0c0,0,0,0,0,0c0,0,0,0,0.1,0
		c0,0,0,0,0,0c0,0,0,0,0.1,0c0,0,0,0,0,0c0,0,0,0,0.1,0c0,0,0,0,0,0c0,0,0,0,0.1,0c0,0,0,0,0,0c0,0,0,0,0.1,0c0,0,0,0,0,0
		c0,0,0,0,0,0c0,0,0,0,0,0c0,0,0,0,0,0c0,0,0,0,0,0c0,0,0,0,0,0c0,0,0,0,0,0c0,0,0,0,0,0c0,0,0,0,0,0c0,0,0,0,0,0c0,0,0,0,0,0
		c0,0,0,0,0,0c0,0,0,0,0,0c0,0,0,0,0,0c0,0,0,0,0,0c0,0,0,0,0,0c0,0,0,0,0,0c0,0,0,0,0,0l0-1.3c0,0,0,0,0,0c0-0.2-0.1-0.4-0.4-0.5
		l-1.8-1c-0.8-0.5-2.6-0.6-3.9-0.3c-0.9,0.2-1.3,0.5-1.3,0.9c0,0,0,0,0,0L20.6,34z"/>
	<path fill="#E5DED7" d="M21.9,31.8c-1.3,0.3-1.7,0.9-0.9,1.4l1.8,1c0.8,0.5,2.6,0.6,3.9,0.3c1.3-0.3,1.7-0.9,0.9-1.4l-1.8-1
		C25,31.7,23.2,31.5,21.9,31.8z"/>
	<path fill="#B72126" d="M22,32.4v-6c0-0.7,0.6-1.3,1.3-1.3h0.8c0.7,0,1.3,0.6,1.3,1.3v6.1c0,0.2-0.1,0.4-0.4,0.5
		c-0.5,0.2-1.3,0.4-2.5,0C22.2,33,22,32.7,22,32.4z"/>
	<path fill="#F04E4A" d="M16.7,4.6c0.2,0.5,0,1.1-0.6,1.4c-0.5,0.2-1.1,0-1.4-0.6c-0.2-0.5,0-1.1,0.6-1.4
		C15.8,3.9,16.4,4.1,16.7,4.6z"/>
	<path fill="#939598" d="M17.3,7.8l-0.8,0.3c0,0-0.1,0-0.1,0l-0.8-2.4c-0.1-0.1,0-0.3,0.1-0.3l0,0c0.1-0.1,0.3,0,0.3,0.1L17.3,7.8
		C17.4,7.8,17.4,7.8,17.3,7.8z"/>
	<path fill="#F04E4A" d="M23.4,4.6c-0.2,0.5,0,1.1,0.6,1.4c0.5,0.2,1.1,0,1.4-0.6c0.2-0.5,0-1.1-0.6-1.4C24.3,3.9,23.7,4.1,23.4,4.6
		z"/>
	<path fill="#939598" d="M22.7,7.8l0.8,0.3c0,0,0.1,0,0.1,0l0.8-2.4c0.1-0.1,0-0.3-0.1-0.3l0,0c-0.1-0.1-0.3,0-0.3,0.1L22.7,7.8
		C22.7,7.8,22.7,7.8,22.7,7.8z"/>
	<path fill="#B72126" d="M12.3,14.8c-0.5-0.8-1.6-1-2.4-0.5c-0.8,0.5-1,1.6-0.5,2.4c0.5,0.8,1.6,1,2.4,0.5
		C12.7,16.7,12.9,15.6,12.3,14.8z"/>
	<path fill="#58595B" d="M10.5,16.7c-0.8,0.8-1.5,2.1-2,3.9l-1-0.3c0.6-2,1.3-3.4,2.3-4.3c0.2-0.2,0.6-0.2,0.8,0l0,0
		C10.7,16.2,10.6,16.5,10.5,16.7z"/>
	<path fill="#F04E4A" d="M4.5,22.3c-0.3,1.6,0.7,3.1,2.3,3.4c1.6,0.3,3.1-0.7,3.4-2.3c0.3-1.6-0.7-3.1-2.3-3.4
		C6.4,19.7,4.8,20.8,4.5,22.3z"/>
	<path fill="#B72126" d="M6.5,25.7c0.1,0,0.2,0.1,0.3,0.1c0.1,0,0.2,0,0.3,0l0.4-1.9l-0.5-0.1L6.5,25.7z"/>
	<path fill="#B72126" d="M7,24.7c-0.2-0.3-0.9-1.3-0.7-2c0.1-0.6,0.7-1,1.3-0.9c0.6,0.1,1,0.7,0.9,1.3C8.3,23.9,7.3,24.5,7,24.7z"/>
	<path fill="#B72126" d="M27.7,14.8c0.5-0.8,1.6-1,2.4-0.5c0.8,0.5,1,1.6,0.5,2.4c-0.5,0.8-1.6,1-2.4,0.5
		C27.4,16.7,27.2,15.6,27.7,14.8z"/>
	<path fill="#58595B" d="M29.6,16.7c0.8,0.8,1.5,2.1,2,3.9l1-0.3c-0.6-2-1.3-3.4-2.2-4.4c-0.2-0.2-0.6-0.2-0.8,0l0,0
		C29.4,16.2,29.4,16.5,29.6,16.7z"/>
	<path fill="#F04E4A" d="M35.5,22.4c0.3,1.6-0.7,3.1-2.3,3.4c-1.6,0.3-3.1-0.7-3.4-2.3c-0.3-1.6,0.7-3.1,2.3-3.4
		C33.7,19.8,35.2,20.8,35.5,22.4z"/>
	<path fill="#B72126" d="M32.9,25.8c0.1,0,0.2,0,0.3,0c0.1,0,0.2-0.1,0.3-0.1l-0.4-1.9l-0.5,0.1L32.9,25.8z"/>
	<path fill="#B72126" d="M31.5,23.2c-0.1-0.6,0.3-1.2,0.9-1.3c0.6-0.1,1.2,0.3,1.3,0.9c0.1,0.7-0.5,1.7-0.8,2
		C32.7,24.5,31.7,23.9,31.5,23.2z"/>
	<path fill="#F04E4A" d="M29.1,28.2V14c0-0.4-0.2-0.7-0.4-1l-0.6-0.6c-0.3-0.3-0.6-0.4-1-0.4H12.9c-0.4,0-0.7,0.2-1,0.4L11.3,13
		c-0.3,0.3-0.4,0.6-0.4,1v14.2c0,0.4,0.2,0.7,0.4,1l0.6,0.6c0.3,0.3,0.6,0.4,1,0.4h14.2c0.4,0,0.7-0.2,1-0.4l0.6-0.6
		C29,28.9,29.1,28.6,29.1,28.2z"/>
	<path fill="#E5DED7" d="M20,28.8L20,28.8c-4.3,0-7.8-3.5-7.8-7.8l0,0c0-4.3,3.5-7.8,7.8-7.8h0c4.3,0,7.8,3.5,7.8,7.8v0
		C27.8,25.4,24.3,28.8,20,28.8z"/>
	<path fill="#D7CBC1" d="M26.3,21.1c0,3.5-2.8,6.3-6.3,6.3c-3.5,0-6.3-2.8-6.3-6.3c0-3.5,2.8-6.3,6.3-6.3
		C23.5,14.8,26.3,17.6,26.3,21.1z"/>
	<path fill="#B37F83" d="M25.6,21.1c0,3.1-2.5,5.6-5.6,5.6c-3.1,0-5.6-2.5-5.6-5.6c0-3.1,2.5-5.6,5.6-5.6
		C23.1,15.4,25.6,18,25.6,21.1z"/>
	<path fill="#7D6466" d="M22,21.1c0,1.1-0.9,2-2,2c-1.1,0-2-0.9-2-2c0-1.1,0.9-2,2-2C21.1,19.1,22,20,22,21.1z"/>
	<path fill="#A37A7C" d="M20.7,17.7c0,0.4-0.3,0.7-0.7,0.7c-0.4,0-0.7-0.3-0.7-0.7c0-0.4,0.3-0.7,0.7-0.7
		C20.4,17,20.7,17.3,20.7,17.7z"/>
	<path fill="#A37A7C" d="M20.7,24.5c0,0.4-0.3,0.7-0.7,0.7c-0.4,0-0.7-0.3-0.7-0.7c0-0.4,0.3-0.7,0.7-0.7
		C20.4,23.8,20.7,24.1,20.7,24.5z"/>
	<path fill="#A37A7C" d="M16.6,20.4c0.4,0,0.7,0.3,0.7,0.7c0,0.4-0.3,0.7-0.7,0.7c-0.4,0-0.7-0.3-0.7-0.7
		C15.9,20.7,16.3,20.4,16.6,20.4z"/>
	<path fill="#A37A7C" d="M23.4,20.4c0.4,0,0.7,0.3,0.7,0.7c0,0.4-0.3,0.7-0.7,0.7c-0.4,0-0.7-0.3-0.7-0.7
		C22.7,20.7,23,20.4,23.4,20.4z"/>
	<path fill="#E5DED7" d="M26.9,11.9c0.2,0,0.3-0.2,0.2-0.4C25.8,8.9,23.1,7,20,7s-5.7,1.8-7.1,4.5c-0.1,0.2,0,0.4,0.2,0.4H26.9z"/>
	<path fill="#FFFFFF" d="M18.8,8.7c0,1-0.8,1.9-1.9,1.9c-1,0-1.9-0.8-1.9-1.9s0.8-1.9,1.9-1.9C18,6.8,18.8,7.7,18.8,8.7z"/>
	<path fill="#CC4747" d="M16.9,10.7c-1.1,0-2-0.9-2-2s0.9-2,2-2c1.1,0,2,0.9,2,2S18,10.7,16.9,10.7z M16.9,6.9c-1,0-1.8,0.8-1.8,1.8
		s0.8,1.8,1.8,1.8c1,0,1.8-0.8,1.8-1.8S17.9,6.9,16.9,6.9z"/>
	<path fill="#CDCECF" d="M16.9,10.2c-0.9,0-1.7-0.7-1.8-1.7c0,0,0,0.1,0,0.1c0,1,0.8,1.8,1.8,1.8c1,0,1.8-0.8,1.8-1.8
		c0,0,0-0.1,0-0.1C18.6,9.5,17.9,10.2,16.9,10.2z"/>
	<path fill="#B72126" d="M18.6,8.8c0,0.7-0.6,1.3-1.3,1.3c-0.7,0-1.3-0.6-1.3-1.3c0-0.7,0.6-1.3,1.3-1.3C18,7.5,18.6,8.1,18.6,8.8z"
		/>
	<path fill="#801214" d="M17.3,9.7c-0.6,0-1.2-0.5-1.3-1.1c0,0.1,0,0.1,0,0.2c0,0.7,0.6,1.3,1.3,1.3c0.7,0,1.3-0.6,1.3-1.3
		c0-0.1,0-0.1,0-0.2C18.5,9.3,17.9,9.7,17.3,9.7z"/>
	<path fill="#000100" d="M17.7,8.8c0,0.2-0.2,0.4-0.4,0.4c-0.2,0-0.4-0.2-0.4-0.4c0-0.2,0.2-0.4,0.4-0.4C17.5,8.4,17.7,8.6,17.7,8.8
		z"/>
	<path fill="#FFFFFF" d="M18,9.3c0,0.1-0.1,0.2-0.2,0.2c-0.1,0-0.2-0.1-0.2-0.2c0-0.1,0.1-0.2,0.2-0.2C17.9,9.2,18,9.3,18,9.3z"/>
	<path fill="#FFFFFF" d="M16.9,7.8c-0.3,0-0.5,0.2-0.6,0.4c0,0.2,0.2,0.3,0.4,0.3c0.2,0,0.4-0.2,0.4-0.4C17.1,8,17,7.9,16.9,7.8z"/>
	<path fill="#FFFFFF" d="M24.5,8.7c0,1-0.8,1.9-1.9,1.9c-1,0-1.9-0.8-1.9-1.9s0.8-1.9,1.9-1.9C23.6,6.8,24.5,7.7,24.5,8.7z"/>
	<path fill="#CC4747" d="M22.6,10.7c-1.1,0-2-0.9-2-2s0.9-2,2-2c1.1,0,2,0.9,2,2S23.7,10.7,22.6,10.7z M22.6,6.9
		c-1,0-1.8,0.8-1.8,1.8s0.8,1.8,1.8,1.8c1,0,1.8-0.8,1.8-1.8S23.6,6.9,22.6,6.9z"/>
	<path fill="#CDCECF" d="M22.6,10.2c-0.9,0-1.7-0.7-1.8-1.7c0,0,0,0.1,0,0.1c0,1,0.8,1.8,1.8,1.8c1,0,1.8-0.8,1.8-1.8
		c0,0,0-0.1,0-0.1C24.3,9.5,23.5,10.2,22.6,10.2z"/>
	<path fill="#B72126" d="M24.2,8.8c0,0.7-0.6,1.3-1.3,1.3c-0.7,0-1.3-0.6-1.3-1.3c0-0.7,0.6-1.3,1.3-1.3C23.6,7.5,24.2,8.1,24.2,8.8
		z"/>
	<path fill="#801214" d="M22.9,9.7c-0.6,0-1.2-0.5-1.3-1.1c0,0.1,0,0.1,0,0.2c0,0.7,0.6,1.3,1.3,1.3c0.7,0,1.3-0.6,1.3-1.3
		c0-0.1,0-0.1,0-0.2C24.1,9.3,23.6,9.7,22.9,9.7z"/>
	<path fill="#000100" d="M23.3,8.8c0,0.2-0.2,0.4-0.4,0.4c-0.2,0-0.4-0.2-0.4-0.4c0-0.2,0.2-0.4,0.4-0.4C23.1,8.4,23.3,8.6,23.3,8.8
		z"/>
	<path fill="#FFFFFF" d="M23.6,9.3c0,0.1-0.1,0.2-0.2,0.2c-0.1,0-0.2-0.1-0.2-0.2c0-0.1,0.1-0.2,0.2-0.2C23.5,9.2,23.6,9.3,23.6,9.3
		z"/>
	<path fill="#FFFFFF" d="M22.5,7.8c-0.3,0-0.5,0.2-0.6,0.4c0,0.2,0.2,0.3,0.4,0.3c0.2,0,0.4-0.2,0.4-0.4C22.7,8,22.6,7.9,22.5,7.8z"
		/>
	<path fill="#A19691" d="M21.3,11c0.1-0.1,0-0.1,0-0.2c-0.1-0.1-0.1,0-0.2,0c-0.3,0.4-0.8,0.6-1.3,0.6c-0.5,0-1-0.2-1.3-0.6
		c-0.1-0.1-0.1-0.1-0.2,0c-0.1,0.1-0.1,0.1,0,0.2c0.4,0.4,1,0.7,1.5,0.7C20.3,11.7,20.9,11.4,21.3,11z"/>
</g>
</svg>
