<?xml version="1.0" encoding="utf-8"?>
<!-- Generator: Adobe Illustrator 23.0.1, SVG Export Plug-In . SVG Version: 6.00 Build 0)  -->
<svg version="1.2" baseProfile="tiny" id="Layer_1" xmlns="http://www.w3.org/2000/svg" xmlns:xlink="http://www.w3.org/1999/xlink"
	 x="0px" y="0px" width="40px" height="40px" viewBox="0 0 40 40" xml:space="preserve">
<path display="none" fill="#FFFFFF" d="M6.4,11.6v16L20,34V17.2L6.4,11.6z M17.4,30.5l-1.8-0.8l0.2-7.5l0,0l-2.4,6.5L12.1,28l-2-8.6
	l0,0L9.9,27L8,26.2l0.3-11.1l2.4,1.1l2.1,9.2l0,0l2.5-7.1l2.4,1.1L17.4,30.5z M20,17.2V34l13.6-6.4v-16L20,17.2z M24.2,29.3l0-11
	l2-0.9l0,9.3l4.4-2l0,1.7L24.2,29.3z M17,10.2C17,10.2,17.1,10.2,17,10.2c0.1,0.1,0.1,0.1,0.1,0.1L17,10.9c-0.1,0-0.2,0-0.2,0.1
	c0,0,0,0,0,0l-1.7-0.5L17,10.2z M17.4,9.8L17.4,9.8L17.4,9.8c0.1,0,0.1,0,0.1,0l1.4-1.2l-2.5,0.5l0.9,0.7
	C17.3,9.8,17.4,9.8,17.4,9.8z M17.8,10.2l1.2,1.3l0.6-0.6l0,0c-0.1-0.1-0.2-0.1-0.2-0.2c0,0,0,0,0,0c0,0,0,0,0,0L17.8,10.2z
	 M16.6,11.2C16.6,11.2,16.6,11.2,16.6,11.2C16.6,11.2,16.6,11.2,16.6,11.2l-1.8-0.5l0.2,0.9l1.3,0.3l0.4-0.5
	C16.6,11.3,16.6,11.3,16.6,11.2z M17,9.9l-0.9-0.7l-1.2,1.2l2-0.4C17,10,17,9.9,17,9.9z M22.1,10.9L22,10.1l-1.4,2.4l1.3-1.1
	c0-0.1-0.1-0.1-0.1-0.2c0,0,0,0,0,0c0-0.1,0.1-0.2,0.2-0.3C22,10.9,22.1,10.9,22.1,10.9z M22.5,9.8l2.7,1.5l-0.6-1.5L22.5,9.8
	C22.5,9.8,22.5,9.8,22.5,9.8z M22.5,9.6l1.7,0l-1.7-0.9l-0.2,0.7c0,0,0.1,0,0.1,0C22.4,9.6,22.5,9.6,22.5,9.6z M16.9,11.5L16.5,12
	l0.8,0.7L16.9,11.5C16.9,11.5,16.9,11.5,16.9,11.5z M17.8,10C17.8,10,17.8,10,17.8,10C17.8,10.1,17.8,10.1,17.8,10l1.6,0.5
	c0,0,0,0,0.1-0.1c0,0,0.1-0.1,0.2-0.1c-0.2-0.6-0.3-1.2-0.5-1.8l-1.4,1.2C17.8,9.9,17.8,10,17.8,10z M22.1,9.4l0.3-0.8l-2.6-0.1
	l2.1,1C21.9,9.5,22,9.5,22.1,9.4z M33.6,11.6L20,17.2L6.4,11.6L20,6L33.6,11.6z M24.2,13c0.5-0.4,0.9-0.9,1.4-1.3
	c-0.3-0.7-0.5-1.3-0.8-2l0,0l0,0l0,0l-2.1-1.1l-3.3-0.2l-0.1,0C18.1,8.6,17.1,8.8,16,9c-0.5,0.5-1,1-1.5,1.5
	c0.1,0.4,0.2,0.8,0.3,1.2l1.5,0.4l1.2,1l2.2,0.1c0,0.1,0.1,0.1,0.1,0.1c0.1,0.1,0.2,0.1,0.4,0.1c0,0,0,0,0,0c0.1,0,0.1,0,0.2,0
	l1.7,1.3l0.2,0.2l0-1.3L24.2,13z M20.6,13.3l1.4,1.1l0-0.8L20.6,13.3C20.6,13.3,20.6,13.3,20.6,13.3z M20.6,12.8
	c0.1,0.1,0.1,0.1,0.1,0.2c0,0,0,0,0,0c0,0,0,0,0,0.1l1.3,0.2l0.1-1.8c0,0,0,0-0.1,0L20.6,12.8z M22.4,10.9c0.1,0,0.3,0,0.4,0.1
	c0.1,0.1,0.2,0.2,0.2,0.3v0l2,0.2L22.3,10c0,0,0,0,0,0L22.4,10.9L22.4,10.9z M17.5,10.3C17.5,10.3,17.5,10.3,17.5,10.3l-0.3,0.6
	c0.1,0,0.1,0,0.1,0.1c0.1,0.1,0.1,0.1,0.1,0.2c0,0,0,0,0,0c0,0.1-0.1,0.2-0.1,0.2c0,0-0.1,0.1-0.2,0.1l0.4,1.3l1.1-1.1L17.5,10.3z
	 M22.9,11.4c0,0-0.1,0.1-0.1,0.1l0,0l1.3,1.2l1.1-1.1L22.9,11.4z M22.5,11.6l-0.1,1.7l1.6-0.5L22.5,11.6
	C22.5,11.6,22.5,11.6,22.5,11.6z M17.8,12.9l1.8,0.1c0-0.1,0.1-0.1,0.1-0.2l-0.8-0.9L17.8,12.9z M19.8,11.1l-0.7,0.6l0.9,1l0,0
	L19.8,11.1C19.8,11.1,19.8,11.1,19.8,11.1z M20.3,10.5l1.3-0.7c0,0,0,0,0-0.1c0,0,0,0,0,0c0,0,0-0.1,0-0.1l-2.2-1l0.5,1.7
	C20.1,10.4,20.2,10.4,20.3,10.5C20.3,10.5,20.3,10.5,20.3,10.5z M20.5,10.7C20.5,10.7,20.5,10.7,20.5,10.7
	C20.5,10.7,20.5,10.7,20.5,10.7c0,0.2,0,0.3-0.1,0.3c-0.1,0-0.1,0.1-0.2,0.1l0.1,1.6l1.5-2.7L20.5,10.7z"/>
<path display="none" fill-rule="evenodd" fill="#FFFFFF" d="M22.8,15.8l-2.1,8.6c0,0,0,0-0.1,0c-0.3,0-0.5,0.1-0.6,0.4l-2-0.5
	c0,0,0-0.1,0-0.1c0-0.2-0.1-0.4-0.3-0.5l2.3-8.5c0,0,0,0,0.1,0c0.3,0,0.5-0.1,0.6-0.4l1.7,0.5c0,0,0,0,0,0
	C22.4,15.4,22.6,15.7,22.8,15.8z M32.7,21l-6.5,1l0,0c-0.6,0.1-1.2-0.2-1.5-0.7l-1.2-2l-1.3,4.9l5.1,1.7c0.5,0.2,0.8,0.5,1,1l0,0
	l2.6,7.8c0.3,0.8-0.2,1.7-1,1.9c-0.8,0.3-1.7-0.2-1.9-1l-2.3-7.1L18.4,26l-2.8,5.6c-0.1,0.3-0.4,0.5-0.6,0.6l-6.7,4.1
	c-0.7,0.4-1.7,0.2-2.1-0.5c-0.4-0.7-0.2-1.7,0.5-2.1l6.4-3.9l3-6l2.1-8.1L15.4,16l-2.7,5.8c-0.4,0.8-1.3,1.1-2,0.8
	c-0.8-0.4-1.1-1.3-0.8-2l3-6.6c0.2-0.5,0.7-0.9,1.3-1l6.2-0.3c-1.2-0.9-2.1-2.4-2.1-4.1c0-2.8,2.3-5.1,5.1-5.1s5.1,2.3,5.1,5.1
	c0,2.8-2.2,5-4.9,5.1l3,5.1l5.5-0.8c0.8-0.1,1.6,0.5,1.7,1.3S33.5,20.8,32.7,21z M26.3,8.7c0,0.4,0.3,0.7,0.7,0.7s0.7-0.3,0.7-0.7
	S27.4,8,27,8S26.3,8.3,26.3,8.7z M33.3,19.3c0-0.4-0.3-0.7-0.7-0.7c-0.3,0-0.6,0.3-0.7,0.6l-5.4,0.8c0-0.3-0.3-0.6-0.7-0.6
	c0,0-0.1,0-0.1,0l-2.2-3.9c0.1-0.1,0.2-0.3,0.2-0.5c0-0.4-0.3-0.7-0.7-0.7c-0.3,0-0.5,0.2-0.6,0.4l-1.7-0.4c0,0,0,0,0-0.1
	c0-0.4-0.3-0.7-0.7-0.7c-0.3,0-0.6,0.3-0.7,0.6l-4.4,0c-0.1-0.2-0.3-0.3-0.6-0.3c-0.4,0-0.7,0.3-0.7,0.7c0,0.2,0.1,0.4,0.2,0.5
	l-2.4,5.1c-0.1,0-0.2,0-0.2,0c-0.4,0-0.7,0.3-0.7,0.7c0,0.4,0.3,0.7,0.7,0.7c0.4,0,0.7-0.3,0.7-0.7c0-0.2-0.1-0.4-0.2-0.5l2.4-5.1
	c0.1,0,0.2,0.1,0.3,0.1c0.4,0,0.7-0.3,0.7-0.7c0,0,0,0,0-0.1l4.4,0c0.1,0.2,0.2,0.3,0.3,0.4l-2.3,8.5c0,0-0.1,0-0.1,0
	c-0.4,0-0.7,0.3-0.7,0.7c0,0.2,0.1,0.4,0.3,0.5L14.6,30c0,0-0.1,0-0.1,0c-0.4,0-0.7,0.3-0.7,0.7c0,0.1,0,0.2,0.1,0.4l-5.4,3.3
	C8.4,34.1,8.2,34,8,34c-0.4,0-0.7,0.3-0.7,0.7c0,0.4,0.3,0.7,0.7,0.7c0.4,0,0.7-0.3,0.7-0.7c0-0.1,0-0.2-0.1-0.3l5.4-3.3
	c0.1,0.1,0.3,0.2,0.4,0.2c0.4,0,0.7-0.3,0.7-0.7c0-0.2-0.1-0.4-0.3-0.6l2.4-5.4c0.1,0,0.1,0,0.2,0c0.2,0,0.4-0.1,0.6-0.3l2,0.5
	c0,0,0,0,0,0.1c0,0.4,0.3,0.7,0.7,0.7c0.2,0,0.4-0.1,0.5-0.2l5.1,1.8c0,0,0,0.1,0,0.1c0,0.4,0.3,0.7,0.7,0.7c0,0,0.1,0,0.1,0
	l2.1,6.3c-0.2,0.1-0.4,0.3-0.4,0.6c0,0.4,0.3,0.7,0.7,0.7c0.4,0,0.7-0.3,0.7-0.7c0-0.4-0.3-0.7-0.7-0.7c0,0,0,0-0.1,0L27.2,28
	c0.2-0.1,0.3-0.3,0.3-0.5c0-0.4-0.3-0.7-0.7-0.7c-0.2,0-0.4,0.1-0.5,0.3l-5-1.8c0-0.1,0-0.1,0-0.2c0-0.3-0.1-0.5-0.3-0.6l2.1-8.6
	c0,0,0,0,0,0c0.1,0,0.2,0,0.2,0l2.2,3.8c-0.2,0.1-0.3,0.3-0.3,0.5c0,0.4,0.3,0.7,0.7,0.7c0.3,0,0.6-0.2,0.6-0.5l5.5-0.8
	c0.1,0.3,0.3,0.5,0.6,0.5C33,20,33.3,19.7,33.3,19.3z"/>
<g display="none">
	<path display="inline" fill="#AB5D27" d="M20.4,35.3L20.4,35.3c-5.4,0-9.7-4.4-9.7-9.7V14.7C10.6,9.4,15,5,20.4,5h0
		c5.4,0,9.7,4.4,9.7,9.7v10.8C30.1,30.9,25.7,35.3,20.4,35.3z"/>
	<path display="inline" fill="#F9B09A" d="M29.2,16.7c0,0-0.1,0-0.1,0V15c0-4.8-3.9-8.7-8.7-8.7c-4.8,0-8.7,3.9-8.7,8.7v1.7
		c-1.1,0.1-2,0.9-2.2,2.1c-0.1,1.3,0.8,2.5,2.1,2.6c0.1,0,0.3,0,0.4,0c0.9,3.2,3.5,5.7,6.8,6.3c0,0.1,0,0.1,0,0.2v2c0,1.1,0.9,2,2,2
		s2-0.9,2-2v-2c0-0.1,0-0.3,0-0.4c3-0.8,5.3-3.2,6.1-6.2c1.2,0.1,2.3-0.8,2.5-2.1C31.4,18,30.5,16.9,29.2,16.7z"/>
	<path display="inline" fill="#AB5D27" d="M30.1,15.8c0-1-0.2-3.1-0.5-4.1c-1.3-3.9-5-6.7-9.3-6.7h0c-4.6,0-8.5,3.2-9.5,7.5
		c-0.2,0.7-0.3,3.3-0.3,4c5.6,0.7,11.9-0.6,15.3-4.7C26.4,14.1,28.6,15.6,30.1,15.8z"/>
	<path display="inline" fill="#7F341E" d="M17.3,19.2c0,0.6-0.5,1.1-1.1,1.1c-0.6,0-1.1-0.5-1.1-1.1c0-0.6,0.5-1.1,1.1-1.1
		C16.8,18,17.3,18.6,17.3,19.2z"/>
	<path display="inline" fill="#7F341E" d="M25.7,19.2c0,0.6-0.5,1.1-1.1,1.1c-0.6,0-1.1-0.5-1.1-1.1c0-0.6,0.5-1.1,1.1-1.1
		C25.1,18,25.7,18.6,25.7,19.2z"/>
	<path display="inline" fill="#FFFFFF" d="M17.1,22.1h6.4c0,0-1,1.5-3.2,1.5C18.2,23.6,17.1,22.1,17.1,22.1z"/>
	<path display="inline" fill="#F7A08A" d="M16.3,21.9c0,0.6-0.5,1.1-1.2,1.1c-0.6,0-1.2-0.5-1.2-1.1c0-0.6,0.5-1.1,1.2-1.1
		C15.7,20.7,16.3,21.2,16.3,21.9z"/>
	<path display="inline" fill="#F7A08A" d="M26.8,21.9c0,0.6-0.5,1.1-1.2,1.1s-1.2-0.5-1.2-1.1c0-0.6,0.5-1.1,1.2-1.1
		S26.8,21.2,26.8,21.9z"/>
	<path display="inline" fill="#FFFFFF" d="M11,34H6.6v-5.1c0-0.5-0.4-0.8-0.8-0.8S5,28.4,5,28.9v6c0,0.5,0.4,0.8,0.8,0.8H11
		c0.5,0,0.8-0.4,0.8-0.8C11.8,34.4,11.4,34,11,34z"/>
	<path display="inline" fill="#FFFFFF" d="M11,4.3H5.8C5.4,4.3,5,4.7,5,5.2v6c0,0.5,0.4,0.8,0.8,0.8s0.8-0.4,0.8-0.8V6H11
		c0.5,0,0.8-0.4,0.8-0.8C11.8,4.7,11.4,4.3,11,4.3z"/>
	<path display="inline" fill="#FFFFFF" d="M34.2,4.3H29c-0.5,0-0.8,0.4-0.8,0.8C28.2,5.6,28.6,6,29,6h4.3v5.1c0,0.5,0.4,0.8,0.8,0.8
		c0.5,0,0.8-0.4,0.8-0.8v-6C35,4.7,34.6,4.3,34.2,4.3z"/>
	<path display="inline" fill="#FFFFFF" d="M34.2,28.1c-0.5,0-0.8,0.4-0.8,0.8V34H29c-0.5,0-0.8,0.4-0.8,0.8c0,0.5,0.4,0.8,0.8,0.8
		h5.2c0.5,0,0.8-0.4,0.8-0.8v-6C35,28.4,34.6,28.1,34.2,28.1z"/>
</g>
<g display="none">
	<g display="inline">
		<path fill="#FFFFFF" d="M9.7,34.4c-2.2,0-4-1.8-4-4V9.6c0-2.2,1.8-4,4-4h20.6c2.2,0,4,1.8,4,4v20.8c0,2.2-1.8,4-4,4H9.7z"/>
		<path fill="#138FCE" d="M30.3,6.3c1.9,0,3.4,1.5,3.4,3.4v20.8c0,1.9-1.5,3.4-3.4,3.4H9.7c-1.9,0-3.4-1.5-3.4-3.4V9.6
			c0-1.9,1.5-3.4,3.4-3.4H30.3 M30.3,4.9H9.7C7.1,4.9,5,7,5,9.6v20.8c0,2.6,2.1,4.7,4.7,4.7h20.6c2.6,0,4.7-2.1,4.7-4.7V9.6
			C35,7,32.9,4.9,30.3,4.9L30.3,4.9z"/>
	</g>
	<g display="inline">
		<g>
			<path fill="#231F20" d="M22.5,17.4l5,0l0-5l-5,0L22.5,17.4z M23.1,13.1l3.7,0l0,3.7l-3.7,0L23.1,13.1z"/>
			<rect x="23.9" y="13.9" fill="#231F20" width="2.1" height="2.1"/>
			<path fill="#231F20" d="M12.5,17.4l5,0l0-5l-5,0L12.5,17.4z M13.2,13.1l3.7,0l0,3.7l-3.7,0L13.2,13.1z"/>
			<rect x="14" y="13.9" fill="#231F20" width="2.1" height="2.1"/>
			<path fill="#231F20" d="M17.5,22.6l-5,0l0,5l5,0L17.5,22.6z M16.9,26.9l-3.7,0l0-3.7l3.7,0L16.9,26.9z"/>
			<rect x="14" y="24" fill="#231F20" width="2.1" height="2.1"/>
			<path fill="#231F20" d="M27.4,22.6l-5,0l0,5l5,0L27.4,22.6z M26.8,26.9l-3.7,0l0-3.7l3.7,0L26.8,26.9z"/>
			<rect x="23.9" y="24" fill="#231F20" width="2.1" height="2.1"/>
			<rect x="21.1" y="13.9" fill="#231F20" width="0.7" height="0.7"/>
			<polygon fill="#231F20" points="19.7,14 19.7,13.9 19.7,12.5 20.4,12.5 20.4,13.9 20.4,14 20.4,14.6 19.7,14.6 			"/>
			<rect x="18.2" y="14.6" fill="#231F20" width="0.7" height="1.4"/>
			<rect x="18.2" y="18.2" fill="#231F20" width="0.7" height="0.7"/>
			<rect x="12.5" y="18.2" fill="#231F20" width="0.7" height="0.7"/>
			<polygon fill="#231F20" points="14,19.6 13.3,19.6 13.3,18.9 13.9,18.9 13.9,18.2 14.6,18.2 14.6,18.9 14,18.9 			"/>
			<rect x="22.5" y="18.2" fill="#231F20" width="0.7" height="0.7"/>
			<polygon fill="#231F20" points="23.9,19.6 23.2,19.6 23.2,18.9 23.9,18.9 23.9,18.2 24.6,18.2 24.6,18.9 23.9,18.9 			"/>
			<polygon fill="#231F20" points="26.7,19.6 24.6,19.6 24.6,18.9 26,18.9 26,18.2 27.5,18.2 27.5,18.9 26.7,18.9 			"/>
			<polygon fill="#231F20" points="25.3,21.1 24.6,21.1 23.9,21.1 23.9,21.8 23.2,21.8 23.2,21.1 23.9,21.1 23.9,20.3 24.6,20.3 
				26,20.3 26,21.1 27.5,21.1 27.5,21.8 25.3,21.8 			"/>
			<polygon fill="#231F20" points="22.5,21.8 20.4,21.8 20.4,21.8 19.7,21.8 19.7,20.3 20.4,20.3 20.4,21.1 21.1,21.1 21.1,20.3 
				23.2,20.3 23.2,21.1 22.5,21.1 			"/>
			<rect x="18.2" y="16.8" fill="#231F20" width="0.7" height="0.7"/>
			<rect x="18.2" y="12.5" fill="#231F20" width="0.7" height="1.5"/>
			<rect x="21.1" y="24" fill="#231F20" width="0.7" height="0.7"/>
			<rect x="19.7" y="22.6" fill="#231F20" width="0.7" height="1.5"/>
			<polygon fill="#231F20" points="19,26.1 19.7,26.1 19.7,24.6 20.4,24.6 20.4,27.5 19.8,27.5 19.8,27.5 18.9,27.5 18.9,27.5 
				18.2,27.5 18.2,26.8 18.9,26.8 18.9,26.1 18.2,26.1 18.2,24.6 19,24.6 			"/>
			<rect x="21.1" y="25.4" fill="#231F20" width="0.7" height="2.2"/>
			<rect x="18.2" y="22.6" fill="#231F20" width="0.7" height="1.5"/>
			<rect x="21.1" y="17.5" fill="#231F20" width="0.7" height="2.2"/>
			<polygon fill="#231F20" points="21.1,16.8 20.4,16.8 20.4,19.6 19.7,19.6 19.7,15.3 20.4,15.3 20.4,15.3 21.1,15.3 			"/>
			<polygon fill="#231F20" points="16.8,19.6 18.9,19.6 18.9,20.2 18.9,20.4 18.9,21.8 18.2,21.8 18.2,20.4 16.8,20.4 			"/>
			<polygon fill="#231F20" points="14,20.4 14,21.1 14.6,21.1 14.6,20.4 15.3,20.4 15.3,19.6 14.6,19.6 14.6,18.9 16.1,18.9 
				16.1,18.2 17.5,18.2 17.5,18.9 16.8,18.9 16.8,19.6 16,19.6 16,20.4 15.3,20.4 15.3,21.1 16.9,21.1 16.9,21.8 12.5,21.8 
				12.5,21.1 12.5,21.1 12.5,20.4 			"/>
		</g>
		<g>
			<g>
				<path fill="#48C7F4" d="M30.1,14.1c0.2,0,0.4-0.2,0.4-0.4l0-3.8c0-0.2-0.2-0.4-0.4-0.4l-3.8,0c-0.2,0-0.4,0.2-0.4,0.4
					c0,0.2,0.2,0.4,0.4,0.4l3.4,0l0,3.4C29.7,13.9,29.9,14.1,30.1,14.1z"/>
			</g>
			<g>
				<path fill="#48C7F4" d="M9.9,14.1c0.2,0,0.4-0.2,0.4-0.4l0-3.4l3.4,0c0.2,0,0.4-0.2,0.4-0.4c0-0.2-0.2-0.4-0.4-0.4l-3.8,0
					c-0.2,0-0.4,0.2-0.4,0.4l0,3.8C9.5,13.9,9.7,14.1,9.9,14.1z"/>
			</g>
			<g>
				<path fill="#48C7F4" d="M26.4,30.5l3.8,0c0.2,0,0.4-0.2,0.4-0.4l0-3.8c0-0.2-0.2-0.4-0.4-0.4c-0.2,0-0.4,0.2-0.4,0.4l0,3.4
					l-3.4,0c-0.2,0-0.4,0.2-0.4,0.4S26.1,30.5,26.4,30.5z"/>
			</g>
			<g>
				<path fill="#48C7F4" d="M9.9,30.5l3.8,0c0.2,0,0.4-0.2,0.4-0.4c0-0.2-0.2-0.4-0.4-0.4l-3.4,0l0-3.4c0-0.2-0.2-0.4-0.4-0.4
					c-0.2,0-0.4,0.2-0.4,0.4l0,3.8C9.5,30.3,9.7,30.5,9.9,30.5z"/>
			</g>
		</g>
	</g>
</g>
<g display="none">
	<path display="inline" fill="#FDD900" d="M11.4,36.4h18.7c0-0.9,0-1.9,0-2.7c-0.1-1.2-0.4-2.4-0.9-3.5l-2.3-5c0,0-3.5-0.9-4.4-0.4
		c-3.2,1.6-6.8,0.7-6.8,0.7l0-0.1c-0.1,0-0.1,0.1-0.1,0.1c-0.5,0.9-1.2,1.9-1.6,2.8c-1.1,2.6-2.9,5-2.6,7.8
		C11.3,36.2,11.3,36.3,11.4,36.4z"/>
	<g id="head" display="inline">
		<path fill="#FDDBC5" d="M10.1,11.7c0,0.5-0.1,0.9-0.1,1.4c-0.1,0.9-0.4,2-1.1,2.5c-0.1,0.1-0.2,0.1-0.3,0.2
			c-0.2,0.2,0,0.4,0.2,0.5c0.1,0.1,0.2,0.1,0.2,0.2c0,0.1,0,0.2,0.1,0.3c0.1,0.8,0.4,1.7,0.7,2.4c0.2,0.4,0.4,0.9,0.8,1.2
			c0.4,0.3,0.8,0.3,1.2,0.3c1.5,0,3-0.8,4.2-1.8c0.9-0.8,2.2-1.4,2.9-2.4c1.2-1.8,1-4.3,1.3-6.2c0-0.3-1.2-0.7-1.5-0.8
			c-0.3-0.1-0.8,0.1-1.1,0.1c-0.8,0.1-1.6,0.1-2.3,0.2c-1.5,0.1-3.1,0.3-4.6,0.4c-0.1,0-0.1,0-0.2,0c-0.1,0-0.1,0.1-0.1,0.2
			C10.3,10.8,10.2,11.2,10.1,11.7z"/>
		<path fill="#FDDBC5" d="M16.3,17.9l-0.7,7.5c0,0,5.9,1.4,9.4-2.8c0,0-5.4-6.9-7.5-8L16.3,17.9z"/>
		<ellipse fill="#23093A" cx="11.9" cy="13.3" rx="0.3" ry="0.5"/>
		<path fill="#23093A" d="M11.5,17c0.2,0.7-0.1,1.4-0.7,1.6c-0.5,0.2-1.1-0.3-1.3-1L11.5,17z"/>
		<path fill="#23093A" d="M12.6,12.5C12.6,12.5,12.6,12.5,12.6,12.5c0.1,0,0.1-0.1,0.1-0.1c-0.1-0.4-0.5-0.6-0.9-0.5
			c-0.1,0-0.1,0.1-0.1,0.1c0,0.1,0.1,0.1,0.1,0.1C12.1,11.9,12.4,12.1,12.6,12.5C12.5,12.4,12.5,12.5,12.6,12.5z"/>
		<path fill="#EEC2AB" d="M18.1,13.9C18.1,13.9,18.1,13.9,18.1,13.9c0.1-0.1,0.1-0.2,0.1-0.2c-0.1-0.1-0.1-0.2,0-0.3
			c0-0.2,0.1-0.3,0.3-0.4c0.3-0.1,0.5,0,0.7,0.2c0,0.1,0.1,0.1,0.2,0c0,0,0.1-0.1,0-0.2c-0.3-0.4-0.7-0.5-1-0.3
			c-0.2,0.1-0.3,0.3-0.4,0.6C17.8,13.5,17.9,13.7,18.1,13.9C18,13.9,18,13.9,18.1,13.9z"/>
	</g>
	<g id="hair" display="inline">
		<path fill="#231F20" d="M28.9,29.6c-0.5-0.2-0.7-1.7-2.3-1.7c-1.2,0-2.2,0.6-3.5,0c-0.6-0.3-1.2-0.9-1.5-1.6c-0.6-1.6,0.4-4-1-5.3
			c-0.7-0.6-1.6-0.9-2-1.8c-0.5-1.1-0.5-2.3-0.4-3.5c0-0.1,0-0.3,0.1-0.4c0.1-0.1,0.3-0.1,0.4-0.2c0.8-0.2,1.4-1.3,1-2.1
			c-0.4-0.8-1.7-0.8-2,0c-0.1,0.3-0.2,0.6-0.5,0.6c-0.3,0-0.3-0.4-0.3-0.7c0.1-0.4,0.2-2.6,0.3-3c0,0.1-0.6,0.4-0.7,0.4
			c-0.6,0.3-1.3,0.6-2,0.7c-1,0.2-1.9,0.3-2.9,0.3c-0.7,0-1.4-0.1-2.2-0.3c-0.7-0.1-1.4-0.3-1.9-0.8c-0.8-0.9-0.5-2.2,0-3.2
			c0.6-1.1,1.7-1.7,2.9-2c0.3-0.1,0.6-0.1,0.8-0.1c1.3-0.1,2.6,0.3,3.9,0.5c1.4,0.2,2.7,0.2,4.1,0.6c1.6,0.4,3,1.5,3.9,2.9
			c1.1,1.6,1.2,3.6,2.1,5.2c1.3,2.5,3.3,1.4,6,4.8c0.8,1,0.8,2.3,1,3.6c0.1,0.6,0.3,1.2,0.6,1.7c0.4,0.5,0.9,0.9,1.2,1.6
			c0.4,1.1,0.3,2.7-0.7,3.3c-0.4,0.2-0.7,0.4-0.9,0.8c-0.2,0.4-0.3,0.9-0.6,1.3c-0.2,0.3-0.4,0.5-0.7,0.6c-0.2,0.1-0.9,0.3-1.1,0.1
			c0,0-0.5-0.8-0.5-0.8L28.9,29.6z"/>
		<path fill="#424143" d="M9.1,6.9c0-0.2,0.1-0.3,0.2-0.5c0.2-0.3,0.5-0.6,0.9-0.7c0.6-0.2,1.2-0.1,1.7,0.1c0.5,0.2,1,0.4,1.5,0.7
			c0.5,0.3,1,0.4,1.6,0.5c0.1,0,0.2,0,0.3,0c0.1,0,0.1,0.2,0,0.2c-0.6,0-1.2-0.2-1.8-0.4c-0.5-0.2-0.9-0.5-1.4-0.7
			c-0.3-0.1-0.6-0.2-1-0.3c-0.3-0.1-0.5-0.1-0.8,0C10.1,6,9.8,6.2,9.6,6.5c0,0,0,0,0,0c0,0,0,0,0,0c0,0,0,0.1-0.1,0.1
			c0,0.1-0.1,0.1-0.1,0.2c0,0,0,0,0,0.1c0,0,0,0,0,0c0,0,0,0,0,0c0,0,0,0,0,0.1c0,0,0,0,0,0C9.3,7.1,9.1,7.1,9.1,6.9L9.1,6.9z"/>
		<path fill="#424143" d="M28.2,26.6C28.2,26.6,28.3,26.6,28.2,26.6c0.1-0.1,0.1-0.2,0-0.2c-0.1,0-0.3-0.1-0.4-0.1
			c-0.9-0.2-1.8-0.4-2.6-0.9c-0.9-0.6-1-1.4-1.2-2.4c0-0.2-0.1-0.4-0.1-0.7c-0.2-0.7-0.4-1.4-0.8-2c-0.4-0.6-0.9-1.1-1.5-1.4
			c-1.4-0.8-2-1.8-1.7-3c0-0.1,0-0.1-0.1-0.1c-0.1,0-0.1,0-0.1,0.1c-0.2,0.7-0.1,1.4,0.4,2c0.3,0.5,0.8,0.9,1.5,1.3
			c1,0.6,1.8,1.8,2.2,3.3c0.1,0.2,0.1,0.4,0.1,0.6c0.2,1,0.4,1.9,1.3,2.6c0.8,0.5,1.8,0.7,2.7,0.9C27.9,26.5,28,26.6,28.2,26.6
			C28.2,26.6,28.2,26.6,28.2,26.6z"/>
		<path fill="#424143" d="M22.8,10.3c0.4,1,1,1.9,1.7,2.5c0.7,0.7,1.6,1.1,2.6,1.3c1.1,0.2,2.3,0,3.3,0.4c0.5,0.2,0.9,0.5,1.3,0.9
			c0.4,0.4,0.6,0.9,0.8,1.4c0.5,1.2,0.6,2.5,0.6,3.8c0,0.2,0,0.3,0,0.5c0,0.1-0.2,0.1-0.2,0c0-1.3,0-2.7-0.5-3.9c-0.4-1-1-2-2-2.4
			c-1.1-0.5-2.2-0.3-3.3-0.5c-1-0.1-1.9-0.6-2.7-1.2c-0.8-0.6-1.4-1.5-1.8-2.4c-0.1-0.1-0.1-0.2-0.1-0.4c0-0.1,0-0.1,0.1-0.1
			C22.8,10.2,22.8,10.3,22.8,10.3L22.8,10.3z"/>
		<path fill="#424143" d="M28,18c0.2-0.1,0.3,0,0.4,0.2c0.1,0.2,0.1,0.4,0,0.6c-0.1,0.2-0.2,0.4-0.1,0.6c0,0.2,0.1,0.3,0.2,0.3
			c0.3,0.2,0.7,0.2,1,0.3c0.4,0.1,0.8,0.3,1.1,0.7c0.3,0.3,0.5,0.8,0.4,1.2c0,0.2-0.1,0.4-0.1,0.7c-0.1,0.2-0.1,0.4,0,0.7
			c0.1,0.2,0.2,0.4,0.4,0.5c0.2,0.2,0.3,0.3,0.4,0.5c0.3,0.3,0.5,0.7,0.6,1.2c0.1,0.4,0.1,0.8,0,1.1c-0.1,0.3-0.3,0.6-0.6,0.8
			c-0.1,0-0.1,0.1-0.2,0.1c-0.1,0-0.1-0.1,0-0.2c0.6-0.1,0.9-1,0.8-1.6c-0.1-0.4-0.3-0.8-0.5-1.2c-0.1-0.2-0.3-0.3-0.4-0.5
			c-0.1-0.1-0.3-0.3-0.4-0.5c-0.1-0.2-0.2-0.4-0.2-0.6c0-0.2,0.1-0.4,0.2-0.7c0.1-0.4,0-0.9-0.2-1.2c-0.2-0.4-0.6-0.6-0.9-0.8
			c-0.3-0.1-0.7-0.2-1-0.3c-0.3-0.1-0.5-0.3-0.6-0.7c0-0.2,0.1-0.4,0.2-0.6c0.1-0.2,0.1-0.4-0.1-0.5c0-0.1-0.1-0.1-0.2,0
			C28,18.2,27.9,18,28,18L28,18z"/>
		<path fill="#424143" d="M10.4,5c0.5-0.8,1.4-1.2,2.3-1.1c0.5,0.1,0.9,0.4,1.4,0.6c0.4,0.3,1,0.5,1.5,0.3c0.4-0.1,0.8-0.6,0.6-1.1
			c0-0.1,0-0.1,0-0.2c0,0,0.1,0,0.1,0c0.2,0.5,0,0.9-0.4,1.2c-0.4,0.3-1,0.3-1.5,0.1C14,4.8,13.5,4.4,13,4.2c-0.4-0.2-0.9-0.2-1.3,0
			c-0.5,0.1-0.9,0.5-1.2,0.9c0,0-0.1,0.1-0.1,0C10.4,5.1,10.3,5,10.4,5L10.4,5z"/>
		<path fill="#424143" d="M32.4,23.4c0,0.6,0.3,1.1,0.7,1.5c0.4,0.4,0.9,0.7,1.3,1.2c0.4,0.5,0.6,1.1,0.5,1.7c0,0.6-0.2,1.2-0.6,1.6
			c-0.1,0.1-0.2,0.2-0.3,0.3c-0.1,0.1-0.3,0.2-0.4,0.3c-0.2,0.2-0.5,0.5-0.5,0.8c0,0.1-0.1,0.1-0.1,0c-0.1-0.3,0.1-0.6,0.3-0.8
			c0.2-0.2,0.5-0.4,0.7-0.6c0.4-0.4,0.7-0.9,0.7-1.5c0.1-0.6-0.1-1.3-0.4-1.8c-0.3-0.5-0.9-0.8-1.3-1.2c-0.5-0.4-0.9-1-0.9-1.7
			C32.3,23.3,32.4,23.3,32.4,23.4L32.4,23.4z"/>
	</g>
	<g display="inline">
		<path fill="#FDDBC5" d="M7.6,35.1c0,0,0.1,0.5,0.4,1.3h3.2c-0.4-0.8-0.7-1.5-0.9-2L10,33.7c0,0,0.6-2.5,1.3-3.6
			c0.4-0.6,0.6-0.9,0.7-1c0.1-0.1,0.1-0.1,0.1-0.1s0.2-0.7-0.6-0.3c-0.7,0.4-1.2,1.3-1.7,1.9c0-0.1-1.8-4.4-2.5-5.7
			c-1.1-2-0.8-0.2-0.8-0.2l0.8,2.8c0,0-1.3,0.7-2.1,1.5c-0.8,0.8,2.2,5.1,2.2,5.1L7.6,35.1z"/>
		<path fill="#FDDBC5" d="M30,36.4c0.1-0.3,0.1-0.5,0.2-0.8c0.5-2.1,0.7-4.7-0.7-6.3c-0.2-0.2-2.2-1.7-2.5-1.2c0,0-2.4,4.1-4.9,8.3
			H30z"/>
	</g>
</g>
<g display="none">
	<path display="inline" fill="#E41D3C" d="M20,13.3c-1.9-1.1-5.3-1.8-8.5,0C8.3,15.2,7.1,19.5,8,23.9c1,4.4,4.5,9.9,6.9,10.8
		c1.6,0.6,4.1-0.7,5.2-0.4c1.1,0.3,2.6,1.3,5.7,0c3.1-1.4,5.5-8.1,6.3-12.4c0.8-4.3-1.9-7.9-5.5-9.2C23,11.4,20,13.3,20,13.3z"/>
	<path display="inline" fill="#C91F3D" d="M19.7,15.1c2.2-0.1,2-1.9,4.8-2.8c-2.6-0.2-4.5,1-4.5,1c-1.3-0.8-3.3-1.4-5.5-1
		C16.9,12.4,17.6,15.2,19.7,15.1z"/>
	<path display="inline" fill="#743918" d="M19.4,15.1C19.3,11.3,21,6.5,23.1,5c0.3,0.3,0.7,1,0.7,1s-3.6,3.3-3.7,9.1
		C20,15.2,19.4,15.1,19.4,15.1z"/>
	<path display="inline" fill="#643514" d="M20,10.6c-0.4,1.5-0.6,3.1-0.6,4.5c0,0,0.6,0.1,0.7,0c0-0.9,0.1-1.7,0.3-2.5
		C19.9,12.5,19.8,11.8,20,10.6z"/>
	<path display="inline" fill="#C91F3D" d="M17.6,14.6c0.4,0.1,0.8,0.1,1.2,0.2c0.4,0,0.7,0.1,1.1,0.1c0.4,0,0.7,0,1.1-0.1
		c0.2,0,0.4-0.1,0.6-0.1c0.2,0,0.4-0.1,0.6-0.1c-0.1,0.1-0.2,0.1-0.2,0.2c-0.1,0.1-0.2,0.1-0.3,0.2c-0.2,0.1-0.4,0.2-0.6,0.3
		c-0.4,0.1-0.8,0.2-1.2,0.2c-0.1,0-0.2,0-0.3,0c-0.1,0-0.2,0-0.3,0c-0.1,0-0.2,0-0.3-0.1c-0.1,0-0.2-0.1-0.3-0.1
		C18.3,15.1,17.9,14.9,17.6,14.6z"/>
	<path display="inline" fill="#C46C29" d="M23.6,5.4c0.2,0.3,0.3,0.5,0.2,0.6c-0.1,0.1-0.3-0.1-0.5-0.4C23.1,5.3,23,5.1,23.1,5
		C23.2,5,23.4,5.1,23.6,5.4z"/>
	<path display="inline" fill="#28A64E" d="M10.3,5.3c0.4,1.6,3.9,5.9,9.8,5.2C19,6.3,17,5.9,14.8,5.8C12.5,5.7,10.3,5.3,10.3,5.3z"
		/>
	<path display="inline" fill="#039046" d="M14.8,7.8c-1.8-0.6-3.4-1.4-4.5-2.5c0,0,0,0,0,0c0.4,1.6,3.9,5.9,9.8,5.2
		C18.4,8.3,16.9,8.5,14.8,7.8z"/>
	<path display="inline" fill="#1E763B" d="M12.4,6.8c0.7,0.2,1.4,0.5,2,0.7c0.3,0.1,0.7,0.2,1,0.3c0.3,0.1,0.7,0.2,1,0.3l0.3,0.1
		c0.1,0,0.2,0,0.3,0.1c0.2,0,0.4,0.1,0.5,0.2c0.2,0.1,0.3,0.2,0.5,0.2c0.2,0.1,0.3,0.2,0.5,0.3c0.3,0.2,0.6,0.4,0.8,0.7
		c0.3,0.3,0.5,0.5,0.7,0.8c-0.3-0.3-0.5-0.5-0.8-0.7c-0.3-0.2-0.6-0.4-0.9-0.6c-0.3-0.2-0.6-0.3-0.9-0.4c-0.2-0.1-0.3-0.1-0.5-0.2
		c-0.1,0-0.2,0-0.3-0.1c-0.1,0-0.2,0-0.3-0.1c-0.7-0.2-1.4-0.4-2.1-0.7C13.7,7.5,13.1,7.2,12.4,6.8z"/>
	<path display="inline" fill="#C91F3D" d="M12.4,12.9c-0.3,0.1-0.6,0.3-0.9,0.4C8.3,15.2,7.1,19.5,8,23.9c1,4.4,4.5,9.9,6.9,10.8
		c1.6,0.6,4.1-0.7,5.2-0.4c1.1,0.3,2.6,1.3,5.7,0c2.1-1,4-4.5,5.2-8.1C22.1,35.2,8.1,24.1,12.4,12.9z"/>
	<path display="inline" fill="#C71730" d="M21.6,33.6c-2.9-1.4-3.4,0.6-5.9,0.2c-2.1-0.4-6.4-6.3-7.8-11.1c0.1,0.4,0.1,0.8,0.2,1.2
		c1,4.4,4.5,9.9,6.9,10.8c1.6,0.6,4.1-0.7,5.2-0.4c1.1,0.3,2.6,1.3,5.7,0c0.4-0.2,0.9-0.5,1.3-0.9C25.5,34.3,23.5,34.5,21.6,33.6z"
		/>
</g>
<g display="none">
	<rect display="inline" fill="#6A52A1" width="40" height="40"/>
	<g display="inline">
		<g>
			<path fill="#FFFFFF" d="M6,20.9H4.2v-9.2H6V20.9z"/>
			<path fill="#FFFFFF" d="M13.3,17.1H9.7v3.8H7.9v-9.2h6v1.4H9.7v2.5h3.5V17.1z"/>
			<path fill="#FFFFFF" d="M21.5,13.1h-2.6v7.8H17v-7.8h-2.6v-1.4h7.1V13.1z"/>
			<path fill="#FFFFFF" d="M29.1,13.1h-2.6v7.8h-1.9v-7.8H22v-1.4h7.1V13.1z"/>
			<path fill="#FFFFFF" d="M36.6,13.1H34v7.8h-1.9v-7.8h-2.6v-1.4h7.1V13.1z"/>
		</g>
		<g>
			<path fill="#FFFFFF" d="M5.4,27.1l0.2,0.8h0l0.2-0.8l1.2-3.8h0.2l1.2,3.8l0.2,0.8h0l0.2-0.8l1-3.8h0.2l-1.3,5H8.6l-1.2-4.1
				l-0.2-0.5h0L7,24.2l-1.2,4.1H5.5l-1.3-5h0.2L5.4,27.1z"/>
			<path fill="#FFFFFF" d="M12.2,28.4c-0.4,0-0.8-0.2-1.1-0.5c-0.3-0.3-0.5-0.8-0.5-1.3v-0.2c0-0.5,0.1-1,0.4-1.3
				c0.3-0.3,0.7-0.5,1.1-0.5c0.4,0,0.7,0.1,1,0.4c0.2,0.3,0.4,0.6,0.4,1.1v0.3h-2.7v0v0.2c0,0.5,0.1,0.8,0.4,1.1
				c0.3,0.3,0.6,0.5,1,0.5c0.2,0,0.4,0,0.6-0.1c0.2-0.1,0.4-0.2,0.5-0.3l0.1,0.1c-0.1,0.1-0.3,0.3-0.5,0.4
				C12.7,28.3,12.5,28.4,12.2,28.4z M12.2,24.7c-0.4,0-0.7,0.1-0.9,0.4c-0.2,0.3-0.4,0.6-0.4,1l0,0h2.5V26c0-0.4-0.1-0.7-0.3-0.9
				C12.9,24.8,12.6,24.7,12.2,24.7z"/>
			<path fill="#FFFFFF" d="M17.3,26.5c0,0.6-0.1,1-0.4,1.4c-0.2,0.3-0.6,0.5-1,0.5c-0.3,0-0.5-0.1-0.8-0.2c-0.2-0.1-0.4-0.3-0.5-0.5
				l0,0.6h-0.2v-1c0,0,0,0,0,0c0,0,0,0,0,0v-1.5c0,0,0,0,0,0c0,0,0,0,0,0V23h0.2v2.3c0.1-0.2,0.3-0.4,0.5-0.5
				c0.2-0.1,0.5-0.2,0.7-0.2c0.4,0,0.8,0.2,1,0.5C17.2,25.4,17.3,25.9,17.3,26.5L17.3,26.5z M17.1,26.5c0-0.5-0.1-0.9-0.3-1.2
				c-0.2-0.3-0.5-0.5-0.9-0.5c-0.4,0-0.6,0.1-0.8,0.3c-0.2,0.2-0.3,0.4-0.4,0.6v1.8c0.1,0.2,0.2,0.4,0.5,0.6
				c0.2,0.1,0.5,0.2,0.8,0.2c0.4,0,0.7-0.2,0.9-0.5C17,27.4,17.1,27,17.1,26.5L17.1,26.5z"/>
			<path fill="#FFFFFF" d="M18.5,25.4c0.1-0.3,0.3-0.5,0.5-0.6c0.2-0.1,0.5-0.2,0.8-0.2c0.4,0,0.7,0.1,0.9,0.4
				c0.2,0.2,0.3,0.6,0.3,1.2v2.2h-0.2V26c0-0.5-0.1-0.8-0.3-1c-0.2-0.2-0.4-0.3-0.7-0.3c-0.4,0-0.7,0.1-0.9,0.3
				c-0.2,0.2-0.3,0.5-0.4,0.9v2.4h-0.2v-1.9h0c0,0,0-0.1,0-0.1c0,0,0-0.1,0-0.1V23h0.2V25.4z"/>
			<path fill="#FFFFFF" d="M21.8,26.4c0-0.5,0.1-1,0.4-1.3c0.3-0.3,0.7-0.5,1.2-0.5c0.5,0,0.9,0.2,1.2,0.5c0.3,0.3,0.4,0.8,0.4,1.3
				v0.1c0,0.5-0.1,1-0.4,1.3c-0.3,0.3-0.7,0.5-1.2,0.5c-0.5,0-0.9-0.2-1.2-0.5c-0.3-0.3-0.5-0.8-0.5-1.3V26.4z M22,26.5
				c0,0.5,0.1,0.9,0.4,1.2c0.3,0.3,0.6,0.5,1,0.5c0.4,0,0.8-0.2,1-0.5c0.3-0.3,0.4-0.7,0.4-1.2v-0.1c0-0.5-0.1-0.8-0.4-1.2
				c-0.3-0.3-0.6-0.5-1-0.5c-0.4,0-0.8,0.2-1,0.5c-0.3,0.3-0.4,0.7-0.4,1.2V26.5z"/>
			<path fill="#FFFFFF" d="M25.7,26.4c0-0.5,0.2-1,0.5-1.3c0.3-0.3,0.7-0.5,1.2-0.5c0.5,0,0.9,0.2,1.2,0.5c0.3,0.3,0.4,0.8,0.4,1.3
				v0.1c0,0.5-0.2,1-0.4,1.3c-0.3,0.3-0.7,0.5-1.2,0.5c-0.5,0-0.9-0.2-1.2-0.5c-0.3-0.3-0.5-0.8-0.5-1.3V26.4z M25.9,26.5
				c0,0.5,0.1,0.9,0.4,1.2c0.3,0.3,0.6,0.5,1,0.5c0.4,0,0.8-0.2,1-0.5c0.3-0.3,0.4-0.7,0.4-1.2v-0.1c0-0.5-0.1-0.8-0.4-1.2
				c-0.3-0.3-0.6-0.5-1-0.5c-0.4,0-0.8,0.2-1,0.5c-0.3,0.3-0.4,0.7-0.4,1.2V26.5z"/>
			<path fill="#FFFFFF" d="M30.5,26.4H30v1.9h-0.2V23H30v3.3h0.4l1.7-1.6h0.2l0,0l-1.7,1.7l1.8,2l0,0h-0.2L30.5,26.4z"/>
			<path fill="#FFFFFF" d="M35.4,27.4c0-0.2-0.1-0.4-0.3-0.5c-0.2-0.2-0.5-0.3-0.9-0.4c-0.4-0.1-0.8-0.2-1-0.4
				C33.1,26,33,25.8,33,25.5c0-0.3,0.1-0.5,0.3-0.7c0.2-0.2,0.5-0.3,0.9-0.3c0.4,0,0.7,0.1,1,0.3c0.2,0.2,0.3,0.4,0.3,0.7l0,0h-0.2
				c0-0.2-0.1-0.4-0.3-0.6c-0.2-0.2-0.5-0.3-0.8-0.3c-0.3,0-0.6,0.1-0.8,0.2c-0.2,0.1-0.3,0.3-0.3,0.5c0,0.2,0.1,0.4,0.2,0.5
				c0.2,0.1,0.4,0.3,0.9,0.4c0.4,0.1,0.7,0.2,0.9,0.4c0.2,0.2,0.3,0.4,0.3,0.7c0,0.3-0.1,0.5-0.4,0.7c-0.2,0.2-0.6,0.3-0.9,0.3
				c-0.4,0-0.8-0.1-1-0.3c-0.2-0.2-0.4-0.4-0.3-0.7l0,0h0.2c0,0.3,0.1,0.5,0.4,0.6c0.2,0.1,0.5,0.2,0.8,0.2c0.3,0,0.6-0.1,0.8-0.2
				C35.3,27.8,35.4,27.6,35.4,27.4z"/>
		</g>
	</g>
</g>
<g display="none">
	<g display="inline">
		<path fill="#58260E" d="M9,25.1l0.2,2.2c0.1,1.4,1.1,2.6,2.5,3.1l1.1,0.4l-1-5.6H9z"/>
		<path fill="#58260E" d="M30.4,25.1l-0.2,2.2c-0.1,1.4-1.1,2.6-2.5,3.1l-1.1,0.4l1-5.6H30.4z"/>
		<path fill="#EEBEB5" d="M19.7,6.6C13.8,6.6,9,12.1,9,18.8c0,3.4,2.1,9.4,3,10.9c2,3.1,4.6,5.1,7.7,5.1c3.1,0,5.7-2.1,7.7-5.1
			c1-1.5,3-7.5,3-10.9C30.4,12.1,25.6,6.6,19.7,6.6z"/>
		<path fill="#58260E" d="M31.3,12.1c0,0,0-0.1-0.1-0.1c0.3-0.6,0.5-1.2,0.7-2c-5.9,1.6-4.2-5.4-13.2-5.4c-3.1,0-6.4,1.4-8.4,3.8
			c-0.5,0.6-0.9,2-0.6,2.7c-0.5,0.2-1.1,0.2-1.6,0.9c-3.2,4.8-1.5,11.5,2.5,14.4c0.7-4.1,1-8.3,0.8-12.5c0,0,0,0,0,0.1
			c3.9-3.3,9.1-1.1,11.5,0.1c1.7,0.9,3.5,1,5,0.5c-0.1,4,0.2,7.9,0.8,11.8C32.9,23.6,34.1,17.1,31.3,12.1z"/>
		<path fill="#EEBEB5" d="M6.6,22.1c-0.1,0.7,0.1,1.4,0.4,2c0.5,1.1,1.2,2,2.1,2.8c0.2,0.2,0.5,0.4,0.8,0.4c0.3,0.1,0.6,0,0.8-0.3
			c0.2-0.3,0.1-0.6,0-0.9c-0.4-1.3-0.5-3.6-1.2-4.8C8.6,19.9,6.8,20.6,6.6,22.1z"/>
		<path fill="#EEBEB5" d="M32.8,22.1c0.1,0.7-0.1,1.4-0.4,2c-0.5,1.1-1.2,2-2.1,2.8c-0.2,0.2-0.5,0.4-0.8,0.4
			c-0.3,0.1-0.6,0-0.8-0.3c-0.2-0.3-0.1-0.6,0-0.9c0.4-1.3,0.5-3.6,1.2-4.8C30.8,19.9,32.6,20.6,32.8,22.1z"/>
		<path fill="#58260E" d="M26.2,21.3c-0.2,0-0.5-0.1-0.6-0.3c-0.5-0.7-1.5-1.1-2.4-0.9c-0.4,0.1-0.8-0.1-0.9-0.5
			c-0.1-0.4,0.1-0.8,0.5-0.9c1.5-0.4,3.1,0.2,3.9,1.4c0.2,0.3,0.2,0.8-0.2,1C26.5,21.2,26.3,21.3,26.2,21.3z"/>
		<path fill="#58260E" d="M13.2,21.3c-0.1,0-0.3,0-0.4-0.1c-0.3-0.2-0.4-0.7-0.2-1c0.9-1.2,2.5-1.8,3.9-1.4c0.4,0.1,0.6,0.5,0.5,0.9
			c-0.1,0.4-0.5,0.6-0.9,0.5c-0.8-0.2-1.8,0.1-2.4,0.9C13.7,21.1,13.4,21.3,13.2,21.3z"/>
		<path fill="#652D11" d="M24.6,22.1c0,0.9-0.4,1.6-0.9,1.6c-0.5,0-0.9-0.7-0.9-1.6c0-0.9,0.4-1.6,0.9-1.6
			C24.2,20.5,24.6,21.2,24.6,22.1z"/>
		<path fill="#652D11" d="M16,22.1c0,0.9-0.4,1.6-0.9,1.6c-0.5,0-0.9-0.7-0.9-1.6c0-0.9,0.4-1.6,0.9-1.6C15.6,20.5,16,21.2,16,22.1z
			"/>
		<path fill="#58260E" d="M19.3,31.1c-0.8,0-1.6-0.1-2.2-0.5C17,30.6,17,30.5,17,30.4c0.1-0.1,0.2-0.1,0.3-0.1
			c1.3,0.7,3.6,0.5,4.8-0.2c0.4-0.2,0.8-0.6,0.8-1c0-0.1,0.1-0.2,0.2-0.2s0.2,0.1,0.2,0.2c0,0.5-0.3,1-1,1.4
			C21.6,30.8,20.4,31.1,19.3,31.1z"/>
		<polygon fill="#D99384" points="19.7,27.4 18,26.8 19.7,28.7 21.5,26.8 		"/>
	</g>
	<path display="inline" fill="#FFFFFF" d="M35,34.6h-3.6v-0.7h2.9V31H35V34.6z M8.6,34.6H5V31h0.7v2.9h2.9V34.6z M35,8.2h-0.7V5.2
		h-2.9V4.6H35V8.2z M5.7,8.2H5V4.6h3.6v0.7H5.7V8.2z"/>
	<path display="inline" fill="#FFFFFF" d="M27.8,20.5c0-0.2-0.1-0.3-0.3-0.3l-0.1-1.1c0.1,0,0.2-0.1,0.2-0.3c0-0.2-0.1-0.3-0.3-0.3
		c-0.1,0-0.1,0-0.1,0.1l-1.8-2c0,0,0.1-0.1,0.1-0.2c0-0.2-0.1-0.3-0.3-0.3c-0.1,0-0.2,0-0.2,0.1l-1.8-1c0,0,0.1-0.1,0.1-0.1
		c0-0.2-0.1-0.3-0.3-0.3c-0.1,0-0.2,0.1-0.3,0.2l-2.6-0.3c0-0.2-0.1-0.3-0.3-0.3c-0.2,0-0.3,0.1-0.3,0.3L16.9,15
		c0-0.1-0.1-0.2-0.3-0.2c-0.2,0-0.3,0.1-0.3,0.3c0,0,0,0.1,0,0.1l-1.8,1c-0.1-0.1-0.1-0.1-0.2-0.1c-0.2,0-0.3,0.1-0.3,0.3
		c0,0.1,0,0.1,0.1,0.2l-1.8,2.1c0,0-0.1,0-0.1,0c-0.2,0-0.3,0.1-0.3,0.3c0,0.1,0.1,0.2,0.2,0.3l-0.1,1.2c-0.1,0-0.3,0.1-0.3,0.3
		c0,0.1,0.1,0.3,0.3,0.3l0.4,4.1c-0.1,0-0.2,0.1-0.2,0.3c0,0.1,0.1,0.2,0.2,0.3l0,3.3c-0.1,0-0.2,0.1-0.2,0.3c0,0.2,0.1,0.3,0.3,0.3
		c0,0,0.1,0,0.1,0l1.4,2.5c0,0-0.1,0.1-0.1,0.2c0,0.2,0.1,0.3,0.3,0.3c0.1,0,0.1,0,0.2-0.1l2.5,1.5c0,0,0,0.1,0,0.1
		c0,0.2,0.1,0.3,0.3,0.3c0.1,0,0.2-0.1,0.3-0.2l2.2,0.3c0,0,0,0,0,0c0,0.2,0.1,0.3,0.3,0.3c0.2,0,0.3-0.1,0.3-0.3c0,0,0,0,0,0
		l2.2-0.3c0,0.1,0.1,0.2,0.3,0.2c0.2,0,0.3-0.1,0.3-0.3c0,0,0-0.1,0-0.1l2.3-1.6c0.1,0.1,0.1,0.1,0.2,0.1c0.2,0,0.3-0.1,0.3-0.3
		c0-0.1,0-0.2-0.1-0.2l1.5-2.3c0,0,0.1,0,0.1,0c0.2,0,0.3-0.1,0.3-0.3c0-0.1-0.1-0.2-0.2-0.3l0-3.3c0.1,0,0.2-0.1,0.2-0.3
		c0-0.1-0.1-0.2-0.2-0.3l0.4-4.1C27.7,20.8,27.8,20.6,27.8,20.5z M27.5,20.7l-0.4,4.1c-0.2,0-0.3,0.1-0.3,0.3c0,0.1,0.1,0.2,0.2,0.3
		l0,3.1l-0.6-4.1c0.1,0,0.2-0.1,0.2-0.2c0-0.1-0.1-0.3-0.3-0.3L26,20c0.1,0,0.2-0.1,0.2-0.3c0,0,0-0.1,0-0.1l1-0.7
		c0,0,0.1,0.1,0.2,0.1l0.1,1.2c-0.1,0-0.2,0.1-0.2,0.3C27.3,20.6,27.4,20.7,27.5,20.7z M21.7,31.9c-0.1,0-0.2,0.1-0.2,0.1l-0.4-0.3
		c0,0,0,0,0-0.1c0-0.2-0.1-0.3-0.3-0.3c-0.1,0-0.2,0.1-0.3,0.2h-0.5c0-0.1-0.1-0.2-0.3-0.2s-0.2,0.1-0.3,0.2h-0.5
		c0-0.1-0.1-0.2-0.3-0.2c-0.2,0-0.3,0.1-0.3,0.3c0,0,0,0,0,0.1l-0.4,0.3c-0.1-0.1-0.1-0.1-0.2-0.1c-0.1,0-0.2,0-0.2,0.1l-1.6-1.2
		c0,0,0.1-0.1,0.1-0.1c0-0.1-0.1-0.2-0.2-0.2l1-2.1c0,0,0,0,0,0V30c-0.1,0-0.2,0.1-0.2,0.2c0,0.2,0.1,0.3,0.3,0.3
		c0.1,0,0.1,0,0.2-0.1l0.6,0.4c0,0-0.1,0.1-0.1,0.1c0,0.2,0.1,0.3,0.3,0.3c0.1,0,0.2-0.1,0.3-0.2h1.4c0,0,0,0,0,0c0,0,0,0,0,0h1.5
		c0,0.1,0.1,0.2,0.3,0.2c0.2,0,0.3-0.1,0.3-0.3c0-0.1,0-0.1-0.1-0.1l0.6-0.4c0.1,0,0.1,0.1,0.2,0.1c0.2,0,0.3-0.1,0.3-0.3
		c0-0.1-0.1-0.2-0.2-0.2v-1.5c0,0,0,0,0,0l1,2.1c-0.1,0-0.1,0.1-0.1,0.2c0,0,0,0.1,0.1,0.1L21.9,32C21.9,32,21.8,31.9,21.7,31.9z
		 M12.7,28.8C12.6,28.7,12.6,28.7,12.7,28.8l0.5-4.3c0,0,0,0,0,0c0,0,0.1,0,0.1,0l0.7,1.3c-0.1,0.1-0.1,0.1-0.1,0.2
		c0,0.1,0.1,0.2,0.2,0.2l-0.2,1.1c-0.2,0-0.3,0.1-0.3,0.3c0,0.1,0,0.1,0.1,0.1L12.7,28.8z M26.2,24.4l-0.7,1.3c0,0,0,0-0.1,0
		c0,0,0,0,0,0l-0.2-1.2c0.1,0,0.2-0.1,0.2-0.3c0-0.1-0.1-0.2-0.2-0.2l0.7-3.9c0,0,0,0,0,0l0.4,3.8c-0.1,0-0.2,0.1-0.2,0.3
		C26.1,24.3,26.2,24.3,26.2,24.4z M21.5,30.7c-0.1,0-0.2,0.1-0.3,0.2h-1.5c0,0,0,0,0,0c0,0,0,0,0,0h-1.4c0-0.1-0.1-0.2-0.3-0.2
		c-0.1,0-0.2,0-0.2,0.1l-0.6-0.4c0,0,0.1-0.1,0.1-0.1c0-0.1,0-0.1-0.1-0.1l0.6-0.3c0.1,0.1,0.1,0.1,0.2,0.1c0.1,0,0.2-0.1,0.3-0.2
		h0.4c0,0.1,0.1,0.2,0.3,0.2c0.1,0,0.2-0.1,0.2-0.1l0.3,0.1c0,0,0,0,0,0c0,0.2,0.1,0.3,0.3,0.3c0.2,0,0.3-0.1,0.3-0.3c0,0,0,0,0,0
		l0.3-0.1c0,0.1,0.1,0.1,0.2,0.1c0.1,0,0.2-0.1,0.3-0.2h0.4c0,0.1,0.1,0.2,0.3,0.2c0.1,0,0.2-0.1,0.2-0.1l0.6,0.3
		c0,0-0.1,0.1-0.1,0.1c0,0.1,0,0.1,0.1,0.1l-0.6,0.4C21.7,30.7,21.6,30.7,21.5,30.7z M14.3,25.6l0.2-1.2c0,0,0,0,0,0
		c0,0,0.1,0,0.1,0l0.3,0.4c-0.1,0.1-0.1,0.1-0.1,0.2c0,0.1,0.1,0.2,0.2,0.2l-0.1,0.8c-0.1,0-0.1,0-0.2,0.1L14.4,26c0,0,0-0.1,0-0.1
		C14.5,25.8,14.4,25.7,14.3,25.6z M13.8,20l1.6,2.2c0,0.1-0.1,0.1-0.1,0.2c0,0.1,0,0.2,0.1,0.2l-0.8,1.3c0,0-0.1,0-0.1,0
		c0,0,0,0,0,0L13.8,20C13.8,20,13.8,20,13.8,20z M18.2,19.9c0.1,0,0.3-0.1,0.3-0.2l1.1-0.2c0,0.1,0.1,0.2,0.2,0.2v0.6
		c-0.1,0-0.2,0.1-0.2,0.3c0,0,0,0,0,0l-1.7,0.5c0-0.1-0.1-0.2-0.2-0.2c0,0-0.1,0-0.1,0L17,20.2c0.1-0.1,0.1-0.1,0.1-0.2c0,0,0,0,0,0
		l0.9-0.1C18,19.9,18.1,19.9,18.2,19.9z M21.1,19.7c0,0.1,0.1,0.2,0.3,0.2c0.1,0,0.2-0.1,0.2-0.2l0.9,0.1c0,0,0,0,0,0
		c0,0.1,0,0.2,0.1,0.2L22.1,21c0,0-0.1,0-0.1,0c-0.1,0-0.2,0.1-0.2,0.2l-1.7-0.5c0,0,0,0,0,0c0-0.1-0.1-0.2-0.2-0.3v-0.6
		c0.1,0,0.2-0.1,0.2-0.2L21.1,19.7z M25.9,20l-0.7,3.9c0,0,0,0,0,0c0,0-0.1,0-0.1,0.1l-0.8-1.3c0.1-0.1,0.1-0.1,0.1-0.2
		c0-0.1,0-0.2-0.1-0.2L25.9,20C25.8,20,25.8,20,25.9,20z M24.6,24.7c-0.1,0-0.2,0.1-0.3,0.2l-1.5-0.1c0,0,0,0,0,0
		c0-0.2-0.1-0.3-0.3-0.3c-0.1,0-0.3,0.1-0.3,0.3l-0.5-0.1c0,0,0,0,0-0.1c0-0.1,0-0.1-0.1-0.2l0.5-0.6c0,0,0.1,0.1,0.1,0.1
		c0.1,0,0.3-0.1,0.3-0.2l1-0.1c0,0.1,0.1,0.2,0.3,0.2c0.1,0,0.2-0.1,0.2-0.1l0.8,0.4c0,0,0,0,0,0c0,0.1,0.1,0.2,0.1,0.2l-0.3,0.4
		C24.7,24.8,24.6,24.7,24.6,24.7z M21.7,27.6l-0.2,0.7c0,0,0,0,0,0c-0.2,0-0.3,0.1-0.3,0.3c0,0,0,0,0,0L20,28.9
		c0-0.1-0.1-0.1-0.1-0.1c0.1,0,0.2-0.1,0.2-0.2c0-0.1,0-0.1-0.1-0.2l0.3-0.3c0.1,0.1,0.1,0.1,0.2,0.1c0.2,0,0.3-0.1,0.3-0.3
		c0-0.1-0.1-0.3-0.3-0.3l0.1-3.8c0.1,0,0.3-0.1,0.3-0.3c0-0.1,0-0.1-0.1-0.2l0.4-0.5c0,0,0.1,0.1,0.1,0.1c0.1,0,0.1,0,0.2-0.1
		l0.6,0.7c-0.1,0.1-0.1,0.1-0.1,0.2c0,0.1,0,0.1,0.1,0.2l-0.5,0.6c0,0-0.1-0.1-0.2-0.1c-0.2,0-0.3,0.1-0.3,0.3
		c0,0.1,0.1,0.2,0.2,0.3l0.2,2.1c-0.1,0-0.2,0.1-0.2,0.3C21.5,27.4,21.6,27.5,21.7,27.6z M18.1,28.2C18.1,28.2,18.1,28.2,18.1,28.2
		l-0.2-0.7c0.1,0,0.2-0.1,0.2-0.3c0-0.1-0.1-0.2-0.2-0.3l0.2-2.1c0.1,0,0.3-0.1,0.3-0.3c0-0.2-0.1-0.3-0.3-0.3c-0.1,0-0.1,0-0.2,0.1
		l-0.5-0.6c0.1-0.1,0.1-0.1,0.1-0.2c0-0.1,0-0.1-0.1-0.2l0.6-0.8c0,0,0.1,0.1,0.2,0.1c0,0,0.1,0,0.1,0l0.4,0.6c0,0-0.1,0.1-0.1,0.2
		c0,0.1,0.1,0.2,0.2,0.3l0.1,3.8c-0.1,0-0.2,0.1-0.2,0.3c0,0.2,0.1,0.3,0.3,0.3c0.1,0,0.1,0,0.2-0.1l0.3,0.3c0,0-0.1,0.1-0.1,0.2
		c0,0.1,0.1,0.2,0.2,0.2c-0.1,0-0.1,0.1-0.1,0.1l-1.2-0.4c0,0,0,0,0,0C18.4,28.3,18.3,28.2,18.1,28.2z M17.4,24.9
		c0-0.1-0.1-0.3-0.3-0.3c-0.2,0-0.3,0.1-0.3,0.3c0,0,0,0,0,0L15.3,25c0-0.1-0.1-0.2-0.3-0.2c-0.1,0-0.1,0-0.1,0.1l-0.3-0.4
		c0.1-0.1,0.1-0.1,0.1-0.2c0,0,0,0,0,0l0.8-0.4c0,0.1,0.1,0.1,0.2,0.1c0.1,0,0.2-0.1,0.3-0.2l1,0.1c0,0.1,0.1,0.2,0.3,0.2
		c0.1,0,0.1,0,0.1-0.1l0.5,0.6c0,0-0.1,0.1-0.1,0.2c0,0,0,0,0,0.1L17.4,24.9z M17.6,21.5c0.2,0,0.3-0.1,0.3-0.3c0,0,0,0,0,0l1.7-0.5
		c0,0.1,0.1,0.1,0.2,0.2v0.9c-0.1,0-0.2,0.1-0.2,0.3c0,0,0,0,0,0l-1.1,0.4c0-0.1-0.1-0.2-0.2-0.2c-0.1,0-0.2,0.1-0.3,0.2l-2.1-0.1
		c0,0,0-0.1,0-0.1l1.6-0.9C17.5,21.5,17.5,21.5,17.6,21.5z M22,21.5c0.1,0,0.2-0.1,0.2-0.1l1.6,0.9c0,0,0,0.1,0,0.1l-2.1,0.1
		c0-0.1-0.1-0.2-0.3-0.2c-0.1,0-0.2,0.1-0.2,0.2l-1.1-0.4c0,0,0,0,0,0c0-0.1-0.1-0.2-0.2-0.3v-0.9c0.1,0,0.2-0.1,0.2-0.2l1.7,0.5
		c0,0,0,0,0,0C21.7,21.4,21.8,21.5,22,21.5z M24.2,22.6L25,24c0,0,0,0.1-0.1,0.1l-0.8-0.4c0,0,0,0,0-0.1c0-0.2-0.1-0.3-0.3-0.3
		c-0.2,0-0.3,0.1-0.3,0.3l-0.9,0.1c0-0.1-0.1-0.2-0.3-0.2c0,0-0.1,0-0.1,0.1l-0.6-0.7c0,0,0.1-0.1,0.1-0.2l2.1-0.1
		c0,0.1,0.1,0.2,0.3,0.2C24.1,22.7,24.1,22.6,24.2,22.6z M20.5,27.6c-0.1,0-0.2,0.1-0.2,0.3c0,0.1,0,0.1,0.1,0.1L20,28.3
		c0,0-0.1-0.1-0.2-0.1c-0.1,0-0.1,0-0.2,0.1L19.3,28c0,0,0.1-0.1,0.1-0.1c0-0.1-0.1-0.3-0.3-0.3L19,23.8c0.1,0,0.2-0.1,0.2-0.2h1.1
		c0,0.1,0.1,0.2,0.2,0.2L20.5,27.6z M20.8,23.3c0,0-0.1-0.1-0.1-0.1c-0.1,0-0.2,0.1-0.3,0.2h-1.1c0-0.1-0.1-0.2-0.3-0.2
		c-0.1,0-0.1,0-0.2,0.1l-0.4-0.5c0.1-0.1,0.1-0.1,0.1-0.2c0,0,0,0,0-0.1l1.1-0.4c0,0.1,0.1,0.2,0.2,0.2c0.1,0,0.2-0.1,0.2-0.2
		l1.1,0.4c0,0,0,0,0,0.1c0,0.1,0,0.2,0.1,0.2L20.8,23.3z M15.6,22.7c0.1,0,0.2-0.1,0.3-0.2l2.1,0.1c0,0.1,0,0.1,0.1,0.2l-0.6,0.8
		c0,0-0.1-0.1-0.1-0.1c-0.1,0-0.2,0.1-0.3,0.2l-0.9-0.1c0-0.2-0.1-0.3-0.3-0.3c-0.2,0-0.3,0.1-0.3,0.3c0,0,0,0,0,0.1l-0.8,0.4
		c0,0,0-0.1-0.1-0.1l0.8-1.3C15.5,22.6,15.5,22.7,15.6,22.7z M23.8,22.2l-1.6-0.9c0,0,0-0.1,0-0.1c0-0.1,0-0.2-0.1-0.2l0.5-0.8
		c0,0,0.1,0,0.1,0c0,0,0.1,0,0.1,0L23.8,22.2C23.9,22.2,23.8,22.2,23.8,22.2z M16.8,20.2c0,0,0.1,0,0.1,0l0.5,0.8
		c-0.1,0.1-0.1,0.1-0.1,0.2c0,0,0,0.1,0,0.1l-1.6,0.9c0,0,0,0-0.1-0.1l1-2C16.7,20.2,16.8,20.2,16.8,20.2z M14.9,26.1l0.1-0.8
		c0,0,0,0,0,0c0.1,0,0.3-0.1,0.3-0.3l1.5-0.1c0,0.1,0.1,0.1,0.2,0.2L17,27.9c-0.1,0-0.1,0-0.2,0.1l-1.7-1.5c0,0,0.1-0.1,0.1-0.2
		C15.2,26.2,15,26.1,14.9,26.1z M22.5,29.9c-0.1,0-0.2,0-0.2,0.1l-0.6-0.3c0,0,0-0.1,0-0.1c0-0.2-0.1-0.3-0.3-0.3
		c-0.1,0-0.2,0.1-0.3,0.2h-0.4c0-0.1-0.1-0.2-0.3-0.2c-0.2,0-0.3,0.1-0.3,0.3c0,0,0,0,0,0.1L20,29.8c0-0.1-0.1-0.2-0.2-0.2
		c-0.1,0-0.2,0.1-0.2,0.2l-0.3-0.1c0,0,0,0,0-0.1c0-0.2-0.1-0.3-0.3-0.3c-0.1,0-0.2,0.1-0.3,0.2h-0.4c0-0.1-0.1-0.2-0.3-0.2
		c-0.2,0-0.3,0.1-0.3,0.3c0,0,0,0.1,0,0.1L17.3,30c-0.1-0.1-0.1-0.1-0.2-0.1c0,0,0,0,0,0v-1.4c0.1,0,0.3-0.1,0.3-0.3
		c0-0.1-0.1-0.3-0.3-0.3l0.1-2.8c0.1,0,0.2-0.1,0.3-0.2l0.5-0.1c0,0.1,0.1,0.1,0.2,0.1L17.8,27c-0.1,0-0.3,0.1-0.3,0.3
		c0,0.2,0.1,0.3,0.3,0.3c0,0,0,0,0,0l0.2,0.7c-0.1,0-0.2,0.1-0.2,0.2c0,0.2,0.1,0.3,0.3,0.3c0.1,0,0.2-0.1,0.2-0.2l1.2,0.4
		c0,0,0,0,0,0c0,0.2,0.1,0.3,0.3,0.3c0.2,0,0.3-0.1,0.3-0.3c0,0,0,0,0,0l1.2-0.4c0,0.1,0.1,0.2,0.2,0.2c0.2,0,0.3-0.1,0.3-0.3
		c0-0.1-0.1-0.2-0.2-0.3l0.2-0.7c0,0,0,0,0,0c0.2,0,0.3-0.1,0.3-0.3c0-0.2-0.1-0.3-0.3-0.3L21.5,25c0.1,0,0.2-0.1,0.2-0.1l0.5,0.1
		c0,0.1,0.1,0.2,0.2,0.2l0.1,2.8c-0.1,0-0.2,0.1-0.2,0.3c0,0.1,0.1,0.2,0.2,0.3L22.5,29.9C22.6,29.9,22.6,29.9,22.5,29.9z M22.8,28
		c0,0-0.1-0.1-0.2-0.1l-0.1-2.8c0.1,0,0.2-0.1,0.2-0.2l1.5,0.1c0,0.1,0.1,0.3,0.3,0.3c0,0,0,0,0,0l0.1,0.8c-0.1,0-0.2,0.1-0.2,0.3
		c0,0.1,0,0.1,0.1,0.2L22.8,28z M24.8,26.1l-0.1-0.8c0.1,0,0.2-0.1,0.2-0.3c0-0.1,0-0.2-0.1-0.2l0.3-0.4c0,0,0.1,0,0.1,0
		c0,0,0,0,0,0l0.2,1.2c-0.1,0-0.2,0.1-0.2,0.3c0,0,0,0.1,0,0.1L25,26.2C24.9,26.1,24.8,26.1,24.8,26.1z M25.7,20l-1.6,2.2
		c0,0-0.1-0.1-0.1-0.1c0,0-0.1,0-0.1,0l-1-2c0.1-0.1,0.1-0.1,0.1-0.2c0-0.1,0-0.2-0.1-0.2l0.8-1c0,0,0.1,0.1,0.1,0.1
		c0.1,0,0.1,0,0.2-0.1l1.6,1c0,0,0,0.1,0,0.1C25.7,19.9,25.7,19.9,25.7,20z M23.7,18.7l-0.8,1c0,0-0.1-0.1-0.1-0.1
		c-0.1,0-0.2,0.1-0.2,0.2l-0.9-0.1c0,0,0,0,0-0.1c0-0.1-0.1-0.2-0.2-0.3l0.2-1.7c0,0,0,0,0,0c0.1,0,0.2-0.1,0.2-0.1l1.7,0.9
		c0,0,0,0,0,0.1C23.6,18.5,23.6,18.6,23.7,18.7z M21.6,17.7l-0.2,1.7c-0.1,0-0.2,0.1-0.2,0.2l-1-0.2c0,0,0,0,0,0
		c0-0.1-0.1-0.2-0.2-0.3v-1.9c0.1,0,0.2-0.1,0.2-0.2l1.4,0.3c0,0,0,0,0,0C21.4,17.5,21.5,17.6,21.6,17.7z M19.8,17.3v1.9
		c-0.1,0-0.2,0.1-0.2,0.3c0,0,0,0,0,0l-1,0.2c0-0.1-0.1-0.2-0.3-0.2L18,17.7c0.1,0,0.2-0.1,0.2-0.3c0,0,0,0,0,0l1.3-0.3
		C19.6,17.2,19.7,17.3,19.8,17.3z M17.9,17.7C17.9,17.7,17.9,17.7,17.9,17.7l0.2,1.7c-0.1,0-0.2,0.1-0.2,0.3c0,0,0,0,0,0.1l-0.9,0.1
		c0-0.1-0.1-0.2-0.2-0.2c-0.1,0-0.1,0-0.1,0.1l-0.8-1c0.1-0.1,0.1-0.1,0.1-0.2c0,0,0,0,0-0.1l1.7-0.9C17.8,17.6,17.8,17.7,17.9,17.7
		z M15.7,18.8c0.1,0,0.1,0,0.1-0.1l0.8,1c-0.1,0.1-0.1,0.1-0.1,0.2c0,0.1,0,0.2,0.1,0.2l-1,2c0,0,0,0-0.1,0c-0.1,0-0.1,0-0.1,0.1
		L13.9,20c0.1-0.1,0.1-0.1,0.1-0.2c0,0,0-0.1,0-0.1l1.6-1C15.6,18.7,15.6,18.8,15.7,18.8z M13.7,20.1C13.7,20.1,13.7,20.1,13.7,20.1
		l0.7,3.9c-0.1,0-0.2,0.1-0.2,0.2c0,0.1,0.1,0.2,0.2,0.2l-0.2,1.2c0,0-0.1,0-0.1,0l-0.7-1.3c0.1-0.1,0.1-0.1,0.1-0.2
		c0-0.1-0.1-0.3-0.3-0.3L13.7,20.1C13.7,20.1,13.7,20.1,13.7,20.1z M14,27.2l0.2-1.1c0,0,0,0,0,0c0.1,0,0.2,0,0.2-0.1l0.2,0.2
		c0,0-0.1,0.1-0.1,0.1c0,0.2,0.1,0.3,0.3,0.3c0.1,0,0.1,0,0.2-0.1l1.8,1.5c0,0-0.1,0.1-0.1,0.1c0,0.1,0.1,0.2,0.1,0.2l-1,2.1
		c0,0,0,0-0.1,0c0,0-0.1,0-0.1,0l-1.7-2.8c0.1-0.1,0.1-0.1,0.1-0.2C14.2,27.4,14.1,27.3,14,27.2z M23.8,30.5
		C23.7,30.5,23.7,30.5,23.8,30.5l-1-2c0.1,0,0.1-0.1,0.1-0.2c0-0.1,0-0.1-0.1-0.1l1.8-1.5c0,0,0.1,0.1,0.2,0.1
		c0.2,0,0.3-0.1,0.3-0.3c0-0.1,0-0.1-0.1-0.1l0.2-0.2c0.1,0.1,0.1,0.1,0.2,0.1c0,0,0,0,0,0l0.2,1.1c-0.1,0-0.2,0.1-0.2,0.3
		c0,0.1,0.1,0.2,0.1,0.2l-1.7,2.8C23.8,30.5,23.8,30.5,23.8,30.5z M25.7,27.2C25.7,27.2,25.7,27.2,25.7,27.2l-0.2-1.1
		c0.1,0,0.2-0.1,0.2-0.3c0-0.1-0.1-0.2-0.1-0.2l0.7-1.3c0,0,0.1,0,0.1,0c0,0,0,0,0,0l0.6,4.3c0,0-0.1,0-0.1,0l-1-1.1
		c0,0,0.1-0.1,0.1-0.1C26,27.3,25.8,27.2,25.7,27.2z M27.1,18.8c0,0.1,0,0.1,0.1,0.1l-1,0.7c-0.1-0.1-0.1-0.1-0.2-0.1
		c-0.1,0-0.2,0-0.2,0.1l-1.6-1c0,0,0.1-0.1,0.1-0.1c0-0.1-0.1-0.2-0.1-0.2l1.1-1.7c0,0,0.1,0,0.1,0c0.1,0,0.1,0,0.2-0.1l1.8,2
		C27.2,18.6,27.1,18.7,27.1,18.8z M25,16.2c0,0,0,0.1,0,0.1c0,0.1,0.1,0.2,0.1,0.2L24,18.2c0,0-0.1,0-0.1,0c-0.1,0-0.2,0.1-0.2,0.2
		l-1.7-0.9c0,0,0,0,0-0.1c0-0.1-0.1-0.2-0.1-0.2l1.1-1.9c0,0,0.1,0,0.1,0c0.1,0,0.2,0,0.2-0.1L25,16.2z M22.8,15.2l-1.1,1.9
		c0,0,0,0-0.1,0c-0.1,0-0.2,0.1-0.3,0.2l-1.4-0.3c0,0,0,0,0,0c0-0.1-0.1-0.2-0.2-0.3v-1.8c0.1,0,0.2-0.1,0.2-0.2l2.6,0.3
		c0,0,0,0,0,0C22.7,15.1,22.7,15.2,22.8,15.2z M19.5,14.7c0,0.1,0.1,0.2,0.2,0.2v1.8c-0.1,0-0.2,0.1-0.2,0.3c0,0,0,0,0,0l-1.3,0.3
		c0-0.1-0.1-0.2-0.2-0.2c0,0-0.1,0-0.1,0l-1.1-1.9c0.1-0.1,0.1-0.1,0.1-0.2c0,0,0,0,0,0L19.5,14.7z M16.4,15.2
		c0.1,0.1,0.1,0.1,0.2,0.1c0,0,0.1,0,0.1,0l1.1,1.9c-0.1,0.1-0.1,0.1-0.1,0.2c0,0,0,0,0,0.1L16,18.3c0-0.1-0.1-0.1-0.2-0.1
		c0,0-0.1,0-0.1,0l-1.1-1.7c0.1-0.1,0.1-0.1,0.1-0.2c0,0,0-0.1,0-0.1L16.4,15.2z M14.2,16.6c0,0,0.1,0.1,0.2,0.1c0,0,0.1,0,0.1,0
		l1.1,1.7c-0.1,0.1-0.1,0.1-0.1,0.2c0,0,0,0.1,0.1,0.1l-1.6,1c-0.1-0.1-0.1-0.1-0.2-0.1c-0.1,0-0.2,0-0.2,0.1l-1-0.7
		c0,0,0.1-0.1,0.1-0.1c0-0.1,0-0.2-0.1-0.2L14.2,16.6z M12.1,20.7c0.1,0,0.2-0.1,0.2-0.3c0-0.1-0.1-0.2-0.2-0.3l0.1-1.1c0,0,0,0,0,0
		c0.1,0,0.1,0,0.2-0.1l1,0.7c0,0,0,0.1,0,0.1c0,0.1,0.1,0.2,0.2,0.3l-0.4,3.9c-0.1,0-0.2,0.1-0.2,0.3c0,0.1,0.1,0.2,0.2,0.2
		l-0.6,4.1l0-3.1c0.1,0,0.3-0.1,0.3-0.3c0-0.2-0.1-0.3-0.3-0.3c0,0,0,0,0,0L12.1,20.7z M12.8,29c0-0.1,0-0.1-0.1-0.2l1-1.1
		c0.1,0.1,0.1,0.1,0.2,0.1c0,0,0.1,0,0.1,0l1.7,2.8c-0.1,0.1-0.1,0.1-0.1,0.2c0,0,0,0,0,0.1l-1.2,0.9c-0.1-0.1-0.1-0.1-0.2-0.1
		c-0.1,0-0.1,0-0.1,0.1l-1.4-2.4C12.7,29.1,12.8,29.1,12.8,29z M14.4,32c0,0,0.1-0.1,0.1-0.2c0,0,0-0.1,0-0.1l1.2-0.9
		c0,0.1,0.1,0.2,0.2,0.2c0.1,0,0.1,0,0.2-0.1l1.6,1.2c0,0,0,0.1,0,0.1c0,0.1,0,0.2,0.1,0.2l-0.5,1c0,0-0.1,0-0.1,0
		c-0.1,0-0.2,0.1-0.2,0.1L14.4,32z M19.8,33.7c-0.1,0-0.2,0.1-0.2,0.2l-2.2-0.3c0-0.1-0.1-0.2-0.1-0.2l0.5-1c0,0,0.1,0,0.1,0
		c0.2,0,0.3-0.1,0.3-0.3c0,0,0-0.1,0-0.1l0.4-0.3c0,0.1,0.1,0.2,0.2,0.2c0.2,0,0.3-0.1,0.3-0.3h0.4c0,0.2,0.1,0.3,0.3,0.3
		c0.2,0,0.3-0.1,0.3-0.3h0.5c0,0.2,0.1,0.3,0.3,0.3c0.1,0,0.2-0.1,0.2-0.1l0.4,0.3c0,0,0,0.1,0,0.1c0,0.2,0.1,0.3,0.3,0.3
		c0,0,0.1,0,0.1,0l0.5,1c-0.1,0-0.1,0.1-0.1,0.2l-2.2,0.3C20,33.8,19.9,33.7,19.8,33.7z M22.7,33.5c-0.1-0.1-0.1-0.1-0.2-0.1
		c0,0-0.1,0-0.1,0l-0.5-1c0.1-0.1,0.1-0.1,0.1-0.2c0,0,0-0.1-0.1-0.1l1.6-1.2c0.1,0.1,0.1,0.1,0.2,0.1c0.1,0,0.2-0.1,0.2-0.2
		l1.1,0.8c0,0-0.1,0.1-0.1,0.1c0,0,0,0.1,0.1,0.1L22.7,33.5z M25.4,31.5c0,0-0.1,0-0.1,0c-0.1,0-0.2,0-0.2,0.1L24,30.8
		c0,0,0,0,0-0.1c0-0.1,0-0.2-0.1-0.2l1.7-2.8c0,0,0.1,0,0.1,0c0.1,0,0.1,0,0.2-0.1l1,1.1c0,0-0.1,0.1-0.1,0.2c0,0.1,0,0.2,0.1,0.2
		L25.4,31.5z"/>
</g>
<g display="none">
	<g display="inline">
		<path fill="#F8B19A" d="M30,8c0,0.1,0,0.2,0,0.3l-3.3,16.7L26.4,26l0,0.1l-0.6,1.1l-1.6,2.9l-0.1,0.1l-3.5,0.8l-1.6-1.8l-0.8-1
			l-0.6-4.5l-0.2-1.4l-0.3-2.2l0-0.3c0,0,0,0,0,0L15.1,6.1c-0.1-1,0.6-1.9,1.6-2c0.1,0,0.2,0,0.2,0c0.9,0,1.6,0.6,1.8,1.5l2.9,14.2
			c0.1,0.5,0.8,0.6,1,0.1l3.9-12.3c0.3-0.8,1.2-1.3,2-1.1C29.4,6.6,30,7.3,30,8z"/>
		<path fill="#F8B19A" d="M26.9,27.4L19.6,40h-4.3v-4c0,0-1.2-0.7-3.3-3.2c-1.8-2.1-2-6-1.9-8.2c0-1.1,0.1-1.8,0.1-1.8l1.3-0.4
			l1.2,0l4.7,0.1l0.5,0l7.2,0.1l0.6,1.5l0.7,1.9l0.2,0.5L26.9,27.4z"/>
		<path fill="#DF8F7D" d="M26.9,27.4l-0.2-0.4l0-0.7l-1,0.1c0.5-0.7,0.7-1.2,0.7-1.2s0-0.9-0.9-1c-0.1,0-0.2,0-0.2,0
			c-0.8,0-2,0.2-3.9,0.1c-0.1,0-0.1,0-0.2,0c-0.8,0-1.8-0.1-2.9-0.2c-0.1,0-0.2,0-0.2,0c0-0.1,0-0.2-0.1-0.3h0l0,0
			c-0.1-0.3-0.2-0.8-0.3-1.3l0,0c0,0-0.3-1.4-0.7-2.2c-0.4-0.2-0.8-0.3-1.2-0.3l0.1,2.5l-4.5-0.1l-1.3,0.4c0,0-0.4,3.3,0.2,6.3
			c0.9,0.8,3.1,2.2,7.7,1.7c0,0-1.7,2.3-0.1,5.9c0.6,1.4,2.6,1.3,4.6,0.7l3.7-8.7l0.5,0l0-1.1L26.9,27.4z"/>
		<path fill="#F8B19A" d="M14.1,28.3c0,0,0,0.5-0.5,0.8c-0.1,0-0.1,0.1-0.2,0.1c-0.2,0.1-0.6,0.2-1,0.2c-1.7,0-1.7-1.1-2.3-6.7
			c0,0,0.4-1.9,2.5-1.6c0.1,0,0.1,0,0.2,0c0.1,0,0.2,0.1,0.4,0.1L14.1,28.3z"/>
		<path fill="#F8B19A" d="M18.1,27.5C18.1,27.5,18.1,27.5,18.1,27.5c0,0.2-0.1,1.9-1.4,2.1c-1.3,0.2-2.1-0.1-2.5-1.2l-0.9-7
			c0,0,0.8-1.6,2.7-1.4c0.3,0,0.7,0.1,1.2,0.3l0.3,2.2l0.2,1.5L18.1,27.5z"/>
		<path fill="#DF8F7D" d="M14.1,28.3c0,0,0,0.5-0.5,0.8l-1-7.9c0.1,0,0.1,0,0.2,0c0.1,0,0.2,0.1,0.4,0.1L14.1,28.3z"/>
		<path fill="#F8B19A" d="M17.8,33.6V40h6.6v-4.4l4.1-6c0.3-0.4,0.3-0.9,0-1.3l-1.9-3.1c-0.3-0.4-0.8-0.7-1.3-0.6
			c-1.2,0.2-3.5,0.6-6.4,0.2c-0.3,0-0.6,0.2-0.7,0.5c-0.2,1.2-0.1,3.7,3.5,4C21.7,29.3,18.2,30.1,17.8,33.6z"/>
	</g>
	<path display="inline" fill-rule="evenodd" fill="#FFFFFF" d="M17.6,8.6c0.4,0,0.7,0.3,0.7,0.7c0,0.4-0.3,0.7-0.7,0.7
		c-0.4,0-0.7-0.3-0.7-0.7C16.9,8.9,17.2,8.6,17.6,8.6z M17.6,12.7c0,0.4,0.3,0.7,0.7,0.7c0.4,0,0.7-0.3,0.7-0.7
		c0-0.4-0.3-0.7-0.7-0.7C17.9,12,17.6,12.3,17.6,12.7z M18.1,16.3c0,0.4,0.3,0.7,0.7,0.7s0.7-0.3,0.7-0.7c0-0.4-0.3-0.7-0.7-0.7
		S18.1,16,18.1,16.3z M18.8,20.3c0,0.4,0.3,0.7,0.7,0.7c0.4,0,0.7-0.3,0.7-0.7c0-0.4-0.3-0.7-0.7-0.7C19.1,19.6,18.8,19.9,18.8,20.3
		z M27.7,8.5c0,0.4,0.3,0.7,0.7,0.7S29,8.9,29,8.5s-0.3-0.7-0.7-0.7S27.7,8.2,27.7,8.5z M26.9,11.6c0,0.4,0.3,0.7,0.7,0.7
		c0.4,0,0.7-0.3,0.7-0.7c0-0.4-0.3-0.7-0.7-0.7C27.2,10.9,26.9,11.2,26.9,11.6z M26,14.8c0,0.4,0.3,0.7,0.7,0.7
		c0.4,0,0.7-0.3,0.7-0.7c0-0.4-0.3-0.7-0.7-0.7C26.2,14.2,26,14.5,26,14.8z M25,18.1c0,0.4,0.3,0.7,0.7,0.7c0.4,0,0.7-0.3,0.7-0.7
		c0-0.4-0.3-0.7-0.7-0.7C25.3,17.4,25,17.7,25,18.1z M24,21.5c0,0.4,0.3,0.7,0.7,0.7c0.4,0,0.7-0.3,0.7-0.7s-0.3-0.7-0.7-0.7
		C24.3,20.8,24,21.1,24,21.5z M16.4,6.1c0,0.4,0.3,0.7,0.7,0.7s0.7-0.3,0.7-0.7c0-0.4-0.3-0.7-0.7-0.7S16.4,5.8,16.4,6.1z"/>
</g>
<g display="none">
	<path display="inline" fill="#FFFFFF" d="M31.6,25l0.7-0.9c0.2,0.1,0.3,0.1,0.5,0.2c0,0.8-0.4,1.1-0.7,1.1
		C32,25.4,31.8,25.2,31.6,25z M16.8,28.5c-0.3,0-0.7,0.5-0.7,1.3c0,0.2,0,0.4,0.1,0.6l1.1-1.5C17.2,28.7,17,28.5,16.8,28.5z
		 M16.3,30.7c0.1,0.3,0.3,0.4,0.5,0.4c0.3,0,0.7-0.3,0.7-1.2c0-0.2,0-0.5-0.1-0.6L16.3,30.7z M31.5,33.2c0.1,0.3,0.3,0.4,0.5,0.4
		c0.3,0,0.7-0.3,0.7-1.2c0-0.2,0-0.5-0.1-0.6L31.5,33.2z M32,24c-0.2-0.1-0.4-0.1-0.6-0.2c0,0.1,0,0.1,0,0.2c0,0.2,0,0.4,0.1,0.6
		L32,24z M36.6,30.4c0,3.8-3,6.8-6.8,6.8H9.1c-3.1,0-5.7-2.5-5.7-5.7c0-3.1,2.5-5.7,5.7-5.7c0.5,0,0.9,0.1,1.3,0.2
		c0.6-3.2,2.8-5.9,5.8-7.1v2h-0.6v0.3h1.5v-0.3h-0.6v-2.1c1-0.4,2.1-0.6,3.2-0.6c3.8,0,7.1,2.3,8.6,5.5c0.5-0.1,1-0.2,1.5-0.2
		c0.5,0,0.9,0,1.3,0.1c0,0.1,0,0.2,0,0.3c0,1,0.5,1.6,1,1.6c0.4,0,0.9-0.4,1-1.2C35.2,25.7,36.6,27.9,36.6,30.4z M10.9,33.1h-0.6
		v-2.9h-0.2l-0.8,0.4l0.1,0.2l0.6-0.2v2.5H9.4v0.3h1.5V33.1z M17.9,29.9c0-1.1-0.5-1.7-1-1.7c-0.5,0-1,0.6-1,1.6c0,1,0.5,1.6,1,1.6
		C17.3,31.5,17.9,31,17.9,29.9z M21.2,26.7h-0.6v-2.9h-0.2l-0.8,0.4l0.1,0.2l0.6-0.2v2.5h-0.6V27h1.5V26.7z M26,33.4h-0.6v-2.9h-0.2
		l-0.8,0.4l0.1,0.2l0.6-0.2v2.5h-0.6v0.3H26V33.4z M33,32.4c0-1.1-0.5-1.7-1-1.7c-0.5,0-1,0.6-1,1.6c0,1,0.5,1.6,1,1.6
		C32.5,34,33,33.5,33,32.4z M32,31c-0.3,0-0.7,0.5-0.7,1.3c0,0.2,0,0.4,0.1,0.6l1.1-1.5C32.4,31.2,32.2,31,32,31z"/>
	<path display="inline" fill="#FFFFFF" d="M10.8,8.8H9.7L7.4,5l0,0v3.8H6.2V3.2h1.1L9.7,7l0,0V3.2h1.1V8.8z M14.4,8.2
		c-0.1,0.2-0.3,0.4-0.5,0.5c-0.2,0.1-0.4,0.2-0.7,0.2c-0.4,0-0.8-0.2-1-0.5c-0.3-0.3-0.4-0.8-0.4-1.4V4.6h1.1v2.5
		c0,0.4,0.1,0.6,0.2,0.8C13.1,8,13.3,8,13.5,8c0.2,0,0.3,0,0.5-0.1c0.1-0.1,0.2-0.1,0.3-0.3V4.6h1.1v4.2h-0.9L14.4,8.2z M17.4,4.6
		l0,0.6c0.1-0.2,0.3-0.4,0.5-0.5c0.2-0.1,0.4-0.2,0.7-0.2c0.3,0,0.5,0.1,0.7,0.2c0.2,0.1,0.3,0.3,0.4,0.5c0.1-0.2,0.3-0.4,0.5-0.5
		s0.5-0.2,0.7-0.2c0.4,0,0.7,0.1,1,0.4c0.2,0.3,0.4,0.7,0.4,1.4v2.5h-1.1V6.3c0-0.3-0.1-0.6-0.2-0.7c-0.1-0.1-0.3-0.2-0.5-0.2
		c-0.2,0-0.3,0-0.4,0.1C20,5.6,20,5.7,19.9,5.8c0,0,0,0.1,0,0.1c0,0,0,0.1,0,0.1v2.8h-1.1V6.3c0-0.3-0.1-0.6-0.2-0.7
		c-0.1-0.1-0.3-0.2-0.5-0.2c-0.2,0-0.3,0-0.4,0.1c-0.1,0.1-0.2,0.1-0.3,0.2v3.1h-1.1V4.6H17.4z M27,6.8c0,0.6-0.1,1.1-0.4,1.5
		c-0.3,0.4-0.7,0.6-1.2,0.6c-0.2,0-0.5-0.1-0.6-0.2c-0.2-0.1-0.3-0.3-0.5-0.5l-0.1,0.5h-1V2.7h1.1v2.3c0.1-0.2,0.3-0.3,0.4-0.4
		c0.2-0.1,0.4-0.1,0.6-0.1c0.5,0,0.9,0.2,1.2,0.6C26.9,5.5,27,6.1,27,6.8L27,6.8z M25.9,6.8c0-0.4-0.1-0.7-0.2-1
		c-0.1-0.2-0.3-0.4-0.6-0.4c-0.2,0-0.3,0-0.4,0.1c-0.1,0.1-0.2,0.2-0.3,0.3v1.8c0.1,0.1,0.2,0.2,0.3,0.3C24.8,8,24.9,8,25.1,8
		c0.3,0,0.5-0.1,0.6-0.3C25.8,7.5,25.9,7.2,25.9,6.8L25.9,6.8z M29.6,8.9c-0.6,0-1.1-0.2-1.5-0.6c-0.4-0.4-0.5-0.9-0.5-1.5V6.7
		c0-0.6,0.2-1.2,0.5-1.6c0.3-0.4,0.8-0.6,1.4-0.6c0.6,0,1,0.2,1.3,0.5c0.3,0.3,0.5,0.8,0.5,1.4v0.6h-2.5l0,0c0,0.3,0.1,0.5,0.3,0.7
		C29.1,8,29.4,8,29.7,8c0.3,0,0.5,0,0.7-0.1c0.2-0.1,0.4-0.1,0.6-0.2l0.3,0.7c-0.2,0.1-0.4,0.3-0.7,0.3C30.2,8.9,29.9,8.9,29.6,8.9z
		 M29.5,5.4c-0.2,0-0.4,0.1-0.5,0.2c-0.1,0.2-0.2,0.4-0.2,0.6l0,0h1.4V6.2c0-0.2-0.1-0.4-0.2-0.6C29.9,5.5,29.7,5.4,29.5,5.4z
		 M34.1,5.6l-0.4,0c-0.2,0-0.3,0-0.4,0.1c-0.1,0.1-0.2,0.2-0.3,0.3v2.9h-1.1V4.6H33L33,5.2c0.1-0.2,0.2-0.4,0.4-0.5
		c0.2-0.1,0.3-0.2,0.5-0.2c0.1,0,0.1,0,0.2,0c0,0,0.1,0,0.1,0L34.1,5.6z M11.4,15.8v-5.7h1.9c0.7,0,1.2,0.1,1.6,0.4
		c0.4,0.3,0.6,0.7,0.6,1.2c0,0.3-0.1,0.5-0.2,0.7c-0.1,0.2-0.3,0.4-0.6,0.5c0.4,0.1,0.6,0.2,0.8,0.5s0.3,0.5,0.3,0.8
		c0,0.5-0.2,1-0.5,1.2c-0.4,0.3-0.9,0.4-1.5,0.4H11.4z M12.6,12.5h0.8c0.3,0,0.5-0.1,0.7-0.2c0.2-0.1,0.2-0.3,0.2-0.5
		c0-0.3-0.1-0.5-0.2-0.6S13.6,11,13.3,11h-0.7V12.5z M12.6,13.3V15h1.1c0.3,0,0.5-0.1,0.7-0.2c0.2-0.1,0.2-0.3,0.2-0.6
		c0-0.3-0.1-0.5-0.2-0.6c-0.2-0.1-0.4-0.2-0.7-0.2H12.6z M18.9,15.8c0-0.1-0.1-0.2-0.1-0.3c0-0.1-0.1-0.2-0.1-0.3
		c-0.1,0.2-0.3,0.4-0.5,0.5c-0.2,0.1-0.4,0.2-0.7,0.2c-0.4,0-0.8-0.1-1-0.3c-0.2-0.2-0.4-0.5-0.4-0.9c0-0.4,0.2-0.7,0.5-1
		c0.3-0.2,0.8-0.3,1.4-0.3h0.6V13c0-0.2-0.1-0.4-0.2-0.5c-0.1-0.1-0.3-0.2-0.5-0.2c-0.2,0-0.3,0-0.4,0.1c-0.1,0.1-0.2,0.2-0.2,0.4
		h-1.1l0,0c0-0.4,0.1-0.7,0.5-0.9s0.8-0.4,1.3-0.4c0.5,0,0.9,0.1,1.2,0.4c0.3,0.3,0.5,0.6,0.5,1.1v1.7c0,0.2,0,0.4,0,0.6
		c0,0.2,0.1,0.3,0.1,0.5H18.9z M17.9,15.1c0.2,0,0.4,0,0.5-0.1c0.2-0.1,0.3-0.2,0.3-0.3V14h-0.6c-0.2,0-0.4,0.1-0.5,0.2
		c-0.1,0.1-0.2,0.3-0.2,0.4c0,0.1,0,0.3,0.1,0.3C17.6,15,17.7,15.1,17.9,15.1z M21.8,11.6l0.1,0.6c0.1-0.2,0.3-0.4,0.5-0.5
		c0.2-0.1,0.4-0.2,0.7-0.2c0.4,0,0.8,0.1,1,0.4c0.2,0.3,0.4,0.7,0.4,1.3v2.6h-1.1v-2.6c0-0.3-0.1-0.5-0.2-0.6
		c-0.1-0.1-0.3-0.2-0.5-0.2c-0.2,0-0.3,0-0.4,0.1c-0.1,0.1-0.2,0.2-0.3,0.3v3.1h-1.1v-4.2H21.8z M26.7,14.1h-0.3v1.8h-1.1V9.7h1.1
		v3.5h0.3l1-1.6H29l-1.4,1.9l1.6,2.3h-1.3L26.7,14.1z"/>
</g>
<g>
	<path fill="#6759A5" d="M29.9,31.6C29.9,31.6,29.9,31.6,29.9,31.6L5.3,26.5c-0.1,0-0.2-0.1-0.2-0.2L6.9,8.6c0-0.1,0-0.1,0.1-0.1
		c0,0,0.1,0,0.1,0l28.7,4.2c0.1,0,0.1,0,0.1,0.1c0,0,0,0.1,0,0.2l-5.9,18.6C30.1,31.6,30,31.6,29.9,31.6z M5.6,26.1l24.2,5.1
		L35.6,13L7.3,8.8L5.6,26.1z"/>
	<polyline fill="#6759A5" points="13,29.9 8.6,29.9 6.7,11.3 34.3,9.5 32.4,29.9 18.5,29.9 	"/>
	<polyline fill="#FFFFFF" points="11.9,29.1 7.5,29.1 5.6,10.6 33.2,8.8 31.3,29.1 17.4,29.1 	"/>
	<polyline fill="#ED3B7D" points="11.6,28.8 7.1,28.8 5.3,10.2 32.8,8.4 31,28.8 17.1,28.8 	"/>
	<polygon fill="#6759A5" points="28,18.5 4,19.9 4,11.5 4.8,11 28,12.1 28.8,17.9 	"/>
	<polygon fill="#6759A5" points="9.2,27.4 33.3,27.6 34,27 33.3,19.2 8.2,19.9 7.4,20.5 	"/>
	<polygon fill="#3DABE0" points="28.8,17.9 4.8,19.4 4.8,11 28.8,11.5 	"/>
	<polygon fill="#3DABE0" points="10,26.9 34,27 34,18.6 8.2,19.9 	"/>
	<g>
		<path fill="#FFFFFF" d="M8.9,13.8h-1v2.8H7.3v-2.8h-1v-0.4h2.5V13.8z"/>
		<path fill="#FFFFFF" d="M10.2,16.7c-0.4,0-0.6-0.1-0.8-0.3c-0.2-0.2-0.3-0.5-0.3-0.9v-0.1c0-0.4,0.1-0.6,0.3-0.9
			c0.2-0.2,0.5-0.3,0.8-0.3c0.3,0,0.6,0.1,0.7,0.3c0.2,0.2,0.2,0.5,0.2,0.8v0.3H9.7l0,0c0,0.2,0.1,0.4,0.2,0.5
			c0.1,0.1,0.2,0.2,0.4,0.2c0.1,0,0.3,0,0.4-0.1c0.1,0,0.2-0.1,0.3-0.2l0.2,0.4c-0.1,0.1-0.2,0.1-0.4,0.2
			C10.6,16.6,10.4,16.7,10.2,16.7z M10.2,14.6c-0.1,0-0.3,0.1-0.3,0.2c-0.1,0.1-0.1,0.2-0.2,0.4l0,0h0.9v0c0-0.2,0-0.3-0.1-0.4
			C10.4,14.6,10.3,14.6,10.2,14.6z"/>
		<path fill="#FFFFFF" d="M13,16.6c0-0.1,0-0.1,0-0.2c0-0.1,0-0.1,0-0.2c-0.1,0.1-0.2,0.2-0.3,0.3c-0.1,0.1-0.3,0.1-0.4,0.1
			c-0.2,0-0.4-0.1-0.6-0.2c-0.1-0.1-0.2-0.3-0.2-0.5c0-0.2,0.1-0.4,0.3-0.5c0.2-0.1,0.4-0.2,0.8-0.2H13V15c0-0.1,0-0.2-0.1-0.3
			c-0.1-0.1-0.2-0.1-0.3-0.1c-0.1,0-0.2,0-0.3,0.1c-0.1,0.1-0.1,0.1-0.1,0.2l-0.5,0l0,0c0-0.2,0.1-0.4,0.3-0.5
			c0.2-0.1,0.4-0.2,0.7-0.2c0.3,0,0.5,0.1,0.7,0.2c0.2,0.1,0.3,0.3,0.3,0.6v1.1c0,0.1,0,0.2,0,0.3c0,0.1,0,0.2,0.1,0.3H13z
			 M12.4,16.2c0.1,0,0.3,0,0.4-0.1c0.1-0.1,0.2-0.1,0.2-0.2v-0.4h-0.4c-0.2,0-0.3,0-0.4,0.1c-0.1,0.1-0.1,0.2-0.1,0.3
			c0,0.1,0,0.2,0.1,0.2C12.2,16.2,12.3,16.2,12.4,16.2z"/>
		<path fill="#FFFFFF" d="M15,16.2c0.1,0,0.2,0,0.3-0.1c0.1-0.1,0.1-0.2,0.1-0.3H16l0,0c0,0.2-0.1,0.4-0.3,0.6
			c-0.2,0.2-0.4,0.2-0.7,0.2c-0.3,0-0.6-0.1-0.8-0.3c-0.2-0.2-0.3-0.5-0.3-0.9v-0.1c0-0.3,0.1-0.6,0.3-0.9s0.5-0.3,0.8-0.3
			c0.3,0,0.5,0.1,0.7,0.3c0.2,0.2,0.3,0.4,0.3,0.6l0,0h-0.5c0-0.1,0-0.2-0.1-0.3c-0.1-0.1-0.2-0.1-0.3-0.1c-0.2,0-0.3,0.1-0.4,0.2
			c-0.1,0.1-0.1,0.3-0.1,0.6v0.1c0,0.2,0,0.4,0.1,0.6C14.7,16.2,14.8,16.2,15,16.2z"/>
		<path fill="#FFFFFF" d="M17,14.5c0.1-0.1,0.2-0.2,0.3-0.3c0.1-0.1,0.2-0.1,0.4-0.1c0.3,0,0.5,0.1,0.6,0.2c0.1,0.2,0.2,0.4,0.2,0.7
			v1.5h-0.5v-1.5c0-0.2,0-0.3-0.1-0.4c-0.1-0.1-0.2-0.1-0.3-0.1c-0.1,0-0.2,0-0.3,0.1c-0.1,0-0.2,0.1-0.2,0.2v1.8h-0.5v-3.5H17V14.5
			z"/>
		<path fill="#FFFFFF" d="M20.4,16.6c0-0.1,0-0.1,0-0.2c0-0.1,0-0.1,0-0.2c-0.1,0.1-0.2,0.2-0.3,0.3c-0.1,0.1-0.3,0.1-0.4,0.1
			c-0.2,0-0.4-0.1-0.6-0.2c-0.1-0.1-0.2-0.3-0.2-0.5c0-0.2,0.1-0.4,0.3-0.5c0.2-0.1,0.4-0.2,0.8-0.2h0.4V15c0-0.1,0-0.2-0.1-0.3
			c-0.1-0.1-0.2-0.1-0.3-0.1c-0.1,0-0.2,0-0.3,0.1c-0.1,0.1-0.1,0.1-0.1,0.2l-0.5,0l0,0c0-0.2,0.1-0.4,0.3-0.5
			c0.2-0.1,0.4-0.2,0.7-0.2c0.3,0,0.5,0.1,0.7,0.2c0.2,0.1,0.3,0.3,0.3,0.6v1.1c0,0.1,0,0.2,0,0.3c0,0.1,0,0.2,0.1,0.3H20.4z
			 M19.8,16.2c0.1,0,0.3,0,0.4-0.1c0.1-0.1,0.2-0.1,0.2-0.2v-0.4h-0.4c-0.2,0-0.3,0-0.4,0.1c-0.1,0.1-0.1,0.2-0.1,0.3
			c0,0.1,0,0.2,0.1,0.2C19.6,16.2,19.7,16.2,19.8,16.2z"/>
		<path fill="#FFFFFF" d="M23.6,15.5c0,0.4-0.1,0.6-0.2,0.8c-0.2,0.2-0.4,0.3-0.7,0.3c-0.2,0-0.3,0-0.4-0.1
			c-0.1-0.1-0.2-0.2-0.3-0.3l-0.1,0.3h-0.4v-3.5H22v1.3c0.1-0.1,0.2-0.2,0.3-0.2c0.1-0.1,0.2-0.1,0.4-0.1c0.3,0,0.5,0.1,0.7,0.4
			C23.5,14.7,23.6,15.1,23.6,15.5L23.6,15.5z M23,15.4c0-0.2,0-0.5-0.1-0.6c-0.1-0.2-0.2-0.2-0.4-0.2c-0.1,0-0.2,0-0.3,0.1
			c-0.1,0.1-0.1,0.1-0.2,0.2v1c0,0.1,0.1,0.2,0.2,0.2c0.1,0.1,0.2,0.1,0.3,0.1c0.2,0,0.3-0.1,0.4-0.2C23,15.9,23,15.7,23,15.4
			L23,15.4z"/>
		<path fill="#FFFFFF" d="M24.6,16.6h-0.5v-3.5h0.5V16.6z"/>
		<path fill="#FFFFFF" d="M26.2,16.7c-0.4,0-0.6-0.1-0.8-0.3c-0.2-0.2-0.3-0.5-0.3-0.9v-0.1c0-0.4,0.1-0.6,0.3-0.9
			c0.2-0.2,0.5-0.3,0.8-0.3c0.3,0,0.6,0.1,0.7,0.3c0.2,0.2,0.2,0.5,0.2,0.8v0.3h-1.5l0,0c0,0.2,0.1,0.4,0.2,0.5
			c0.1,0.1,0.2,0.2,0.4,0.2c0.1,0,0.3,0,0.4-0.1c0.1,0,0.2-0.1,0.3-0.2l0.2,0.4c-0.1,0.1-0.2,0.1-0.4,0.2
			C26.6,16.6,26.4,16.7,26.2,16.7z M26.2,14.6c-0.1,0-0.3,0.1-0.3,0.2c-0.1,0.1-0.1,0.2-0.2,0.4l0,0h0.9v0c0-0.2,0-0.3-0.1-0.4
			C26.4,14.6,26.3,14.6,26.2,14.6z"/>
		<path fill="#FFFFFF" d="M15.1,24L15.1,24l0.9-2.5h0.7v3.2h-0.5v-2.3l0,0l-0.9,2.3h-0.4L14,22.4l0,0v2.4h-0.5v-3.2h0.7L15.1,24z"/>
		<path fill="#FFFFFF" d="M18.8,24.8c0-0.1,0-0.1,0-0.2c0-0.1,0-0.1,0-0.2c-0.1,0.1-0.2,0.2-0.3,0.3c-0.1,0.1-0.3,0.1-0.4,0.1
			c-0.2,0-0.4-0.1-0.6-0.2c-0.1-0.1-0.2-0.3-0.2-0.5c0-0.2,0.1-0.4,0.3-0.5c0.2-0.1,0.4-0.2,0.8-0.2h0.4v-0.2c0-0.1,0-0.2-0.1-0.3
			c-0.1-0.1-0.2-0.1-0.3-0.1c-0.1,0-0.2,0-0.3,0.1c-0.1,0.1-0.1,0.1-0.1,0.2l-0.5,0l0,0c0-0.2,0.1-0.4,0.3-0.5
			c0.2-0.1,0.4-0.2,0.7-0.2c0.3,0,0.5,0.1,0.7,0.2s0.3,0.3,0.3,0.6v1.1c0,0.1,0,0.2,0,0.3c0,0.1,0,0.2,0.1,0.3H18.8z M18.2,24.4
			c0.1,0,0.3,0,0.4-0.1c0.1-0.1,0.2-0.1,0.2-0.2v-0.4h-0.4c-0.2,0-0.3,0-0.4,0.1c-0.1,0.1-0.1,0.2-0.1,0.3c0,0.1,0,0.2,0.1,0.2
			C18,24.4,18,24.4,18.2,24.4z"/>
		<path fill="#FFFFFF" d="M20.8,24.4c0.1,0,0.2,0,0.3-0.1c0.1-0.1,0.1-0.2,0.1-0.3h0.5l0,0c0,0.2-0.1,0.4-0.3,0.6
			c-0.2,0.2-0.4,0.2-0.7,0.2c-0.3,0-0.6-0.1-0.8-0.3c-0.2-0.2-0.3-0.5-0.3-0.9v-0.1c0-0.3,0.1-0.6,0.3-0.9c0.2-0.2,0.5-0.3,0.8-0.3
			c0.3,0,0.5,0.1,0.7,0.3c0.2,0.2,0.3,0.4,0.3,0.6l0,0h-0.5c0-0.1,0-0.2-0.1-0.3c-0.1-0.1-0.2-0.1-0.3-0.1c-0.2,0-0.3,0.1-0.4,0.2
			c-0.1,0.1-0.1,0.3-0.1,0.6v0.1c0,0.2,0,0.4,0.1,0.6C20.5,24.3,20.6,24.4,20.8,24.4z"/>
		<path fill="#FFFFFF" d="M22.7,22.7c0.1-0.1,0.2-0.2,0.3-0.3c0.1-0.1,0.2-0.1,0.4-0.1c0.3,0,0.5,0.1,0.6,0.2
			c0.1,0.2,0.2,0.4,0.2,0.7v1.5h-0.5v-1.5c0-0.2,0-0.3-0.1-0.4c-0.1-0.1-0.2-0.1-0.3-0.1c-0.1,0-0.2,0-0.3,0.1
			c-0.1,0-0.2,0.1-0.2,0.2v1.8h-0.5v-3.5h0.5V22.7z"/>
		<path fill="#FFFFFF" d="M25.4,21.8h-0.5v-0.5h0.5V21.8z M25.4,24.8h-0.5v-2.4h0.5V24.8z"/>
		<path fill="#FFFFFF" d="M26.4,22.4l0,0.3c0.1-0.1,0.2-0.2,0.3-0.3c0.1-0.1,0.3-0.1,0.4-0.1c0.3,0,0.4,0.1,0.6,0.2
			c0.1,0.2,0.2,0.4,0.2,0.7v1.5h-0.5v-1.5c0-0.2,0-0.3-0.1-0.4c-0.1-0.1-0.2-0.1-0.3-0.1c-0.1,0-0.2,0-0.3,0.1
			c-0.1,0-0.2,0.1-0.2,0.2v1.8h-0.5v-2.4H26.4z"/>
		<path fill="#FFFFFF" d="M29.5,24.8c-0.4,0-0.6-0.1-0.8-0.3c-0.2-0.2-0.3-0.5-0.3-0.9v-0.1c0-0.4,0.1-0.6,0.3-0.9
			c0.2-0.2,0.5-0.3,0.8-0.3c0.3,0,0.6,0.1,0.7,0.3c0.2,0.2,0.2,0.5,0.2,0.8v0.3H29l0,0c0,0.2,0.1,0.4,0.2,0.5
			c0.1,0.1,0.2,0.2,0.4,0.2c0.1,0,0.3,0,0.4-0.1c0.1,0,0.2-0.1,0.3-0.2l0.2,0.4c-0.1,0.1-0.2,0.1-0.4,0.2
			C29.9,24.8,29.7,24.8,29.5,24.8z M29.5,22.8c-0.1,0-0.3,0.1-0.3,0.2C29.1,23,29,23.2,29,23.3l0,0h0.9v0c0-0.2,0-0.3-0.1-0.4
			C29.8,22.8,29.6,22.8,29.5,22.8z"/>
	</g>
</g>
</svg>
