<?xml version="1.0" encoding="utf-8"?>
<!-- Generator: Adobe Illustrator 23.0.1, SVG Export Plug-In . SVG Version: 6.00 Build 0)  -->
<svg version="1.2" baseProfile="tiny" id="Layer_1" xmlns="http://www.w3.org/2000/svg" xmlns:xlink="http://www.w3.org/1999/xlink"
	 x="0px" y="0px" width="40px" height="40px" viewBox="0 0 40 40" xml:space="preserve">
<g>
	<path fill="#E5DED7" d="M22,8.7H18c-0.7,0-1.3,0.4-1.6,1l-2.3,4.9c-0.2,0.5-0.2,1,0,1.5l2.3,4.9c0.3,0.6,0.9,1,1.6,1H22
		c0.7,0,1.3-0.4,1.6-1l2.3-4.9c0.2-0.5,0.2-1,0-1.5l-2.3-4.9C23.3,9.1,22.7,8.7,22,8.7z"/>
	<path fill="#8267AD" d="M27.4,28.7V17.1c0-0.3-0.1-0.6-0.3-0.8l-0.5-0.5c-0.2-0.2-0.5-0.3-0.8-0.3H14.2c-0.3,0-0.6,0.1-0.8,0.3
		l-0.5,0.5c-0.2,0.2-0.3,0.5-0.3,0.8v11.6c0,0.3,0.1,0.6,0.3,0.8l0.5,0.5c0.2,0.2,0.5,0.3,0.8,0.3h11.6c0.3,0,0.6-0.1,0.8-0.3
		l0.5-0.5C27.3,29.3,27.4,29,27.4,28.7z"/>
	<path fill="#E5DED7" d="M20,29.2L20,29.2c-3.5,0-6.3-2.8-6.3-6.3l0,0c0-3.5,2.8-6.3,6.3-6.3h0c3.5,0,6.3,2.8,6.3,6.3v0
		C26.2,26.4,23.4,29.2,20,29.2z"/>
	<path fill="#2B2522" d="M10.2,33.5L10.2,33.5c-1.3,0-2.3-1.1-2.3-2.3v-3.3c0-1.3,1-2.3,2.3-2.3h0c1.3,0,2.3,1,2.3,2.3v3.3
		C12.6,32.4,11.5,33.5,10.2,33.5z"/>
	<path fill="#484342" d="M11.6,29.3H8.9c-0.2,0-0.3-0.1-0.3-0.3l0,0c0-0.2,0.1-0.3,0.3-0.3h2.7c0.2,0,0.3,0.1,0.3,0.3l0,0
		C11.9,29.2,11.7,29.3,11.6,29.3z"/>
	<path fill="#484342" d="M11.6,30.2H8.9c-0.2,0-0.3-0.1-0.3-0.3l0,0c0-0.2,0.1-0.3,0.3-0.3h2.7c0.2,0,0.3,0.1,0.3,0.3l0,0
		C11.9,30.1,11.7,30.2,11.6,30.2z"/>
	<path fill="#484342" d="M11.6,31.1H8.9c-0.2,0-0.3-0.1-0.3-0.3l0,0c0-0.2,0.1-0.3,0.3-0.3h2.7c0.2,0,0.3,0.1,0.3,0.3l0,0
		C11.9,31,11.7,31.1,11.6,31.1z"/>
	<path fill="#484342" d="M11.6,32H8.9c-0.2,0-0.3-0.1-0.3-0.3l0,0c0-0.2,0.1-0.3,0.3-0.3h2.7c0.2,0,0.3,0.1,0.3,0.3l0,0
		C11.9,31.8,11.7,32,11.6,32z"/>
	<path fill="#484342" d="M11.6,32.9H8.9c-0.2,0-0.3-0.1-0.3-0.3l0,0c0-0.2,0.1-0.3,0.3-0.3h2.7c0.2,0,0.3,0.1,0.3,0.3l0,0
		C11.9,32.7,11.7,32.9,11.6,32.9z"/>
	<path fill="#484342" d="M11.6,26.6H8.9c-0.2,0-0.3-0.1-0.3-0.3l0,0c0-0.2,0.1-0.3,0.3-0.3h2.7c0.2,0,0.3,0.1,0.3,0.3l0,0
		C11.9,26.5,11.7,26.6,11.6,26.6z"/>
	<path fill="#484342" d="M11.6,27.5H8.9c-0.2,0-0.3-0.1-0.3-0.3l0,0c0-0.2,0.1-0.3,0.3-0.3h2.7c0.2,0,0.3,0.1,0.3,0.3l0,0
		C11.9,27.4,11.7,27.5,11.6,27.5z"/>
	<path fill="#484342" d="M11.6,28.4H8.9c-0.2,0-0.3-0.1-0.3-0.3l0,0c0-0.2,0.1-0.3,0.3-0.3h2.7c0.2,0,0.3,0.1,0.3,0.3l0,0
		C11.9,28.3,11.7,28.4,11.6,28.4z"/>
	<path fill="#2B2522" d="M29.8,33.5L29.8,33.5c-1.3,0-2.3-1.1-2.3-2.3v-3.3c0-1.3,1-2.3,2.3-2.3h0c1.3,0,2.3,1,2.3,2.3v3.3
		C32.1,32.4,31.1,33.5,29.8,33.5z"/>
	<path fill="#484342" d="M31.1,29.3h-2.7c-0.2,0-0.3-0.1-0.3-0.3l0,0c0-0.2,0.1-0.3,0.3-0.3h2.7c0.2,0,0.3,0.1,0.3,0.3l0,0
		C31.4,29.2,31.3,29.3,31.1,29.3z"/>
	<path fill="#484342" d="M31.1,30.2h-2.7c-0.2,0-0.3-0.1-0.3-0.3l0,0c0-0.2,0.1-0.3,0.3-0.3h2.7c0.2,0,0.3,0.1,0.3,0.3l0,0
		C31.4,30.1,31.3,30.2,31.1,30.2z"/>
	<path fill="#484342" d="M31.1,31.1h-2.7c-0.2,0-0.3-0.1-0.3-0.3l0,0c0-0.2,0.1-0.3,0.3-0.3h2.7c0.2,0,0.3,0.1,0.3,0.3l0,0
		C31.4,31,31.3,31.1,31.1,31.1z"/>
	<path fill="#484342" d="M31.1,32h-2.7c-0.2,0-0.3-0.1-0.3-0.3l0,0c0-0.2,0.1-0.3,0.3-0.3h2.7c0.2,0,0.3,0.1,0.3,0.3l0,0
		C31.4,31.8,31.3,32,31.1,32z"/>
	<path fill="#484342" d="M31.1,32.9h-2.7c-0.2,0-0.3-0.1-0.3-0.3l0,0c0-0.2,0.1-0.3,0.3-0.3h2.7c0.2,0,0.3,0.1,0.3,0.3l0,0
		C31.4,32.7,31.3,32.9,31.1,32.9z"/>
	<path fill="#484342" d="M31.1,26.6h-2.7c-0.2,0-0.3-0.1-0.3-0.3l0,0c0-0.2,0.1-0.3,0.3-0.3h2.7c0.2,0,0.3,0.1,0.3,0.3l0,0
		C31.4,26.5,31.3,26.6,31.1,26.6z"/>
	<path fill="#484342" d="M31.1,27.5h-2.7c-0.2,0-0.3-0.1-0.3-0.3l0,0c0-0.2,0.1-0.3,0.3-0.3h2.7c0.2,0,0.3,0.1,0.3,0.3l0,0
		C31.4,27.4,31.3,27.5,31.1,27.5z"/>
	<path fill="#484342" d="M31.1,28.4h-2.7c-0.2,0-0.3-0.1-0.3-0.3l0,0c0-0.2,0.1-0.3,0.3-0.3h2.7c0.2,0,0.3,0.1,0.3,0.3l0,0
		C31.4,28.3,31.3,28.4,31.1,28.4z"/>
	<path fill="#C4B5AD" d="M20,27.7L20,27.7c-2.7,0-4.9-2.2-4.9-4.9v0c0-2.7,2.2-4.9,4.9-4.9h0c2.7,0,4.9,2.2,4.9,4.9v0
		C24.9,25.6,22.7,27.7,20,27.7z"/>
	<path fill="#2B2522" d="M8.3,13C8.2,13,8,12.9,8,12.8c-0.1-0.2-0.1-0.4,0.1-0.6l1.1-0.9c0.2-0.1,0.4-0.1,0.6,0.1
		c0.1,0.2,0.1,0.4-0.1,0.6l-1.1,0.9C8.5,12.9,8.4,13,8.3,13z"/>
	<path fill="#2B2522" d="M7.5,12.7c-0.2,0-0.4-0.1-0.4-0.3L6.7,9.9c0-0.2,0.1-0.4,0.3-0.5c0.2,0,0.4,0.1,0.5,0.3l0.4,2.5
		C7.9,12.4,7.8,12.7,7.5,12.7C7.5,12.7,7.5,12.7,7.5,12.7z"/>
	<path fill="#2B2522" d="M6.8,12.3c-0.2,0-0.3-0.1-0.4-0.2l-0.9-1.9c-0.1-0.2,0-0.4,0.2-0.5c0.2-0.1,0.4,0,0.5,0.2l0.9,1.9
		c0.1,0.2,0,0.4-0.2,0.5C6.9,12.3,6.8,12.3,6.8,12.3z"/>
	<path fill="#2B2522" d="M6.4,12.8c-0.1,0-0.2,0-0.3-0.1l-1.6-1.6c-0.2-0.2-0.2-0.4,0-0.6c0.2-0.2,0.4-0.2,0.6,0l1.6,1.6
		c0.2,0.2,0.2,0.4,0,0.6C6.6,12.7,6.5,12.8,6.4,12.8z"/>
	<path fill="#2B2522" d="M6.6,13.5c-0.1,0-0.1,0-0.2,0l-2.2-1.1C4,12.3,3.9,12,4,11.8c0.1-0.2,0.3-0.3,0.5-0.2l2.2,1.1
		C7,12.8,7.1,13,7,13.2C6.9,13.4,6.8,13.5,6.6,13.5z"/>
	<path fill="#5B417C" d="M12.5,19.3c-2.9,0-4.5-1.6-5.4-5.4L8,13.7c0.9,3.9,2.5,4.7,4.6,4.6l0,0.9C12.5,19.3,12.5,19.3,12.5,19.3z"
		/>
	<path fill="#8267AD" d="M8.7,12.9c0,0.8-0.7,1.5-1.5,1.5c-0.8,0-1.5-0.7-1.5-1.5c0-0.8,0.7-1.5,1.5-1.5C8,11.4,8.7,12.1,8.7,12.9z"
		/>
	<path fill="#2B2522" d="M31.7,13c-0.1,0-0.2,0-0.3-0.1L30.3,12c-0.2-0.1-0.2-0.4-0.1-0.6c0.1-0.2,0.4-0.2,0.6-0.1l1.1,0.9
		c0.2,0.1,0.2,0.4,0.1,0.6C32,12.9,31.9,13,31.7,13z"/>
	<path fill="#2B2522" d="M32.5,12.7C32.5,12.7,32.5,12.7,32.5,12.7c-0.3,0-0.4-0.3-0.4-0.5l0.4-2.5c0-0.2,0.2-0.4,0.5-0.3
		c0.2,0,0.4,0.2,0.3,0.5l-0.4,2.5C32.9,12.6,32.7,12.7,32.5,12.7z"/>
	<path fill="#2B2522" d="M33.2,12.8c-0.1,0-0.1,0-0.2,0c-0.2-0.1-0.3-0.3-0.2-0.5l1-2.4c0.1-0.2,0.3-0.3,0.5-0.2
		c0.2,0.1,0.3,0.3,0.2,0.5l-1,2.4C33.5,12.7,33.3,12.8,33.2,12.8z"/>
	<path fill="#2B2522" d="M33.6,13.3c-0.1,0-0.2,0-0.3-0.1c-0.2-0.1-0.2-0.4-0.1-0.6l1.6-2c0.1-0.2,0.4-0.2,0.6-0.1
		c0.2,0.1,0.2,0.4,0.1,0.6l-1.6,2C33.8,13.2,33.7,13.3,33.6,13.3z"/>
	<path fill="#2B2522" d="M33.5,13.8c-0.1,0-0.3-0.1-0.4-0.2c-0.1-0.2,0-0.4,0.2-0.6l2.1-1.1c0.2-0.1,0.4,0,0.6,0.2
		c0.1,0.2,0,0.4-0.2,0.6l-2.1,1.1C33.6,13.8,33.6,13.8,33.5,13.8z"/>
	<path fill="#5B417C" d="M27.6,19.3c0,0-0.1,0-0.1,0l0-0.9c2.9,0.1,3.9-1.8,4.6-4.6l0.9,0.2C32.1,17.7,30.5,19.3,27.6,19.3z"/>
	<path fill="#8267AD" d="M31.3,12.9c0,0.8,0.7,1.5,1.5,1.5c0.8,0,1.5-0.7,1.5-1.5c0-0.8-0.7-1.5-1.5-1.5
		C32,11.4,31.3,12.1,31.3,12.9z"/>
	<path fill="#E5DED7" d="M23.2,9.3c0,0.4-1.4,0.8-3.2,0.8c-1.8,0-3.2-0.4-3.2-0.8c0-0.4,1.4-0.8,3.2-0.8C21.8,8.5,23.2,8.9,23.2,9.3
		z"/>
	<path fill="#F04E69" d="M22.7,20.1c-0.4-0.3-0.7-0.3-0.8-0.3c0,0-0.1,0-0.3,0c-0.3,0-1,0.1-1.6,0.7c-0.6-0.6-1.3-0.7-1.6-0.7
		c-0.1,0-0.2,0-0.3,0c-0.1,0-0.4,0.1-0.8,0.3c-0.4,0.3-0.8,0.8-0.8,1.8c0,1.9,3.2,4.1,3.4,4.2c0,0,0.1,0,0.1,0c0,0,0.1,0,0.1,0
		c0.1-0.1,3.4-2.3,3.4-4.2C23.5,20.8,23,20.3,22.7,20.1z"/>
	<path fill="#FFFFFF" d="M19.3,12.5c0,0.9-0.7,1.6-1.6,1.6c-0.9,0-1.6-0.7-1.6-1.6c0-0.9,0.7-1.6,1.6-1.6
		C18.5,10.9,19.3,11.6,19.3,12.5z"/>
	<path fill="#5B417C" d="M17.6,14.2c-0.9,0-1.7-0.8-1.7-1.7c0-0.9,0.8-1.7,1.7-1.7c0.9,0,1.7,0.8,1.7,1.7
		C19.3,13.4,18.6,14.2,17.6,14.2z M17.6,10.9c-0.9,0-1.5,0.7-1.5,1.5s0.7,1.5,1.5,1.5c0.9,0,1.5-0.7,1.5-1.5S18.5,10.9,17.6,10.9z"
		/>
	<path fill="#CDCECF" d="M17.6,13.8c-0.8,0-1.5-0.6-1.5-1.4c0,0,0,0.1,0,0.1c0,0.9,0.7,1.5,1.5,1.5c0.9,0,1.5-0.7,1.5-1.5
		c0,0,0-0.1,0-0.1C19.1,13.2,18.5,13.8,17.6,13.8z"/>
	<path fill="#5B417C" d="M18.7,12.6c0,0.6-0.5,1.1-1.1,1.1c-0.6,0-1.1-0.5-1.1-1.1c0-0.6,0.5-1.1,1.1-1.1
		C18.2,11.5,18.7,12,18.7,12.6z"/>
	<path fill="#143718" d="M17.6,13.4c-0.6,0-1-0.4-1.1-1c0,0,0,0.1,0,0.1c0,0.6,0.5,1.1,1.1,1.1c0.6,0,1.1-0.5,1.1-1.1
		c0,0,0-0.1,0-0.1C18.7,13,18.2,13.4,17.6,13.4z"/>
	<path fill="#000100" d="M18,12.6c0,0.2-0.2,0.3-0.3,0.3c-0.2,0-0.3-0.2-0.3-0.3c0-0.2,0.2-0.3,0.3-0.3C17.8,12.2,18,12.4,18,12.6z"
		/>
	<path fill="#FFFFFF" d="M18.2,13c0,0.1-0.1,0.1-0.1,0.1c-0.1,0-0.1-0.1-0.1-0.1c0-0.1,0.1-0.1,0.1-0.1C18.2,12.9,18.2,13,18.2,13z"
		/>
	<path fill="#FFFFFF" d="M17.3,11.7c-0.2,0-0.4,0.2-0.5,0.4c0,0.2,0.2,0.3,0.3,0.3c0.2,0,0.3-0.1,0.3-0.3
		C17.5,11.9,17.4,11.8,17.3,11.7z"/>
	<path fill="#FFFFFF" d="M24,12.5c0,0.9-0.7,1.6-1.6,1.6c-0.9,0-1.6-0.7-1.6-1.6c0-0.9,0.7-1.6,1.6-1.6C23.3,10.9,24,11.6,24,12.5z"
		/>
	<path fill="#5B417C" d="M22.4,14.2c-0.9,0-1.7-0.8-1.7-1.7c0-0.9,0.8-1.7,1.7-1.7c0.9,0,1.7,0.8,1.7,1.7
		C24.1,13.4,23.4,14.2,22.4,14.2z M22.4,10.9c-0.9,0-1.5,0.7-1.5,1.5s0.7,1.5,1.5,1.5c0.9,0,1.5-0.7,1.5-1.5S23.3,10.9,22.4,10.9z"
		/>
	<path fill="#CDCECF" d="M22.4,13.8c-0.8,0-1.5-0.6-1.5-1.4c0,0,0,0.1,0,0.1c0,0.9,0.7,1.5,1.5,1.5c0.9,0,1.5-0.7,1.5-1.5
		c0,0,0-0.1,0-0.1C23.9,13.2,23.2,13.8,22.4,13.8z"/>
	<path fill="#5B417C" d="M23.5,12.6c0,0.6-0.5,1.1-1.1,1.1c-0.6,0-1.1-0.5-1.1-1.1c0-0.6,0.5-1.1,1.1-1.1C23,11.5,23.5,12,23.5,12.6
		z"/>
	<path fill="#143718" d="M22.4,13.4c-0.6,0-1-0.4-1.1-1c0,0,0,0.1,0,0.1c0,0.6,0.5,1.1,1.1,1.1c0.6,0,1.1-0.5,1.1-1.1
		c0,0,0-0.1,0-0.1C23.4,13,23,13.4,22.4,13.4z"/>
	<path fill="#000100" d="M22.8,12.6c0,0.2-0.2,0.3-0.3,0.3c-0.2,0-0.3-0.2-0.3-0.3c0-0.2,0.2-0.3,0.3-0.3
		C22.6,12.2,22.8,12.4,22.8,12.6z"/>
	<path fill="#FFFFFF" d="M23,13c0,0.1-0.1,0.1-0.1,0.1c-0.1,0-0.1-0.1-0.1-0.1c0-0.1,0.1-0.1,0.1-0.1C22.9,12.9,23,13,23,13z"/>
	<path fill="#FFFFFF" d="M22.1,11.7c-0.2,0-0.4,0.2-0.5,0.4c0,0.2,0.2,0.3,0.3,0.3c0.2,0,0.3-0.1,0.3-0.3
		C22.2,11.9,22.2,11.8,22.1,11.7z"/>
	<path fill="#5B417C" d="M19.3,10.7c-0.1-0.1-0.3-0.2-0.4-0.2c-0.1-0.1-0.3-0.1-0.4-0.1c-0.1,0-0.3,0-0.4,0c-0.1,0-0.3,0-0.4,0
		c-0.2,0-0.3,0-0.4,0.1c-0.1,0-0.3,0.1-0.4,0.1c-0.1,0-0.3,0.1-0.4,0.1c-0.1,0-0.3,0.1-0.4,0.2l0,0c0.1-0.2,0.2-0.3,0.3-0.4
		c0.1-0.1,0.3-0.2,0.4-0.2c0.2-0.1,0.3-0.1,0.5-0.1c0.2,0,0.3,0,0.5,0c0.3,0,0.6,0.1,0.9,0.2c0.2,0.1,0.3,0.1,0.4,0.2
		c0.1,0,0.1,0.1,0.2,0.1C19.2,10.5,19.2,10.6,19.3,10.7L19.3,10.7z"/>
	<path fill="#5B417C" d="M20.8,10.1L20.8,10.1c0-0.1,0-0.1,0.1-0.1c0,0,0-0.1,0.1-0.1l0-0.1c0,0,0,0,0-0.1l0-0.1l0,0
		c0.1-0.1,0.3-0.2,0.4-0.3c0.2-0.1,0.3-0.2,0.5-0.2c0.2,0,0.4-0.1,0.5-0.1c0.2,0,0.4,0,0.5,0c0.2,0,0.4,0.1,0.5,0.2
		c0.2,0.1,0.3,0.2,0.4,0.4c0.1,0.1,0.2,0.3,0.2,0.5l0,0C24.1,10,24,9.9,23.9,9.8c-0.1-0.1-0.3-0.1-0.4-0.2c-0.1-0.1-0.3-0.1-0.4-0.1
		c-0.1,0-0.3-0.1-0.5-0.1c-0.2,0-0.3,0-0.5,0c-0.2,0-0.3,0.1-0.5,0.1c-0.2,0.1-0.3,0.1-0.4,0.2l0,0l0,0c0,0,0,0,0,0l0,0
		c0,0-0.1,0.1-0.1,0.1C20.9,10,20.9,10,20.8,10.1L20.8,10.1L20.8,10.1z"/>
</g>
</svg>
