<?xml version="1.0" encoding="utf-8"?>
<!-- Generator: Adobe Illustrator 23.0.1, SVG Export Plug-In . SVG Version: 6.00 Build 0)  -->
<svg version="1.2" baseProfile="tiny" id="Layer_1" xmlns="http://www.w3.org/2000/svg" xmlns:xlink="http://www.w3.org/1999/xlink"
	 x="0px" y="0px" width="40px" height="40px" viewBox="0 0 40 40" xml:space="preserve">
<path fill-rule="evenodd" fill="#FFCB04" d="M22.8,15.8l-2.1,8.6c0,0,0,0-0.1,0c-0.3,0-0.5,0.1-0.6,0.4l-2-0.5c0,0,0-0.1,0-0.1
	c0-0.2-0.1-0.4-0.3-0.5l2.3-8.5c0,0,0,0,0.1,0c0.3,0,0.5-0.1,0.6-0.4l1.7,0.5c0,0,0,0,0,0C22.4,15.4,22.6,15.7,22.8,15.8z M32.7,21
	l-6.5,1l0,0c-0.6,0.1-1.2-0.2-1.5-0.7l-1.2-2l-1.3,4.9l5.1,1.7c0.5,0.2,0.8,0.5,1,1l0,0l2.6,7.8c0.3,0.8-0.2,1.7-1,1.9
	c-0.8,0.3-1.7-0.2-1.9-1l-2.3-7.1L18.4,26l-2.8,5.6c-0.1,0.3-0.4,0.5-0.6,0.6l-6.7,4.1c-0.7,0.4-1.7,0.2-2.1-0.5
	c-0.4-0.7-0.2-1.7,0.5-2.1l6.4-3.9l3-6l2.1-8.1L15.4,16l-2.7,5.8c-0.4,0.8-1.3,1.1-2,0.8c-0.8-0.4-1.1-1.3-0.8-2l3-6.6
	c0.2-0.5,0.7-0.9,1.3-1l6.2-0.3c-1.2-0.9-2.1-2.4-2.1-4.1c0-2.8,2.3-5.1,5.1-5.1s5.1,2.3,5.1,5.1c0,2.8-2.2,5-4.9,5.1l3,5.1l5.5-0.8
	c0.8-0.1,1.6,0.5,1.7,1.3S33.5,20.8,32.7,21z M26.3,8.7c0,0.4,0.3,0.7,0.7,0.7s0.7-0.3,0.7-0.7S27.4,8,27,8S26.3,8.3,26.3,8.7z
	 M33.3,19.3c0-0.4-0.3-0.7-0.7-0.7c-0.3,0-0.6,0.3-0.7,0.6l-5.4,0.8c0-0.3-0.3-0.6-0.7-0.6c0,0-0.1,0-0.1,0l-2.2-3.9
	c0.1-0.1,0.2-0.3,0.2-0.5c0-0.4-0.3-0.7-0.7-0.7c-0.3,0-0.5,0.2-0.6,0.4l-1.7-0.4c0,0,0,0,0-0.1c0-0.4-0.3-0.7-0.7-0.7
	c-0.3,0-0.6,0.3-0.7,0.6l-4.4,0c-0.1-0.2-0.3-0.3-0.6-0.3c-0.4,0-0.7,0.3-0.7,0.7c0,0.2,0.1,0.4,0.2,0.5l-2.4,5.1
	c-0.1,0-0.2,0-0.2,0c-0.4,0-0.7,0.3-0.7,0.7c0,0.4,0.3,0.7,0.7,0.7c0.4,0,0.7-0.3,0.7-0.7c0-0.2-0.1-0.4-0.2-0.5l2.4-5.1
	c0.1,0,0.2,0.1,0.3,0.1c0.4,0,0.7-0.3,0.7-0.7c0,0,0,0,0-0.1l4.4,0c0.1,0.2,0.2,0.3,0.3,0.4l-2.3,8.5c0,0-0.1,0-0.1,0
	c-0.4,0-0.7,0.3-0.7,0.7c0,0.2,0.1,0.4,0.3,0.5L14.6,30c0,0-0.1,0-0.1,0c-0.4,0-0.7,0.3-0.7,0.7c0,0.1,0,0.2,0.1,0.4l-5.4,3.3
	C8.4,34.1,8.2,34,8,34c-0.4,0-0.7,0.3-0.7,0.7c0,0.4,0.3,0.7,0.7,0.7c0.4,0,0.7-0.3,0.7-0.7c0-0.1,0-0.2-0.1-0.3l5.4-3.3
	c0.1,0.1,0.3,0.2,0.4,0.2c0.4,0,0.7-0.3,0.7-0.7c0-0.2-0.1-0.4-0.3-0.6l2.4-5.4c0.1,0,0.1,0,0.2,0c0.2,0,0.4-0.1,0.6-0.3l2,0.5
	c0,0,0,0,0,0.1c0,0.4,0.3,0.7,0.7,0.7c0.2,0,0.4-0.1,0.5-0.2l5.1,1.8c0,0,0,0.1,0,0.1c0,0.4,0.3,0.7,0.7,0.7c0,0,0.1,0,0.1,0
	l2.1,6.3c-0.2,0.1-0.4,0.3-0.4,0.6c0,0.4,0.3,0.7,0.7,0.7c0.4,0,0.7-0.3,0.7-0.7c0-0.4-0.3-0.7-0.7-0.7c0,0,0,0-0.1,0L27.2,28
	c0.2-0.1,0.3-0.3,0.3-0.5c0-0.4-0.3-0.7-0.7-0.7c-0.2,0-0.4,0.1-0.5,0.3l-5-1.8c0-0.1,0-0.1,0-0.2c0-0.3-0.1-0.5-0.3-0.6l2.1-8.6
	c0,0,0,0,0,0c0.1,0,0.2,0,0.2,0l2.2,3.8c-0.2,0.1-0.3,0.3-0.3,0.5c0,0.4,0.3,0.7,0.7,0.7c0.3,0,0.6-0.2,0.6-0.5l5.5-0.8
	c0.1,0.3,0.3,0.5,0.6,0.5C33,20,33.3,19.7,33.3,19.3z"/>
</svg>
