<?xml version="1.0" encoding="utf-8"?>
<!-- Generator: Adobe Illustrator 23.0.1, SVG Export Plug-In . SVG Version: 6.00 Build 0)  -->
<svg version="1.2" baseProfile="tiny" id="Layer_1" xmlns="http://www.w3.org/2000/svg" xmlns:xlink="http://www.w3.org/1999/xlink"
	 x="0px" y="0px" width="40px" height="40px" viewBox="0 0 40 40" xml:space="preserve">
<path display="none" fill="#FFFFFF" d="M6.4,11.6v16L20,34V17.2L6.4,11.6z M17.4,30.5l-1.8-0.8l0.2-7.5l0,0l-2.4,6.5L12.1,28l-2-8.6
	l0,0L9.9,27L8,26.2l0.3-11.1l2.4,1.1l2.1,9.2l0,0l2.5-7.1l2.4,1.1L17.4,30.5z M20,17.2V34l13.6-6.4v-16L20,17.2z M24.2,29.3l0-11
	l2-0.9l0,9.3l4.4-2l0,1.7L24.2,29.3z M17,10.2C17,10.2,17.1,10.2,17,10.2c0.1,0.1,0.1,0.1,0.1,0.1L17,10.9c-0.1,0-0.2,0-0.2,0.1
	c0,0,0,0,0,0l-1.7-0.5L17,10.2z M17.4,9.8L17.4,9.8L17.4,9.8c0.1,0,0.1,0,0.1,0l1.4-1.2l-2.5,0.5l0.9,0.7
	C17.3,9.8,17.4,9.8,17.4,9.8z M17.8,10.2l1.2,1.3l0.6-0.6l0,0c-0.1-0.1-0.2-0.1-0.2-0.2c0,0,0,0,0,0c0,0,0,0,0,0L17.8,10.2z
	 M16.6,11.2C16.6,11.2,16.6,11.2,16.6,11.2C16.6,11.2,16.6,11.2,16.6,11.2l-1.8-0.5l0.2,0.9l1.3,0.3l0.4-0.5
	C16.6,11.3,16.6,11.3,16.6,11.2z M17,9.9l-0.9-0.7l-1.2,1.2l2-0.4C17,10,17,9.9,17,9.9z M22.1,10.9L22,10.1l-1.4,2.4l1.3-1.1
	c0-0.1-0.1-0.1-0.1-0.2c0,0,0,0,0,0c0-0.1,0.1-0.2,0.2-0.3C22,10.9,22.1,10.9,22.1,10.9z M22.5,9.8l2.7,1.5l-0.6-1.5L22.5,9.8
	C22.5,9.8,22.5,9.8,22.5,9.8z M22.5,9.6l1.7,0l-1.7-0.9l-0.2,0.7c0,0,0.1,0,0.1,0C22.4,9.6,22.5,9.6,22.5,9.6z M16.9,11.5L16.5,12
	l0.8,0.7L16.9,11.5C16.9,11.5,16.9,11.5,16.9,11.5z M17.8,10C17.8,10,17.8,10,17.8,10C17.8,10.1,17.8,10.1,17.8,10l1.6,0.5
	c0,0,0,0,0.1-0.1c0,0,0.1-0.1,0.2-0.1c-0.2-0.6-0.3-1.2-0.5-1.8l-1.4,1.2C17.8,9.9,17.8,10,17.8,10z M22.1,9.4l0.3-0.8l-2.6-0.1
	l2.1,1C21.9,9.5,22,9.5,22.1,9.4z M33.6,11.6L20,17.2L6.4,11.6L20,6L33.6,11.6z M24.2,13c0.5-0.4,0.9-0.9,1.4-1.3
	c-0.3-0.7-0.5-1.3-0.8-2l0,0l0,0l0,0l-2.1-1.1l-3.3-0.2l-0.1,0C18.1,8.6,17.1,8.8,16,9c-0.5,0.5-1,1-1.5,1.5
	c0.1,0.4,0.2,0.8,0.3,1.2l1.5,0.4l1.2,1l2.2,0.1c0,0.1,0.1,0.1,0.1,0.1c0.1,0.1,0.2,0.1,0.4,0.1c0,0,0,0,0,0c0.1,0,0.1,0,0.2,0
	l1.7,1.3l0.2,0.2l0-1.3L24.2,13z M20.6,13.3l1.4,1.1l0-0.8L20.6,13.3C20.6,13.3,20.6,13.3,20.6,13.3z M20.6,12.8
	c0.1,0.1,0.1,0.1,0.1,0.2c0,0,0,0,0,0c0,0,0,0,0,0.1l1.3,0.2l0.1-1.8c0,0,0,0-0.1,0L20.6,12.8z M22.4,10.9c0.1,0,0.3,0,0.4,0.1
	c0.1,0.1,0.2,0.2,0.2,0.3v0l2,0.2L22.3,10c0,0,0,0,0,0L22.4,10.9L22.4,10.9z M17.5,10.3C17.5,10.3,17.5,10.3,17.5,10.3l-0.3,0.6
	c0.1,0,0.1,0,0.1,0.1c0.1,0.1,0.1,0.1,0.1,0.2c0,0,0,0,0,0c0,0.1-0.1,0.2-0.1,0.2c0,0-0.1,0.1-0.2,0.1l0.4,1.3l1.1-1.1L17.5,10.3z
	 M22.9,11.4c0,0-0.1,0.1-0.1,0.1l0,0l1.3,1.2l1.1-1.1L22.9,11.4z M22.5,11.6l-0.1,1.7l1.6-0.5L22.5,11.6
	C22.5,11.6,22.5,11.6,22.5,11.6z M17.8,12.9l1.8,0.1c0-0.1,0.1-0.1,0.1-0.2l-0.8-0.9L17.8,12.9z M19.8,11.1l-0.7,0.6l0.9,1l0,0
	L19.8,11.1C19.8,11.1,19.8,11.1,19.8,11.1z M20.3,10.5l1.3-0.7c0,0,0,0,0-0.1c0,0,0,0,0,0c0,0,0-0.1,0-0.1l-2.2-1l0.5,1.7
	C20.1,10.4,20.2,10.4,20.3,10.5C20.3,10.5,20.3,10.5,20.3,10.5z M20.5,10.7C20.5,10.7,20.5,10.7,20.5,10.7
	C20.5,10.7,20.5,10.7,20.5,10.7c0,0.2,0,0.3-0.1,0.3c-0.1,0-0.1,0.1-0.2,0.1l0.1,1.6l1.5-2.7L20.5,10.7z"/>
<path fill-rule="evenodd" fill="#FFFFFF" d="M22.8,15.8l-2.1,8.6c0,0,0,0-0.1,0c-0.3,0-0.5,0.1-0.6,0.4l-2-0.5c0,0,0-0.1,0-0.1
	c0-0.2-0.1-0.4-0.3-0.5l2.3-8.5c0,0,0,0,0.1,0c0.3,0,0.5-0.1,0.6-0.4l1.7,0.5c0,0,0,0,0,0C22.4,15.4,22.6,15.7,22.8,15.8z M32.7,21
	l-6.5,1l0,0c-0.6,0.1-1.2-0.2-1.5-0.7l-1.2-2l-1.3,4.9l5.1,1.7c0.5,0.2,0.8,0.5,1,1l0,0l2.6,7.8c0.3,0.8-0.2,1.7-1,1.9
	c-0.8,0.3-1.7-0.2-1.9-1l-2.3-7.1L18.4,26l-2.8,5.6c-0.1,0.3-0.4,0.5-0.6,0.6l-6.7,4.1c-0.7,0.4-1.7,0.2-2.1-0.5
	c-0.4-0.7-0.2-1.7,0.5-2.1l6.4-3.9l3-6l2.1-8.1L15.4,16l-2.7,5.8c-0.4,0.8-1.3,1.1-2,0.8c-0.8-0.4-1.1-1.3-0.8-2l3-6.6
	c0.2-0.5,0.7-0.9,1.3-1l6.2-0.3c-1.2-0.9-2.1-2.4-2.1-4.1c0-2.8,2.3-5.1,5.1-5.1s5.1,2.3,5.1,5.1c0,2.8-2.2,5-4.9,5.1l3,5.1l5.5-0.8
	c0.8-0.1,1.6,0.5,1.7,1.3C34.1,20.1,33.5,20.8,32.7,21z M26.3,8.7c0,0.4,0.3,0.7,0.7,0.7s0.7-0.3,0.7-0.7S27.4,8,27,8
	S26.3,8.3,26.3,8.7z M33.3,19.3c0-0.4-0.3-0.7-0.7-0.7c-0.3,0-0.6,0.3-0.7,0.6l-5.4,0.8c0-0.3-0.3-0.6-0.7-0.6c0,0-0.1,0-0.1,0
	l-2.2-3.9c0.1-0.1,0.2-0.3,0.2-0.5c0-0.4-0.3-0.7-0.7-0.7c-0.3,0-0.5,0.2-0.6,0.4l-1.7-0.4c0,0,0,0,0-0.1c0-0.4-0.3-0.7-0.7-0.7
	c-0.3,0-0.6,0.3-0.7,0.6l-4.4,0c-0.1-0.2-0.3-0.3-0.6-0.3c-0.4,0-0.7,0.3-0.7,0.7c0,0.2,0.1,0.4,0.2,0.5l-2.4,5.1
	c-0.1,0-0.2,0-0.2,0c-0.4,0-0.7,0.3-0.7,0.7s0.3,0.7,0.7,0.7c0.4,0,0.7-0.3,0.7-0.7c0-0.2-0.1-0.4-0.2-0.5l2.4-5.1
	c0.1,0,0.2,0.1,0.3,0.1c0.4,0,0.7-0.3,0.7-0.7c0,0,0,0,0-0.1l4.4,0c0.1,0.2,0.2,0.3,0.3,0.4l-2.3,8.5c0,0-0.1,0-0.1,0
	c-0.4,0-0.7,0.3-0.7,0.7c0,0.2,0.1,0.4,0.3,0.5L14.6,30c0,0-0.1,0-0.1,0c-0.4,0-0.7,0.3-0.7,0.7c0,0.1,0,0.2,0.1,0.4l-5.4,3.3
	C8.4,34.1,8.2,34,8,34c-0.4,0-0.7,0.3-0.7,0.7s0.3,0.7,0.7,0.7c0.4,0,0.7-0.3,0.7-0.7c0-0.1,0-0.2-0.1-0.3l5.4-3.3
	c0.1,0.1,0.3,0.2,0.4,0.2c0.4,0,0.7-0.3,0.7-0.7c0-0.2-0.1-0.4-0.3-0.6l2.4-5.4c0.1,0,0.1,0,0.2,0c0.2,0,0.4-0.1,0.6-0.3l2,0.5
	c0,0,0,0,0,0.1c0,0.4,0.3,0.7,0.7,0.7c0.2,0,0.4-0.1,0.5-0.2l5.1,1.8c0,0,0,0.1,0,0.1c0,0.4,0.3,0.7,0.7,0.7c0,0,0.1,0,0.1,0
	l2.1,6.3c-0.2,0.1-0.4,0.3-0.4,0.6c0,0.4,0.3,0.7,0.7,0.7c0.4,0,0.7-0.3,0.7-0.7s-0.3-0.7-0.7-0.7c0,0,0,0-0.1,0L27.2,28
	c0.2-0.1,0.3-0.3,0.3-0.5c0-0.4-0.3-0.7-0.7-0.7c-0.2,0-0.4,0.1-0.5,0.3l-5-1.8c0-0.1,0-0.1,0-0.2c0-0.3-0.1-0.5-0.3-0.6l2.1-8.6
	c0,0,0,0,0,0c0.1,0,0.2,0,0.2,0l2.2,3.8c-0.2,0.1-0.3,0.3-0.3,0.5c0,0.4,0.3,0.7,0.7,0.7c0.3,0,0.6-0.2,0.6-0.5l5.5-0.8
	c0.1,0.3,0.3,0.5,0.6,0.5C33,20,33.3,19.7,33.3,19.3z"/>
</svg>
