<?xml version="1.0" encoding="utf-8"?>
<!-- Generator: Adobe Illustrator 23.0.1, SVG Export Plug-In . SVG Version: 6.00 Build 0)  -->
<svg version="1.2" baseProfile="tiny" id="Layer_1" xmlns="http://www.w3.org/2000/svg" xmlns:xlink="http://www.w3.org/1999/xlink"
	 x="0px" y="0px" width="40px" height="40px" viewBox="0 0 40 40" xml:space="preserve">
<g>
	<polygon fill="#3FB5DE" points="6.2,11.6 6.2,27.6 19.8,34 19.8,17.2 	"/>
	<polygon fill="#FFFFFF" points="17.4,30.5 15.6,29.6 15.8,22.1 15.8,22.1 13.3,28.6 12.1,28 10.1,19.4 10.1,19.4 9.9,27 8,26.2 
		8.4,15.1 10.7,16.2 12.8,25.4 12.8,25.4 15.4,18.3 17.7,19.4 	"/>
	<polygon fill="#C69FCA" points="20.2,17.2 20.2,34 33.8,27.6 33.8,11.6 	"/>
	<polygon fill="#FFFFFF" points="24.2,29.3 24.2,18.3 26.2,17.4 26.2,26.7 30.6,24.8 30.6,26.4 	"/>
	<polygon fill="#FFCB4D" points="33.6,11.2 20,16.8 6.4,11.2 20,5.6 	"/>
	<path fill="#FFFFFF" d="M25,9.6L25,9.6L25,9.6L25,9.6l-2.3-1.2l-3.4-0.2l-0.1,0c-1.1,0.2-2.2,0.4-3.3,0.7c-0.5,0.5-1.1,1.1-1.6,1.6
		c0.1,0.4,0.2,0.8,0.3,1.2l1.6,0.4l1.3,1.1l2.3,0.1c0,0.1,0.1,0.1,0.1,0.2c0.1,0.1,0.2,0.1,0.4,0.1c0,0,0,0,0,0c0.1,0,0.1,0,0.2,0
		l1.8,1.3l0.2,0.2l0-1.4l2-0.6c0.5-0.5,0.9-0.9,1.4-1.4C25.5,10.9,25.3,10.2,25,9.6z"/>
	<path fill="#FFCB4D" d="M22.1,8.7l-0.2,0.6c-0.1,0-0.1,0-0.1,0l-1.5-0.7L22.1,8.7z"/>
	<path fill="#FFCB4D" d="M19.5,10.2c0,0-0.1,0-0.1,0.1c0,0,0,0-0.1,0.1L18,9.9c0,0,0,0,0,0c0,0,0,0,0,0c0,0,0-0.1-0.1-0.1l1.2-1
		C19.2,9.2,19.4,9.7,19.5,10.2z"/>
	<path fill="#FFCB4D" d="M19.3,10.7c0,0.1,0.1,0.2,0.1,0.2l0,0l-0.5,0.5l-1-1.1L19.3,10.7C19.3,10.7,19.3,10.7,19.3,10.7
		C19.3,10.7,19.3,10.7,19.3,10.7z"/>
	<path fill="#FFCB4D" d="M18.7,8.6l-1.2,1c0,0-0.1,0-0.1,0l0,0h0c0,0-0.1,0-0.1,0l-0.8-0.6L18.7,8.6z"/>
	<path fill="#FFCB4D" d="M16.1,9.2l0.8,0.6c0,0,0,0.1-0.1,0.1l-1.7,0.3L16.1,9.2z"/>
	<path fill="#FFCB4D" d="M17,10.1C17,10.2,17.1,10.2,17,10.1c0.1,0.1,0.1,0.1,0.1,0.1l-0.3,0.6c-0.1,0-0.2,0-0.2,0.1c0,0,0,0,0,0
		l-1.6-0.4L17,10.1z"/>
	<path fill="#FFCB4D" d="M15.1,11.5L15,10.8l1.6,0.4c0,0,0,0,0,0c0,0,0,0,0,0c0,0,0,0.1,0.1,0.1l-0.4,0.4L15.1,11.5z"/>
	<path fill="#FFCB4D" d="M16.5,11.9l0.4-0.5c0,0,0,0,0,0l0.3,1.2L16.5,11.9z"/>
	<path fill="#FFCB4D" d="M17.3,11.4c0.1,0,0.1,0,0.1-0.1c0.1-0.1,0.1-0.1,0.1-0.2c0,0,0,0,0,0c0-0.1-0.1-0.2-0.1-0.2
		c0,0-0.1,0-0.1-0.1l0.2-0.5c0,0,0,0,0.1,0l1.1,1.3l-1,0.9L17.3,11.4z"/>
	<path fill="#FFCB4D" d="M19.5,12.8l-1.5,0l0.9-0.9l0.7,0.8C19.5,12.7,19.5,12.8,19.5,12.8z"/>
	<path fill="#FFCB4D" d="M19.9,12.5l-0.8-0.8l0.6-0.6c0,0,0,0,0,0L19.9,12.5L19.9,12.5z"/>
	<path fill="#FFCB4D" d="M20.1,10.2l-0.4-1.5l1.9,0.9c0,0,0,0,0,0.1c0,0,0,0,0,0c0,0,0,0,0,0.1l-1.2,0.6c0,0,0,0,0,0
		C20.3,10.2,20.2,10.2,20.1,10.2z"/>
	<path fill="#FFCB4D" d="M20.3,12.5l-0.1-1.4c0.1,0,0.1,0,0.2-0.1c0.1-0.1,0.1-0.1,0.1-0.2c0,0,0,0,0,0c0,0,0,0,0-0.1l1.2-0.6
		L20.3,12.5z"/>
	<path fill="#FFCB4D" d="M22,14.2l-1.2-0.9c0,0,0,0,0,0l1.2,0.2L22,14.2z"/>
	<path fill="#FFCB4D" d="M22,13.1L20.9,13c0,0,0,0,0,0c0,0,0,0,0,0c0-0.1,0-0.1-0.1-0.1l1.3-1.1c0,0,0,0,0,0L22,13.1z"/>
	<path fill="#FFCB4D" d="M22,11c-0.1,0.1-0.2,0.2-0.2,0.2c0,0,0,0,0,0c0,0.1,0,0.1,0.1,0.2l-1.3,1.2l1.4-2.4l0.1,0.7
		C22.1,10.9,22,11,22,11z"/>
	<path fill="#FFCB4D" d="M22.6,8.7l1.7,0.9l-1.7,0c0,0-0.1-0.1-0.1-0.1c0,0,0,0-0.1,0L22.6,8.7z"/>
	<path fill="#FFCB4D" d="M22.8,10.9c-0.1-0.1-0.2-0.1-0.3-0.1h0l-0.1-0.7c0,0,0,0,0,0l2.1,1.2l-1.6-0.2v0
		C22.9,11,22.9,10.9,22.8,10.9z"/>
	<path fill="#FFCB4D" d="M22.4,13.1l0.1-1.4c0,0,0.1,0,0.1,0l1.2,1L22.4,13.1z"/>
	<path fill="#FFCB4D" d="M23.9,12.5l-1.1-1l0,0c0,0,0.1,0,0.1-0.1l1.9,0.2L23.9,12.5z"/>
	<polygon fill="#FFCB4D" points="22.7,9.9 22.7,9.9 24.4,9.9 25,11.2 	"/>
</g>
</svg>
