<?xml version="1.0" encoding="utf-8"?>
<!-- Generator: Adobe Illustrator 23.0.1, SVG Export Plug-In . SVG Version: 6.00 Build 0)  -->
<svg version="1.1" id="Layer_1" xmlns="http://www.w3.org/2000/svg" xmlns:xlink="http://www.w3.org/1999/xlink" x="0px" y="0px"
	 width="40px" height="40px" viewBox="0 0 40 40" style="enable-background:new 0 0 40 40;" xml:space="preserve">
<style type="text/css">
	.st0{display:none;fill:#FFFFFF;}
	.st1{display:none;fill-rule:evenodd;clip-rule:evenodd;fill:#FFFFFF;}
	.st2{display:none;}
	.st3{display:inline;fill:#AB5D27;}
	.st4{display:inline;fill:#F9B09A;}
	.st5{display:inline;fill:#7F341E;}
	.st6{display:inline;fill:#FFFFFF;}
	.st7{display:inline;fill:#F7A08A;}
	.st8{display:inline;}
	.st9{fill:#FFFFFF;}
	.st10{fill:#1190CF;}
	.st11{fill:#231F20;}
	.st12{fill:#49C8F5;}
	.st13{display:inline;fill:#FEDA00;}
	.st14{fill:#FEDCC6;}
	.st15{fill:#23093A;}
	.st16{fill:#EEC3AB;}
	.st17{fill:#424143;}
	.st18{display:inline;fill:#E41D3C;}
	.st19{display:inline;fill:#CA1F3D;}
	.st20{display:inline;fill:#743919;}
	.st21{display:inline;fill:#643514;}
	.st22{display:inline;fill:#C46C29;}
	.st23{display:inline;fill:#28A74E;}
	.st24{display:inline;fill:#089146;}
	.st25{display:inline;fill:#20763B;}
	.st26{display:inline;fill:#C81730;}
	.st27{display:inline;fill:#6A52A2;}
	.st28{fill:#59260F;}
	.st29{fill:#EFBFB6;}
	.st30{fill:#662E12;}
	.st31{fill:#DA9485;}
</style>
<path class="st0" d="M6.4,11.6v16L20,34V17.2L6.4,11.6z M17.4,30.5l-1.8-0.8l0.2-7.5l0,0l-2.4,6.5L12.1,28l-2-8.6l0,0L9.9,27L8,26.2
	l0.3-11.1l2.4,1.1l2.1,9.2l0,0l2.5-7.1l2.4,1.1L17.4,30.5z M20,17.2V34l13.6-6.4v-16L20,17.2z M24.2,29.3v-11l2-0.9v9.3l4.4-2v1.7
	L24.2,29.3z M17,10.2C17,10.2,17.1,10.2,17,10.2c0.1,0.1,0.1,0.1,0.1,0.1L17,10.9c-0.1,0-0.2,0-0.2,0.1l0,0l-1.7-0.5L17,10.2z
	 M17.4,9.8L17.4,9.8L17.4,9.8c0.1,0,0.1,0,0.1,0l1.4-1.2l-2.5,0.5l0.9,0.7H17.4z M17.8,10.2l1.2,1.3l0.6-0.6l0,0
	c-0.1-0.1-0.2-0.1-0.2-0.2l0,0l0,0L17.8,10.2z M16.6,11.2L16.6,11.2L16.6,11.2l-1.8-0.5l0.2,0.9l1.3,0.3l0.4-0.5
	C16.6,11.3,16.6,11.3,16.6,11.2z M17,9.9l-0.9-0.7l-1.2,1.2l2-0.4C17,10,17,9.9,17,9.9z M22.1,10.9L22,10.1l-1.4,2.4l1.3-1.1
	c0-0.1-0.1-0.1-0.1-0.2l0,0c0-0.1,0.1-0.2,0.2-0.3H22.1z M22.5,9.8l2.7,1.5l-0.6-1.5H22.5L22.5,9.8z M22.5,9.6h1.7l-1.7-0.9
	l-0.2,0.7h0.1C22.4,9.6,22.5,9.6,22.5,9.6z M16.9,11.5L16.5,12l0.8,0.7L16.9,11.5L16.9,11.5z M17.8,10L17.8,10
	C17.8,10.1,17.8,10.1,17.8,10l1.6,0.5c0,0,0,0,0.1-0.1c0,0,0.1-0.1,0.2-0.1c-0.2-0.6-0.3-1.2-0.5-1.8l-1.4,1.2
	C17.8,9.9,17.8,10,17.8,10z M22.1,9.4l0.3-0.8l-2.6-0.1l2.1,1C21.9,9.5,22,9.5,22.1,9.4z M33.6,11.6L20,17.2L6.4,11.6L20,6
	L33.6,11.6z M24.2,13c0.5-0.4,0.9-0.9,1.4-1.3c-0.3-0.7-0.5-1.3-0.8-2l0,0l0,0l0,0l-2.1-1.1l-3.3-0.2h-0.1C18.1,8.6,17.1,8.8,16,9
	c-0.5,0.5-1,1-1.5,1.5c0.1,0.4,0.2,0.8,0.3,1.2l1.5,0.4l1.2,1l2.2,0.1c0,0.1,0.1,0.1,0.1,0.1c0.1,0.1,0.2,0.1,0.4,0.1l0,0
	c0.1,0,0.1,0,0.2,0l1.7,1.3l0.2,0.2v-1.3L24.2,13z M20.6,13.3l1.4,1.1v-0.8L20.6,13.3L20.6,13.3z M20.6,12.8
	c0.1,0.1,0.1,0.1,0.1,0.2l0,0c0,0,0,0,0,0.1l1.3,0.2l0.1-1.8c0,0,0,0-0.1,0L20.6,12.8z M22.4,10.9c0.1,0,0.3,0,0.4,0.1
	s0.2,0.2,0.2,0.3l0,0l2,0.2L22.3,10l0,0L22.4,10.9L22.4,10.9z M17.5,10.3L17.5,10.3l-0.3,0.6c0.1,0,0.1,0,0.1,0.1
	c0.1,0.1,0.1,0.1,0.1,0.2l0,0c0,0.1-0.1,0.2-0.1,0.2s-0.1,0.1-0.2,0.1l0.4,1.3l1.1-1.1L17.5,10.3z M22.9,11.4l-0.1,0.1l0,0l1.3,1.2
	l1.1-1.1L22.9,11.4z M22.5,11.6l-0.1,1.7l1.6-0.5L22.5,11.6L22.5,11.6z M17.8,12.9l1.8,0.1c0-0.1,0.1-0.1,0.1-0.2l-0.8-0.9
	L17.8,12.9z M19.8,11.1l-0.7,0.6l0.9,1l0,0L19.8,11.1L19.8,11.1z M20.3,10.5l1.3-0.7c0,0,0,0,0-0.1l0,0V9.6l-2.2-1l0.5,1.7
	C20.1,10.4,20.2,10.4,20.3,10.5L20.3,10.5z M20.5,10.7L20.5,10.7L20.5,10.7c0,0.2,0,0.3-0.1,0.3s-0.1,0.1-0.2,0.1l0.1,1.6l1.5-2.7
	L20.5,10.7z"/>
<path class="st1" d="M22.8,15.8l-2.1,8.6c0,0,0,0-0.1,0c-0.3,0-0.5,0.1-0.6,0.4l-2-0.5v-0.1c0-0.2-0.1-0.4-0.3-0.5l2.3-8.5
	c0,0,0,0,0.1,0c0.3,0,0.5-0.1,0.6-0.4l1.7,0.5l0,0C22.4,15.4,22.6,15.7,22.8,15.8z M32.7,21l-6.5,1l0,0c-0.6,0.1-1.2-0.2-1.5-0.7
	l-1.2-2l-1.3,4.9l5.1,1.7c0.5,0.2,0.8,0.5,1,1l0,0l2.6,7.8c0.3,0.8-0.2,1.7-1,1.9c-0.8,0.3-1.7-0.2-1.9-1l-2.3-7.1L18.4,26l-2.8,5.6
	c-0.1,0.3-0.4,0.5-0.6,0.6l-6.7,4.1c-0.7,0.4-1.7,0.2-2.1-0.5S6,34.1,6.7,33.7l6.4-3.9l3-6l2.1-8.1L15.4,16l-2.7,5.8
	c-0.4,0.8-1.3,1.1-2,0.8c-0.8-0.4-1.1-1.3-0.8-2l3-6.6c0.2-0.5,0.7-0.9,1.3-1l6.2-0.3c-1.2-0.9-2.1-2.4-2.1-4.1
	c0-2.8,2.3-5.1,5.1-5.1s5.1,2.3,5.1,5.1s-2.2,5-4.9,5.1l3,5.1l5.5-0.8c0.8-0.1,1.6,0.5,1.7,1.3C34.1,20.1,33.5,20.8,32.7,21z
	 M26.3,8.7c0,0.4,0.3,0.7,0.7,0.7s0.7-0.3,0.7-0.7S27.4,8,27,8S26.3,8.3,26.3,8.7z M33.3,19.3c0-0.4-0.3-0.7-0.7-0.7
	c-0.3,0-0.6,0.3-0.7,0.6L26.5,20c0-0.3-0.3-0.6-0.7-0.6h-0.1l-2.2-3.9c0.1-0.1,0.2-0.3,0.2-0.5c0-0.4-0.3-0.7-0.7-0.7
	c-0.3,0-0.5,0.2-0.6,0.4l-1.7-0.4c0,0,0,0,0-0.1c0-0.4-0.3-0.7-0.7-0.7c-0.3,0-0.6,0.3-0.7,0.6h-4.4c-0.1-0.2-0.3-0.3-0.6-0.3
	c-0.4,0-0.7,0.3-0.7,0.7c0,0.2,0.1,0.4,0.2,0.5l-2.4,5.1c-0.1,0-0.2,0-0.2,0c-0.4,0-0.7,0.3-0.7,0.7s0.3,0.7,0.7,0.7
	s0.7-0.3,0.7-0.7c0-0.2-0.1-0.4-0.2-0.5l2.4-5.1c0.1,0,0.2,0.1,0.3,0.1c0.4,0,0.7-0.3,0.7-0.7c0,0,0,0,0-0.1h4.4
	c0.1,0.2,0.2,0.3,0.3,0.4l-2.3,8.5h-0.1c-0.4,0-0.7,0.3-0.7,0.7c0,0.2,0.1,0.4,0.3,0.5L14.6,30h-0.1c-0.4,0-0.7,0.3-0.7,0.7
	c0,0.1,0,0.2,0.1,0.4l-5.4,3.3C8.4,34.1,8.2,34,8,34c-0.4,0-0.7,0.3-0.7,0.7s0.3,0.7,0.7,0.7s0.7-0.3,0.7-0.7c0-0.1,0-0.2-0.1-0.3
	l5.4-3.3c0.1,0.1,0.3,0.2,0.4,0.2c0.4,0,0.7-0.3,0.7-0.7c0-0.2-0.1-0.4-0.3-0.6l2.4-5.4c0.1,0,0.1,0,0.2,0c0.2,0,0.4-0.1,0.6-0.3
	l2,0.5c0,0,0,0,0,0.1c0,0.4,0.3,0.7,0.7,0.7c0.2,0,0.4-0.1,0.5-0.2l5.1,1.8v0.1c0,0.4,0.3,0.7,0.7,0.7h0.1l2.1,6.3
	c-0.2,0.1-0.4,0.3-0.4,0.6c0,0.4,0.3,0.7,0.7,0.7c0.4,0,0.7-0.3,0.7-0.7s-0.3-0.7-0.7-0.7c0,0,0,0-0.1,0L27.2,28
	c0.2-0.1,0.3-0.3,0.3-0.5c0-0.4-0.3-0.7-0.7-0.7c-0.2,0-0.4,0.1-0.5,0.3l-5-1.8c0-0.1,0-0.1,0-0.2c0-0.3-0.1-0.5-0.3-0.6l2.1-8.6
	l0,0c0.1,0,0.2,0,0.2,0l2.2,3.8c-0.2,0.1-0.3,0.3-0.3,0.5c0,0.4,0.3,0.7,0.7,0.7c0.3,0,0.6-0.2,0.6-0.5l5.5-0.8
	c0.1,0.3,0.3,0.5,0.6,0.5C33,20,33.3,19.7,33.3,19.3z"/>
<g class="st2">
	<path class="st3" d="M20.4,35.3L20.4,35.3c-5.4,0-9.7-4.4-9.7-9.7V14.7C10.6,9.4,15,5,20.4,5l0,0c5.4,0,9.7,4.4,9.7,9.7v10.8
		C30.1,30.9,25.7,35.3,20.4,35.3z"/>
	<path class="st4" d="M29.2,16.7h-0.1V15c0-4.8-3.9-8.7-8.7-8.7s-8.7,3.9-8.7,8.7v1.7c-1.1,0.1-2,0.9-2.2,2.1
		c-0.1,1.3,0.8,2.5,2.1,2.6c0.1,0,0.3,0,0.4,0c0.9,3.2,3.5,5.7,6.8,6.3c0,0.1,0,0.1,0,0.2v2c0,1.1,0.9,2,2,2s2-0.9,2-2v-2
		c0-0.1,0-0.3,0-0.4c3-0.8,5.3-3.2,6.1-6.2c1.2,0.1,2.3-0.8,2.5-2.1C31.4,18,30.5,16.9,29.2,16.7z"/>
	<path class="st3" d="M30.1,15.8c0-1-0.2-3.1-0.5-4.1c-1.3-3.9-5-6.7-9.3-6.7l0,0c-4.6,0-8.5,3.2-9.5,7.5c-0.2,0.7-0.3,3.3-0.3,4
		c5.6,0.7,11.9-0.6,15.3-4.7C26.4,14.1,28.6,15.6,30.1,15.8z"/>
	<circle class="st5" cx="16.1" cy="19.2" r="1.1"/>
	<circle class="st5" cx="24.5" cy="19.2" r="1.1"/>
	<path class="st6" d="M17.1,22.1h6.4c0,0-1,1.5-3.2,1.5S17.1,22.1,17.1,22.1z"/>
	<ellipse class="st7" cx="15.1" cy="21.9" rx="1.2" ry="1.1"/>
	<ellipse class="st7" cx="25.6" cy="21.9" rx="1.2" ry="1.1"/>
	<path class="st6" d="M11,34H6.6v-5.1c0-0.5-0.4-0.8-0.8-0.8c-0.5,0-0.8,0.4-0.8,0.8v6c0,0.5,0.4,0.8,0.8,0.8H11
		c0.5,0,0.8-0.4,0.8-0.8S11.4,34,11,34z"/>
	<path class="st6" d="M11,4.3H5.8C5.4,4.3,5,4.7,5,5.2v6C5,11.7,5.4,12,5.8,12c0.5,0,0.8-0.4,0.8-0.8V6H11c0.5,0,0.8-0.4,0.8-0.8
		S11.4,4.3,11,4.3z"/>
	<path class="st6" d="M34.2,4.3H29c-0.5,0-0.8,0.4-0.8,0.8S28.6,6,29,6h4.3v5.1c0,0.5,0.4,0.8,0.8,0.8s0.8-0.4,0.8-0.8v-6
		C35,4.7,34.6,4.3,34.2,4.3z"/>
	<path class="st6" d="M34.2,28.1c-0.5,0-0.8,0.4-0.8,0.8V34H29c-0.5,0-0.8,0.4-0.8,0.8s0.4,0.8,0.8,0.8h5.2c0.5,0,0.8-0.4,0.8-0.8
		v-6C35,28.4,34.6,28.1,34.2,28.1z"/>
</g>
<g class="st2">
	<g class="st8">
		<path class="st9" d="M9.7,34.4c-2.2,0-4-1.8-4-4V9.6c0-2.2,1.8-4,4-4h20.6c2.2,0,4,1.8,4,4v20.8c0,2.2-1.8,4-4,4H9.7z"/>
		<path class="st10" d="M30.3,6.3c1.9,0,3.4,1.5,3.4,3.4v20.8c0,1.9-1.5,3.4-3.4,3.4H9.7c-1.9,0-3.4-1.5-3.4-3.4V9.6
			c0-1.9,1.5-3.4,3.4-3.4L30.3,6.3 M30.3,4.9H9.7C7.1,4.9,5,7,5,9.6v20.8c0,2.6,2.1,4.7,4.7,4.7h20.6c2.6,0,4.7-2.1,4.7-4.7V9.6
			C35,7,32.9,4.9,30.3,4.9L30.3,4.9z"/>
	</g>
	<g class="st8">
		<g>
			<path class="st11" d="M22.5,17.4h5v-5h-5V17.4z M23.1,13.1h3.7v3.7h-3.7V13.1z"/>
			<rect x="23.9" y="13.9" class="st11" width="2.1" height="2.1"/>
			<path class="st11" d="M12.5,17.4h5v-5h-5V17.4z M13.2,13.1h3.7v3.7h-3.7V13.1z"/>
			<rect x="14" y="13.9" class="st11" width="2.1" height="2.1"/>
			<path class="st11" d="M17.5,22.6h-5v5h5V22.6z M16.9,26.9h-3.7v-3.7h3.7V26.9z"/>
			<rect x="14" y="24" class="st11" width="2.1" height="2.1"/>
			<path class="st11" d="M27.4,22.6h-5v5h5V22.6z M26.8,26.9h-3.7v-3.7h3.7V26.9z"/>
			<rect x="23.9" y="24" class="st11" width="2.1" height="2.1"/>
			<rect x="21.1" y="13.9" class="st11" width="0.7" height="0.7"/>
			<polygon class="st11" points="19.7,14 19.7,13.9 19.7,12.5 20.4,12.5 20.4,13.9 20.4,14 20.4,14.6 19.7,14.6 			"/>
			<rect x="18.2" y="14.6" class="st11" width="0.7" height="1.4"/>
			<rect x="18.2" y="18.2" class="st11" width="0.7" height="0.7"/>
			<rect x="12.5" y="18.2" class="st11" width="0.7" height="0.7"/>
			<polygon class="st11" points="14,19.6 13.3,19.6 13.3,18.9 13.9,18.9 13.9,18.2 14.6,18.2 14.6,18.9 14,18.9 			"/>
			<rect x="22.5" y="18.2" class="st11" width="0.7" height="0.7"/>
			<polygon class="st11" points="23.9,19.6 23.2,19.6 23.2,18.9 23.9,18.9 23.9,18.2 24.6,18.2 24.6,18.9 23.9,18.9 			"/>
			<polygon class="st11" points="26.7,19.6 24.6,19.6 24.6,18.9 26,18.9 26,18.2 27.5,18.2 27.5,18.9 26.7,18.9 			"/>
			<polygon class="st11" points="25.3,21.1 24.6,21.1 23.9,21.1 23.9,21.8 23.2,21.8 23.2,21.1 23.9,21.1 23.9,20.3 24.6,20.3 
				26,20.3 26,21.1 27.5,21.1 27.5,21.8 25.3,21.8 			"/>
			<polygon class="st11" points="22.5,21.8 20.4,21.8 20.4,21.8 19.7,21.8 19.7,20.3 20.4,20.3 20.4,21.1 21.1,21.1 21.1,20.3 
				23.2,20.3 23.2,21.1 22.5,21.1 			"/>
			<rect x="18.2" y="16.8" class="st11" width="0.7" height="0.7"/>
			<rect x="18.2" y="12.5" class="st11" width="0.7" height="1.5"/>
			<rect x="21.1" y="24" class="st11" width="0.7" height="0.7"/>
			<rect x="19.7" y="22.6" class="st11" width="0.7" height="1.5"/>
			<polygon class="st11" points="19,26.1 19.7,26.1 19.7,24.6 20.4,24.6 20.4,27.5 19.8,27.5 19.8,27.5 18.9,27.5 18.9,27.5 
				18.2,27.5 18.2,26.8 18.9,26.8 18.9,26.1 18.2,26.1 18.2,24.6 19,24.6 			"/>
			<rect x="21.1" y="25.4" class="st11" width="0.7" height="2.2"/>
			<rect x="18.2" y="22.6" class="st11" width="0.7" height="1.5"/>
			<rect x="21.1" y="17.5" class="st11" width="0.7" height="2.2"/>
			<polygon class="st11" points="21.1,16.8 20.4,16.8 20.4,19.6 19.7,19.6 19.7,15.3 20.4,15.3 20.4,15.3 21.1,15.3 			"/>
			<polygon class="st11" points="16.8,19.6 18.9,19.6 18.9,20.2 18.9,20.4 18.9,21.8 18.2,21.8 18.2,20.4 16.8,20.4 			"/>
			<polygon class="st11" points="14,20.4 14,21.1 14.6,21.1 14.6,20.4 15.3,20.4 15.3,19.6 14.6,19.6 14.6,18.9 16.1,18.9 
				16.1,18.2 17.5,18.2 17.5,18.9 16.8,18.9 16.8,19.6 16,19.6 16,20.4 15.3,20.4 15.3,21.1 16.9,21.1 16.9,21.8 12.5,21.8 
				12.5,21.1 12.5,21.1 12.5,20.4 			"/>
		</g>
		<g>
			<g>
				<path class="st12" d="M30.1,14.1c0.2,0,0.4-0.2,0.4-0.4V9.9c0-0.2-0.2-0.4-0.4-0.4h-3.8c-0.2,0-0.4,0.2-0.4,0.4s0.2,0.4,0.4,0.4
					h3.4v3.4C29.7,13.9,29.9,14.1,30.1,14.1z"/>
			</g>
			<g>
				<path class="st12" d="M9.9,14.1c0.2,0,0.4-0.2,0.4-0.4v-3.4h3.4c0.2,0,0.4-0.2,0.4-0.4s-0.2-0.4-0.4-0.4H9.9
					c-0.2,0-0.4,0.2-0.4,0.4v3.8C9.5,13.9,9.7,14.1,9.9,14.1z"/>
			</g>
			<g>
				<path class="st12" d="M26.4,30.5h3.8c0.2,0,0.4-0.2,0.4-0.4v-3.8c0-0.2-0.2-0.4-0.4-0.4c-0.2,0-0.4,0.2-0.4,0.4v3.4h-3.4
					c-0.2,0-0.4,0.2-0.4,0.4S26.1,30.5,26.4,30.5z"/>
			</g>
			<g>
				<path class="st12" d="M9.9,30.5h3.8c0.2,0,0.4-0.2,0.4-0.4c0-0.2-0.2-0.4-0.4-0.4h-3.4v-3.4c0-0.2-0.2-0.4-0.4-0.4
					s-0.4,0.2-0.4,0.4v3.8C9.5,30.3,9.7,30.5,9.9,30.5z"/>
			</g>
		</g>
	</g>
</g>
<g class="st2">
	<path class="st13" d="M11.4,36.4h18.7c0-0.9,0-1.9,0-2.7c-0.1-1.2-0.4-2.4-0.9-3.5l-2.3-5c0,0-3.5-0.9-4.4-0.4
		c-3.2,1.6-6.8,0.7-6.8,0.7v-0.1c-0.1,0-0.1,0.1-0.1,0.1c-0.5,0.9-1.2,1.9-1.6,2.8c-1.1,2.6-2.9,5-2.6,7.8
		C11.3,36.2,11.3,36.3,11.4,36.4z"/>
	<g id="head" class="st8">
		<path class="st14" d="M10.1,11.7c0,0.5-0.1,0.9-0.1,1.4c-0.1,0.9-0.4,2-1.1,2.5c-0.1,0.1-0.2,0.1-0.3,0.2c-0.2,0.2,0,0.4,0.2,0.5
			C8.9,16.4,9,16.4,9,16.5s0,0.2,0.1,0.3c0.1,0.8,0.4,1.7,0.7,2.4c0.2,0.4,0.4,0.9,0.8,1.2c0.4,0.3,0.8,0.3,1.2,0.3
			c1.5,0,3-0.8,4.2-1.8c0.9-0.8,2.2-1.4,2.9-2.4c1.2-1.8,1-4.3,1.3-6.2c0-0.3-1.2-0.7-1.5-0.8s-0.8,0.1-1.1,0.1
			c-0.8,0.1-1.6,0.1-2.3,0.2c-1.5,0.1-3.1,0.3-4.6,0.4c-0.1,0-0.1,0-0.2,0c-0.1,0-0.1,0.1-0.1,0.2C10.3,10.8,10.2,11.2,10.1,11.7z"
			/>
		<path class="st14" d="M16.3,17.9l-0.7,7.5c0,0,5.9,1.4,9.4-2.8c0,0-5.4-6.9-7.5-8L16.3,17.9z"/>
		<ellipse class="st15" cx="11.9" cy="13.3" rx="0.3" ry="0.5"/>
		<path class="st15" d="M11.5,17c0.2,0.7-0.1,1.4-0.7,1.6c-0.5,0.2-1.1-0.3-1.3-1L11.5,17z"/>
		<path class="st15" d="M12.6,12.5L12.6,12.5c0.1,0,0.1-0.1,0.1-0.1c-0.1-0.4-0.5-0.6-0.9-0.5c-0.1,0-0.1,0.1-0.1,0.1
			c0,0.1,0.1,0.1,0.1,0.1C12.1,11.9,12.4,12.1,12.6,12.5C12.5,12.4,12.5,12.5,12.6,12.5z"/>
		<path class="st16" d="M18.1,13.9L18.1,13.9c0.1-0.1,0.1-0.2,0.1-0.2c-0.1-0.1-0.1-0.2,0-0.3c0-0.2,0.1-0.3,0.3-0.4
			c0.3-0.1,0.5,0,0.7,0.2c0,0.1,0.1,0.1,0.2,0c0,0,0.1-0.1,0-0.2c-0.3-0.4-0.7-0.5-1-0.3c-0.2,0.1-0.3,0.3-0.4,0.6
			C17.8,13.5,17.9,13.7,18.1,13.9C18,13.9,18,13.9,18.1,13.9z"/>
	</g>
	<g id="hair" class="st8">
		<path class="st11" d="M28.9,29.6c-0.5-0.2-0.7-1.7-2.3-1.7c-1.2,0-2.2,0.6-3.5,0c-0.6-0.3-1.2-0.9-1.5-1.6c-0.6-1.6,0.4-4-1-5.3
			c-0.7-0.6-1.6-0.9-2-1.8c-0.5-1.1-0.5-2.3-0.4-3.5c0-0.1,0-0.3,0.1-0.4c0.1-0.1,0.3-0.1,0.4-0.2c0.8-0.2,1.4-1.3,1-2.1
			c-0.4-0.8-1.7-0.8-2,0c-0.1,0.3-0.2,0.6-0.5,0.6s-0.3-0.4-0.3-0.7c0.1-0.4,0.2-2.6,0.3-3c0,0.1-0.6,0.4-0.7,0.4
			c-0.6,0.3-1.3,0.6-2,0.7c-1,0.2-1.9,0.3-2.9,0.3c-0.7,0-1.4-0.1-2.2-0.3c-0.7-0.1-1.4-0.3-1.9-0.8C6.7,9.3,7,8,7.5,7
			c0.6-1.1,1.7-1.7,2.9-2c0.3-0.1,0.6-0.1,0.8-0.1c1.3-0.1,2.6,0.3,3.9,0.5c1.4,0.2,2.7,0.2,4.1,0.6c1.6,0.4,3,1.5,3.9,2.9
			c1.1,1.6,1.2,3.6,2.1,5.2c1.3,2.5,3.3,1.4,6,4.8c0.8,1,0.8,2.3,1,3.6c0.1,0.6,0.3,1.2,0.6,1.7c0.4,0.5,0.9,0.9,1.2,1.6
			c0.4,1.1,0.3,2.7-0.7,3.3c-0.4,0.2-0.7,0.4-0.9,0.8s-0.3,0.9-0.6,1.3c-0.2,0.3-0.4,0.5-0.7,0.6c-0.2,0.1-0.9,0.3-1.1,0.1l-0.5-0.8
			L28.9,29.6z"/>
		<path class="st17" d="M9.1,6.9c0-0.2,0.1-0.3,0.2-0.5c0.2-0.3,0.5-0.6,0.9-0.7c0.6-0.2,1.2-0.1,1.7,0.1s1,0.4,1.5,0.7
			c0.5,0.3,1,0.4,1.6,0.5c0.1,0,0.2,0,0.3,0s0.1,0.2,0,0.2c-0.6,0-1.2-0.2-1.8-0.4c-0.5-0.2-0.9-0.5-1.4-0.7c-0.3-0.1-0.6-0.2-1-0.3
			c-0.3-0.1-0.5-0.1-0.8,0C10.1,6,9.8,6.2,9.6,6.5l0,0l0,0c0,0,0,0.1-0.1,0.1c0,0.1-0.1,0.1-0.1,0.2c0,0,0,0,0,0.1l0,0l0,0
			c0,0,0,0,0,0.1l0,0C9.3,7.1,9.1,7.1,9.1,6.9L9.1,6.9z"/>
		<path class="st17" d="M28.2,26.6C28.2,26.6,28.3,26.6,28.2,26.6c0.1-0.1,0.1-0.2,0-0.2s-0.3-0.1-0.4-0.1c-0.9-0.2-1.8-0.4-2.6-0.9
			c-0.9-0.6-1-1.4-1.2-2.4c0-0.2-0.1-0.4-0.1-0.7c-0.2-0.7-0.4-1.4-0.8-2s-0.9-1.1-1.5-1.4c-1.4-0.8-2-1.8-1.7-3
			c0-0.1,0-0.1-0.1-0.1s-0.1,0-0.1,0.1c-0.2,0.7-0.1,1.4,0.4,2c0.3,0.5,0.8,0.9,1.5,1.3c1,0.6,1.8,1.8,2.2,3.3
			c0.1,0.2,0.1,0.4,0.1,0.6c0.2,1,0.4,1.9,1.3,2.6c0.8,0.5,1.8,0.7,2.7,0.9C27.9,26.5,28,26.6,28.2,26.6L28.2,26.6z"/>
		<path class="st17" d="M22.8,10.3c0.4,1,1,1.9,1.7,2.5c0.7,0.7,1.6,1.1,2.6,1.3c1.1,0.2,2.3,0,3.3,0.4c0.5,0.2,0.9,0.5,1.3,0.9
			s0.6,0.9,0.8,1.4c0.5,1.2,0.6,2.5,0.6,3.8c0,0.2,0,0.3,0,0.5c0,0.1-0.2,0.1-0.2,0c0-1.3,0-2.7-0.5-3.9c-0.4-1-1-2-2-2.4
			c-1.1-0.5-2.2-0.3-3.3-0.5c-1-0.1-1.9-0.6-2.7-1.2c-0.8-0.6-1.4-1.5-1.8-2.4c-0.1-0.1-0.1-0.2-0.1-0.4c0-0.1,0-0.1,0.1-0.1
			C22.8,10.2,22.8,10.3,22.8,10.3L22.8,10.3z"/>
		<path class="st17" d="M28,18c0.2-0.1,0.3,0,0.4,0.2s0.1,0.4,0,0.6s-0.2,0.4-0.1,0.6c0,0.2,0.1,0.3,0.2,0.3c0.3,0.2,0.7,0.2,1,0.3
			c0.4,0.1,0.8,0.3,1.1,0.7c0.3,0.3,0.5,0.8,0.4,1.2c0,0.2-0.1,0.4-0.1,0.7c-0.1,0.2-0.1,0.4,0,0.7c0.1,0.2,0.2,0.4,0.4,0.5
			c0.2,0.2,0.3,0.3,0.4,0.5c0.3,0.3,0.5,0.7,0.6,1.2c0.1,0.4,0.1,0.8,0,1.1c-0.1,0.3-0.3,0.6-0.6,0.8c-0.1,0-0.1,0.1-0.2,0.1
			s-0.1-0.1,0-0.2c0.6-0.1,0.9-1,0.8-1.6c-0.1-0.4-0.3-0.8-0.5-1.2c-0.1-0.2-0.3-0.3-0.4-0.5c-0.1-0.1-0.3-0.3-0.4-0.5
			s-0.2-0.4-0.2-0.6s0.1-0.4,0.2-0.7c0.1-0.4,0-0.9-0.2-1.2c-0.2-0.4-0.6-0.6-0.9-0.8c-0.3-0.1-0.7-0.2-1-0.3
			c-0.3-0.1-0.5-0.3-0.6-0.7c0-0.2,0.1-0.4,0.2-0.6s0.1-0.4-0.1-0.5c0-0.1-0.1-0.1-0.2,0C28,18.2,27.9,18,28,18L28,18z"/>
		<path class="st17" d="M10.4,5c0.5-0.8,1.4-1.2,2.3-1.1c0.5,0.1,0.9,0.4,1.4,0.6c0.4,0.3,1,0.5,1.5,0.3c0.4-0.1,0.8-0.6,0.6-1.1
			c0-0.1,0-0.1,0-0.2h0.1c0.2,0.5,0,0.9-0.4,1.2s-1,0.3-1.5,0.1c-0.4,0-0.9-0.4-1.4-0.6c-0.4-0.2-0.9-0.2-1.3,0
			c-0.5,0.1-0.9,0.5-1.2,0.9C10.5,5.1,10.4,5.2,10.4,5C10.4,5.1,10.3,5,10.4,5L10.4,5z"/>
		<path class="st17" d="M32.4,23.4c0,0.6,0.3,1.1,0.7,1.5s0.9,0.7,1.3,1.2c0.4,0.5,0.6,1.1,0.5,1.7c0,0.6-0.2,1.2-0.6,1.6
			c-0.1,0.1-0.2,0.2-0.3,0.3c-0.1,0.1-0.3,0.2-0.4,0.3c-0.2,0.2-0.5,0.5-0.5,0.8c0,0.1-0.1,0.1-0.1,0c-0.1-0.3,0.1-0.6,0.3-0.8
			c0.2-0.2,0.5-0.4,0.7-0.6c0.4-0.4,0.7-0.9,0.7-1.5c0.1-0.6-0.1-1.3-0.4-1.8c-0.3-0.5-0.9-0.8-1.3-1.2c-0.5-0.4-0.9-1-0.9-1.7
			C32.3,23.3,32.4,23.3,32.4,23.4L32.4,23.4z"/>
	</g>
	<g class="st8">
		<path class="st14" d="M7.6,35.1c0,0,0.1,0.5,0.4,1.3h3.2c-0.4-0.8-0.7-1.5-0.9-2L10,33.7c0,0,0.6-2.5,1.3-3.6
			c0.4-0.6,0.6-0.9,0.7-1c0.1-0.1,0.1-0.1,0.1-0.1s0.2-0.7-0.6-0.3c-0.7,0.4-1.2,1.3-1.7,1.9c0-0.1-1.8-4.4-2.5-5.7
			c-1.1-2-0.8-0.2-0.8-0.2l0.8,2.8c0,0-1.3,0.7-2.1,1.5s2.2,5.1,2.2,5.1L7.6,35.1z"/>
		<path class="st14" d="M30,36.4c0.1-0.3,0.1-0.5,0.2-0.8c0.5-2.1,0.7-4.7-0.7-6.3c-0.2-0.2-2.2-1.7-2.5-1.2c0,0-2.4,4.1-4.9,8.3H30
			z"/>
	</g>
</g>
<g class="st2">
	<path class="st18" d="M20,13.3c-1.9-1.1-5.3-1.8-8.5,0C8.3,15.2,7.1,19.5,8,23.9c1,4.4,4.5,9.9,6.9,10.8c1.6,0.6,4.1-0.7,5.2-0.4
		c1.1,0.3,2.6,1.3,5.7,0c3.1-1.4,5.5-8.1,6.3-12.4s-1.9-7.9-5.5-9.2S20,13.3,20,13.3z"/>
	<path class="st19" d="M19.7,15.1c2.2-0.1,2-1.9,4.8-2.8c-2.6-0.2-4.5,1-4.5,1c-1.3-0.8-3.3-1.4-5.5-1
		C16.9,12.4,17.6,15.2,19.7,15.1z"/>
	<path class="st20" d="M19.4,15.1C19.3,11.3,21,6.5,23.1,5c0.3,0.3,0.7,1,0.7,1s-3.6,3.3-3.7,9.1C20,15.2,19.4,15.1,19.4,15.1z"/>
	<path class="st21" d="M20,10.6c-0.4,1.5-0.6,3.1-0.6,4.5c0,0,0.6,0.1,0.7,0c0-0.9,0.1-1.7,0.3-2.5C19.9,12.5,19.8,11.8,20,10.6z"/>
	<path class="st19" d="M17.6,14.6c0.4,0.1,0.8,0.1,1.2,0.2c0.4,0,0.7,0.1,1.1,0.1s0.7,0,1.1-0.1c0.2,0,0.4-0.1,0.6-0.1
		s0.4-0.1,0.6-0.1c-0.1,0.1-0.2,0.1-0.2,0.2c-0.1,0.1-0.2,0.1-0.3,0.2c-0.2,0.1-0.4,0.2-0.6,0.3c-0.4,0.1-0.8,0.2-1.2,0.2
		c-0.1,0-0.2,0-0.3,0c-0.1,0-0.2,0-0.3,0c-0.1,0-0.2,0-0.3-0.1c-0.1,0-0.2-0.1-0.3-0.1C18.3,15.1,17.9,14.9,17.6,14.6z"/>
	<path class="st22" d="M23.6,5.4c0.2,0.3,0.3,0.5,0.2,0.6c-0.1,0.1-0.3-0.1-0.5-0.4C23.1,5.3,23,5.1,23.1,5
		C23.2,5,23.4,5.1,23.6,5.4z"/>
	<path class="st23" d="M10.3,5.3c0.4,1.6,3.9,5.9,9.8,5.2C19,6.3,17,5.9,14.8,5.8C12.5,5.7,10.3,5.3,10.3,5.3z"/>
	<path class="st24" d="M14.8,7.8c-1.8-0.6-3.4-1.4-4.5-2.5l0,0c0.4,1.6,3.9,5.9,9.8,5.2C18.4,8.3,16.9,8.5,14.8,7.8z"/>
	<path class="st25" d="M12.4,6.8c0.7,0.2,1.4,0.5,2,0.7c0.3,0.1,0.7,0.2,1,0.3c0.3,0.1,0.7,0.2,1,0.3l0.3,0.1c0.1,0,0.2,0,0.3,0.1
		c0.2,0,0.4,0.1,0.5,0.2c0.2,0.1,0.3,0.2,0.5,0.2c0.2,0.1,0.3,0.2,0.5,0.3c0.3,0.2,0.6,0.4,0.8,0.7c0.3,0.3,0.5,0.5,0.7,0.8
		c-0.3-0.3-0.5-0.5-0.8-0.7s-0.6-0.4-0.9-0.6C18,9,17.7,8.9,17.4,8.8c-0.2-0.1-0.3-0.1-0.5-0.2c-0.1,0-0.2,0-0.3-0.1
		c-0.1,0-0.2,0-0.3-0.1c-0.7-0.2-1.4-0.4-2.1-0.7C13.7,7.5,13.1,7.2,12.4,6.8z"/>
	<path class="st19" d="M12.4,12.9c-0.3,0.1-0.6,0.3-0.9,0.4C8.3,15.2,7.1,19.5,8,23.9c1,4.4,4.5,9.9,6.9,10.8
		c1.6,0.6,4.1-0.7,5.2-0.4c1.1,0.3,2.6,1.3,5.7,0c2.1-1,4-4.5,5.2-8.1C22.1,35.2,8.1,24.1,12.4,12.9z"/>
	<path class="st26" d="M21.6,33.6c-2.9-1.4-3.4,0.6-5.9,0.2c-2.1-0.4-6.4-6.3-7.8-11.1C8,23.1,8,23.5,8.1,23.9
		c1,4.4,4.5,9.9,6.9,10.8c1.6,0.6,4.1-0.7,5.2-0.4s2.6,1.3,5.7,0c0.4-0.2,0.9-0.5,1.3-0.9C25.5,34.3,23.5,34.5,21.6,33.6z"/>
</g>
<g class="st2">
	<rect class="st27" width="40" height="40"/>
	<g class="st8">
		<g>
			<path class="st9" d="M6,20.9H4.2v-9.2H6V20.9z"/>
			<path class="st9" d="M13.3,17.1H9.7v3.8H7.9v-9.2h6v1.4H9.7v2.5h3.5v1.5H13.3z"/>
			<path class="st9" d="M21.5,13.1h-2.6v7.8H17v-7.8h-2.6v-1.4h7.1V13.1z"/>
			<path class="st9" d="M29.1,13.1h-2.6v7.8h-1.9v-7.8H22v-1.4h7.1V13.1z"/>
			<path class="st9" d="M36.6,13.1H34v7.8h-1.9v-7.8h-2.6v-1.4h7.1V13.1z"/>
		</g>
		<g>
			<path class="st9" d="M5.4,27.1l0.2,0.8l0,0l0.2-0.8L7,23.3h0.2l1.2,3.8l0.2,0.8l0,0l0.2-0.8l1-3.8H10l-1.3,5H8.6l-1.2-4.1
				l-0.2-0.5l0,0L7,24.2l-1.2,4.1H5.5l-1.3-5h0.2L5.4,27.1z"/>
			<path class="st9" d="M12.2,28.4c-0.4,0-0.8-0.2-1.1-0.5s-0.5-0.8-0.5-1.3v-0.2c0-0.5,0.1-1,0.4-1.3c0.3-0.3,0.7-0.5,1.1-0.5
				c0.4,0,0.7,0.1,1,0.4c0.2,0.3,0.4,0.6,0.4,1.1v0.3h-2.7l0,0v0.2c0,0.5,0.1,0.8,0.4,1.1c0.3,0.3,0.6,0.5,1,0.5
				c0.2,0,0.4,0,0.6-0.1s0.4-0.2,0.5-0.3l0.1,0.1c-0.1,0.1-0.3,0.3-0.5,0.4C12.7,28.3,12.5,28.4,12.2,28.4z M12.2,24.7
				c-0.4,0-0.7,0.1-0.9,0.4s-0.4,0.6-0.4,1l0,0h2.5V26c0-0.4-0.1-0.7-0.3-0.9C12.9,24.8,12.6,24.7,12.2,24.7z"/>
			<path class="st9" d="M17.3,26.5c0,0.6-0.1,1-0.4,1.4c-0.2,0.3-0.6,0.5-1,0.5c-0.3,0-0.5-0.1-0.8-0.2c-0.2-0.1-0.4-0.3-0.5-0.5
				v0.6h-0.2v-1l0,0l0,0v-1.5l0,0l0,0V23h0.2v2.3c0.1-0.2,0.3-0.4,0.5-0.5s0.5-0.2,0.7-0.2c0.4,0,0.8,0.2,1,0.5
				C17.2,25.4,17.3,25.9,17.3,26.5L17.3,26.5z M17.1,26.5c0-0.5-0.1-0.9-0.3-1.2s-0.5-0.5-0.9-0.5s-0.6,0.1-0.8,0.3
				c-0.2,0.2-0.3,0.4-0.4,0.6v1.8c0.1,0.2,0.2,0.4,0.5,0.6s0.5,0.2,0.8,0.2c0.4,0,0.7-0.2,0.9-0.5C17,27.4,17.1,27,17.1,26.5
				L17.1,26.5z"/>
			<path class="st9" d="M18.5,25.4c0.1-0.3,0.3-0.5,0.5-0.6s0.5-0.2,0.8-0.2c0.4,0,0.7,0.1,0.9,0.4c0.2,0.2,0.3,0.6,0.3,1.2v2.2
				h-0.2V26c0-0.5-0.1-0.8-0.3-1c-0.2-0.2-0.4-0.3-0.7-0.3c-0.4,0-0.7,0.1-0.9,0.3c-0.2,0.2-0.3,0.5-0.4,0.9v2.4h-0.2v-1.9l0,0v-0.1
				v-0.1V23h0.2C18.5,23,18.5,25.4,18.5,25.4z"/>
			<path class="st9" d="M21.8,26.4c0-0.5,0.1-1,0.4-1.3s0.7-0.5,1.2-0.5s0.9,0.2,1.2,0.5c0.3,0.3,0.4,0.8,0.4,1.3v0.1
				c0,0.5-0.1,1-0.4,1.3s-0.7,0.5-1.2,0.5s-0.9-0.2-1.2-0.5s-0.5-0.8-0.5-1.3v-0.1H21.8z M22,26.5c0,0.5,0.1,0.9,0.4,1.2
				s0.6,0.5,1,0.5s0.8-0.2,1-0.5c0.3-0.3,0.4-0.7,0.4-1.2v-0.1c0-0.5-0.1-0.8-0.4-1.2c-0.3-0.3-0.6-0.5-1-0.5s-0.8,0.2-1,0.5
				S22,25.9,22,26.4V26.5z"/>
			<path class="st9" d="M25.7,26.4c0-0.5,0.2-1,0.5-1.3s0.7-0.5,1.2-0.5s0.9,0.2,1.2,0.5c0.3,0.3,0.4,0.8,0.4,1.3v0.1
				c0,0.5-0.2,1-0.4,1.3c-0.3,0.3-0.7,0.5-1.2,0.5s-0.9-0.2-1.2-0.5s-0.5-0.8-0.5-1.3V26.4z M25.9,26.5c0,0.5,0.1,0.9,0.4,1.2
				s0.6,0.5,1,0.5s0.8-0.2,1-0.5c0.3-0.3,0.4-0.7,0.4-1.2v-0.1c0-0.5-0.1-0.8-0.4-1.2c-0.3-0.3-0.6-0.5-1-0.5s-0.8,0.2-1,0.5
				s-0.4,0.7-0.4,1.2V26.5z"/>
			<path class="st9" d="M30.5,26.4H30v1.9h-0.2V23H30v3.3h0.4l1.7-1.6h0.2l0,0L30.5,26.4l1.9,2l0,0h-0.2L30.5,26.4z"/>
			<path class="st9" d="M35.4,27.4c0-0.2-0.1-0.4-0.3-0.5c-0.2-0.2-0.5-0.3-0.9-0.4s-0.8-0.2-1-0.4C33.1,26,33,25.8,33,25.5
				s0.1-0.5,0.3-0.7s0.5-0.3,0.9-0.3s0.7,0.1,1,0.3c0.2,0.2,0.3,0.4,0.3,0.7l0,0h-0.2c0-0.2-0.1-0.4-0.3-0.6s-0.5-0.3-0.8-0.3
				s-0.6,0.1-0.8,0.2s-0.3,0.3-0.3,0.5s0.1,0.4,0.2,0.5s0.4,0.3,0.9,0.4c0.4,0.1,0.7,0.2,0.9,0.4S35.4,27,35.4,27.4
				c0,0.2-0.1,0.4-0.4,0.6c-0.2,0.2-0.6,0.3-0.9,0.3c-0.4,0-0.8-0.1-1-0.3c-0.2-0.2-0.4-0.4-0.3-0.7l0,0H33c0,0.3,0.1,0.5,0.4,0.6
				s0.5,0.2,0.8,0.2s0.6-0.1,0.8-0.2C35.3,27.8,35.4,27.6,35.4,27.4z"/>
		</g>
	</g>
</g>
<g>
	<g>
		<path class="st28" d="M9,25.1l0.2,2.2c0.1,1.4,1.1,2.6,2.5,3.1l1.1,0.4l-1-5.6H9V25.1z"/>
		<path class="st28" d="M30.4,25.1l-0.2,2.2c-0.1,1.4-1.1,2.6-2.5,3.1l-1.1,0.4l1-5.6h2.8V25.1z"/>
		<path class="st29" d="M19.7,6.6C13.8,6.6,9,12.1,9,18.8c0,3.4,2.1,9.4,3,10.9c2,3.1,4.6,5.1,7.7,5.1s5.7-2.1,7.7-5.1
			c1-1.5,3-7.5,3-10.9C30.4,12.1,25.6,6.6,19.7,6.6z"/>
		<path class="st28" d="M31.3,12.1c0,0,0-0.1-0.1-0.1c0.3-0.6,0.5-1.2,0.7-2c-5.9,1.6-4.2-5.4-13.2-5.4c-3.1,0-6.4,1.4-8.4,3.8
			c-0.5,0.6-0.9,2-0.6,2.7c-0.5,0.2-1.1,0.2-1.6,0.9c-3.2,4.8-1.5,11.5,2.5,14.4c0.7-4.1,1-8.3,0.8-12.5c0,0,0,0,0,0.1
			c3.9-3.3,9.1-1.1,11.5,0.1c1.7,0.9,3.5,1,5,0.5c-0.1,4,0.2,7.9,0.8,11.8C32.9,23.6,34.1,17.1,31.3,12.1z"/>
		<path class="st29" d="M6.6,22.1c-0.1,0.7,0.1,1.4,0.4,2c0.5,1.1,1.2,2,2.1,2.8c0.2,0.2,0.5,0.4,0.8,0.4c0.3,0.1,0.6,0,0.8-0.3
			s0.1-0.6,0-0.9c-0.4-1.3-0.5-3.6-1.2-4.8C8.6,19.9,6.8,20.6,6.6,22.1z"/>
		<path class="st29" d="M32.8,22.1c0.1,0.7-0.1,1.4-0.4,2c-0.5,1.1-1.2,2-2.1,2.8c-0.2,0.2-0.5,0.4-0.8,0.4c-0.3,0.1-0.6,0-0.8-0.3
			c-0.2-0.3-0.1-0.6,0-0.9c0.4-1.3,0.5-3.6,1.2-4.8C30.8,19.9,32.6,20.6,32.8,22.1z"/>
		<path class="st28" d="M26.2,21.3c-0.2,0-0.5-0.1-0.6-0.3c-0.5-0.7-1.5-1.1-2.4-0.9c-0.4,0.1-0.8-0.1-0.9-0.5s0.1-0.8,0.5-0.9
			c1.5-0.4,3.1,0.2,3.9,1.4c0.2,0.3,0.2,0.8-0.2,1C26.5,21.2,26.3,21.3,26.2,21.3z"/>
		<path class="st28" d="M13.2,21.3c-0.1,0-0.3,0-0.4-0.1c-0.3-0.2-0.4-0.7-0.2-1c0.9-1.2,2.5-1.8,3.9-1.4c0.4,0.1,0.6,0.5,0.5,0.9
			s-0.5,0.6-0.9,0.5c-0.8-0.2-1.8,0.1-2.4,0.9C13.7,21.1,13.4,21.3,13.2,21.3z"/>
		<path class="st30" d="M24.6,22.1c0,0.9-0.4,1.6-0.9,1.6s-0.9-0.7-0.9-1.6s0.4-1.6,0.9-1.6S24.6,21.2,24.6,22.1z"/>
		<ellipse class="st30" cx="15.2" cy="22.1" rx="0.9" ry="1.6"/>
		<path class="st28" d="M19.3,31.1c-0.8,0-1.6-0.1-2.2-0.5c-0.1,0-0.1-0.1-0.1-0.2c0.1-0.1,0.2-0.1,0.3-0.1c1.3,0.7,3.6,0.5,4.8-0.2
			c0.4-0.2,0.8-0.6,0.8-1c0-0.1,0.1-0.2,0.2-0.2s0.2,0.1,0.2,0.2c0,0.5-0.3,1-1,1.4C21.6,30.8,20.4,31.1,19.3,31.1z"/>
		<polygon class="st31" points="19.7,27.4 18,26.8 19.7,28.7 21.5,26.8 		"/>
	</g>
	<path class="st9" d="M35,34.6h-3.6v-0.7h2.9V31H35V34.6z M8.6,34.6H5V31h0.7v2.9h2.9V34.6z M35,8.2h-0.7v-3h-2.9V4.6H35V8.2z
		 M5.7,8.2H5V4.6h3.6v0.7H5.7V8.2z"/>
	<path class="st9" d="M27.8,20.5c0-0.2-0.1-0.3-0.3-0.3l-0.1-1.1c0.1,0,0.2-0.1,0.2-0.3c0-0.2-0.1-0.3-0.3-0.3c-0.1,0-0.1,0-0.1,0.1
		l-1.8-2c0,0,0.1-0.1,0.1-0.2c0-0.2-0.1-0.3-0.3-0.3c-0.1,0-0.2,0-0.2,0.1l-1.8-1l0.1-0.1c0-0.2-0.1-0.3-0.3-0.3
		c-0.1,0-0.2,0.1-0.3,0.2l-2.6-0.3c0-0.2-0.1-0.3-0.3-0.3c-0.2,0-0.3,0.1-0.3,0.3L16.9,15c0-0.1-0.1-0.2-0.3-0.2
		c-0.2,0-0.3,0.1-0.3,0.3v0.1l-1.8,1c-0.1-0.1-0.1-0.1-0.2-0.1c-0.2,0-0.3,0.1-0.3,0.3c0,0.1,0,0.1,0.1,0.2l-1.8,2.1h-0.1
		c-0.2,0-0.3,0.1-0.3,0.3c0,0.1,0.1,0.2,0.2,0.3L12,20.5c-0.1,0-0.3,0.1-0.3,0.3c0,0.1,0.1,0.3,0.3,0.3l0.4,4.1
		c-0.1,0-0.2,0.1-0.2,0.3c0,0.1,0.1,0.2,0.2,0.3v3.3c-0.1,0-0.2,0.1-0.2,0.3c0,0.2,0.1,0.3,0.3,0.3h0.1l1.4,2.5c0,0-0.1,0.1-0.1,0.2
		c0,0.2,0.1,0.3,0.3,0.3c0.1,0,0.1,0,0.2-0.1l2.5,1.5v0.1c0,0.2,0.1,0.3,0.3,0.3c0.1,0,0.2-0.1,0.3-0.2l2.2,0.3l0,0
		c0,0.2,0.1,0.3,0.3,0.3c0.2,0,0.3-0.1,0.3-0.3l0,0l2.2-0.3c0,0.1,0.1,0.2,0.3,0.2c0.2,0,0.3-0.1,0.3-0.3v-0.1l2.3-1.6
		c0.1,0.1,0.1,0.1,0.2,0.1c0.2,0,0.3-0.1,0.3-0.3c0-0.1,0-0.2-0.1-0.2l1.5-2.3h0.1c0.2,0,0.3-0.1,0.3-0.3c0-0.1-0.1-0.2-0.2-0.3
		v-3.3c0.1,0,0.2-0.1,0.2-0.3c0-0.1-0.1-0.2-0.2-0.3l0.4-4.1C27.7,20.8,27.8,20.6,27.8,20.5z M27.5,20.7l-0.4,4.1
		c-0.2,0-0.3,0.1-0.3,0.3c0,0.1,0.1,0.2,0.2,0.3v3.1l-0.6-4.1c0.1,0,0.2-0.1,0.2-0.2s-0.1-0.3-0.3-0.3L26,20c0.1,0,0.2-0.1,0.2-0.3
		v-0.1l1-0.7c0,0,0.1,0.1,0.2,0.1l0.1,1.2c-0.1,0-0.2,0.1-0.2,0.3C27.3,20.6,27.4,20.7,27.5,20.7z M21.7,31.9
		c-0.1,0-0.2,0.1-0.2,0.1l-0.4-0.3c0,0,0,0,0-0.1c0-0.2-0.1-0.3-0.3-0.3c-0.1,0-0.2,0.1-0.3,0.2H20c0-0.1-0.1-0.2-0.3-0.2
		s-0.2,0.1-0.3,0.2h-0.5c0-0.1-0.1-0.2-0.3-0.2c-0.2,0-0.3,0.1-0.3,0.3c0,0,0,0,0,0.1L17.9,32c-0.1-0.1-0.1-0.1-0.2-0.1
		s-0.2,0-0.2,0.1l-1.6-1.2l0.1-0.1c0-0.1-0.1-0.2-0.2-0.2l1-2.1l0,0V30c-0.1,0-0.2,0.1-0.2,0.2c0,0.2,0.1,0.3,0.3,0.3
		c0.1,0,0.1,0,0.2-0.1l0.6,0.4l-0.1,0.1c0,0.2,0.1,0.3,0.3,0.3c0.1,0,0.2-0.1,0.3-0.2h1.4l0,0l0,0h1.5c0,0.1,0.1,0.2,0.3,0.2
		c0.2,0,0.3-0.1,0.3-0.3c0-0.1,0-0.1-0.1-0.1l0.6-0.4c0.1,0,0.1,0.1,0.2,0.1c0.2,0,0.3-0.1,0.3-0.3c0-0.1-0.1-0.2-0.2-0.2v-1.5l0,0
		l1,2.1c-0.1,0-0.1,0.1-0.1,0.2c0,0,0,0.1,0.1,0.1L21.9,32C21.9,32,21.8,31.9,21.7,31.9z M12.7,28.8C12.6,28.7,12.6,28.7,12.7,28.8
		l0.5-4.3l0,0h0.1l0.7,1.3c-0.1,0.1-0.1,0.1-0.1,0.2s0.1,0.2,0.2,0.2l-0.2,1.1c-0.2,0-0.3,0.1-0.3,0.3c0,0.1,0,0.1,0.1,0.1
		L12.7,28.8z M26.2,24.4l-0.7,1.3c0,0,0,0-0.1,0l0,0l-0.2-1.2c0.1,0,0.2-0.1,0.2-0.3c0-0.1-0.1-0.2-0.2-0.2l0.7-3.9l0,0l0.4,3.8
		c-0.1,0-0.2,0.1-0.2,0.3C26.1,24.3,26.2,24.3,26.2,24.4z M21.5,30.7c-0.1,0-0.2,0.1-0.3,0.2h-1.5l0,0l0,0h-1.4
		c0-0.1-0.1-0.2-0.3-0.2c-0.1,0-0.2,0-0.2,0.1l-0.6-0.4l0.1-0.1c0-0.1,0-0.1-0.1-0.1l0.6-0.3C17.9,30,17.9,30,18,30s0.2-0.1,0.3-0.2
		h0.4c0,0.1,0.1,0.2,0.3,0.2c0.1,0,0.2-0.1,0.2-0.1l0.3,0.1l0,0c0,0.2,0.1,0.3,0.3,0.3c0.2,0,0.3-0.1,0.3-0.3l0,0l0.3-0.1
		c0,0.1,0.1,0.1,0.2,0.1s0.2-0.1,0.3-0.2h0.4c0,0.1,0.1,0.2,0.3,0.2c0.1,0,0.2-0.1,0.2-0.1l0.6,0.3l-0.1,0.1c0,0.1,0,0.1,0.1,0.1
		l-0.6,0.4C21.7,30.7,21.6,30.7,21.5,30.7z M14.3,25.6l0.2-1.2l0,0h0.1l0.3,0.4c-0.1,0.1-0.1,0.1-0.1,0.2s0.1,0.2,0.2,0.2L14.9,26
		c-0.1,0-0.1,0-0.2,0.1L14.4,26v-0.1C14.5,25.8,14.4,25.7,14.3,25.6z M13.8,20l1.6,2.2c0,0.1-0.1,0.1-0.1,0.2s0,0.2,0.1,0.2
		l-0.8,1.3h-0.1l0,0L13.8,20L13.8,20z M18.2,19.9c0.1,0,0.3-0.1,0.3-0.2l1.1-0.2c0,0.1,0.1,0.2,0.2,0.2v0.6c-0.1,0-0.2,0.1-0.2,0.3
		l0,0l-1.7,0.5c0-0.1-0.1-0.2-0.2-0.2h-0.1L17,20.2c0.1-0.1,0.1-0.1,0.1-0.2l0,0l0.9-0.1C18,19.9,18.1,19.9,18.2,19.9z M21.1,19.7
		c0,0.1,0.1,0.2,0.3,0.2c0.1,0,0.2-0.1,0.2-0.2l0.9,0.1l0,0c0,0.1,0,0.2,0.1,0.2l-0.5,1H22c-0.1,0-0.2,0.1-0.2,0.2l-1.7-0.5l0,0
		c0-0.1-0.1-0.2-0.2-0.3v-0.6c0.1,0,0.2-0.1,0.2-0.2L21.1,19.7z M25.9,20l-0.7,3.9l0,0c0,0-0.1,0-0.1,0.1l-0.8-1.3
		c0.1-0.1,0.1-0.1,0.1-0.2s0-0.2-0.1-0.2L25.9,20C25.8,20,25.8,20,25.9,20z M24.6,24.7c-0.1,0-0.2,0.1-0.3,0.2l-1.5-0.1l0,0
		c0-0.2-0.1-0.3-0.3-0.3c-0.1,0-0.3,0.1-0.3,0.3l-0.5-0.1c0,0,0,0,0-0.1s0-0.1-0.1-0.2l0.5-0.6l0.1,0.1c0.1,0,0.3-0.1,0.3-0.2l1-0.1
		c0,0.1,0.1,0.2,0.3,0.2c0.1,0,0.2-0.1,0.2-0.1l0.8,0.4l0,0c0,0.1,0.1,0.2,0.1,0.2L24.6,24.7C24.7,24.8,24.6,24.7,24.6,24.7z
		 M21.7,27.6l-0.2,0.7l0,0c-0.2,0-0.3,0.1-0.3,0.3l0,0L20,28.9c0-0.1-0.1-0.1-0.1-0.1c0.1,0,0.2-0.1,0.2-0.2s0-0.1-0.1-0.2l0.3-0.3
		c0.1,0.1,0.1,0.1,0.2,0.1c0.2,0,0.3-0.1,0.3-0.3c0-0.1-0.1-0.3-0.3-0.3l0.1-3.8c0.1,0,0.3-0.1,0.3-0.3c0-0.1,0-0.1-0.1-0.2l0.4-0.5
		l0.1,0.1c0.1,0,0.1,0,0.2-0.1l0.6,0.7C22,23.6,22,23.6,22,23.7s0,0.1,0.1,0.2l-0.5,0.6c0,0-0.1-0.1-0.2-0.1c-0.2,0-0.3,0.1-0.3,0.3
		c0,0.1,0.1,0.2,0.2,0.3l0.2,2.1c-0.1,0-0.2,0.1-0.2,0.3C21.5,27.4,21.6,27.5,21.7,27.6z M18.1,28.2L18.1,28.2l-0.2-0.7
		c0.1,0,0.2-0.1,0.2-0.3c0-0.1-0.1-0.2-0.2-0.3l0.2-2.1c0.1,0,0.3-0.1,0.3-0.3c0-0.2-0.1-0.3-0.3-0.3c-0.1,0-0.1,0-0.2,0.1l-0.5-0.6
		c0.1-0.1,0.1-0.1,0.1-0.2s0-0.1-0.1-0.2l0.6-0.8c0,0,0.1,0.1,0.2,0.1h0.1l0.4,0.6c0,0-0.1,0.1-0.1,0.2s0.1,0.2,0.2,0.3l0.1,3.8
		c-0.1,0-0.2,0.1-0.2,0.3c0,0.2,0.1,0.3,0.3,0.3c0.1,0,0.1,0,0.2-0.1l0.3,0.3c0,0-0.1,0.1-0.1,0.2s0.1,0.2,0.2,0.2
		c-0.1,0-0.1,0.1-0.1,0.1l-1.2-0.4l0,0C18.4,28.3,18.3,28.2,18.1,28.2z M17.4,24.9c0-0.1-0.1-0.3-0.3-0.3c-0.2,0-0.3,0.1-0.3,0.3
		l0,0L15.3,25c0-0.1-0.1-0.2-0.3-0.2c-0.1,0-0.1,0-0.1,0.1l-0.3-0.4c0.1-0.1,0.1-0.1,0.1-0.2l0,0l0.8-0.4c0,0.1,0.1,0.1,0.2,0.1
		c0.1,0,0.2-0.1,0.3-0.2l1,0.1c0,0.1,0.1,0.2,0.3,0.2c0.1,0,0.1,0,0.1-0.1l0.5,0.6c0,0-0.1,0.1-0.1,0.2c0,0,0,0,0,0.1L17.4,24.9z
		 M17.6,21.5c0.2,0,0.3-0.1,0.3-0.3l0,0l1.7-0.5c0,0.1,0.1,0.1,0.2,0.2v0.9c-0.1,0-0.2,0.1-0.2,0.3l0,0l-1.1,0.4
		c0-0.1-0.1-0.2-0.2-0.2s-0.2,0.1-0.3,0.2l-2.1-0.1v-0.1l1.6-0.9C17.5,21.5,17.5,21.5,17.6,21.5z M22,21.5c0.1,0,0.2-0.1,0.2-0.1
		l1.6,0.9v0.1l-2.1,0.1c0-0.1-0.1-0.2-0.3-0.2c-0.1,0-0.2,0.1-0.2,0.2l-1.1-0.4l0,0c0-0.1-0.1-0.2-0.2-0.3v-0.9
		c0.1,0,0.2-0.1,0.2-0.2l1.7,0.5l0,0C21.7,21.4,21.8,21.5,22,21.5z M24.2,22.6L25,24c0,0,0,0.1-0.1,0.1l-0.8-0.4c0,0,0,0,0-0.1
		c0-0.2-0.1-0.3-0.3-0.3c-0.2,0-0.3,0.1-0.3,0.3l-0.9,0.1c0-0.1-0.1-0.2-0.3-0.2c0,0-0.1,0-0.1,0.1l-0.6-0.7c0,0,0.1-0.1,0.1-0.2
		l2.1-0.1c0,0.1,0.1,0.2,0.3,0.2C24.1,22.7,24.1,22.6,24.2,22.6z M20.5,27.6c-0.1,0-0.2,0.1-0.2,0.3c0,0.1,0,0.1,0.1,0.1L20,28.3
		c0,0-0.1-0.1-0.2-0.1s-0.1,0-0.2,0.1L19.3,28l0.1-0.1c0-0.1-0.1-0.3-0.3-0.3L19,23.8c0.1,0,0.2-0.1,0.2-0.2h1.1
		c0,0.1,0.1,0.2,0.2,0.2L20.5,27.6z M20.8,23.3l-0.1-0.1c-0.1,0-0.2,0.1-0.3,0.2h-1.1c0-0.1-0.1-0.2-0.3-0.2c-0.1,0-0.1,0-0.2,0.1
		l-0.4-0.5c0.1-0.1,0.1-0.1,0.1-0.2c0,0,0,0,0-0.1l1.1-0.4c0,0.1,0.1,0.2,0.2,0.2s0.2-0.1,0.2-0.2l1.1,0.4c0,0,0,0,0,0.1
		s0,0.2,0.1,0.2L20.8,23.3z M15.6,22.7c0.1,0,0.2-0.1,0.3-0.2l2.1,0.1c0,0.1,0,0.1,0.1,0.2l-0.6,0.8l-0.1-0.1
		c-0.1,0-0.2,0.1-0.3,0.2l-0.9-0.1c0-0.2-0.1-0.3-0.3-0.3s-0.3,0.1-0.3,0.3c0,0,0,0,0,0.1l-0.8,0.4c0,0,0-0.1-0.1-0.1l0.8-1.3
		C15.5,22.6,15.5,22.7,15.6,22.7z M23.8,22.2l-1.6-0.9v-0.1c0-0.1,0-0.2-0.1-0.2l0.5-0.8h0.1h0.1L23.8,22.2
		C23.9,22.2,23.8,22.2,23.8,22.2z M16.8,20.2h0.1l0.5,0.8c-0.1,0.1-0.1,0.1-0.1,0.2v0.1l-1.6,0.9c0,0,0,0-0.1-0.1l1-2
		C16.7,20.2,16.8,20.2,16.8,20.2z M14.9,26.1l0.1-0.8l0,0c0.1,0,0.3-0.1,0.3-0.3l1.5-0.1c0,0.1,0.1,0.1,0.2,0.2v2.8
		c-0.1,0-0.1,0-0.2,0.1l-1.7-1.5c0,0,0.1-0.1,0.1-0.2C15.2,26.2,15,26.1,14.9,26.1z M22.5,29.9c-0.1,0-0.2,0-0.2,0.1l-0.6-0.3v-0.1
		c0-0.2-0.1-0.3-0.3-0.3c-0.1,0-0.2,0.1-0.3,0.2h-0.4c0-0.1-0.1-0.2-0.3-0.2c-0.2,0-0.3,0.1-0.3,0.3c0,0,0,0,0,0.1L20,29.8
		c0-0.1-0.1-0.2-0.2-0.2s-0.2,0.1-0.2,0.2l-0.3-0.1c0,0,0,0,0-0.1c0-0.2-0.1-0.3-0.3-0.3c-0.1,0-0.2,0.1-0.3,0.2h-0.4
		c0-0.1-0.1-0.2-0.3-0.2c-0.2,0-0.3,0.1-0.3,0.3v0.1L17.3,30c-0.1-0.1-0.1-0.1-0.2-0.1l0,0v-1.4c0.1,0,0.3-0.1,0.3-0.3
		c0-0.1-0.1-0.3-0.3-0.3l0.1-2.8c0.1,0,0.2-0.1,0.3-0.2l0.5-0.1c0,0.1,0.1,0.1,0.2,0.1L17.8,27c-0.1,0-0.3,0.1-0.3,0.3
		c0,0.2,0.1,0.3,0.3,0.3l0,0l0.2,0.7c-0.1,0-0.2,0.1-0.2,0.2c0,0.2,0.1,0.3,0.3,0.3c0.1,0,0.2-0.1,0.2-0.2l1.2,0.4l0,0
		c0,0.2,0.1,0.3,0.3,0.3c0.2,0,0.3-0.1,0.3-0.3l0,0l1.2-0.4c0,0.1,0.1,0.2,0.2,0.2c0.2,0,0.3-0.1,0.3-0.3c0-0.1-0.1-0.2-0.2-0.3
		l0.2-0.7l0,0c0.2,0,0.3-0.1,0.3-0.3c0-0.2-0.1-0.3-0.3-0.3L21.5,25c0.1,0,0.2-0.1,0.2-0.1l0.5,0.1c0,0.1,0.1,0.2,0.2,0.2l0.1,2.8
		c-0.1,0-0.2,0.1-0.2,0.3c0,0.1,0.1,0.2,0.2,0.3L22.5,29.9C22.6,29.9,22.6,29.9,22.5,29.9z M22.8,28c0,0-0.1-0.1-0.2-0.1l-0.1-2.8
		c0.1,0,0.2-0.1,0.2-0.2l1.5,0.1c0,0.1,0.1,0.3,0.3,0.3l0,0l0.1,0.8c-0.1,0-0.2,0.1-0.2,0.3c0,0.1,0,0.1,0.1,0.2L22.8,28z
		 M24.8,26.1l-0.1-0.8c0.1,0,0.2-0.1,0.2-0.3c0-0.1,0-0.2-0.1-0.2l0.3-0.4h0.1l0,0l0.2,1.2c-0.1,0-0.2,0.1-0.2,0.3V26L25,26.2
		C24.9,26.1,24.8,26.1,24.8,26.1z M25.7,20l-1.6,2.2L24,22.1h-0.1l-1-2C23,20,23,20,23,19.9s0-0.2-0.1-0.2l0.8-1l0.1,0.1
		c0.1,0,0.1,0,0.2-0.1l1.6,1v0.1C25.7,19.9,25.7,19.9,25.7,20z M23.7,18.7l-0.8,1h-0.1c-0.1,0-0.2,0.1-0.2,0.2l-0.9-0.1
		c0,0,0,0,0-0.1s-0.1-0.2-0.2-0.3l0.2-1.7l0,0c0.1,0,0.2-0.1,0.2-0.1l1.7,0.9c0,0,0,0,0,0.1C23.6,18.5,23.6,18.6,23.7,18.7z
		 M21.6,17.7l-0.2,1.7c-0.1,0-0.2,0.1-0.2,0.2l-1-0.2l0,0c0-0.1-0.1-0.2-0.2-0.3v-1.9c0.1,0,0.2-0.1,0.2-0.2l1.4,0.3l0,0
		C21.4,17.5,21.5,17.6,21.6,17.7z M19.8,17.3v1.9c-0.1,0-0.2,0.1-0.2,0.3l0,0l-1,0.2c0-0.1-0.1-0.2-0.3-0.2L18,17.7
		c0.1,0,0.2-0.1,0.2-0.3l0,0l1.3-0.3C19.6,17.2,19.7,17.3,19.8,17.3z M17.9,17.7L17.9,17.7l0.2,1.7c-0.1,0-0.2,0.1-0.2,0.3
		c0,0,0,0,0,0.1L17,19.9c0-0.1-0.1-0.2-0.2-0.2s-0.1,0-0.1,0.1l-0.8-1c0.1-0.1,0.1-0.1,0.1-0.2c0,0,0,0,0-0.1l1.7-0.9
		C17.8,17.6,17.8,17.7,17.9,17.7z M15.7,18.8c0.1,0,0.1,0,0.1-0.1l0.8,1c-0.1,0.1-0.1,0.1-0.1,0.2s0,0.2,0.1,0.2l-1,2c0,0,0,0-0.1,0
		s-0.1,0-0.1,0.1L13.9,20c0.1-0.1,0.1-0.1,0.1-0.2v-0.1l1.6-1C15.6,18.7,15.6,18.8,15.7,18.8z M13.7,20.1L13.7,20.1l0.7,3.9
		c-0.1,0-0.2,0.1-0.2,0.2s0.1,0.2,0.2,0.2l-0.2,1.2h-0.1l-0.7-1.3c0.1-0.1,0.1-0.1,0.1-0.2s-0.1-0.3-0.3-0.3L13.7,20.1L13.7,20.1z
		 M14,27.2l0.2-1.1l0,0c0.1,0,0.2,0,0.2-0.1l0.2,0.2l-0.1,0.1c0,0.2,0.1,0.3,0.3,0.3c0.1,0,0.1,0,0.2-0.1l1.8,1.5l-0.1,0.1
		c0,0.1,0.1,0.2,0.1,0.2l-1,2.1c0,0,0,0-0.1,0h-0.1l-1.7-2.8c0.1-0.1,0.1-0.1,0.1-0.2C14.2,27.4,14.1,27.3,14,27.2z M23.8,30.5
		C23.7,30.5,23.7,30.5,23.8,30.5l-1-2c0.1,0,0.1-0.1,0.1-0.2s0-0.1-0.1-0.1l1.8-1.5c0,0,0.1,0.1,0.2,0.1c0.2,0,0.3-0.1,0.3-0.3
		c0-0.1,0-0.1-0.1-0.1l0.2-0.2c0.1,0.1,0.1,0.1,0.2,0.1l0,0l0.2,1.1c-0.1,0-0.2,0.1-0.2,0.3c0,0.1,0.1,0.2,0.1,0.2l-1.7,2.8
		C23.8,30.5,23.8,30.5,23.8,30.5z M25.7,27.2L25.7,27.2l-0.2-1.1c0.1,0,0.2-0.1,0.2-0.3c0-0.1-0.1-0.2-0.1-0.2l0.7-1.3h0.1l0,0
		l0.6,4.3h-0.1l-1-1.1l0.1-0.1C26,27.3,25.8,27.2,25.7,27.2z M27.1,18.8c0,0.1,0,0.1,0.1,0.1l-1,0.7c-0.1-0.1-0.1-0.1-0.2-0.1
		s-0.2,0-0.2,0.1l-1.6-1l0.1-0.1c0-0.1-0.1-0.2-0.1-0.2l1.1-1.7h0.1c0.1,0,0.1,0,0.2-0.1l1.8,2C27.2,18.6,27.1,18.7,27.1,18.8z
		 M25,16.2v0.1c0,0.1,0.1,0.2,0.1,0.2L24,18.2h-0.1c-0.1,0-0.2,0.1-0.2,0.2L22,17.5c0,0,0,0,0-0.1s-0.1-0.2-0.1-0.2l1.1-1.9h0.1
		c0.1,0,0.2,0,0.2-0.1L25,16.2z M22.8,15.2l-1.1,1.9c0,0,0,0-0.1,0s-0.2,0.1-0.3,0.2L19.9,17l0,0c0-0.1-0.1-0.2-0.2-0.3v-1.8
		c0.1,0,0.2-0.1,0.2-0.2l2.6,0.3l0,0C22.7,15.1,22.7,15.2,22.8,15.2z M19.5,14.7c0,0.1,0.1,0.2,0.2,0.2v1.8c-0.1,0-0.2,0.1-0.2,0.3
		l0,0l-1.3,0.3c0-0.1-0.1-0.2-0.2-0.2h-0.1l-1.1-1.9c0.1-0.1,0.1-0.1,0.1-0.2l0,0L19.5,14.7z M16.4,15.2c0.1,0.1,0.1,0.1,0.2,0.1
		h0.1l1.1,1.9c-0.1,0.1-0.1,0.1-0.1,0.2c0,0,0,0,0,0.1L16,18.3c0-0.1-0.1-0.1-0.2-0.1h-0.1l-1.1-1.7c0.1-0.1,0.1-0.1,0.1-0.2v-0.1
		L16.4,15.2z M14.2,16.6c0,0,0.1,0.1,0.2,0.1h0.1l1.1,1.7c-0.1,0.1-0.1,0.1-0.1,0.2c0,0,0,0.1,0.1,0.1l-1.6,1
		c-0.1-0.1-0.1-0.1-0.2-0.1c-0.1,0-0.2,0-0.2,0.1l-1-0.7l0.1-0.1c0-0.1,0-0.2-0.1-0.2L14.2,16.6z M12.1,20.7c0.1,0,0.2-0.1,0.2-0.3
		c0-0.1-0.1-0.2-0.2-0.3l0.1-1.1l0,0c0.1,0,0.1,0,0.2-0.1l1,0.7v0.1c0,0.1,0.1,0.2,0.2,0.3l-0.4,3.9c-0.1,0-0.2,0.1-0.2,0.3
		c0,0.1,0.1,0.2,0.2,0.2l-0.6,4.1v-3.1c0.1,0,0.3-0.1,0.3-0.3c0-0.2-0.1-0.3-0.3-0.3l0,0L12.1,20.7z M12.8,29c0-0.1,0-0.1-0.1-0.2
		l1-1.1c0.1,0.1,0.1,0.1,0.2,0.1H14l1.7,2.8c-0.1,0.1-0.1,0.1-0.1,0.2c0,0,0,0,0,0.1l-1.2,0.9c-0.1-0.1-0.1-0.1-0.2-0.1
		c-0.1,0-0.1,0-0.1,0.1l-1.4-2.4C12.7,29.1,12.8,29.1,12.8,29z M14.4,32c0,0,0.1-0.1,0.1-0.2v-0.1l1.2-0.9c0,0.1,0.1,0.2,0.2,0.2
		c0.1,0,0.1,0,0.2-0.1l1.6,1.2v0.1c0,0.1,0,0.2,0.1,0.2l-0.5,1h-0.1c-0.1,0-0.2,0.1-0.2,0.1L14.4,32z M19.8,33.7
		c-0.1,0-0.2,0.1-0.2,0.2l-2.2-0.3c0-0.1-0.1-0.2-0.1-0.2l0.5-1h0.1c0.2,0,0.3-0.1,0.3-0.3V32l0.4-0.3c0,0.1,0.1,0.2,0.2,0.2
		c0.2,0,0.3-0.1,0.3-0.3h0.4c0,0.2,0.1,0.3,0.3,0.3c0.2,0,0.3-0.1,0.3-0.3h0.5c0,0.2,0.1,0.3,0.3,0.3c0.1,0,0.2-0.1,0.2-0.1l0.4,0.3
		v0.1c0,0.2,0.1,0.3,0.3,0.3h0.1l0.5,1c-0.1,0-0.1,0.1-0.1,0.2L20.1,34C20,33.8,19.9,33.7,19.8,33.7z M22.7,33.5
		c-0.1-0.1-0.1-0.1-0.2-0.1h-0.1l-0.5-1c0.1-0.1,0.1-0.1,0.1-0.2c0,0,0-0.1-0.1-0.1l1.6-1.2c0.1,0.1,0.1,0.1,0.2,0.1
		s0.2-0.1,0.2-0.2l1.1,0.8l-0.1,0.1c0,0,0,0.1,0.1,0.1L22.7,33.5z M25.4,31.5h-0.1c-0.1,0-0.2,0-0.2,0.1L24,30.8c0,0,0,0,0-0.1
		s0-0.2-0.1-0.2l1.7-2.8h0.1c0.1,0,0.1,0,0.2-0.1l1,1.1c0,0-0.1,0.1-0.1,0.2s0,0.2,0.1,0.2L25.4,31.5z"/>
</g>
</svg>
