<?xml version="1.0" encoding="utf-8"?>
<!-- Generator: Adobe Illustrator 23.0.1, SVG Export Plug-In . SVG Version: 6.00 Build 0)  -->
<svg version="1.2" baseProfile="tiny" id="Layer_1" xmlns="http://www.w3.org/2000/svg" xmlns:xlink="http://www.w3.org/1999/xlink"
	 x="0px" y="0px" width="40px" height="40px" viewBox="0 0 40 40" xml:space="preserve">
<circle fill="#0B91CF" cx="33.5" cy="6.5" r="4.5"/>
<path fill="#FFFFFF" d="M32.2,5.3c-0.1,0-0.2-0.1-0.3-0.2c-0.1-0.1-0.1-0.3,0-0.4C32,4.6,32,4.5,32.2,4.4l0.9-0.5
	c0.1-0.1,0.2-0.1,0.3-0.1s0.2,0,0.3,0s0.2,0,0.3,0.1c0.1,0,0.1,0.1,0.2,0.2c0,0.1,0.1,0.1,0.1,0.2s0,0.2,0,0.2v4.8
	c0,0.2-0.1,0.3-0.2,0.4c-0.1,0.1-0.3,0.2-0.4,0.2c-0.2,0-0.3-0.1-0.4-0.2c-0.1-0.1-0.2-0.3-0.2-0.4V5l-0.5,0.3
	C32.5,5.3,32.3,5.3,32.2,5.3z"/>
<g>
	<path fill="#E5DDD7" d="M20.8,16.3v0.5c0,0.2-0.2,0.3-0.4,0.3h-6.9c-0.2,0-0.4-0.1-0.4-0.3v-0.5v-2.5v-0.7c0-0.2,0.2-0.3,0.4-0.3
		h6.9c0.2,0,0.4,0.1,0.4,0.3v0.7V16.3z"/>
	<path fill="#E5DDD7" d="M22.9,13H11.1c-0.5,0-0.9-0.4-0.9-0.9v0c0-3.5,2.8-6.3,6.3-6.3h1.1c3.5,0,6.3,2.8,6.3,6.3l0,0
		C23.8,12.6,23.4,13,22.9,13z"/>
	<rect x="10.8" y="5.5" fill="#0E7294" width="12.5" height="4.2"/>
	<path fill="#E5DDD7" d="M20.3,5.6h-0.7c-0.4,0-0.8-0.4-0.8-0.8v0c0-0.4,0.4-0.8,0.8-0.8h0.7c0.4,0,0.8,0.4,0.8,0.8v0
		C21.1,5.2,20.7,5.6,20.3,5.6z"/>
	<path fill="#E5DDD7" d="M14.4,5.6h-0.7c-0.4,0-0.8-0.4-0.8-0.8v0c0-0.4,0.4-0.8,0.8-0.8h0.7c0.4,0,0.8,0.4,0.8,0.8v0
		C15.2,5.2,14.9,5.6,14.4,5.6z"/>
	<path fill="#E5DDD7" d="M17.4,5.6h-0.7c-0.4,0-0.8-0.4-0.8-0.8v0c0-0.4,0.4-0.8,0.8-0.8h0.7c0.4,0,0.8,0.4,0.8,0.8v0
		C18.2,5.2,17.8,5.6,17.4,5.6z"/>
	<path fill="#00A6E0" d="M14.3,8.3c0,0.3-0.2,0.5-0.5,0.5c-0.3,0-0.5-0.2-0.5-0.5c0-0.3,0.2-0.5,0.5-0.5C14.1,7.8,14.3,8,14.3,8.3z"
		/>
	<path fill="#00A6E0" d="M19.7,8.3c0,0.3,0.2,0.5,0.5,0.5c0.3,0,0.5-0.2,0.5-0.5c0-0.3-0.2-0.5-0.5-0.5C19.9,7.8,19.7,8,19.7,8.3z"
		/>
	<path fill="#A09690" d="M18.4,11c0,0,0-0.1,0-0.2c0,0-0.1,0-0.2,0c-0.3,0.3-0.7,0.5-1.1,0.5c-0.4,0-0.8-0.2-1.1-0.5
		c0,0-0.1-0.1-0.2,0c0,0-0.1,0.1,0,0.2c0.3,0.4,0.8,0.6,1.3,0.6C17.6,11.6,18.1,11.4,18.4,11z"/>
	<path fill="#00A6E0" d="M22.3,4.8H11.7c-0.3,0-0.6,0.1-0.8,0.3l-0.4,0.4c-0.2,0.2-0.3,0.5-0.3,0.8v5.3l0,0c0.6,0,1-0.5,1-1V8.8
		c0-1.7,1.4-3,3-3h5.6c1.7,0,3,1.4,3,3v1.8c0,0.6,0.5,1,1,1l0,0V6.3c0-0.3-0.1-0.6-0.3-0.8l-0.4-0.4C22.9,4.9,22.6,4.8,22.3,4.8z"/>
	<path fill="#0E7294" d="M27.3,24.7c-0.9-3.7-2.3-4.4-4.3-4.4l0-0.9c2.8,0,4.3,1.5,5.2,5L27.3,24.7z"/>
	<path fill="#00A6E0" d="M30,25.4l-1.3-2.2c0.1,0.1,0.1,0.2,0.1,0.3c0.2,0.6-0.1,1.3-0.6,1.6c-0.1,0.1-0.2,0.2-0.2,0.3l0.9,3.8
		c0,0.2,0.2,0.3,0.4,0.2l0.3-0.1c0.1,0,0.2-0.1,0.2-0.3l0.1-3.5C30.1,25.5,30.1,25.4,30,25.4z"/>
	<path fill="#00A6E0" d="M26,24.2c0-0.1,0-0.2,0-0.4l-0.1,2.6c0,0,0,0.1,0,0.2l1.8,3c0.1,0.1,0.2,0.2,0.3,0.1l0.3-0.1
		c0.2,0,0.3-0.2,0.2-0.4l-0.9-3.8c0-0.1-0.2-0.2-0.3-0.2C26.7,25.3,26.2,24.8,26,24.2z"/>
	<g>
		<path fill="#00A6E0" d="M27.4,25.1c-0.6,0-1.1-0.4-1.3-1c-0.2-0.7,0.2-1.4,0.9-1.6c0.1,0,0.2,0,0.3,0c0.6,0,1.1,0.4,1.3,1
			c0.1,0.3,0,0.7-0.1,1c-0.2,0.3-0.5,0.5-0.8,0.6C27.7,25.1,27.6,25.1,27.4,25.1z"/>
		<path fill="#0E7294" d="M27.4,22.7c0.5,0,1,0.3,1.1,0.8c0.2,0.6-0.2,1.2-0.8,1.4c-0.1,0-0.2,0-0.3,0c-0.5,0-1-0.3-1.1-0.8
			c-0.2-0.6,0.2-1.2,0.8-1.4C27.3,22.7,27.4,22.7,27.4,22.7 M27.4,22.4c-0.1,0-0.2,0-0.4,0c-0.8,0.2-1.3,1-1.1,1.8
			c0.2,0.7,0.7,1.1,1.4,1.1c0.1,0,0.2,0,0.4,0c0.4-0.1,0.7-0.3,0.9-0.7c0.2-0.3,0.3-0.7,0.2-1.1C28.7,22.8,28.1,22.4,27.4,22.4
			L27.4,22.4z"/>
	</g>
	<path fill="#0E7294" d="M10.9,21c-2.7,0-4.2-1.5-5.1-5l0.8-0.2c0.9,3.7,2.3,4.4,4.3,4.4l0,0.9C11,21,11,21,10.9,21z"/>
	<g>
		<path fill="#00A6E0" d="M6.6,17.9c-0.6,0-1.1-0.4-1.3-1c-0.1-0.3,0-0.7,0.1-1c0.2-0.3,0.5-0.5,0.8-0.6c0.1,0,0.2,0,0.3,0
			c0.6,0,1.1,0.4,1.3,1c0.1,0.3,0,0.7-0.1,1c-0.2,0.3-0.5,0.5-0.8,0.6C6.8,17.9,6.7,17.9,6.6,17.9z"/>
		<path fill="#0E7294" d="M6.6,15.5c0.5,0,1,0.3,1.1,0.8c0.2,0.6-0.2,1.2-0.8,1.4c-0.1,0-0.2,0-0.3,0c-0.5,0-1-0.3-1.1-0.8
			c-0.2-0.6,0.2-1.2,0.8-1.4C6.4,15.5,6.5,15.5,6.6,15.5 M6.6,15.1c-0.1,0-0.2,0-0.4,0c-0.8,0.2-1.3,1-1.1,1.8
			c0.2,0.7,0.7,1.1,1.4,1.1c0.1,0,0.2,0,0.4,0c0.4-0.1,0.7-0.3,0.9-0.7C8,17,8.1,16.6,8,16.2C7.8,15.6,7.2,15.1,6.6,15.1L6.6,15.1z"
			/>
	</g>
	<path fill="#00A6E0" d="M4,15.1l1.3,2.2c-0.1-0.1-0.1-0.2-0.1-0.3C5,16.2,5.3,15.5,6,15.2l-1-4c0-0.1-0.2-0.2-0.3-0.2l-0.3,0.1
		c-0.2,0-0.3,0.2-0.3,0.3l-0.1,3.4C3.9,14.9,4,15,4,15.1z"/>
	<path fill="#00A6E0" d="M8,16.2c0,0.1,0,0.2,0,0.4L8.1,14c0-0.1,0-0.1,0-0.2l-1.8-3c-0.1-0.1-0.2-0.2-0.4-0.2l-0.3,0.1
		c-0.1,0-0.2,0.2-0.2,0.3l1,4C7.1,15.1,7.8,15.5,8,16.2z"/>
	<path fill="#2B2522" d="M16.7,36L16.7,36c-1.2,0-2.2-1-2.2-2.2v-5.3h4.4v5.3C18.9,35,17.9,36,16.7,36z"/>
	<path fill="#484342" d="M17.8,32.2h-2.1c-0.3,0-0.5-0.2-0.5-0.5l0,0c0-0.3,0.2-0.5,0.5-0.5h2.1c0.3,0,0.5,0.2,0.5,0.5l0,0
		C18.3,32,18,32.2,17.8,32.2z"/>
	<path fill="#484342" d="M17.8,33.8h-2.1c-0.3,0-0.5-0.2-0.5-0.5l0,0c0-0.3,0.2-0.5,0.5-0.5h2.1c0.3,0,0.5,0.2,0.5,0.5l0,0
		C18.3,33.6,18,33.8,17.8,33.8z"/>
	<path fill="#484342" d="M17.8,35.4h-2.1c-0.3,0-0.5-0.2-0.5-0.5l0,0c0-0.3,0.2-0.5,0.5-0.5h2.1c0.3,0,0.5,0.2,0.5,0.5l0,0
		C18.3,35.2,18,35.4,17.8,35.4z"/>
	<path fill="#00A6E0" d="M24.5,30.1V18.5c0-0.3-0.1-0.6-0.3-0.8l-0.5-0.5c-0.2-0.2-0.5-0.3-0.8-0.3H11.2c-0.3,0-0.6,0.1-0.8,0.3
		l-0.5,0.5c-0.2,0.2-0.3,0.5-0.3,0.8v11.6c0,0.3,0.1,0.6,0.3,0.8l0.5,0.5c0.2,0.2,0.5,0.3,0.8,0.3h11.6c0.3,0,0.6-0.1,0.8-0.3
		l0.5-0.5C24.3,30.7,24.5,30.4,24.5,30.1z"/>
	<path fill="#E5DDD7" d="M17,30.6L17,30.6c-3.5,0-6.3-2.9-6.3-6.3v0c0-3.5,2.9-6.3,6.3-6.3h0c3.5,0,6.3,2.9,6.3,6.3v0
		C23.3,27.8,20.5,30.6,17,30.6z"/>
	<path fill="#FFFFFF" d="M18.5,21.2h-2.9c-0.4,0-0.8-0.4-0.8-0.8l0,0c0-0.4,0.4-0.8,0.8-0.8h2.9c0.4,0,0.8,0.4,0.8,0.8l0,0
		C19.3,20.8,18.9,21.2,18.5,21.2z"/>
	<path fill="#00A6E0" d="M17.4,20c-0.1-0.1-0.2,0-0.2,0c0,0,0,0.1,0,0.1c0.1,0.1,0.1,0.2,0.1,0.3c0,0.2-0.2,0.4-0.5,0.3
		c-0.2,0-0.3-0.2-0.3-0.4c0-0.1,0.1-0.2,0.1-0.2c0,0,0-0.1,0-0.2c0,0-0.1,0-0.2,0c-0.1,0.2-0.2,0.3-0.2,0.5c0.1,0.3,0.4,0.5,0.7,0.5
		c0.3-0.1,0.5-0.3,0.5-0.6c0,0,0,0,0,0C17.6,20.2,17.5,20.1,17.4,20z"/>
	<path fill="#00A6E0" d="M16.9,20.2c0,0.1,0,0.2,0,0.3c0,0.1,0,0.1,0.1,0.1c0.1,0,0.1,0,0.1-0.1c0-0.2,0-0.4,0-0.6c0,0,0-0.1,0-0.1
		c0,0-0.1,0-0.2,0c0,0,0,0,0,0.1C16.9,20,16.9,20.1,16.9,20.2L16.9,20.2L16.9,20.2z"/>
</g>
</svg>
