<?xml version="1.0" encoding="utf-8"?>
<!-- Generator: Adobe Illustrator 23.0.1, SVG Export Plug-In . SVG Version: 6.00 Build 0)  -->
<svg version="1.2" baseProfile="tiny" id="Layer_1" xmlns="http://www.w3.org/2000/svg" xmlns:xlink="http://www.w3.org/1999/xlink"
	 x="0px" y="0px" width="40px" height="40px" viewBox="0 0 40 40" xml:space="preserve">
<g>
	<path fill="#46B249" d="M19.5,32.2C19.5,32.2,19.5,32.2,19.5,32.2c0,0,0-0.1,0-0.1c0,0,0,0,0,0c0,0,0-0.1-0.1-0.1c0,0,0,0,0,0
		c0,0,0-0.1-0.1-0.1c0,0,0,0,0,0c0,0-0.1-0.1-0.1-0.1c0,0,0,0,0,0c-0.1,0-0.1-0.1-0.2-0.1c0,0,0,0,0,0c-0.1,0-0.1-0.1-0.2-0.1
		c0,0,0,0-0.1,0c-0.1,0-0.1,0-0.2-0.1c0,0,0,0-0.1,0c-0.1,0-0.2-0.1-0.3-0.1c-1.3-0.3-3.1-0.2-3.9,0.3l-1.9,1
		c-0.1,0-0.1,0.1-0.2,0.1c0,0,0,0,0,0c0,0-0.1,0.1-0.1,0.1c0,0,0,0,0,0c0,0-0.1,0.1-0.1,0.1c0,0,0,0,0,0c0,0,0,0.1,0,0.1
		c0,0,0,0,0,0c0,0,0,0,0,0l0,1.3c0,0,0,0,0,0c0,0,0,0,0,0c0,0,0,0,0,0c0,0,0,0,0,0c0,0,0,0,0,0c0,0,0,0,0,0c0,0,0,0,0,0c0,0,0,0,0,0
		c0,0,0,0,0,0c0,0,0,0,0,0c0,0,0,0,0,0c0,0,0,0,0,0c0,0,0,0,0,0c0,0,0,0,0,0c0,0,0,0,0,0c0,0,0,0,0,0c0,0,0,0,0,0c0,0,0,0,0,0
		c0,0,0,0,0.1,0c0,0,0,0,0,0c0,0,0,0,0.1,0c0,0,0,0,0,0c0,0,0,0,0.1,0c0,0,0,0,0,0c0,0,0,0,0.1,0c0,0,0,0,0,0c0,0,0,0,0.1,0
		c0,0,0,0,0,0c0,0,0.1,0,0.1,0c0,0,0,0,0,0c0,0,0.1,0,0.1,0c0,0,0,0,0,0c0,0,0,0,0,0c0,0,0.1,0,0.1,0c0,0,0,0,0,0c0,0,0.1,0,0.1,0
		c0,0,0,0,0,0c0,0,0,0,0,0c0,0,0,0,0.1,0c0,0,0,0,0,0c0,0,0.1,0,0.1,0c0,0,0,0,0,0c0,0,0,0,0,0c0,0,0.1,0,0.1,0c0,0,0.1,0,0.1,0
		c0,0,0,0,0,0c0.1,0,0.1,0,0.2,0c0,0,0,0,0,0c0,0,0,0,0,0c0,0,0.1,0,0.1,0c0,0,0,0,0,0c0,0,0,0,0,0c0,0,0.1,0,0.1,0c0,0,0,0,0,0
		c0,0,0,0,0,0c0.1,0,0.1,0,0.2,0c0,0,0,0,0,0c0,0,0,0,0,0c0,0,0.1,0,0.1,0c0,0,0,0,0,0c0,0,0,0,0,0c0,0,0.1,0,0.1,0c0,0,0,0,0,0
		c0,0,0,0,0,0c0.1,0,0.1,0,0.2,0c0,0,0,0,0,0c0,0,0,0,0,0c0,0,0.1,0,0.1,0c0,0,0,0,0,0c0,0,0,0,0,0c0.1,0,0.1,0,0.2,0c0,0,0,0,0,0
		c0,0,0,0,0,0c0.1,0,0.1,0,0.2,0c0,0,0,0,0,0h0c0,0,0.1,0,0.1,0c0,0,0,0,0,0c0,0,0.1,0,0.1,0c0,0,0,0,0,0c0,0,0,0,0,0
		c0,0,0.1,0,0.1,0c0,0,0,0,0.1,0c0,0,0,0,0.1,0c0,0,0,0,0.1,0c0,0,0,0,0.1,0c0,0,0,0,0.1,0c0,0,0,0,0.1,0c0,0,0,0,0.1,0
		c0,0,0,0,0.1,0c0,0,0,0,0.1,0c0,0,0,0,0.1,0c0,0,0,0,0,0c0,0,0,0,0.1,0c0,0,0,0,0,0c0,0,0.1,0,0.1,0c0,0,0,0,0,0c0,0,0,0,0,0
		c0,0,0,0,0,0c0,0,0.1,0,0.1,0c0,0,0,0,0,0c0,0,0.1,0,0.1,0c0,0,0,0,0,0c0,0,0,0,0.1,0c0,0,0,0,0,0c0,0,0,0,0,0c0,0,0,0,0,0
		c0,0,0,0,0,0c0,0,0,0,0,0c0,0,0,0,0,0c0,0,0,0,0,0c0,0,0,0,0.1,0l1.9-1c0,0,0,0,0,0c0,0,0,0,0,0c0,0,0,0,0,0c0,0,0,0,0,0
		c0,0,0,0,0,0c0,0,0,0,0,0c0,0,0,0,0,0c0,0,0,0,0,0c0,0,0,0,0,0c0,0,0,0,0,0c0,0,0,0,0,0c0,0,0,0,0,0c0,0,0,0,0,0c0,0,0,0,0,0
		c0,0,0,0,0,0c0,0,0,0,0,0c0,0,0,0,0,0c0,0,0,0,0,0c0,0,0,0,0,0c0,0,0,0,0,0c0,0,0,0,0,0c0,0,0,0,0,0c0,0,0,0,0,0c0,0,0,0,0,0
		c0,0,0,0,0,0c0,0,0,0,0,0c0,0,0,0,0,0c0,0,0,0,0,0c0,0,0,0,0,0c0,0,0,0,0,0c0,0,0,0,0,0c0,0,0,0,0,0c0,0,0,0,0,0c0,0,0,0,0,0
		c0,0,0,0,0,0c0,0,0,0,0,0c0,0,0,0,0,0c0,0,0,0,0,0c0,0,0,0,0,0c0,0,0,0,0,0L19.5,32.2C19.5,32.2,19.5,32.2,19.5,32.2z"/>
	<path fill="#46B249" d="M28.4,33.1C28.4,33.1,28.4,33.1,28.4,33.1C28.4,33.1,28.3,33.1,28.4,33.1c0,0,0-0.1,0-0.1c0,0,0,0,0,0
		c0,0,0-0.1-0.1-0.1c0,0,0,0,0,0c0,0-0.1-0.1-0.1-0.1c0,0,0,0,0,0c-0.1,0-0.1-0.1-0.2-0.1l-1.9-1c-0.8-0.5-2.6-0.6-3.9-0.3
		c-0.1,0-0.2,0-0.3,0.1c0,0-0.1,0-0.1,0c-0.1,0-0.1,0-0.2,0.1c0,0,0,0-0.1,0c-0.1,0-0.1,0.1-0.2,0.1c0,0,0,0,0,0
		c-0.1,0-0.1,0.1-0.2,0.1c0,0,0,0,0,0c0,0-0.1,0.1-0.1,0.1c0,0,0,0,0,0c0,0-0.1,0.1-0.1,0.1c0,0,0,0,0,0c0,0,0,0.1-0.1,0.1
		c0,0,0,0,0,0c0,0,0,0.1,0,0.1c0,0,0,0,0,0c0,0,0,0,0,0l0,1.3c0,0,0,0,0,0c0,0,0,0,0,0c0,0,0,0,0,0c0,0,0,0,0,0c0,0,0,0,0,0
		c0,0,0,0,0,0c0,0,0,0,0,0c0,0,0,0,0,0c0,0,0,0,0,0c0,0,0,0,0,0c0,0,0,0,0,0c0,0,0,0,0,0c0,0,0,0,0,0c0,0,0,0,0,0c0,0,0,0,0,0
		c0,0,0,0,0,0c0,0,0,0,0,0c0,0,0,0,0,0c0,0,0,0,0,0c0,0,0,0,0,0c0,0,0,0,0,0c0,0,0,0,0,0c0,0,0,0,0,0c0,0,0,0,0,0c0,0,0,0,0,0
		c0,0,0,0,0,0c0,0,0,0,0,0c0,0,0,0,0,0c0,0,0,0,0,0c0,0,0,0,0,0c0,0,0,0,0,0c0,0,0,0,0,0c0,0,0,0,0,0c0,0,0,0,0,0c0,0,0,0,0,0
		c0,0,0,0,0,0c0,0,0,0,0,0c0,0,0,0,0,0c0,0,0,0,0,0c0,0,0,0,0,0l1.9,1c0,0,0,0,0.1,0c0,0,0,0,0,0c0,0,0,0,0,0c0,0,0,0,0,0
		c0,0,0,0,0,0c0,0,0,0,0,0c0,0,0,0,0,0c0,0,0,0,0,0c0,0,0,0,0.1,0c0,0,0,0,0,0c0,0,0.1,0,0.1,0c0,0,0,0,0,0c0,0,0.1,0,0.1,0
		c0,0,0,0,0,0c0,0,0,0,0,0c0,0,0,0,0,0c0,0,0.1,0,0.1,0c0,0,0,0,0,0c0,0,0,0,0.1,0c0,0,0,0,0,0c0,0,0,0,0.1,0c0,0,0,0,0.1,0
		c0,0,0,0,0.1,0c0,0,0,0,0.1,0c0,0,0,0,0.1,0c0,0,0,0,0.1,0c0,0,0,0,0.1,0c0,0,0,0,0.1,0c0,0,0,0,0.1,0c0,0,0,0,0.1,0
		c0,0,0.1,0,0.1,0c0,0,0,0,0,0c0,0,0,0,0,0c0,0,0.1,0,0.1,0c0,0,0,0,0,0c0,0,0.1,0,0.1,0c0,0,0,0,0,0c0,0,0,0,0,0c0.1,0,0.1,0,0.2,0
		c0,0,0,0,0,0c0,0,0,0,0,0c0.1,0,0.1,0,0.2,0c0,0,0,0,0,0c0,0,0,0,0,0c0,0,0.1,0,0.1,0c0,0,0,0,0,0c0,0,0,0,0,0c0.1,0,0.1,0,0.2,0
		c0,0,0,0,0,0c0,0,0,0,0,0c0,0,0.1,0,0.1,0c0,0,0,0,0,0c0,0,0,0,0,0c0,0,0.1,0,0.1,0c0,0,0,0,0,0c0,0,0,0,0,0c0.1,0,0.1,0,0.2,0
		c0,0,0,0,0,0c0,0,0,0,0,0c0,0,0.1,0,0.1,0c0,0,0,0,0,0c0,0,0,0,0,0c0,0,0.1,0,0.1,0c0,0,0,0,0,0c0,0,0,0,0,0c0.1,0,0.1,0,0.2,0
		c0,0,0,0,0,0c0,0,0.1,0,0.1,0c0,0,0.1,0,0.1,0c0,0,0,0,0,0c0,0,0,0,0,0c0,0,0.1,0,0.1,0c0,0,0,0,0,0c0,0,0,0,0.1,0c0,0,0,0,0,0
		c0,0,0,0,0,0c0,0,0.1,0,0.1,0c0,0,0,0,0,0c0,0,0.1,0,0.1,0c0,0,0,0,0,0c0,0,0,0,0,0c0,0,0.1,0,0.1,0c0,0,0,0,0,0c0,0,0.1,0,0.1,0
		c0,0,0,0,0,0c0,0,0,0,0.1,0c0,0,0,0,0,0c0,0,0,0,0.1,0c0,0,0,0,0,0c0,0,0,0,0.1,0c0,0,0,0,0,0c0,0,0,0,0.1,0c0,0,0,0,0,0
		c0,0,0,0,0.1,0c0,0,0,0,0,0c0,0,0,0,0,0c0,0,0,0,0,0c0,0,0,0,0,0c0,0,0,0,0,0c0,0,0,0,0,0c0,0,0,0,0,0c0,0,0,0,0,0c0,0,0,0,0,0
		c0,0,0,0,0,0c0,0,0,0,0,0c0,0,0,0,0,0c0,0,0,0,0,0c0,0,0,0,0,0c0,0,0,0,0,0c0,0,0,0,0,0c0,0,0,0,0,0c0,0,0,0,0,0L28.4,33.1z"/>
	<path fill="#58595B" d="M18.2,31.9v-6.1c0-0.7-0.6-1.3-1.3-1.3h-0.8c-0.7,0-1.3,0.6-1.3,1.3V32c0,0.2,0.2,0.5,0.4,0.5
		c0.5,0.2,1.4,0.4,2.6,0C18,32.4,18.2,32.2,18.2,31.9z"/>
	<path fill="#58595B" d="M22.1,31.9v-6.1c0-0.7,0.6-1.3,1.3-1.3h0.8c0.7,0,1.3,0.6,1.3,1.3V32c0,0.2-0.2,0.5-0.4,0.5
		c-0.5,0.2-1.4,0.4-2.6,0C22.3,32.4,22.1,32.2,22.1,31.9z"/>
	<path fill="#3C6535" d="M12.1,15.8c-0.5,0.8-1.7,1-2.5,0.5s-1-1.7-0.5-2.5s1.7-1,2.5-0.5C12.4,13.8,12.7,14.9,12.1,15.8z"/>
	<path fill="#3C6535" d="M10.2,13.8c-0.8-0.8-1.5-2.2-2.1-4l-1,0.3c0.6,2,1.4,3.5,2.3,4.5c0.2,0.2,0.6,0.2,0.8,0l0,0
		C10.4,14.3,10.4,14,10.2,13.8z"/>
	<path fill="#46B349" d="M4.1,8C3.7,6.4,4.8,4.8,6.4,4.5s3.2,0.7,3.5,2.3c0.3,1.6-0.7,3.2-2.3,3.5C6,10.7,4.4,9.6,4.1,8z"/>
	<path fill="#3C6535" d="M6.4,4.5c-0.1,0-0.2,0.1-0.3,0.1l0.4,2L7,6.5l-0.4-2C6.6,4.5,6.5,4.5,6.4,4.5z"/>
	<path fill="#3C6535" d="M6.6,5.6c-0.2,0.3-0.9,1.3-0.8,2c0.1,0.6,0.7,1,1.4,0.9c0.6-0.1,1-0.7,0.9-1.4S7,5.8,6.6,5.6z"/>
	<path fill="#3C6535" d="M27.9,13.7c0.5-0.8,1.7-1,2.5-0.5s1,1.7,0.5,2.5s-1.7,1-2.5,0.5C27.6,15.7,27.4,14.6,27.9,13.7z"/>
	<path fill="#3C6535" d="M29.9,15.7c0.8,0.8,1.5,2.2,2,4l1-0.3c-0.6-2-1.3-3.5-2.3-4.5c-0.2-0.2-0.6-0.2-0.8,0l0,0
		C29.7,15.2,29.7,15.5,29.9,15.7z"/>
	<path fill="#46B349" d="M35.9,21.5c0.3,1.6-0.7,3.2-2.4,3.5c-1.6,0.3-3.2-0.7-3.5-2.4c-0.3-1.6,0.7-3.2,2.4-3.5
		C34.1,18.9,35.6,19.9,35.9,21.5z"/>
	<path fill="#3C6535" d="M31.9,22.3c-0.1-0.6,0.3-1.2,0.9-1.4c0.6-0.1,1.2,0.3,1.4,0.9c0.1,0.7-0.5,1.7-0.8,2
		C33,23.7,32,23.1,31.9,22.3z"/>
	<path fill="#3C6535" d="M33.3,25.1c0.1,0,0.2,0,0.3,0s0.2-0.1,0.3-0.1l-0.4-2L33,23.1L33.3,25.1z"/>
	<path fill="#46B349" d="M29.4,27.5V12.9c0-0.4-0.2-0.8-0.4-1l-0.6-0.6c-0.3-0.3-0.7-0.4-1-0.4H12.7c-0.4,0-0.8,0.2-1,0.4l-0.6,0.6
		c-0.3,0.3-0.4,0.7-0.4,1v14.6c0,0.4,0.2,0.8,0.4,1l0.6,0.6c0.3,0.3,0.7,0.4,1,0.4h14.6c0.4,0,0.8-0.2,1-0.4l0.6-0.6
		C29.2,28.3,29.4,27.9,29.4,27.5z"/>
	<path fill="#E5DED7" d="M20,28.2L20,28.2c-4.4,0-8-3.6-8-8l0,0c0-4.4,3.6-8,8-8l0,0c4.4,0,8,3.6,8,8l0,0C28,24.6,24.4,28.2,20,28.2
		z"/>
	<path fill="#D7CBC1" d="M26.5,20.2c0,3.6-2.9,6.5-6.5,6.5s-6.5-2.9-6.5-6.5s2.9-6.5,6.5-6.5C23.6,13.7,26.5,16.6,26.5,20.2z"/>
	<path fill="none" stroke="#C4B5AD" stroke-width="5.6693" stroke-miterlimit="10" d="M23.4,20.2c0,1.9-1.5,3.4-3.4,3.4
		s-3.4-1.5-3.4-3.4s1.5-3.4,3.4-3.4C21.9,16.8,23.4,18.3,23.4,20.2z"/>
	<path fill="#D7CBC1" d="M26.5,20.2c0,3.6-2.9,6.5-6.5,6.5s-6.5-2.9-6.5-6.5s2.9-6.5,6.5-6.5C23.6,13.7,26.5,16.6,26.5,20.2z"/>
	<path fill="#C4B5AD" d="M20,24.4c-2.3,0-4.2-1.9-4.2-4.2S17.7,16,20,16s4.2,1.9,4.2,4.2S22.3,24.4,20,24.4z M20,17.7
		c-1.4,0-2.5,1.1-2.5,2.5s1.1,2.5,2.5,2.5s2.5-1.1,2.5-2.5C22.5,18.8,21.4,17.7,20,17.7z"/>
	<path fill="#58595B" d="M17.4,22.7c-0.1-0.1-0.1-0.3,0-0.4l0,0c0.1-0.1,0.3-0.1,0.4,0l0,0c0.1,0.1,0.1,0.3,0,0.4l0,0
		c-0.1,0.1-0.1,0.1-0.2,0.1l0,0C17.5,22.8,17.4,22.8,17.4,22.7z M16.6,21.5c-0.1-0.2,0-0.3,0.2-0.4l0,0c0.2-0.1,0.3,0,0.4,0.2l0,0
		c0.1,0.2,0,0.3-0.2,0.4l0,0h-0.1l0,0C16.8,21.7,16.7,21.7,16.6,21.5z M16.7,20.5c-0.2,0-0.3-0.1-0.3-0.3l0,0l0,0l0,0
		c0-0.2,0.1-0.3,0.3-0.3l0,0c0.2,0,0.3,0.1,0.3,0.3l0,0C17,20.3,16.8,20.5,16.7,20.5L16.7,20.5L16.7,20.5z M17,20.2L17,20.2L17,20.2
		L17,20.2z M16.8,19.2c-0.2-0.1-0.2-0.2-0.2-0.4l0,0c0.1-0.2,0.2-0.2,0.4-0.2l0,0c0.2,0.1,0.2,0.2,0.2,0.4l0,0
		c0,0.1-0.2,0.2-0.3,0.2l0,0H16.8z M17.4,18c-0.1-0.1-0.1-0.3,0-0.4l0,0c0.1-0.1,0.3-0.1,0.4,0l0,0c0.1,0.1,0.1,0.3,0,0.4l0,0
		c-0.1,0.1-0.1,0.1-0.2,0.1l0,0C17.6,18.1,17.5,18.1,17.4,18z"/>
	<path fill="#58595B" d="M22.3,22.8L22.3,22.8c-0.1,0-0.2,0-0.2-0.1l0,0c-0.1-0.1-0.1-0.3,0-0.4l0,0c0.1-0.1,0.3-0.1,0.4,0l0,0
		c0.1,0.1,0.1,0.3,0,0.4C22.5,22.8,22.4,22.8,22.3,22.8z M23,21.7L23,21.7h-0.1l0,0c-0.2-0.1-0.2-0.2-0.2-0.4l0,0
		c0.1-0.2,0.2-0.2,0.4-0.2l0,0c0.2,0.1,0.2,0.2,0.2,0.4C23.3,21.7,23.2,21.7,23,21.7z M23.3,20.5L23.3,20.5c-0.2,0-0.3-0.1-0.3-0.3
		l0,0c0-0.2,0.1-0.3,0.3-0.3l0,0c0.2,0,0.3,0.1,0.3,0.3l0,0l0,0l0,0C23.6,20.3,23.5,20.5,23.3,20.5L23.3,20.5z M23,20.2L23,20.2
		L23,20.2L23,20.2z M23,19.2L23,19.2c-0.1,0-0.2-0.1-0.3-0.2l0,0c-0.1-0.2,0-0.3,0.2-0.4l0,0c0.2-0.1,0.3,0,0.4,0.2l0,0
		c0.1,0.2,0,0.3-0.2,0.4C23.1,19.2,23.1,19.2,23,19.2z M22.3,18.1L22.3,18.1c-0.1,0-0.2,0-0.2-0.1l0,0c-0.1-0.1-0.1-0.3,0-0.4l0,0
		c0.1-0.1,0.3-0.1,0.4,0l0,0c0.1,0.1,0.1,0.3,0,0.4C22.5,18.1,22.4,18.1,22.3,18.1z"/>
	<path fill="#E5DED7" d="M27.1,10.8c0.2,0,0.3-0.2,0.2-0.4c-1.4-2.8-4.1-4.7-7.3-4.7c-3.1,0-5.9,1.9-7.3,4.7c-0.1,0.2,0,0.4,0.2,0.4
		H27.1z"/>
	<path fill="#3C6535" d="M12.8,10.4c-0.1,0.2,0,0.4,0.2,0.4h14c0.2,0,0.3-0.2,0.2-0.4H12.8z"/>
	<path fill="#46B349" d="M24.8,7.3h-9.4c-1.1,0.8-1.9,1.9-2.5,3.1h14.5C26.7,9.2,25.8,8.1,24.8,7.3z"/>
	<path fill="#FFFFFF" d="M18.8,7.5c0,1.1-0.9,1.9-1.9,1.9c-1.1,0-1.9-0.9-1.9-1.9s0.9-1.9,1.9-1.9C17.9,5.5,18.8,6.4,18.8,7.5z"/>
	<path fill="#46B349" d="M16.8,9.5c-1.1,0-2-0.9-2-2s0.9-2,2-2s2,0.9,2,2S17.9,9.5,16.8,9.5z M16.8,5.6c-1,0-1.8,0.8-1.8,1.8
		s0.8,1.8,1.8,1.8s1.8-0.8,1.8-1.8S17.8,5.6,16.8,5.6z"/>
	<path fill="#CDCECF" d="M16.8,9c-1,0-1.8-0.8-1.8-1.7v0.1c0,1,0.8,1.8,1.8,1.8s1.8-0.8,1.8-1.8V7.3C18.6,8.3,17.8,9,16.8,9z"/>
	<path fill="#46B349" d="M18.5,7.5c0,0.7-0.6,1.3-1.3,1.3c-0.7,0-1.3-0.6-1.3-1.3s0.6-1.3,1.3-1.3C17.9,6.2,18.5,6.8,18.5,7.5z"/>
	<path fill="#3C6535" d="M17.2,8.5c-0.7,0-1.2-0.5-1.3-1.1c0,0.1,0,0.1,0,0.2c0,0.7,0.6,1.3,1.3,1.3s1.3-0.6,1.3-1.3
		c0-0.1,0-0.1,0-0.2C18.4,8,17.9,8.5,17.2,8.5z"/>
	<path fill="#000100" d="M17.6,7.5c0,0.2-0.2,0.4-0.4,0.4c-0.2,0-0.4-0.2-0.4-0.4c0-0.2,0.2-0.4,0.4-0.4S17.6,7.3,17.6,7.5z"/>
	<path fill="#FFFFFF" d="M17.9,8.1c0,0.1-0.1,0.2-0.2,0.2s-0.2-0.1-0.2-0.2c0-0.1,0.1-0.2,0.2-0.2C17.8,7.9,17.9,8,17.9,8.1z"/>
	<path fill="#FFFFFF" d="M16.8,6.5c-0.3,0-0.5,0.2-0.6,0.4c0,0.2,0.2,0.3,0.4,0.3C16.8,7.2,17,7,17,6.8C17,6.7,16.9,6.6,16.8,6.5z"
		/>
	<path fill="#FFFFFF" d="M24.6,7.5c0,1.1-0.9,1.9-1.9,1.9c-1.1,0-1.9-0.9-1.9-1.9s0.9-1.9,1.9-1.9C23.7,5.5,24.6,6.4,24.6,7.5z"/>
	<path fill="#46B349" d="M22.7,9.5c-1.1,0-2-0.9-2-2s0.9-2,2-2s2,0.9,2,2S23.8,9.5,22.7,9.5z M22.7,5.6c-1,0-1.8,0.8-1.8,1.8
		s0.8,1.8,1.8,1.8s1.8-0.8,1.8-1.8S23.7,5.6,22.7,5.6z"/>
	<path fill="#CDCECF" d="M22.7,9c-1,0-1.8-0.8-1.8-1.7v0.1c0,1,0.8,1.8,1.8,1.8s1.8-0.8,1.8-1.8V7.3C24.4,8.3,23.6,9,22.7,9z"/>
	<path fill="#46B349" d="M24.3,7.5c0,0.7-0.6,1.3-1.3,1.3c-0.7,0-1.3-0.6-1.3-1.3s0.6-1.3,1.3-1.3C23.7,6.2,24.3,6.8,24.3,7.5z"/>
	<path fill="#3C6535" d="M23,8.5c-0.7,0-1.2-0.5-1.3-1.1c0,0.1,0,0.1,0,0.2c0,0.7,0.6,1.3,1.3,1.3c0.7,0,1.3-0.6,1.3-1.3
		c0-0.1,0-0.1,0-0.2C24.2,8,23.7,8.5,23,8.5z"/>
	<path fill="#000100" d="M23.4,7.5c0,0.2-0.2,0.4-0.4,0.4c-0.2,0-0.4-0.2-0.4-0.4c0-0.2,0.2-0.4,0.4-0.4C23.2,7.1,23.4,7.3,23.4,7.5
		z"/>
	<path fill="#FFFFFF" d="M23.7,8.1c0,0.1-0.1,0.2-0.2,0.2s-0.2-0.1-0.2-0.2c0-0.1,0.1-0.2,0.2-0.2C23.6,7.9,23.7,8,23.7,8.1z"/>
	<path fill="#FFFFFF" d="M22.6,6.5c-0.3,0-0.5,0.2-0.6,0.4c0,0.2,0.2,0.3,0.4,0.3c0.2,0,0.4-0.2,0.4-0.4C22.8,6.7,22.7,6.6,22.6,6.5
		z"/>
	<path fill="#3C6535" d="M20.3,9.1h-1.2c-0.2,0-0.3,0.1-0.3,0.3l0,0c0,0.2,0.1,0.3,0.3,0.3h1.2c0.2,0,0.3-0.1,0.3-0.3l0,0
		C20.6,9.3,20.5,9.1,20.3,9.1z"/>
</g>
</svg>
