<?xml version="1.0" encoding="UTF-8" standalone="no"?>
<!-- Created with Inkscape (http://www.inkscape.org/) -->
<svg xmlns:inkscape="http://www.inkscape.org/namespaces/inkscape" xmlns:rdf="http://www.w3.org/1999/02/22-rdf-syntax-ns#" xmlns="http://www.w3.org/2000/svg" xmlns:xlink="http://www.w3.org/1999/xlink" xmlns:ns1="http://sozi.baierouge.fr" xmlns:cc="http://creativecommons.org/ns#" xmlns:sodipodi="http://sodipodi.sourceforge.net/DTD/sodipodi-0.dtd" xmlns:dc="http://purl.org/dc/elements/1.1/" id="svg2" xml:space="preserve" viewBox="0 0 32.185 26.904" version="1.1" inkscape:version="0.91 r13725">
  <defs id="defs6">
    <linearGradient id="linearGradient24" y2="-16351" gradientUnits="userSpaceOnUse" x2="13.035" gradientTransform="matrix(.00011722 -.8 .8 -.0008 13083 4.8208)" y1="-16351" x1="6.21">
      <stop id="stop26" style="stop-color:#8f8f8f" offset="0"/>
      <stop id="stop28" style="stop-color:#e8e8e8" offset=".22750"/>
      <stop id="stop30" style="stop-color:#696969" offset="1"/>
    </linearGradient>
    <linearGradient id="linearGradient44" y2="-13815" gradientUnits="userSpaceOnUse" x2="-1912.6" gradientTransform="matrix(.21808 -.76968 .76968 .21808 11053 1546.7)" y1="-13815" x1="-1921.8">
      <stop id="stop46" style="stop-color:#e8e8e8" offset="0"/>
      <stop id="stop48" style="stop-color:#ededed" offset="1"/>
    </linearGradient>
    <linearGradient id="linearGradient62" y2="-13815" gradientUnits="userSpaceOnUse" x2="-1912.6" gradientTransform="matrix(.21808 -.76968 .76968 .21808 11053 1546.6)" y1="-13815" x1="-1921.8">
      <stop id="stop64" style="stop-color:#e8e8e8" offset="0"/>
      <stop id="stop66" style="stop-color:#878787" offset="1"/>
    </linearGradient>
    <linearGradient id="linearGradient80" y2="-17621" gradientUnits="userSpaceOnUse" x2="1516.9" gradientTransform="matrix(-.1364 -.78832 .78832 -.1364 14103 -1200.2)" y1="-17621" x1="1515.6">
      <stop id="stop82" style="stop-color:#8f8f8f" offset="0"/>
      <stop id="stop84" style="stop-color:#e8e8e8" offset=".22750"/>
      <stop id="stop86" style="stop-color:#696969" offset="1"/>
    </linearGradient>
    <linearGradient id="linearGradient100" y2="-9188.6" gradientUnits="userSpaceOnUse" x2="-3315" gradientTransform="matrix(.51392 -.61312 .61312 .51392 7358.1 2692.4)" y1="-9188.6" x1="-3334.1">
      <stop id="stop102" style="stop-color:#b3b3b3" offset="0"/>
      <stop id="stop104" style="stop-color:#b8b8b8" offset=".26270"/>
      <stop id="stop106" style="stop-color:#808080" offset=".58430"/>
      <stop id="stop108" style="stop-color:#8c8c8c" offset=".82350"/>
      <stop id="stop110" style="stop-color:#636363" offset="1"/>
    </linearGradient>
    <linearGradient id="linearGradient124" y2="-13440" gradientUnits="userSpaceOnUse" x2="-2090.5" gradientTransform="matrix(.24568 -.76136 .76136 .24568 10763 1710.9)" y1="-13440" x1="-2108.6">
      <stop id="stop126" style="stop-color:#a17616" offset="0"/>
      <stop id="stop128" style="stop-color:#7e570a" offset="1"/>
    </linearGradient>
    <linearGradient id="linearGradient142" y2="-12876" gradientUnits="userSpaceOnUse" x2="-2354" gradientTransform="matrix(.28592 -.7472 .7472 .28592 10318 1924)" y1="-12876" x1="-2371">
      <stop id="stop144" style="stop-color:#787878" offset="0"/>
      <stop id="stop146" style="stop-color:#8a8a8a" offset=".26270"/>
      <stop id="stop148" style="stop-color:#545454" offset=".58430"/>
      <stop id="stop150" style="stop-color:#616161" offset=".82350"/>
      <stop id="stop152" style="stop-color:#454545" offset="1"/>
    </linearGradient>
    <linearGradient id="linearGradient168" y2="-14630" gradientUnits="userSpaceOnUse" x2="-1386.4" gradientTransform="matrix(.15224 -.78536 .78536 .15224 11724 1143.1)" y1="-14630" x1="-1395.5">
      <stop id="stop170" style="stop-color:#4f4f4f" offset="0"/>
      <stop id="stop172" style="stop-color:#262626" offset="1"/>
    </linearGradient>
    <linearGradient id="linearGradient188" y2="-16805" gradientUnits="userSpaceOnUse" x2="512.63" gradientTransform="matrix(-.04736 -.79856 .79856 -.04736 13464 -381.18)" y1="-16805" x1="509.68">
      <stop id="stop190" style="stop-color:#d4d4d4" offset="0"/>
      <stop id="stop192" style="stop-color:#5e5e5e" offset=".85880"/>
      <stop id="stop194" style="stop-color:#5e5e5e" offset="1"/>
    </linearGradient>
    <linearGradient id="linearGradient210" y2="-16831" gradientUnits="userSpaceOnUse" x2="545.35" gradientTransform="matrix(-.0508 -.7984 .7984 -.0508 13490 -410.97)" y1="-16831" x1="542.6">
      <stop id="stop212" style="stop-color:#d4d4d4" offset="0"/>
      <stop id="stop214" style="stop-color:#5e5e5e" offset=".85880"/>
      <stop id="stop216" style="stop-color:#5e5e5e" offset="1"/>
    </linearGradient>
    <clipPath id="clipPath226">
      <path id="path228" d="m14.387 4.762c0-0.746-0.266-1.371-0.801-1.879-0.504-0.532-1.133-0.801-1.879-0.801-0.719 0-1.332 0.269-1.84 0.801-0.531 0.508-0.801 1.133-0.801 1.879 0 0.75 0.27 1.375 0.801 1.882 0.508 0.532 1.121 0.801 1.84 0.801 0.746 0 1.375-0.269 1.879-0.801 0.535-0.507 0.801-1.132 0.801-1.882z" inkscape:connector-curvature="0"/>
    </clipPath>
    <clipPath id="clipPath234">
      <path id="path236" d="m5.2653-21.624h7.5v7.4442h-7.5v-7.4442z" inkscape:connector-curvature="0"/>
    </clipPath>
    <radialGradient id="radialGradient238" gradientUnits="userSpaceOnUse" cy="-18.2" cx="8.6499" r="3.3125">
      <stop id="stop240" style="stop-color:#ffffff;stop-opacity:.37650" offset="0"/>
      <stop id="stop242" style="stop-color:#ffffff;stop-opacity:0" offset=".86670"/>
      <stop id="stop246" style="stop-color:#ffffff;stop-opacity:0" offset="1"/>
    </radialGradient>
    <mask id="mask248">
      <g id="g250">
        <g id="g252" clip-path="url(#clipPath234)">
          <path id="path254" style="fill:url(#radialGradient238)" d="m5.2653-21.624h7.5v7.4442h-7.5v-7.4442z" inkscape:connector-curvature="0"/>
        </g>
      </g>
    </mask>
    <radialGradient id="radialGradient258" gradientUnits="userSpaceOnUse" cy="-18.2" cx="8.6499" r="3.3125">
      <stop id="stop260" style="stop-color:#000000" offset="0"/>
      <stop id="stop262" style="stop-color:#000000" offset=".86670"/>
      <stop id="stop264" style="stop-color:#000000" offset="1"/>
    </radialGradient>
    <linearGradient id="linearGradient278" y2="-7620.4" gradientUnits="userSpaceOnUse" x2="-3355.3" gradientTransform="matrix(.59272 -.53728 .53728 .59272 6093.7 2717.1)" y1="-7620.4" x1="-3358.9">
      <stop id="stop280" style="stop-color:#c7c7c7" offset="0"/>
      <stop id="stop282" style="stop-color:#858585" offset="1"/>
    </linearGradient>
    <linearGradient id="linearGradient300" y2="-4086.3" gradientUnits="userSpaceOnUse" x2="18970" gradientTransform="matrix(-.32904 .7292 -.7292 -.32904 3272.3 -15176)" y1="-4086.3" x1="18967">
      <stop id="stop302" style="stop-color:#9e9e9e" offset="0"/>
      <stop id="stop304" style="stop-color:#4d4d4d" offset="1"/>
    </linearGradient>
    <clipPath id="clipPath312">
      <path id="path314" d="m19.508 16.164c0-0.375-0.32-0.707-0.961-1-0.613-0.266-1.371-0.402-2.277-0.402-0.907 0-1.668 0.136-2.282 0.402-0.64 0.293-0.961 0.625-0.961 1 0 0.398 0.321 0.734 0.961 1 0.614 0.266 1.375 0.398 2.282 0.398 0.906 0 1.664-0.132 2.277-0.398 0.641-0.266 0.961-0.602 0.961-1z" inkscape:connector-curvature="0"/>
    </clipPath>
    <clipPath id="clipPath320">
      <path id="path322" d="m10.265-10.728h8.75v11.489h-8.75v-11.489z" inkscape:connector-curvature="0"/>
    </clipPath>
    <radialGradient id="radialGradient324" gradientUnits="userSpaceOnUse" cy="-3.9497" cx="14.35" r="4.0502">
      <stop id="stop326" style="stop-color:#ffffff;stop-opacity:.37650" offset="0"/>
      <stop id="stop328" style="stop-color:#ffffff;stop-opacity:0" offset=".86670"/>
      <stop id="stop332" style="stop-color:#ffffff;stop-opacity:0" offset="1"/>
    </radialGradient>
    <mask id="mask334">
      <g id="g336">
        <g id="g338" clip-path="url(#clipPath320)">
          <path id="path340" style="fill:url(#radialGradient324)" d="m10.265-10.728h8.75v11.489h-8.75v-11.489z" inkscape:connector-curvature="0"/>
        </g>
      </g>
    </mask>
    <radialGradient id="radialGradient344" gradientUnits="userSpaceOnUse" cy="-3.9497" cx="14.35" r="4.0502">
      <stop id="stop346" style="stop-color:#000000" offset="0"/>
      <stop id="stop348" style="stop-color:#000000" offset=".86670"/>
      <stop id="stop350" style="stop-color:#000000" offset="1"/>
    </radialGradient>
    <linearGradient id="linearGradient364" y2="-1.9478" gradientUnits="userSpaceOnUse" x2="16.288" gradientTransform="matrix(.8 0 0 .8 4.7877 19.323)" y1="-1.9478" x1="11.513">
      <stop id="stop366" style="stop-color:#808080" offset="0"/>
      <stop id="stop368" style="stop-color:#363636" offset="1"/>
    </linearGradient>
    <linearGradient id="linearGradient382" y2="-2.3726" gradientUnits="userSpaceOnUse" x2="15.213" gradientTransform="matrix(.8 0 0 .8 4.7877 19.323)" y1="-2.3726" x1="11.788">
      <stop id="stop384" style="stop-color:#d6d6d6" offset="0"/>
      <stop id="stop386" style="stop-color:#616161" offset="1"/>
    </linearGradient>
    <radialGradient id="radialGradient400" gradientUnits="userSpaceOnUse" cy="-10875" cx="-3060.8" gradientTransform="matrix(.41736 -.68248 -.68248 -.41736 -6129.9 -6607.4)" r="2.0366">
      <stop id="stop402" style="stop-color:#ffffff" offset="0"/>
      <stop id="stop404" style="stop-color:#c9c9c9" offset=".21960"/>
      <stop id="stop406" style="stop-color:#c5c5c5" offset=".3804"/>
      <stop id="stop408" style="stop-color:#bababa" offset=".52940"/>
      <stop id="stop410" style="stop-color:#a6a6a6" offset=".67840"/>
      <stop id="stop412" style="stop-color:#8b8b8b" offset=".82750"/>
      <stop id="stop414" style="stop-color:#686868" offset=".97250"/>
      <stop id="stop416" style="stop-color:#616161" offset="1"/>
    </radialGradient>
  </defs>
  <g id="g10" transform="matrix(1.25 0 0 -1.25 0 26.904)">
    <g id="g12">
      <g id="g14">
        <g id="g16">
          <g id="g22">
            <path id="path32" style="fill-rule:evenodd;fill:url(#linearGradient24)" d="m3.348 8.242c0.054 0.481-0.067 0.789-0.36 0.922l-0.359 0.039c-0.188 0-0.348-0.027-0.481-0.078-0.425-0.137-0.668-0.43-0.718-0.883-0.028-0.398 0.078-0.68 0.316-0.84 0.348-0.183 0.695-0.183 1.043 0 0.32 0.188 0.508 0.469 0.559 0.84zm-2.762 3.723c0.082 0.636 0.402 0.972 0.961 1 1.094 0.023 1.867-0.508 2.32-1.602 0.403-0.988 0.43-1.64 0.082-1.961 0.348-0.426 0.321-1.066-0.082-1.918-0.453-0.933-1.226-1.226-2.32-0.883-0.559 0.188-0.879 0.618-0.961 1.282-0.106 0.695 0.094 1.226 0.602 1.601l0.359 0.278-0.359 0.363c-0.508 0.559-0.708 1.172-0.602 1.84zm2.762-1.203c-0.051 0.402-0.239 0.734-0.559 1-0.348 0.32-0.695 0.429-1.043 0.32-0.238-0.106-0.344-0.371-0.316-0.797 0.05-0.453 0.293-0.816 0.718-1.082l0.481-0.238 0.359-0.043c0.293 0.027 0.414 0.308 0.36 0.84z" inkscape:connector-curvature="0"/>
          </g>
        </g>
      </g>
      <g id="g34">
        <g id="g36">
          <g id="g42">
            <path id="path50" style="fill-rule:evenodd;fill:url(#linearGradient44)" d="m1.789 8.965c-0.453-0.11-0.695-0.387-0.723-0.84-0.023-0.43 0.082-0.723 0.321-0.883 0.32-0.211 0.656-0.211 1 0 0.32 0.188 0.508 0.469 0.562 0.84 0.078 0.48-0.027 0.773-0.32 0.883l-0.359 0.078-0.481-0.078zm-1.601 2.84c0.109 0.636 0.441 0.972 1 1 1.093 0.027 1.867-0.508 2.32-1.602 0.398-0.988 0.414-1.641 0.039-1.961 0.375-0.398 0.359-1.039-0.039-1.918-0.453-0.961-1.227-1.269-2.32-0.922-0.559 0.215-0.895 0.657-1 1.321-0.106 0.695 0.093 1.226 0.601 1.601l0.399 0.277-0.399 0.364c-0.508 0.558-0.707 1.172-0.601 1.84zm1.199 0.117c-0.239-0.106-0.344-0.371-0.321-0.801 0.028-0.48 0.27-0.84 0.723-1.078l0.481-0.242 0.359-0.039c0.293 0.027 0.398 0.308 0.32 0.839-0.054 0.403-0.242 0.735-0.562 1-0.344 0.321-0.68 0.43-1 0.321z" inkscape:connector-curvature="0"/>
          </g>
        </g>
      </g>
      <g id="g52">
        <g id="g54">
          <g id="g60">
            <path id="path68" style="fill-rule:evenodd;fill:url(#linearGradient62)" d="m1.629 8.883c-0.453-0.106-0.695-0.387-0.723-0.84-0.023-0.426 0.082-0.719 0.321-0.879 0.32-0.215 0.656-0.215 1 0 0.32 0.187 0.507 0.465 0.562 0.84 0.106 0.508 0 0.801-0.32 0.879l-0.36 0.082-0.48-0.082zm-1.602 2.84c0.106 0.64 0.442 0.972 1 1 1.094 0.027 1.868-0.504 2.321-1.598 0.398-0.988 0.414-1.641 0.039-1.961 0.375-0.402 0.359-1.039-0.039-1.922-0.453-0.957-1.227-1.266-2.321-0.918-0.558 0.211-0.894 0.652-1 1.32-0.105 0.692 0.094 1.227 0.602 1.598l0.398 0.281-0.398 0.36c-0.508 0.562-0.707 1.176-0.602 1.84zm2.762-1.2c-0.055 0.399-0.242 0.735-0.562 1-0.344 0.321-0.68 0.426-1 0.321-0.239-0.106-0.344-0.375-0.321-0.801 0.028-0.481 0.27-0.84 0.723-1.078l0.48-0.242 0.36-0.039c0.293 0.027 0.398 0.304 0.32 0.839z" inkscape:connector-curvature="0"/>
          </g>
        </g>
      </g>
      <g id="g70">
        <g id="g72">
          <g id="g78">
            <path id="path88" style="fill-rule:evenodd;fill:url(#linearGradient80)" d="m8.148 7.922-4.32 0.64c-0.242-0.027-0.359 0.11-0.359 0.403 0 0.183 0.066 0.32 0.199 0.398 0.055 0.055 0.105 0.078 0.16 0.078l4.32-0.636v-0.883z" inkscape:connector-curvature="0"/>
          </g>
        </g>
      </g>
      <g id="g90">
        <g id="g92">
          <g id="g98">
            <path id="path112" style="fill-rule:evenodd;fill:url(#linearGradient100)" d="m22.867 17.562c0.879 0 1.547-0.171 2-0.519 0.293-0.238 0.52-0.613 0.68-1.121 0.133-0.426 0.199-3.504 0.199-9.238v-1.161c-0.027-0.398-0.144-0.761-0.359-1.078-0.239-0.347-0.973-0.949-2.199-1.801-1.067-0.773-1.84-1.281-2.321-1.519-1.359-0.75-2.375-1.121-3.039-1.121-1.945 0.238-3.426 0.359-4.441 0.359-0.641 0.028-1.801 0.16-3.481 0.399-1.703 0.242-2.718 0.386-3.039 0.441-0.558 0.082-0.933 0.32-1.121 0.719-0.293 0.535-0.453 1.613-0.476 3.242-0.11 2.586-0.161 4.48-0.161 5.68 0.024 2.132 0.332 3.398 0.918 3.8 0.696 0.504 1.922 1.227 3.68 2.161 2.027 1.117 3.32 1.691 3.879 1.718 0.75 0.028 2.297-0.121 4.641-0.441 2.507-0.344 4.054-0.52 4.64-0.52z" inkscape:connector-curvature="0"/>
          </g>
        </g>
      </g>
      <g id="g114">
        <g id="g116">
          <g id="g122">
            <path id="path130" style="fill-rule:evenodd;fill:url(#linearGradient124)" d="m10.906 15.164c0.934 0.32 1.961 0.437 3.082 0.359l-0.32-0.601-2.762 0.242z" inkscape:connector-curvature="0"/>
          </g>
        </g>
      </g>
      <g id="g132">
        <g id="g134">
          <g id="g140">
            <path id="path154" style="fill-rule:evenodd;fill:url(#linearGradient142)" d="m25.547 15.922c0.082-0.211 0.121-0.906 0.121-2.078 0.051-1.707 0.078-4.094 0.078-7.16v-1.161c-0.027-0.398-0.144-0.761-0.359-1.078-0.239-0.347-0.973-0.949-2.199-1.801-1.067-0.773-1.84-1.281-2.321-1.519-0.215-0.137-0.719-0.348-1.519-0.641-0.801-0.293-1.305-0.453-1.52-0.48 0.238 0.48 0.36 1.051 0.36 1.719l-0.079 11.199 0.079 0.121c0.132 0.16 0.855 0.558 2.16 1.199 1.492 0.723 2.441 1.215 2.84 1.481 1.121 0.722 1.718 1.121 1.8 1.199 0.239-0.238 0.426-0.571 0.559-1z" inkscape:connector-curvature="0"/>
          </g>
        </g>
      </g>
      <path id="path156" style="fill-rule:evenodd;fill:#b3b3b3" d="m23.789 15.965c-0.402-0.242-1.441-0.774-3.121-1.602-1.52-0.719-2.348-1.16-2.48-1.32-0.696 0.055-3.012 0.293-6.961 0.719-3.012 0.32-4.879 0.457-5.598 0.402 0.133 0.215 0.266 0.371 0.398 0.48 0.696 0.504 1.922 1.227 3.68 2.161 2.027 1.117 3.32 1.691 3.879 1.718 1.844 0.078 4.934-0.238 9.281-0.961 1.149-0.16 1.852-0.371 2.121-0.64-0.265-0.293-0.668-0.61-1.199-0.957z" inkscape:connector-curvature="0"/>
      <g id="g158">
        <g id="g160">
          <g id="g166">
            <path id="path174" style="fill-rule:evenodd;fill:url(#linearGradient168)" d="m22.227 12.082c1.226 0.613 1.961 0.961 2.203 1.043 0.343 0.133 0.636 0.184 0.879 0.16 0.238-0.055 0.359-0.707 0.359-1.961 0.027-0.668 0.012-1.496-0.039-2.48 0-0.879-0.68-1.746-2.043-2.602-2.184-1.387-3.652-1.984-4.398-1.797-0.481 0.133-0.747 0.934-0.801 2.399-0.024 1.226 0.043 2.105 0.199 2.64 0.187 0.614 1.402 1.481 3.641 2.598z" inkscape:connector-curvature="0"/>
          </g>
        </g>
      </g>
      <path id="path176" style="fill-rule:evenodd;fill:#1f1f1f" d="m20.508 7.125c0-0.402-0.078-0.734-0.238-1-0.188-0.27-0.403-0.402-0.641-0.402-0.242 0-0.441 0.132-0.602 0.402-0.187 0.266-0.281 0.598-0.281 1 0 0.371 0.094 0.691 0.281 0.957 0.161 0.269 0.36 0.402 0.602 0.402 0.238 0 0.453-0.133 0.641-0.402 0.16-0.266 0.238-0.586 0.238-0.957z" inkscape:connector-curvature="0"/>
      <g id="g178">
        <g id="g180">
          <g id="g186">
            <path id="path196" style="fill-rule:evenodd;fill:url(#linearGradient188)" d="m20.188 7.082c0-0.266-0.079-0.504-0.239-0.719-0.137-0.187-0.308-0.281-0.519-0.281-0.188 0-0.364 0.094-0.524 0.281-0.133 0.188-0.199 0.426-0.199 0.719 0 0.297 0.066 0.547 0.199 0.762 0.137 0.187 0.309 0.281 0.524 0.281 0.211 0 0.382-0.094 0.519-0.281 0.16-0.215 0.239-0.465 0.239-0.762z" inkscape:connector-curvature="0"/>
          </g>
        </g>
      </g>
      <path id="path198" style="fill-rule:evenodd;fill:#1f1f1f" d="m25.668 10.203c0-0.371-0.055-0.68-0.16-0.918-0.106-0.266-0.238-0.402-0.399-0.402-0.16 0-0.297 0.136-0.402 0.402-0.133 0.266-0.199 0.574-0.199 0.918 0 0.348 0.066 0.652 0.199 0.922 0.105 0.238 0.242 0.359 0.402 0.359 0.371 0 0.559-0.425 0.559-1.281z" inkscape:connector-curvature="0"/>
      <g id="g200">
        <g id="g202">
          <g id="g208">
            <path id="path218" style="fill-rule:evenodd;fill:url(#linearGradient210)" d="m25.469 10.203c0-0.266-0.055-0.492-0.16-0.68-0.082-0.187-0.188-0.277-0.321-0.277-0.32 0-0.48 0.316-0.48 0.957s0.16 0.961 0.48 0.961c0.133 0 0.239-0.094 0.321-0.281 0.105-0.188 0.16-0.414 0.16-0.68z" inkscape:connector-curvature="0"/>
          </g>
        </g>
      </g>
      <path id="path220" style="fill-rule:evenodd;fill:#dedede" d="m24.988 16.922c-0.054-0.321-1.148-1.067-3.281-2.238-2.16-1.2-3.266-1.934-3.32-2.2-0.078-0.293-0.078-3.613 0-9.961-0.051-1.359-0.239-2.199-0.559-2.519l0.121 0.48c0.078 0.211 0.106 1.813 0.078 4.801-0.027 2.879-0.066 4.774-0.121 5.68-0.051 0.933-0.094 1.437-0.117 1.519-0.055 0.16-0.203 0.266-0.441 0.321-0.293 0.078-2.575 0.332-6.84 0.757-0.641 0.055-1.641 0.2-3 0.442l-1.84 0.359 6.078-0.64c1.094-0.133 2.387-0.254 3.883-0.36 1.437-0.105 2.277-0.133 2.519-0.078 0.239 0.027 1.282 0.52 3.122 1.477 1.144 0.617 2.382 1.336 3.718 2.16z" inkscape:connector-curvature="0"/>
      <g id="g222">
        <g id="g224" clip-path="url(#clipPath226)">
          <g id="g230" transform="matrix(.8 0 0 -.806 4.7877 -9.9054)">
            <g id="g256" mask="url(#mask248)">
              <path id="path266" style="fill-rule:evenodd;fill:url(#radialGradient258)" d="m14.387 4.762c0-0.746-0.266-1.371-0.801-1.879-0.504-0.532-1.133-0.801-1.879-0.801-0.719 0-1.332 0.269-1.84 0.801-0.531 0.508-0.801 1.133-0.801 1.879 0 0.75 0.27 1.375 0.801 1.882 0.508 0.532 1.121 0.801 1.84 0.801 0.746 0 1.375-0.269 1.879-0.801 0.535-0.507 0.801-1.132 0.801-1.882z" inkscape:connector-curvature="0"/>
            </g>
          </g>
        </g>
      </g>
      <g id="g268">
        <g id="g270">
          <g id="g276">
            <path id="path284" style="fill-rule:evenodd;fill:url(#linearGradient278)" d="m12.309 6.043c0.371-0.692 0.398-1.227 0.078-1.598-0.641-0.242-1.078-0.441-1.321-0.601-0.16-0.106-0.023-0.481 0.403-1.121 0.183-0.321 0.398-0.625 0.64-0.918l-0.043-0.204c-0.132-0.691-0.531-1.171-1.199-1.437-0.426-0.188-0.851-0.215-1.281-0.082-0.344 0.082-0.531 0.187-0.559 0.32-0.64 1.387-1.027 2.414-1.16 3.082-0.16 0.852 0.121 1.559 0.84 2.117 0.961 0.668 1.668 1 2.121 1 0.426 0 0.719-0.011 0.879-0.039 0.266-0.078 0.469-0.25 0.602-0.519z" inkscape:connector-curvature="0"/>
          </g>
        </g>
      </g>
      <path id="path286" style="fill-rule:evenodd;fill:#404040" d="m12.148 6.324 0.161-0.281c0.371-0.692 0.398-1.227 0.078-1.598-0.641-0.242-1.078-0.441-1.321-0.601-0.16-0.106-0.023-0.481 0.403-1.121 0.183-0.321 0.398-0.625 0.64-0.918l-0.043-0.204c-0.132-0.613-0.464-1.066-1-1.359-0.16 0.27-0.254 0.481-0.277 0.641l-0.082 1.121c0 0.293-0.051 0.707-0.16 1.238l-0.117 0.359c-0.188 0.27-0.309 0.481-0.364 0.641 0.188 0.082 0.469 0.149 0.84 0.203 0.375 0.156 0.641 0.305 0.801 0.438 0.348 0.16 0.535 0.359 0.563 0.601 0.05 0.133 0.05 0.278 0 0.438-0.082 0.16-0.122 0.297-0.122 0.402z" inkscape:connector-curvature="0"/>
      <path id="path288" style="fill-rule:evenodd;fill:#dedede" d="m12.109 1.805-0.043-0.2c-0.132-0.695-0.531-1.175-1.199-1.441-0.426-0.188-0.851-0.215-1.281-0.078-0.344 0.078-0.531 0.183-0.559 0.316-0.64 1.387-1.027 2.414-1.16 3.082-0.16 0.852 0.121 1.559 0.84 2.121 0.746 0.532 1.359 0.852 1.84 0.957l0.883 0.043c-1.336-0.242-2.215-0.656-2.641-1.242-0.055-0.051-0.203-0.199-0.441-0.441-0.188-0.399-0.133-1.039 0.16-1.918 0.375-1.094 0.734-1.641 1.078-1.641l0.684 0.52c0.558 0.293 1.171 0.269 1.839-0.078z" inkscape:connector-curvature="0"/>
      <g id="g290">
        <g id="g292">
          <g id="g298">
            <path id="path306" style="fill-rule:evenodd;fill:url(#linearGradient300)" d="m10.586 1.762c0.828 0.32 1.336 0.336 1.523 0.043l-0.043-0.204c-0.132-0.691-0.531-1.171-1.199-1.437-0.426-0.188-0.851-0.215-1.281-0.082-0.344 0.082-0.531 0.187-0.559 0.32 0.321 0.614 0.84 1.067 1.559 1.36z" inkscape:connector-curvature="0"/>
          </g>
        </g>
      </g>
      <g id="g308">
        <g id="g310" clip-path="url(#clipPath312)">
          <g id="g316" transform="matrix(.8 0 0 -.34816 4.7877 14.788)">
            <g id="g342" mask="url(#mask334)">
              <path id="path352" style="fill-rule:evenodd;fill:url(#radialGradient344)" d="m19.508 16.164c0-0.375-0.32-0.707-0.961-1-0.613-0.266-1.371-0.402-2.277-0.402-0.907 0-1.668 0.136-2.282 0.402-0.64 0.293-0.961 0.625-0.961 1 0 0.398 0.321 0.734 0.961 1 0.614 0.266 1.375 0.398 2.282 0.398 0.906 0 1.664-0.132 2.277-0.398 0.641-0.266 0.961-0.602 0.961-1z" inkscape:connector-curvature="0"/>
            </g>
          </g>
        </g>
      </g>
      <g id="g354">
        <g id="g356">
          <g id="g362">
            <path id="path370" style="fill-rule:evenodd;fill:url(#linearGradient364)" d="m15.188 19.445 0.32 0.52 0.48-1.602c0.106-0.371 0.442-0.746 1-1.121 0.559-0.398 0.84-0.613 0.84-0.641 0.027-0.183-0.105-0.359-0.398-0.519-0.348-0.238-0.868-0.398-1.563-0.481-1.066-0.132-1.691 0.094-1.879 0.684-0.027 0.051 0.039 0.145 0.2 0.277 0.214 0.243 0.374 0.43 0.48 0.563 0.266 0.398 0.441 0.797 0.52 1.199 0.027 0.051-0.012 0.172-0.122 0.36 0 0.507 0.043 0.761 0.122 0.761z" inkscape:connector-curvature="0"/>
          </g>
        </g>
      </g>
      <g id="g372">
        <g id="g374">
          <g id="g380">
            <path id="path388" style="fill-rule:evenodd;fill:url(#linearGradient382)" d="m16.746 17.402c-0.691-0.613-1.41-0.718-2.16-0.316l0.082 0.039 0.32 0.641c0.453-0.11 0.84-0.028 1.16 0.238 0.161-0.242 0.36-0.442 0.598-0.602z" inkscape:connector-curvature="0"/>
          </g>
        </g>
      </g>
      <g id="g390">
        <g id="g392">
          <g id="g398">
            <path id="path418" style="fill-rule:evenodd;fill:url(#radialGradient400)" d="m16.746 20.043c0-0.399-0.144-0.746-0.437-1.039-0.293-0.266-0.641-0.403-1.039-0.403-0.403 0-0.735 0.137-1 0.403-0.297 0.293-0.442 0.64-0.442 1.039 0 0.426 0.149 0.773 0.442 1.039 0.265 0.297 0.597 0.441 1 0.441 0.398 0 0.746-0.148 1.039-0.441 0.293-0.266 0.437-0.613 0.437-1.039z" inkscape:connector-curvature="0"/>
          </g>
        </g>
      </g>
    </g>
  </g>
<metadata><rdf:RDF><cc:Work><dc:format>image/svg+xml</dc:format><dc:type rdf:resource="http://purl.org/dc/dcmitype/StillImage"/><cc:license rdf:resource="http://creativecommons.org/licenses/publicdomain/"/><dc:publisher><cc:Agent rdf:about="http://openclipart.org/"><dc:title>Openclipart</dc:title></cc:Agent></dc:publisher></cc:Work><cc:License rdf:about="http://creativecommons.org/licenses/publicdomain/"><cc:permits rdf:resource="http://creativecommons.org/ns#Reproduction"/><cc:permits rdf:resource="http://creativecommons.org/ns#Distribution"/><cc:permits rdf:resource="http://creativecommons.org/ns#DerivativeWorks"/></cc:License></rdf:RDF></metadata></svg>
